<?xml version="1.0" encoding="UTF-8"?>
<svg width="38px" height="49px" viewBox="0 0 38 49" version="1.1" xmlns="http://www.w3.org/2000/svg" xmlns:xlink="http://www.w3.org/1999/xlink">
    <!-- Generator: Sketch 55.2 (78181) - https://sketchapp.com -->
    <title>Location Copy 5</title>
    <desc>Created with Sketch.</desc>
    <defs>
        <filter x="-23.4%" y="-17.9%" width="146.9%" height="138.1%" filterUnits="objectBoundingBox" id="filter-1">
            <feOffset dx="0" dy="1" in="SourceAlpha" result="shadowOffsetOuter1"></feOffset>
            <feGaussianBlur stdDeviation="1" in="shadowOffsetOuter1" result="shadowBlurOuter1"></feGaussianBlur>
            <feColorMatrix values="0 0 0 0 0   0 0 0 0 0   0 0 0 0 0  0 0 0 0.5 0" type="matrix" in="shadowBlurOuter1" result="shadowMatrixOuter1"></feColorMatrix>
            <feMerge>
                <feMergeNode in="shadowMatrixOuter1"></feMergeNode>
                <feMergeNode in="SourceGraphic"></feMergeNode>
            </feMerge>
        </filter>
    </defs>
    <g id="Page-1" stroke="none" stroke-width="1" fill="none" fill-rule="evenodd">
        <g id="Butlers-||-Flow-Copy-2" transform="translate(-2071.000000, -10667.000000)">
            <g id="Order-||-cleaning-service-||-private-users" transform="translate(270.000000, 9155.000000)">
                <g id="Group" transform="translate(1658.000000, 1213.000000)">
                    <g id="Group-91" transform="translate(0.000000, 154.000000)">
                        <g id="Location-Copy-5" filter="url(#filter-1)" transform="translate(146.000000, 147.000000)">
                            <path d="M16,42 C26.6666667,30.2989899 32,21.5489899 32,15.75 C32,7.05151519 24.836556,0 16,0 C7.163444,0 0,7.05151519 0,15.75 C0,21.5489899 5.33333333,30.2989899 16,42 Z" id="Oval-2" stroke="#30B744" stroke-width="2" fill="#30B744"></path>
                            <circle id="Oval-2-Copy" fill="#FFFFFF" cx="16" cy="16" r="11"></circle>
                            <path d="M20.8728948,16.9838119 C20.6062931,17.1608448 18.0066507,15.8323301 18,15.6077131 C17.9931547,15.3833519 20.6397013,13.9143876 20.7828476,14.0039274 C20.9259938,14.0932113 21.1394964,16.8067789 20.8728948,16.9838119 Z M11.1648036,16.9981275 C11.0205927,16.9372587 10.9277569,14.1152069 11.0730945,14.0065676 C11.2182067,13.8979284 13.9377089,15.1700091 13.9989985,15.3875444 C14.0600628,15.6050797 11.3087892,17.0592531 11.1648036,16.9981275 Z M22.3589295,11.0285087 C21.7583725,10.6355628 15.9317842,14.4345994 15.9317842,14.4345994 C15.9317842,14.4345994 9.73518158,11.0274586 9.29701202,11.5134429 C8.85904002,11.9994272 8.86872005,19.4181441 9.57417699,19.9505426 C10.2796339,20.4827312 16.0009272,16.5444519 16.0009272,16.5444519 C16.0009272,16.5444519 21.9685674,19.8270514 22.6358969,19.4656084 C23.3032264,19.1041654 22.9590914,11.4216645 22.3589295,11.0285087 L22.3589295,11.0285087 Z" id="Fill-12" fill="#30B744"></path>
                        </g>
                    </g>
                </g>
            </g>
        </g>
    </g>
</svg>