<?xml version="1.0" encoding="UTF-8"?>
<svg width="25px" height="25px" viewBox="0 0 25 25" version="1.1" xmlns="http://www.w3.org/2000/svg" xmlns:xlink="http://www.w3.org/1999/xlink">
    <!-- Generator: Sketch 55.2 (78181) - https://sketchapp.com -->
    <title>Union8888</title>
    <desc>Created with Sketch.</desc>
    <g id="Page-1" stroke="none" stroke-width="1" fill="none" fill-rule="evenodd">
        <g id="Butlers-||-Flow-Copy-2" transform="translate(-2546.000000, -17873.000000)">
            <g id="Order-||-Office-users" transform="translate(248.000000, 17125.000000)">
                <g id="Group-5" transform="translate(1983.000000, 0.000000)">
                    <g id="iPhone-X/Bars/Tab-Bar/4-Items" transform="translate(0.000000, 730.000000)">
                        <g id="Group-10" transform="translate(38.000000, 17.000000)">
                            <g id="Union8888" transform="translate(277.000000, 1.000000)" fill="#1E272E">
                                <path d="M15.6087935,12.8896217 C21.0083333,14.2716258 25,19.169683 25,25 L23.7218814,25 C23.7218814,18.8023006 18.6976994,13.7781186 12.5,13.7781186 C6.30230061,13.7781186 1.27811861,18.8023006 1.27811861,25 L0,25 C0,19.181953 3.97485685,14.2922802 9.35710634,12.8984151 C7.1553681,11.766002 5.64928425,9.47147239 5.64928425,6.82515337 C5.64928425,3.05572597 8.70501022,0 12.4744376,0 C16.243865,0 19.299591,3.05572597 19.299591,6.82515337 C19.299591,9.46462168 17.8012781,11.7541922 15.6087935,12.8896217 Z M18.0214724,6.82515337 C18.0214724,3.76161043 15.5379857,1.27811861 12.4744376,1.27811861 C9.41088957,1.27811861 6.92740286,3.76161043 6.92740286,6.82515337 C6.92740286,9.88870143 9.41088957,12.3721881 12.4744376,12.3721881 C15.5379857,12.3721881 18.0214724,9.88870143 18.0214724,6.82515337 Z" id="Shape"></path>
                            </g>
                        </g>
                    </g>
                </g>
            </g>
        </g>
    </g>
</svg>