<?xml version="1.0" encoding="UTF-8"?>
<svg width="29px" height="25px" viewBox="0 0 29 25" version="1.1" xmlns="http://www.w3.org/2000/svg" xmlns:xlink="http://www.w3.org/1999/xlink">
    <!-- Generator: Sketch 55.2 (78181) - https://sketchapp.com -->
    <title>Heart</title>
    <desc>Created with Sketch.</desc>
    <defs>
        <path d="M25.0735341,14.4423229 L25.0849268,14.4536269 L14.4558314,25 L2.20135537,12.8409189 C-0.733787999,9.92859008 -0.733782246,5.20682889 2.20135537,2.29452866 C5.13649873,-0.617771577 9.89530163,-0.617771577 12.8304738,2.29452866 L14.4444387,3.89592698 L16.1695687,2.18422304 C19.1046833,-0.7280772 23.8634919,-0.728071491 26.7986641,2.18422304 C29.7337786,5.09652327 29.7337786,9.81829017 26.7986641,12.730619 L25.0735341,14.4423229 Z" id="path-1"></path>
    </defs>
    <g id="Page-1" stroke="none" stroke-width="1" fill="none" fill-rule="evenodd">
        <g id="Butlers-||-Flow-Copy-2" transform="translate(-2360.000000, -17872.000000)">
            <g id="Order-||-Office-users" transform="translate(248.000000, 17125.000000)">
                <g id="Group-5" transform="translate(1983.000000, 0.000000)">
                    <g id="iPhone-X/Bars/Tab-Bar/4-Items" transform="translate(0.000000, 730.000000)">
                        <g id="Group-10" transform="translate(38.000000, 17.000000)">
                            <g id="Heart" transform="translate(91.000000, 0.000000)">
                                <g id="Union">
                                    <mask id="mask-2" fill="white">
                                        <use xlink:href="#path-1"></use>
                                    </mask>
                                    <g id="Path"></g>
                                    <path fill="#1E272E" d="M25.1197522,14.4744232 L24.1021083,13.4652779 L23.0845218,14.4743662 L24.1020507,15.4835115 L25.1197522,14.4744232 Z M25.1311502,14.485726 L26.1487942,15.4948714 L27.1663806,14.4857831 L26.1487942,13.4766378 L25.1311502,14.485726 Z M14.4971218,25.0309467 L13.4794778,26.0400921 L14.4971218,27.0491803 L15.5147082,26.0400921 L14.4971218,25.0309467 Z M2.23695836,12.8731942 L3.25458507,11.8640488 L3.25458507,11.8640488 L2.23695836,12.8731942 Z M2.23695836,2.32795639 L3.25458507,3.33708461 L2.23695836,2.32795639 Z M12.8710098,2.32795639 L11.8533658,3.33708461 L11.8533658,3.33708461 L12.8710098,2.32795639 Z M14.4857238,3.92917972 L13.4680798,4.93830795 L14.4857238,5.94743617 L15.5033102,4.93830795 L14.4857238,3.92917972 Z M16.2116544,2.21766282 L17.2292408,3.22679104 L17.2292408,3.22679104 L16.2116544,2.21766282 Z M26.8456829,2.21766282 L25.8280389,3.22679104 L25.8280389,3.22679104 L26.8456829,2.21766282 Z M26.8456829,12.7629063 L25.8280389,11.753761 L25.8280389,11.753761 L26.8456829,12.7629063 Z M24.1020507,15.4835115 L24.1134487,15.4948143 L26.1487942,13.4766378 L26.1373962,13.465335 L24.1020507,15.4835115 Z M24.1135062,13.4765807 L13.4794778,24.0218014 L15.5147082,26.0400921 L26.1487942,15.4948714 L24.1135062,13.4765807 Z M15.5147082,24.0218014 L3.25458507,11.8640488 L1.21933165,13.8822825 L13.4794778,26.0400921 L15.5147082,24.0218014 Z M3.25458507,11.8640488 C0.880097806,9.50941442 0.880097806,5.69174187 3.25458507,3.33708461 L1.21933741,1.31883387 C-2.27918651,4.78813493 -2.27919226,10.4130099 1.21933165,13.8822825 L3.25458507,11.8640488 Z M3.25458507,3.33708461 C5.62907234,0.982427353 9.4789016,0.982427353 11.8533658,3.33708461 L13.8885962,1.31882816 C10.3901069,-2.1504786 4.71786133,-2.15047289 1.21933741,1.31883387 L3.25458507,3.33708461 Z M11.8533658,3.33708461 L13.4680798,4.93830795 L15.5033102,2.9200515 L13.8885962,1.31882816 L11.8533658,3.33708461 Z M15.5033102,4.93830795 L17.2292408,3.22679104 L15.1940105,1.20853459 L13.4680798,2.92005721 L15.5033102,4.93830795 Z M17.2292408,3.22679104 C19.6037627,0.872133783 23.4535746,0.872133783 25.8280389,3.22679104 L27.8632693,1.2085403 C24.3647799,-2.26076646 18.6925574,-2.26077217 15.1940105,1.20853459 L17.2292408,3.22679104 Z M25.8280389,3.22679104 C28.2025031,5.5814483 28.2025031,9.39912656 25.8280389,11.753761 L27.8632693,13.7719946 C31.3618162,10.3027221 31.3618162,4.67784706 27.8632693,1.2085403 L25.8280389,3.22679104 Z M25.8280389,11.753761 L24.1021083,13.4652779 L26.1373386,15.4835115 L27.8632693,13.7719946 L25.8280389,11.753761 Z" id="Shape" fill="#1E272E" fill-rule="nonzero" mask="url(#mask-2)"></path>
                                </g>
                            </g>
                        </g>
                    </g>
                </g>
            </g>
        </g>
    </g>
</svg>