<?xml version="1.0" encoding="UTF-8"?>
<svg width="26px" height="25px" viewBox="0 0 26 25" version="1.1" xmlns="http://www.w3.org/2000/svg" xmlns:xlink="http://www.w3.org/1999/xlink">
    <!-- Generator: Sketch 55.2 (78181) - https://sketchapp.com -->
    <title>12345</title>
    <desc>Created with Sketch.</desc>
    <g id="Page-1" stroke="none" stroke-width="1" fill="none" fill-rule="evenodd">
        <g id="Butlers-||-Flow-Copy-2" transform="translate(-2454.000000, -17873.000000)">
            <g id="Order-||-Office-users" transform="translate(248.000000, 17125.000000)">
                <g id="Group-5" transform="translate(1983.000000, 0.000000)">
                    <g id="iPhone-X/Bars/Tab-Bar/4-Items" transform="translate(0.000000, 730.000000)">
                        <g id="Group-10" transform="translate(38.000000, 17.000000)">
                            <g id="12345" transform="translate(198.000000, 13.500000) scale(-1, 1) translate(-198.000000, -13.500000) translate(185.000000, 1.000000)">
                                <path fill="#1E272E" d="M24.9633841,0.925453385 L26,0 L26,1.38147062 L26,1.51486669 L26,23.4851183 L26,23.6185242 L26,25 L24.9633841,24.0745119 L12.9253009,13.327254 L1.03660671,23.941106 L0,24.8665941 L0,23.6185242 L0,1.51486669 L0,0.133398235 L1.03660671,1.05884946 L12.9253009,11.672726 L24.9633841,0.925453385 Z M13.8519185,12.49999 L24.7584844,22.2370483 L24.7584844,2.76293662 L13.8519185,12.49999 Z M11.9986336,12.49999 L1.24151638,2.89633761 L1.24151638,22.1036424 L11.9986336,12.49999 Z" id="Shape"></path>
                            </g>
                        </g>
                    </g>
                </g>
            </g>
        </g>
    </g>
</svg>