<?xml version="1.0" encoding="UTF-8"?>
<svg width="101px" height="101px" viewBox="0 0 101 101" version="1.1" xmlns="http://www.w3.org/2000/svg" xmlns:xlink="http://www.w3.org/1999/xlink">
    <!-- Generator: Sketch 55.2 (78181) - https://sketchapp.com -->
    <title>Group</title>
    <desc>Created with Sketch.</desc>
    <defs>
        <linearGradient x1="50%" y1="0%" x2="50%" y2="100%" id="linearGradient-1">
            <stop stop-color="#2EB642" offset="0%"></stop>
            <stop stop-color="#59D065" offset="100%"></stop>
        </linearGradient>
        <circle id="path-2" cx="47.5" cy="47.5" r="47.5"></circle>
        <filter x="-5.3%" y="-4.2%" width="110.5%" height="110.5%" filterUnits="objectBoundingBox" id="filter-3">
            <feOffset dx="0" dy="1" in="SourceAlpha" result="shadowOffsetOuter1"></feOffset>
            <feGaussianBlur stdDeviation="1.5" in="shadowOffsetOuter1" result="shadowBlurOuter1"></feGaussianBlur>
            <feColorMatrix values="0 0 0 0 0   0 0 0 0 0   0 0 0 0 0  0 0 0 0.3 0" type="matrix" in="shadowBlurOuter1"></feColorMatrix>
        </filter>
    </defs>
    <g id="Page-1" stroke="none" stroke-width="1" fill="none" fill-rule="evenodd">
        <g id="Butlers-||-Flow-Copy-2" transform="translate(-3487.000000, -979.000000)">
            <g id="Main-Screen" transform="translate(270.000000, 648.000000)">
                <g id="Group-50">
                    <g id="Registration-flow">
                        <g id="Group-7" transform="translate(3196.000000, 127.000000)">
                            <g id="Group-6">
                                <g id="Group-3" transform="translate(24.000000, 206.000000)">
                                    <g id="Group-2">
                                        <g id="Group">
                                            <g id="Oval">
                                                <use fill="black" fill-opacity="1" filter="url(#filter-3)" xlink:href="#path-2"></use>
                                                <use fill="url(#linearGradient-1)" fill-rule="evenodd" xlink:href="#path-2"></use>
                                            </g>
                                            <g id="170" transform="translate(26.000000, 25.000000)" fill="#FFFFFF" fill-rule="nonzero">
                                                <path d="M29.0713047,44 L29.0713047,44 C31.0941715,43.9980587 32.9990457,43.2113513 34.4363202,41.7825625 C39.5333035,36.6895905 35.7614291,32.7346992 33.9478411,30.8336919 C32.3231383,29.1331226 30.0293258,27.989218 28.9052412,27.9882473 C27.4669956,27.9882473 26.5133445,28.6215929 25.6718592,29.1797135 C24.9896393,29.6325192 24.4506614,29.9902017 23.7412499,29.9902017 C22.4345926,29.9902017 20.5268049,28.7172014 17.9086346,26.0988877 C12.9592633,21.152483 13.7837538,19.9110286 14.8272346,18.3395551 C15.3856351,17.4984916 16.0183273,16.5453186 16.0183273,15.107794 C16.0183273,13.9842729 14.8743344,11.6911252 13.1714555,10.0691781 C11.4996527,8.47537973 9.64042163,7 7.37719985,7 C5.641788,7 3.95396159,7.84397545 2.21563634,9.58142921 C0.787102018,11.0160419 0,12.9204465 0,14.9437551 C0,24.1755555 19.8343882,43.9990294 29.0713047,44 Z M3.31010145,10.6734043 C4.7425203,9.24170361 6.07297035,8.54575146 7.37719985,8.54575146 C9.1820476,8.54575146 10.7635351,9.90950707 12.1041821,11.187846 C13.7434519,12.7500984 14.4718005,14.6496498 14.4718005,15.1082793 C14.4718005,16.0794092 14.0391614,16.731197 13.5380576,17.4853879 C12.0357173,19.7499016 11.3904005,21.7712689 16.814655,27.1928041 C19.8193356,30.1959784 21.9553392,31.5349826 23.7412499,31.5349826 C24.9168045,31.5349826 25.7723713,30.9676408 26.5264548,30.4677589 C27.2815095,29.9664209 27.9331387,29.5344841 28.9037845,29.5344841 C29.3621586,29.5344841 31.2631483,30.2634382 32.8286122,31.9018862 C35.2229367,34.4114877 37.0637163,36.9710774 33.3433118,40.6886461 C32.1998046,41.8267268 30.6824117,42.4532779 29.0708191,42.4542485 C25.2508737,42.4542485 18.6107626,38.276109 12.1561376,31.8101603 C5.7112239,25.353918 1.54701236,18.7336368 1.54652679,14.9437551 C1.54701236,13.3319998 2.17339212,11.8148823 3.31010145,10.6734043 Z" id="Shape"></path>
                                                <path d="M16.278945,4.95734237 C22.657866,-0.04694645 31.9390974,0.461654662 37.7355345,6.25095824 C43.5521901,12.0594906 44.0480235,21.3465084 38.9987063,27.7208475 C38.735385,28.0520632 38.7676383,28.5342247 39.0872823,28.8125612 C39.4059636,29.0899363 39.8921692,29.0577281 40.1559718,28.7274739 C45.7314502,21.7469477 45.2038449,11.5436787 38.8205914,5.1688589 C32.4570749,-1.18528996 22.2602365,-1.72706071 15.2752433,3.79880865 C14.9435645,4.06128143 14.9089043,4.54632729 15.1861859,4.86600569 C15.4634675,5.18568408 15.9463033,5.21885372 16.278945,4.95734237 Z" id="Shape"></path>
                                                <path d="M33.4462047,22.8416955 C33.7969213,23.1046625 34.2983013,23.0359325 34.5327775,22.6658862 C35.4956267,21.1428692 36,19.3977249 36,17.5723956 C36,17.1774471 35.9755546,16.7795103 35.9276616,16.3915345 C35.3374799,11.6073289 31.2466181,8 26.4114191,8 C24.5944778,8 22.8563604,8.49854152 21.3372538,9.44880846 C20.9650851,9.68139477 20.8947423,10.1814304 21.1571561,10.532053 C21.4195699,10.8831737 21.9154622,10.9514056 22.291123,10.7252939 C23.5313526,9.97822868 24.9402055,9.58626846 26.4114191,9.58577042 C30.4459068,9.58577042 33.8587831,12.5949491 34.3501854,16.5857714 C34.3905951,16.9099977 34.4110494,17.2416947 34.4110494,17.5718975 C34.4110494,19.0500905 34.0144354,20.4650321 33.2571271,21.7081486 C33.0291363,22.0826773 33.095987,22.5782305 33.4462047,22.8416955 Z" id="Shape"></path>
                                            </g>
                                        </g>
                                    </g>
                                </g>
                            </g>
                        </g>
                    </g>
                </g>
            </g>
        </g>
    </g>
</svg>