<?xml version="1.0" encoding="UTF-8"?>
<svg width="22px" height="24px" viewBox="0 0 22 24" version="1.1" xmlns="http://www.w3.org/2000/svg" xmlns:xlink="http://www.w3.org/1999/xlink">
    <!-- Generator: Sketch 55.2 (78181) - https://sketchapp.com -->
    <title>73</title>
    <desc>Created with Sketch.</desc>
    <g id="Page-1" stroke="none" stroke-width="1" fill="none" fill-rule="evenodd">
        <g id="Butlers-||-Flow-Copy-2" transform="translate(-553.000000, -27400.000000)" fill="#1E272E" fill-rule="nonzero">
            <g id="My-account" transform="translate(235.000000, 26290.000000)">
                <g id="Group-11" transform="translate(0.000000, 1.000000)">
                    <g id="Group-6" transform="translate(20.000000, 65.000000)">
                        <g id="Group-3" transform="translate(0.000000, 224.000000)">
                            <g id="Group-7" transform="translate(0.000000, 296.000000)">
                                <g id="Group-8" transform="translate(0.000000, 274.000000)">
                                    <g id="Group-9" transform="translate(0.000000, 218.000000)">
                                        <g id="Row-Copy-5">
                                            <g id="73" transform="translate(298.000000, 32.000000)">
                                                <path d="M5.93573438,4.78980299 C6.14408741,4.67276819 6.21527242,4.41369572 6.0945317,4.21127873 C5.97461234,4.00886174 5.70766857,3.93997081 5.49931553,4.0570056 C3.83030092,4.99514585 2.43781268,6.34769565 1.47216069,7.96942547 C0.508972795,9.58636751 0,11.4341873 0,13.3133936 C0,19.2058294 4.93476367,24 11,24 C17.0652363,24 22,19.2058294 22,13.3133936 C22,11.4341873 21.4910272,9.58636751 20.5278393,7.96942547 C19.5624611,6.34796164 18.1699729,4.99514585 16.5006845,4.0570056 C16.292879,3.9402368 16.0259352,4.00886174 15.9054683,4.21127873 C15.7847276,4.41369572 15.8559126,4.67250221 16.0642656,4.78980299 C17.601588,5.65399852 18.8845608,6.90015306 19.7732782,8.3934106 C20.6598054,9.88161436 21.1282575,11.5828746 21.1282575,13.3133936 C21.1282575,18.7390201 16.5847375,23.1530937 11,23.1530937 C5.41526246,23.1530937 0.871742539,18.7392861 0.871742539,13.3133936 C0.871742539,11.5828746 1.34019464,9.88161436 2.22672176,8.3934106 C3.11571297,6.90015306 4.39868582,5.65346655 5.93573438,4.78980299 Z" id="Shape"></path>
                                                <path d="M11,0.433492172 L11,13.5665078 C11,13.805582 11.2239322,14 11.5,14 C11.7760678,14 12,13.805582 12,13.5665078 L12,0.433492172 C12,0.193873383 11.7760678,0 11.5,0 C11.2239322,0 11,0.193873383 11,0.433492172 Z" id="Shape"></path>
                                            </g>
                                        </g>
                                    </g>
                                </g>
                            </g>
                        </g>
                    </g>
                </g>
            </g>
        </g>
    </g>
</svg>