<?xml version="1.0" encoding="UTF-8"?>
<svg width="29px" height="25px" viewBox="0 0 29 25" version="1.1" xmlns="http://www.w3.org/2000/svg" xmlns:xlink="http://www.w3.org/1999/xlink">
    <!-- Generator: Sketch 55.2 (78181) - https://sketchapp.com -->
    <title>28</title>
    <desc>Created with Sketch.</desc>
    <g id="Page-1" stroke="none" stroke-width="1" fill="none" fill-rule="evenodd">
        <g id="Butlers-||-Flow-Copy-2" transform="translate(-4283.000000, -26872.000000)" fill="#1E272E" fill-rule="nonzero">
            <g id="My-account" transform="translate(235.000000, 26290.000000)">
                <g id="Group-2-Copy-19" transform="translate(3735.000000, 1.000000)">
                    <g id="Group-9" transform="translate(19.000000, 197.000000)">
                        <g id="Row-Copy-13" transform="translate(0.000000, 384.000000)">
                            <path d="M321.432067,1.36263263 C320.324589,0.741234448 318.516922,0 316.192733,0 C312.879967,0 309.719611,1.48448861 308.638556,2.04832499 C308.562189,2.08838261 308.438133,2.08838261 308.361767,2.04832499 C307.280711,1.48415199 304.120033,0 300.807267,0 C298.4834,0 296.675411,0.741234448 295.568256,1.36296925 C294.717911,1.84063123 294.452078,2.0702052 294.406967,2.11093607 C294.167556,2.33142134 294,2.7188695 294,3.05245866 L294,23.8336161 C294,24.5445549 294.381833,24.8626596 294.760444,24.8626596 C294.882567,24.8626596 295.063011,24.8279878 295.255378,24.67247 L296.052233,24.2254403 C297.055956,23.6616039 298.695744,22.9900496 300.806944,22.9900496 C303.122756,22.9900496 305.396356,23.7811036 306.896622,24.4445791 L307.746644,24.8205822 C307.958667,24.9367157 308.224822,25 308.500322,25 C308.7755,25 309.041333,24.9367157 309.253033,24.8205822 L310.101767,24.4452523 C311.602033,23.7814402 313.8766,22.9900496 316.192733,22.9900496 C318.304256,22.9900496 319.944044,23.6616039 320.947767,24.2254403 L321.744944,24.67247 C321.936989,24.8283244 322.117756,24.8626596 322.239878,24.8626596 C322.618489,24.8626596 323,24.5448915 323,23.8336161 L323,3.05245866 C323,2.7188695 322.832444,2.33209458 322.593356,2.11127269 C322.548889,2.0702052 322.282733,1.84029461 321.432067,1.36263263 Z M307.999677,23.8874436 C307.999677,23.9784079 307.935687,24.0232062 307.856184,23.9879831 L307.307421,23.7417639 C305.715103,23.0287541 303.293822,22.177588 300.79821,22.177588 C298.466774,22.177588 296.652753,22.9309504 295.541976,23.562913 L295.137029,23.7923756 C295.061728,23.835806 295,23.7971632 295,23.705857 L295,3.01660374 C295.002909,2.97898692 295.038135,2.89657187 295.053325,2.87810543 C295.055911,2.87605361 295.282461,2.68010415 296.031274,2.2543501 C297.037663,1.6822324 298.68169,1 300.798533,1 C303.81867,1 306.801641,2.3904546 307.860385,2.93931826 C307.937626,2.97932889 308,3.08636585 308,3.17767214 L308,23.8874436 L307.999677,23.8874436 Z M322,23.7060604 C322,23.7973661 321.938595,23.8360086 321.862324,23.7925786 L321.4577,23.5627754 C320.3466,22.9308166 318.532902,22.1774588 316.201144,22.1774588 C313.705531,22.1774588 311.282958,23.0286197 309.690317,23.7426511 L309.143493,23.9878429 C309.064313,24.0234077 309,23.9782678 309,23.887304 L309,3.17765886 C309,3.08601115 309.062374,2.97897484 309.139938,2.93930643 C310.198682,2.39078809 313.181653,1 316.201467,1 C318.318956,1 319.962983,1.68222824 320.969049,2.25434244 C321.703319,2.67154467 321.935687,2.86817687 321.936979,2.86886081 C321.961865,2.89690227 321.997415,2.97897484 322,3.01180387 L322,23.7060604 L322,23.7060604 Z" id="28"></path>
                        </g>
                    </g>
                </g>
            </g>
        </g>
    </g>
</svg>