<?xml version="1.0" encoding="UTF-8"?>
<svg width="25px" height="24px" viewBox="0 0 25 24" version="1.1" xmlns="http://www.w3.org/2000/svg" xmlns:xlink="http://www.w3.org/1999/xlink">
    <!-- Generator: Sketch 55.2 (78181) - https://sketchapp.com -->
    <title>122</title>
    <desc>Created with Sketch.</desc>
    <g id="Page-1" stroke="none" stroke-width="1" fill="none" fill-rule="evenodd">
        <g id="Butlers-||-Flow-Copy-2" transform="translate(-551.000000, -27182.000000)" fill="#1E272E" fill-rule="nonzero">
            <g id="My-account" transform="translate(235.000000, 26290.000000)">
                <g id="Group-11" transform="translate(0.000000, 1.000000)">
                    <g id="Group-6" transform="translate(20.000000, 65.000000)">
                        <g id="Group-3" transform="translate(0.000000, 224.000000)">
                            <g id="Group-7" transform="translate(0.000000, 296.000000)">
                                <g id="Group-8" transform="translate(0.000000, 274.000000)">
                                    <g id="Row-Copy-10">
                                        <g id="122" transform="translate(296.000000, 32.000000)">
                                            <path d="M17.5002549,9 C18.8779568,9 19.9992353,7.8783522 20,6.50050984 C20,5.83287448 19.7397533,5.20449679 19.2676896,4.73238503 C18.7953711,4.25976343 18.1678222,4 17.4997451,4 C16.1215334,4 15,5.12139288 15,6.5 C15,7.8783522 16.1215334,9 17.5002549,9 Z M17.4997451,4.81166514 C17.9509074,4.81166514 18.375051,4.98705007 18.6941782,5.30595493 C19.0127957,5.62536963 19.1881627,6.04879168 19.1881627,6.50050984 C19.1881627,7.43096768 18.4308728,8.18807994 17.5005098,8.18807994 L17.5,8.18807994 C16.5693821,8.18807994 15.8120921,7.43096768 15.8120921,6.5 C15.8118373,5.56928724 16.5688723,4.81166514 17.4997451,4.81166514 Z" id="Shape"></path>
                                            <path d="M7.14661807,22.6470047 C8.05550078,23.5192254 9.26910364,24 10.562706,24 C11.856586,24 13.0696333,23.5192254 13.9787938,22.6470047 L23.4937291,13.5130864 C24.2151131,12.820323 24.8109424,11.511592 24.8503866,10.5335102 L24.9978856,6.89956855 C25.0381631,5.91028739 24.4984445,4.58715718 23.7692828,3.88692744 L20.9515242,1.18253674 C20.2245847,0.484706875 18.8523718,-0.0416653641 17.8132122,0.002598968 L14.0282379,0.144458153 C13.0090782,0.182856128 11.6460319,0.754292657 10.9243702,1.44705612 L1.40915708,10.5807077 C0.500552152,11.4531951 0,12.617667 0,13.8602681 C0,15.1020693 0.500552152,16.2665412 1.40915708,17.1392952 L7.14661807,22.6470047 Z M2.03470839,11.1812094 L11.5496437,2.04755778 C12.1140843,1.50545304 13.2649098,1.02201187 14.0626822,0.992680084 L17.8476564,0.851087552 C17.8723785,0.849754289 17.8971005,0.849220983 17.9226559,0.849220983 C18.7118172,0.849220983 19.790421,1.26786557 20.3259729,1.7830384 L23.1440093,4.4874291 C23.7009499,5.02180092 24.1451136,6.11161011 24.1142805,6.86650363 L23.9667815,10.5009786 C23.9362261,11.2662716 23.4326184,12.3707467 22.8681778,12.9128514 L13.3529648,22.046503 C12.6113031,22.7584655 11.6201988,23.1509781 10.5624282,23.1509781 C9.50465759,23.1509781 8.51355322,22.7584655 7.7718916,22.046503 L2.03470839,16.5387935 C0.496107738,15.0618047 0.496107738,12.6579315 2.03470839,11.1812094 Z" id="Shape"></path>
                                        </g>
                                    </g>
                                </g>
                            </g>
                        </g>
                    </g>
                </g>
            </g>
        </g>
    </g>
</svg>