<?xml version="1.0" encoding="UTF-8"?>
<svg width="24px" height="24px" viewBox="0 0 24 24" version="1.1" xmlns="http://www.w3.org/2000/svg" xmlns:xlink="http://www.w3.org/1999/xlink">
    <!-- Generator: Sketch 55.2 (78181) - https://sketchapp.com -->
    <title>32</title>
    <desc>Created with Sketch.</desc>
    <g id="Page-1" stroke="none" stroke-width="1" fill="none" fill-rule="evenodd">
        <g id="Butlers-||-Flow-Copy-2" transform="translate(-4286.000000, -26960.000000)" fill="#1E272E" fill-rule="nonzero">
            <g id="My-account" transform="translate(235.000000, 26290.000000)">
                <g id="Group-2-Copy-19" transform="translate(3735.000000, 1.000000)">
                    <g id="Group-9" transform="translate(19.000000, 197.000000)">
                        <g id="Row-Copy-14" transform="translate(0.000000, 472.000000)">
                            <path d="M315.780783,13.7052168 C314.866384,13.7052168 314.254651,14.1111827 313.715452,14.4694036 C313.276785,14.7609416 312.898386,15.0119363 312.41172,15.0119363 C311.53652,15.0119363 310.272788,14.1733313 308.548256,12.4481095 C305.272526,9.17184201 305.826659,8.33697126 306.527991,7.28044633 C306.885858,6.74058103 307.291724,6.12896486 307.291724,5.21460802 C307.291724,4.49709929 306.554925,3.02713997 305.458659,1.98181778 C304.379727,0.952766232 303.181594,0 301.733062,0 C300.623197,0 299.540531,0.543599547 298.422132,1.66200627 C297.505333,2.5838316 297,3.80733068 297,5.10684834 C297,11.109649 309.886655,23.9989331 315.888783,24 L315.889316,24 C317.187449,23.9989331 318.410381,23.4937429 319.333047,22.5761853 C322.60371,19.3052524 320.267979,16.8550535 319.013047,15.5387317 C317.966648,14.4424637 316.497049,13.7057503 315.780783,13.7052168 Z M318.60706,21.8399034 C317.855345,22.5879539 316.858407,22.9994738 315.799901,23 C313.320318,23 309.023935,20.299335 304.85411,16.1209874 C300.690337,11.9479022 298,7.66167536 298,5.20018658 C298,4.14139119 298.411773,3.14390279 299.158752,2.39295795 C300.096226,1.45546094 300.971079,1 301.832776,1 C303.023892,1 304.056613,1.88960915 304.93094,2.72317371 C305.933139,3.67882601 306.47989,4.93075157 306.47989,5.30622399 C306.47989,5.95560446 306.181782,6.40501363 305.865782,6.88073482 C304.918836,8.30737215 304.51522,9.58429412 307.96464,13.0340621 C309.883001,14.9527341 311.241457,15.8084007 312.368899,15.8084007 C313.101671,15.8084007 313.618163,15.4650289 314.117815,15.1337607 C314.594314,14.8180166 315.043712,14.5193752 315.692287,14.5193752 C316.006708,14.5193752 317.237554,14.981151 318.276063,16.0688896 C319.846326,17.7152323 321.052438,19.3949911 318.60706,21.8399034 Z" id="32"></path>
                        </g>
                    </g>
                </g>
            </g>
        </g>
    </g>
</svg>