<?xml version="1.0" encoding="UTF-8"?>
<svg width="25px" height="25px" viewBox="0 0 25 25" version="1.1" xmlns="http://www.w3.org/2000/svg" xmlns:xlink="http://www.w3.org/1999/xlink">
    <!-- Generator: Sketch 55.2 (78181) - https://sketchapp.com -->
    <title>12</title>
    <desc>Created with Sketch.</desc>
    <g id="Page-1" stroke="none" stroke-width="1" fill="none" fill-rule="evenodd">
        <g id="Butlers-||-Flow-Copy-2" transform="translate(-4285.000000, -26608.000000)" fill="#1E272E" fill-rule="nonzero">
            <g id="My-account" transform="translate(235.000000, 26290.000000)">
                <g id="Group-2-Copy-19" transform="translate(3735.000000, 1.000000)">
                    <g id="Group-9" transform="translate(19.000000, 197.000000)">
                        <g id="Row-Copy-6" transform="translate(0.000000, 120.000000)">
                            <g id="12" transform="translate(296.000000, 0.000000)">
                                <path d="M12.4998611,0 C5.6074377,0 0,4.94361306 0,11.0206205 C0,13.3394414 0.807213253,15.5578744 2.33497406,17.4364021 C2.72802524,17.9193955 2.87969023,18.0689877 2.90607882,18.0938727 C3.25357496,18.4241632 3.45135054,19.0146142 3.39662893,19.322565 L2.5858046,23.8462452 C2.50080555,24.3184929 2.62774858,24.5939236 2.74858057,24.7421019 C2.88524572,24.9086611 3.08274353,25 3.3046855,25 C3.51273875,25 3.73440295,24.9202552 3.96384485,24.762745 L8.1921312,21.8554526 C8.39212898,21.7180201 8.76323596,21.6176321 9.07323252,21.6176321 C9.15823158,21.6176321 9.23711959,21.62555 9.30072999,21.6394064 C9.37378474,21.6560906 11.106821,22.0401099 12.5001389,22.0401099 C19.3925623,22.0401099 25,17.0964969 25,11.0206205 C24.9997222,4.94361306 19.3922845,0 12.4998611,0 Z M12.4998611,21.1397288 C11.20432,21.1397288 9.50739436,20.7641929 9.49017233,20.7602339 C8.94878946,20.6386372 8.1493539,20.7981268 7.69658115,21.1091882 L3.46857257,24.0161978 C3.4627393,24.0201568 3.45718381,24.023833 3.45162832,24.0275091 C3.45273941,24.0210051 3.45385051,24.0142183 3.45523939,24.0074315 L4.26606371,19.4834685 C4.38189576,18.8358953 4.05689937,17.9558745 3.51190542,17.4383816 C3.51051655,17.4366849 3.37551805,17.3034941 3.0160776,16.8620697 C1.62137087,15.1469906 0.884156843,13.1273542 0.884156843,11.0206205 C0.884434617,5.43961451 6.09493228,0.900098408 12.4998611,0.900098408 C18.9047899,0.900098408 24.1152876,5.43961451 24.1152876,11.0203378 C24.1152876,16.6002127 18.9047899,21.1397288 12.4998611,21.1397288 Z" id="Shape"></path>
                                <circle id="Oval" cx="12.5" cy="11.5" r="1.5"></circle>
                                <circle id="Oval" cx="17.5" cy="11.5" r="1.5"></circle>
                                <circle id="Oval" cx="7.5" cy="11.5" r="1.5"></circle>
                            </g>
                        </g>
                    </g>
                </g>
            </g>
        </g>
    </g>
</svg>