<?xml version="1.0" encoding="UTF-8"?>
<svg width="25px" height="24px" viewBox="0 0 25 24" version="1.1" xmlns="http://www.w3.org/2000/svg" xmlns:xlink="http://www.w3.org/1999/xlink">
    <!-- Generator: Sketch 55.2 (78181) - https://sketchapp.com -->
    <title>55</title>
    <desc>Created with Sketch.</desc>
    <g id="Page-1" stroke="none" stroke-width="1" fill="none" fill-rule="evenodd">
        <g id="Butlers-||-Flow-Copy-2" transform="translate(-4286.000000, -26696.000000)" fill="#1E272E" fill-rule="nonzero">
            <g id="My-account" transform="translate(235.000000, 26290.000000)">
                <g id="Group-2-Copy-19" transform="translate(3735.000000, 1.000000)">
                    <g id="Group-9" transform="translate(19.000000, 197.000000)">
                        <g id="Row-Copy-7" transform="translate(0.000000, 208.000000)">
                            <g id="55" transform="translate(297.000000, 0.000000)">
                                <path d="M23.1850446,3.07913108 C21.1969773,3.56526623 19.3561332,3.58479968 17.7441792,3.13525534 C16.2025035,2.70606981 14.8302732,1.83751934 13.6666553,0.554639766 C13.3416534,0.196985155 12.9272065,0 12.499704,0 C12.0716459,0 11.6577546,0.196985155 11.3333082,0.554914885 C10.1260789,1.8848398 8.69662603,2.76852181 7.08439432,3.18120021 C5.5154962,3.58342408 3.73215238,3.54793374 1.8146411,3.0794062 C1.25963783,2.94377257 0.719912437,3.07472918 0.37852154,3.4252307 C0.120742246,3.68961999 -0.013147431,4.06268126 0.00101931905,4.47756061 C0.148242407,8.72787299 1.01769197,12.4257465 2.58436785,15.4677366 C4.52882373,19.2429186 7.55495264,22.0554594 11.5780319,23.8280507 C11.8299778,23.9386485 12.1572019,24 12.4999817,24 C12.842206,24 13.1697079,23.9386485 13.4210983,23.8280507 C17.4958445,22.0340001 20.546418,19.1727632 22.4889294,15.3241245 C24.0094939,12.3104717 24.8539433,8.66156932 24.9989441,4.47756061 C25.0133887,4.0632315 24.8792212,3.68989511 24.6214419,3.4252307 C24.2786621,3.07472918 23.7389367,2.94349745 23.1850446,3.07913108 Z M21.6978136,14.93208 C19.8497472,18.5947384 16.9444523,21.3178655 13.0616517,23.0274546 C12.7866501,23.1485069 12.2113689,23.1485069 11.9374784,23.0274546 C8.10384476,21.3384995 5.22216114,18.6615923 3.37187248,15.0693644 C1.86408583,12.142374 1.02741425,8.56830401 0.884635628,4.44729753 C0.878524481,4.26984582 0.923246966,4.12705909 1.01408083,4.03379378 C1.12074813,3.92402132 1.27213791,3.90118645 1.3801941,3.90118645 C1.45019451,3.90118645 1.52519495,3.91081561 1.60269541,3.92979882 C3.66381864,4.43326646 5.59466333,4.46765633 7.30578451,4.02911675 C9.08912834,3.57241933 10.6658043,2.60069926 11.9910899,1.14009285 C12.304425,0.794543475 12.6944273,0.794268356 13.0088736,1.14036797 C14.2869367,2.54870178 15.7994456,3.50363959 17.5050112,3.97876999 C19.264466,4.46875681 21.2591999,4.45197455 23.3975458,3.9295237 C23.4744907,3.91081561 23.5492134,3.90091133 23.6194916,3.90091133 C23.7275478,3.90091133 23.8786598,3.92402132 23.9856049,4.03351866 C24.0767165,4.12678397 24.121439,4.2695707 24.1153278,4.44702241 C23.9744937,8.50447641 23.1611556,12.0317762 21.6978136,14.93208 Z" id="Shape"></path>
                                <path d="M18.828674,7.09325256 C18.634756,6.94410506 18.3538414,6.97740183 18.2017378,7.16782631 L11.9166599,15.0352193 C11.8706359,15.0930071 11.8192799,15.1243776 11.7724141,15.1243776 C11.7359316,15.1232769 11.6736309,15.0921815 11.6278876,15.0335682 L8.80134246,11.41853 C8.65064203,11.2261793 8.37056935,11.1901307 8.17496749,11.3376272 C7.979085,11.484298 7.94204132,11.7594779 8.09246111,11.9512783 L10.9190062,15.5665917 C11.1331299,15.8401205 11.4421079,15.9983489 11.767082,16 C11.7690464,16 11.7704496,16 11.7724141,16 C12.0951431,16 12.4038404,15.8453489 12.6199286,15.5751223 L18.9050065,7.70772925 C19.0571101,7.51785513 19.0228727,7.24240006 18.828674,7.09325256 Z" id="Shape"></path>
                            </g>
                        </g>
                    </g>
                </g>
            </g>
        </g>
    </g>
</svg>