<?xml version="1.0" encoding="UTF-8"?>
<svg width="24px" height="24px" viewBox="0 0 24 24" version="1.1" xmlns="http://www.w3.org/2000/svg" xmlns:xlink="http://www.w3.org/1999/xlink">
    <!-- Generator: Sketch 55.2 (78181) - https://sketchapp.com -->
    <title>147</title>
    <desc>Created with Sketch.</desc>
    <g id="Page-1" stroke="none" stroke-width="1" fill="none" fill-rule="evenodd">
        <g id="Butlers-||-Flow-Copy-2" transform="translate(-552.000000, -27530.000000)" fill="#1E272E" fill-rule="nonzero">
            <g id="My-account" transform="translate(235.000000, 26290.000000)">
                <g id="Group-11" transform="translate(0.000000, 1.000000)">
                    <g id="Group-6" transform="translate(20.000000, 65.000000)">
                        <g id="Group-3" transform="translate(0.000000, 224.000000)">
                            <g id="Group-7" transform="translate(0.000000, 296.000000)">
                                <g id="Group-8" transform="translate(0.000000, 274.000000)">
                                    <g id="Row-Copy-8" transform="translate(0.000000, 348.000000)">
                                        <g id="147" transform="translate(297.000000, 32.000000)">
                                            <path d="M18.7596649,7.12964263 C18.5940573,7.30277783 18.5940573,7.58363541 18.7596649,7.7562139 L22.8729632,12.0567586 L9.42387021,12.0567586 C9.18983634,12.0567586 9,12.2549455 9,12.4998956 C9,12.744289 9.18983634,12.9430326 9.42387021,12.9430326 L22.8729632,12.9430326 L18.7599311,17.2435773 C18.5943235,17.4161558 18.5943235,17.6970134 18.7599311,17.8701486 C18.9252725,18.0432838 19.1936526,18.0432838 19.3592602,17.8701486 L23.6509461,13.3825511 C23.8761937,13.1473433 24,12.8339185 24,12.4998956 C24,12.1655944 23.8759274,11.8524479 23.6506798,11.6166834 L19.3589939,7.12964263 C19.1933863,6.95678579 18.9250062,6.95678579 18.7596649,7.12964263 Z" id="Shape"></path>
                                            <path d="M2.94467918,24 L13.0550588,24 C14.678589,24 15.999738,22.6554667 15.999738,21.0034667 L15.999738,17.5696 C15.999738,17.3346667 15.8131735,17.1448 15.5825882,17.1448 C15.3520029,17.1448 15.1654384,17.3346667 15.1654384,17.5696 L15.1654384,21.0034667 C15.1654384,22.1877333 14.2189905,23.1512 13.0547968,23.1512 L2.94467918,23.1512 C1.78127149,23.1512 0.834037536,22.188 0.834037536,21.0034667 L0.834037536,2.9968 C0.834037536,1.81253333 1.78100947,0.8488 2.94467918,0.8488 L13.0550588,0.8488 C14.2189905,0.8488 15.1657004,1.81226667 15.1657004,2.9968 L15.1657004,6.43066667 C15.1657004,6.66533333 15.3522649,6.8552 15.5828502,6.8552 C15.8134355,6.8552 16,6.66533333 16,6.43066667 L16,2.9968 C16,1.34453333 14.678851,0 13.0550588,0 L2.94467918,0 C1.321149,0 0,1.34453333 0,2.9968 L0,21.0032 C0,22.6554667 1.321149,24 2.94467918,24 Z" id="Shape"></path>
                                        </g>
                                    </g>
                                </g>
                            </g>
                        </g>
                    </g>
                </g>
            </g>
        </g>
    </g>
</svg>