<?xml version="1.0" encoding="UTF-8"?>
<svg width="25px" height="24px" viewBox="0 0 25 24" version="1.1" xmlns="http://www.w3.org/2000/svg" xmlns:xlink="http://www.w3.org/1999/xlink">
    <!-- Generator: Sketch 55.2 (78181) - https://sketchapp.com -->
    <title>167</title>
    <desc>Created with Sketch.</desc>
    <g id="Page-1" stroke="none" stroke-width="1" fill="none" fill-rule="evenodd">
        <g id="Butlers-||-Flow-Copy-2" transform="translate(-552.000000, -26876.000000)" fill="#1E272E" fill-rule="nonzero">
            <g id="My-account" transform="translate(235.000000, 26290.000000)">
                <g id="Group-11" transform="translate(0.000000, 1.000000)">
                    <g id="Group-6" transform="translate(20.000000, 65.000000)">
                        <g id="Group-3" transform="translate(0.000000, 224.000000)">
                            <g id="Group-7" transform="translate(0.000000, 296.000000)">
                                <g id="Row-Copy-2">
                                    <path d="M299.906079,17.3697248 C300.253575,17.6862537 300.451351,18.2536167 300.396629,18.5489713 L300.236353,19.4068025 L299.586082,22.8913346 C299.470806,23.5067471 299.735803,23.7787556 299.903857,23.8859845 C299.989133,23.9402776 300.123854,24 300.305519,24 C300.481906,24 300.702459,23.9435352 300.963845,23.7708831 L303.941034,21.8060152 L305.192131,20.9804884 C305.458239,20.8048502 305.986845,20.7071226 306.30073,20.7730887 C306.373507,20.7891052 308.106821,21.1577554 309.500139,21.1577554 C316.392562,21.1577554 322,16.4125372 322,10.5795564 C321.999722,4.74603264 316.392285,0 309.499861,0 C302.607438,0 297,4.74603264 297,10.5795564 C297,12.8055741 297.807213,14.9349501 299.334974,16.7380244 C299.728025,17.2019591 299.879135,17.3455644 299.906079,17.3697248 Z M309.500138,1 C315.841343,1 321,5.31881542 321,10.6272865 C321,15.9349506 315.841343,20.252959 309.500138,20.252959 C308.217211,20.252959 306.537718,19.8957253 306.520393,19.8922283 C305.972571,19.7744058 305.209415,19.9175144 304.744646,20.2241759 L303.506546,21.0422087 L300.559253,22.9889709 C300.553478,22.993006 300.547977,22.996772 300.541927,23 C300.543027,22.994082 300.544402,22.9873569 300.545777,22.9809009 L301.189853,19.5280006 L301.34826,18.6776876 C301.462939,18.0619437 301.141176,17.2240047 300.601605,16.7322704 C300.60023,16.7306564 300.466574,16.6039568 300.11071,16.1837768 C298.729879,14.5525531 298,12.631346 298,10.6272865 C298.000275,5.31881542 303.158932,1 309.500138,1 Z" id="167"></path>
                                </g>
                            </g>
                        </g>
                    </g>
                </g>
            </g>
        </g>
    </g>
</svg>