<?xml version="1.0" encoding="UTF-8"?>
<svg width="24px" height="29px" viewBox="0 0 24 29" version="1.1" xmlns="http://www.w3.org/2000/svg" xmlns:xlink="http://www.w3.org/1999/xlink">
    <!-- Generator: Sketch 55.2 (78181) - https://sketchapp.com -->
    <title>60</title>
    <desc>Created with Sketch.</desc>
    <g id="Page-1" stroke="none" stroke-width="1" fill="none" fill-rule="evenodd">
        <g id="Butlers-||-Flow-Copy-2" transform="translate(-551.000000, -27050.000000)" fill="#1E272E" fill-rule="nonzero">
            <g id="My-account" transform="translate(235.000000, 26290.000000)">
                <g id="Group-11" transform="translate(0.000000, 1.000000)">
                    <g id="Group-6" transform="translate(20.000000, 65.000000)">
                        <g id="Group-3" transform="translate(0.000000, 224.000000)">
                            <g id="Group-7" transform="translate(0.000000, 296.000000)">
                                <g id="Row-Copy-4" transform="translate(0.000000, 174.000000)">
                                    <path d="M296,22.0142222 L296,23.1294333 C296,24.0980333 296.77806,24.8855444 297.734487,24.8855444 L303.034039,24.8845778 C303.044324,24.8881222 303.066177,24.9103556 303.070355,24.9322667 C303.53025,27.289 305.603471,29 308,29 C310.396529,29 312.46975,27.289 312.929323,24.9325889 C312.933823,24.9106778 312.955355,24.8881222 312.957926,24.8855444 L318.316934,24.8855444 C319.2454,24.8855444 320,24.0980333 320,23.1294333 L320,22.0142222 C320,21.3443222 319.604381,20.5390889 319.213584,20.0899111 C318.806395,19.6230111 318.229197,18.8309889 317.7873,17.7106222 C317.349902,16.6008889 317.128472,15.3816 317.128472,14.0882 C317.128472,10.3275444 314.822572,6.9484 311.356169,5.57508889 C311.643483,5.03021111 311.793888,4.42411111 311.793888,3.80351111 C311.793888,1.70648889 310.092182,0 308,0 C305.907818,0 304.206112,1.70648889 304.206112,3.80383333 C304.206112,4.42443333 304.356839,5.03053333 304.643831,5.57541111 C301.17775,6.94872222 298.871528,10.3278667 298.871528,14.0885222 C298.871528,15.3822444 298.650419,16.6012111 298.2127,17.7109444 C297.770803,18.8313111 297.193283,19.6233333 296.786416,20.0902333 C296.39594,20.5390889 296,21.3443222 296,22.0142222 Z M297,22.0287685 C297,21.6836536 297.245418,21.1096457 297.535603,20.776153 C297.995842,20.2476654 298.649646,19.3534012 299.145634,18.0946516 C299.631639,16.8617292 299.878023,15.5138761 299.878023,14.0875731 C299.878023,10.6406203 302.055543,7.55460165 305.295895,6.40852295 C305.520378,6.32910454 305.690754,6.16219674 305.761931,5.95009147 C305.835363,5.73604917 305.800902,5.49650258 305.669175,5.29246828 C305.377701,4.84243062 305.223429,4.31975416 305.223429,3.78319563 C305.223429,2.24809585 306.468876,1 308,1 C309.531124,1 310.776571,2.24809585 310.776571,3.78319563 C310.776571,4.31975416 310.622299,4.8414621 310.330825,5.29246828 C310.199098,5.49650258 310.164637,5.73604917 310.238069,5.95009147 C310.309568,6.16219674 310.479622,6.32910454 310.703783,6.40787727 C313.94478,7.55460165 316.121977,10.6406203 316.121977,14.0875731 C316.121977,15.5138761 316.368683,16.8617292 316.854366,18.0946516 C317.350354,19.3530783 318.004158,20.2476654 318.464397,20.776153 C318.754582,21.1096457 319,21.6836536 319,22.0287685 L319,23.1461146 C319,23.5499862 318.703373,23.8779907 318.338467,23.8779907 L312.968906,23.8779907 C312.476137,23.8779907 312.031358,24.2557125 311.934093,24.7557902 C311.567254,26.6356821 309.912777,28 308.000322,28 C306.087867,28 304.43339,26.6356821 304.066552,24.7564359 C303.969286,24.2557125 303.524507,23.8779907 303.031739,23.8779907 L297.713064,23.8779907 C297.319816,23.8779907 297,23.5499862 297,23.1461146 L297,22.0287685 Z" id="60"></path>
                                </g>
                            </g>
                        </g>
                    </g>
                </g>
            </g>
        </g>
    </g>
</svg>