<?xml version="1.0" encoding="UTF-8"?>
<svg width="36px" height="26px" viewBox="0 0 36 26" version="1.1" xmlns="http://www.w3.org/2000/svg" xmlns:xlink="http://www.w3.org/1999/xlink">
    <!-- Generator: Sketch 55.2 (78181) - https://sketchapp.com -->
    <title>Group 2</title>
    <desc>Created with Sketch.</desc>
    <g id="Page-1" stroke="none" stroke-width="1" fill="none" fill-rule="evenodd">
        <g id="Butlers-||-Flow-Copy-2" transform="translate(-546.000000, -26700.000000)" fill-rule="nonzero" stroke="#1E272E">
            <g id="My-account" transform="translate(235.000000, 26290.000000)">
                <g id="Group-11" transform="translate(0.000000, 1.000000)">
                    <g id="Group-6" transform="translate(20.000000, 65.000000)">
                        <g id="Group-3" transform="translate(0.000000, 224.000000)">
                            <g id="Row-Copy" transform="translate(0.000000, 120.000000)">
                                <g id="Group-2" transform="translate(292.000000, 1.000000)">
                                    <path d="M34,19.795719 C34,22.1137381 32.1186552,24 29.8049969,24 L7.19552397,24 C4.88238655,24 3.29248047,23.3185412 3.29248047,21 C9.8915457,20.9936821 14.4607189,20.9936821 17,21 C19.0344447,21.0050619 21.9009242,21.0943649 24.4970703,21 C26.7175516,20.9192898 28.7480131,20.7471838 29.8049969,19.795719 C30.8187135,18.8832019 30.956267,17.2348975 31,15.6289063 C31.0455891,13.9547565 30.9754894,12.3245657 31,11.5202637 C31.0462188,10.0036173 31.0462188,7.25890706 31,3.28613281 C33.3131374,3.28613281 34,4.88626193 34,7.2048031 L34,19.795719 Z" id="Path-Copy"></path>
                                    <path d="M31,16.795719 C31,19.1137381 29.1186552,21 26.8049969,21 L4.19552397,21 C1.88238655,21 0,19.1142601 0,16.795719 L0,4.2048031 C0,1.88626193 1.88186569,0 4.19552397,0 L26.8049969,0 C29.1181343,0 31,1.88626193 31,4.2048031 L31,16.795719 Z" id="Path"></path>
                                    <path d="M18,10.0001288 C18,8.34585337 16.6542044,7 15,7 C13.3457956,7 12,8.34585337 12,10.0001288 C12,11.6541466 13.3457956,13 15,13 C16.6542044,13 18,11.6541466 18,10.0001288 Z M12.4102674,10.0001288 C12.4102674,8.57198661 13.5719191,7.41002747 15,7.41002747 C16.4282096,7.41002747 17.5897326,8.57198661 17.5897326,10.0001288 C17.5897326,11.4280134 16.4280809,12.5899725 15,12.5899725 C13.5719191,12.5899725 12.4102674,11.4280134 12.4102674,10.0001288 Z" id="Shape" stroke-width="0.5"></path>
                                </g>
                            </g>
                        </g>
                    </g>
                </g>
            </g>
        </g>
    </g>
</svg>