<?xml version="1.0" encoding="UTF-8"?>
<svg width="23px" height="24px" viewBox="0 0 23 24" version="1.1" xmlns="http://www.w3.org/2000/svg" xmlns:xlink="http://www.w3.org/1999/xlink">
    <!-- Generator: Sketch 55.2 (78181) - https://sketchapp.com -->
    <title>Item 4</title>
    <desc>Created with Sketch.</desc>
    <g id="Page-1" stroke="none" stroke-width="1" fill="none" fill-rule="evenodd">
        <g id="Butlers-||-Flow-Copy-2" transform="translate(-552.000000, -26612.000000)" fill="#1E272E" fill-rule="nonzero">
            <g id="My-account" transform="translate(235.000000, 26290.000000)">
                <g id="Group-11" transform="translate(0.000000, 1.000000)">
                    <g id="Group-6" transform="translate(20.000000, 65.000000)">
                        <g id="Group-3" transform="translate(0.000000, 224.000000)">
                            <g id="Row">
                                <g id="Item-4" transform="translate(297.000000, 32.000000)">
                                    <g id="161">
                                        <path d="M18,6.00025755 C18,2.69170673 15.3084088,0 12,0 C8.69159119,0 6,2.69170673 6,6.00025755 C6,9.30829327 8.69159119,12 12,12 C15.3084088,12 18,9.30829327 18,6.00025755 Z M6.82053483,6.00025755 C6.82053483,3.14397321 9.14383826,0.820054945 12,0.820054945 C14.8564193,0.820054945 17.1794652,3.14397321 17.1794652,6.00025755 C17.1794652,8.85602679 14.8561617,11.1799451 12,11.1799451 C9.14383826,11.1799451 6.82053483,8.85602679 6.82053483,6.00025755 Z" id="Shape"></path>
                                        <path d="M0,21.3347908 C0,23.002664 1.40644033,24 2.76520924,24 L20.2347908,24 C21.593826,24 23,23.002664 23,21.3347908 C23,19.5725785 20.933883,15 11.5,15 C2.06611704,15 0,19.5728391 0,21.3347908 Z M11.5,15.8300275 C20.1948426,15.8300275 22.1517681,19.9066744 22.1517681,21.3347908 C22.1517681,22.5267989 21.1639842,23.1702331 20.2347908,23.1702331 L2.76520924,23.1702331 C1.83601584,23.1702331 0.848231861,22.5267989 0.848231861,21.3347908 C0.848231861,19.9066744 2.80515736,15.8300275 11.5,15.8300275 Z" id="Shape"></path>
                                    </g>
                                </g>
                            </g>
                        </g>
                    </g>
                </g>
            </g>
        </g>
    </g>
</svg>