<?xml version="1.0" encoding="UTF-8"?>
<svg width="30px" height="24px" viewBox="0 0 30 24" version="1.1" xmlns="http://www.w3.org/2000/svg" xmlns:xlink="http://www.w3.org/1999/xlink">
    <!-- Generator: Sketch 55.2 (78181) - https://sketchapp.com -->
    <title>64</title>
    <desc>Created with Sketch.</desc>
    <g id="Page-1" stroke="none" stroke-width="1" fill="none" fill-rule="evenodd">
        <g id="Butlers-||-Flow-Copy-2" transform="translate(-4283.000000, -26784.000000)" fill="#1E272E" fill-rule="nonzero">
            <g id="My-account" transform="translate(235.000000, 26290.000000)">
                <g id="Group-2-Copy-19" transform="translate(3735.000000, 1.000000)">
                    <g id="Group-9" transform="translate(19.000000, 197.000000)">
                        <g id="Row-Copy-12" transform="translate(0.000000, 296.000000)">
                            <g id="64" transform="translate(294.000000, 0.000000)">
                                <path d="M29.45,0 L0.55,0 C0.246,0 0,0.223704153 0,0.500151561 C0,0.776598969 0.246,1 0.55,1 L29.45,1 C29.754,1 30,0.776295847 30,0.500151561 C30,0.224007275 29.754,0 29.45,0 Z" id="Shape"></path>
                                <path d="M0.562222222,9 L22.4377778,9 C22.7485333,9 23,8.77629585 23,8.50015156 C23,8.22400727 22.7485333,8 22.4377778,8 L0.562222222,8 C0.251466667,8 0,8.22370415 0,8.50015156 C0,8.77659897 0.251466667,9 0.562222222,9 Z" id="Shape"></path>
                                <path d="M29.45,15 L0.55,15 C0.246,15 0,15.2236364 0,15.5 C0,15.7760606 0.246,16 0.55,16 L29.45,16 C29.754,16 30,15.7760606 30,15.5 C30,15.2236364 29.754,15 29.45,15 Z" id="Shape"></path>
                                <path d="M22.4377778,24 C22.7485333,24 23,23.7761284 23,23.4998485 C23,23.2235686 22.7485333,23 22.4377778,23 L0.562222222,23 C0.251466667,23 0,23.2235686 0,23.4998485 C0,23.7761284 0.251466667,24 0.562222222,24 L22.4377778,24 Z" id="Shape"></path>
                            </g>
                        </g>
                    </g>
                </g>
            </g>
        </g>
    </g>
</svg>