<?xml version="1.0" encoding="UTF-8"?>
<svg width="26px" height="24px" viewBox="0 0 26 24" version="1.1" xmlns="http://www.w3.org/2000/svg" xmlns:xlink="http://www.w3.org/1999/xlink">
    <!-- Generator: Sketch 55.2 (78181) - https://sketchapp.com -->
    <title>113</title>
    <desc>Created with Sketch.</desc>
    <g id="Page-1" stroke="none" stroke-width="1" fill="none" fill-rule="evenodd">
        <g id="Butlers-||-Flow-Copy-2" transform="translate(-552.000000, -26964.000000)" fill="#1E272E" fill-rule="nonzero">
            <g id="My-account" transform="translate(235.000000, 26290.000000)">
                <g id="Group-11" transform="translate(0.000000, 1.000000)">
                    <g id="Group-6" transform="translate(20.000000, 65.000000)">
                        <g id="Group-3" transform="translate(0.000000, 224.000000)">
                            <g id="Group-7" transform="translate(0.000000, 296.000000)">
                                <g id="Row-Copy-3" transform="translate(0.000000, 88.000000)">
                                    <g id="113" transform="translate(297.000000, 0.000000)">
                                        <path d="M11,0 C7.69131787,0 5,2.69205013 5,6 C5,9.30823687 7.69131787,12 11,12 C14.3086821,12 17,9.30823687 17,6 C17,2.69176313 14.3086821,0 11,0 Z M11,11.0698364 C8.20449653,11.0698364 5.92992107,8.79536975 5.92992107,6 C5.92992107,3.20463025 8.20449653,0.930450588 11,0.930450588 C13.7952165,0.930450588 16.0697919,3.20463025 16.0697919,6 C16.0697919,8.79536975 13.7952165,11.0698364 11,11.0698364 Z" id="Shape"></path>
                                        <path d="M11.5001491,15 C2.06605571,15 0,19.5555663 0,21.3105344 C0,22.9934401 1.4295436,24 2.81198232,24 L20.1880177,24 C21.5701583,24 23,22.9934401 23,21.3105344 C22.9997019,19.5555663 20.9342424,15 11.5001491,15 Z M20.1880177,23.0617403 L2.81198232,23.0617403 C1.91698964,23.0617403 0.966246257,22.448196 0.966246257,21.3105344 C0.966246257,19.9167471 2.90142196,15.9379703 11.5001491,15.9379703 C20.098578,15.9379703 22.0337537,19.9167471 22.0337537,21.3105344 C22.0334556,22.448196 21.0827122,23.0617403 20.1880177,23.0617403 Z" id="Shape"></path>
                                        <path d="M25.4959552,8.4959552 L22.5040448,8.4959552 L22.5040448,5.50435594 C22.5040448,5.22557561 22.2784692,5 21.9996889,5 C21.7209085,5 21.4956441,5.22557561 21.4956441,5.50435594 L21.4956441,8.4959552 L18.5040448,8.4959552 C18.2252645,8.4959552 18,8.7215308 18,9 C18,9.2784692 18.2255756,9.50435594 18.5040448,9.50435594 L21.4956441,9.50435594 L21.4956441,12.4956441 C21.4956441,12.7744244 21.7212197,13 21.9996889,13 C22.2784692,13 22.5040448,12.7741133 22.5040448,12.4956441 L22.5040448,9.50435594 L25.4959552,9.50435594 C25.7747355,9.50435594 26,9.2784692 26,9 C26,8.7215308 25.7744244,8.4959552 25.4959552,8.4959552 Z" id="Shape"></path>
                                    </g>
                                </g>
                            </g>
                        </g>
                    </g>
                </g>
            </g>
        </g>
    </g>
</svg>