<?xml version="1.0" encoding="UTF-8"?>
<svg width="23px" height="24px" viewBox="0 0 23 24" version="1.1" xmlns="http://www.w3.org/2000/svg" xmlns:xlink="http://www.w3.org/1999/xlink">
    <!-- Generator: Sketch 55.2 (78181) - https://sketchapp.com -->
    <title>129</title>
    <desc>Created with Sketch.</desc>
    <g id="Page-1" stroke="none" stroke-width="1" fill="none" fill-rule="evenodd">
        <g id="Butlers-||-Flow-Copy-2" transform="translate(-552.000000, -27270.000000)" fill="#1E272E" fill-rule="nonzero">
            <g id="My-account" transform="translate(235.000000, 26290.000000)">
                <g id="Group-11" transform="translate(0.000000, 1.000000)">
                    <g id="Group-6" transform="translate(20.000000, 65.000000)">
                        <g id="Group-3" transform="translate(0.000000, 224.000000)">
                            <g id="Group-7" transform="translate(0.000000, 296.000000)">
                                <g id="Group-8" transform="translate(0.000000, 274.000000)">
                                    <g id="Row-Copy-11" transform="translate(0.000000, 120.000000)">
                                        <g id="129" transform="translate(297.000000, 0.000000)">
                                            <path d="M15,7 C15,5.3456823 13.6541707,4 12,4 C10.3458293,4 9,5.3456823 9,7 C9,8.65405117 10.3458293,10 12,10 C13.6541707,10 15,8.65405117 15,7 Z M9.84853869,7 C9.84853869,5.81369936 10.8135382,4.84834755 12,4.84834755 C13.1864618,4.84834755 14.1514613,5.81369936 14.1514613,7 C14.1514613,8.18630064 13.1864618,9.15138593 12,9.15138593 C10.8135382,9.15138593 9.84853869,8.18630064 9.84853869,7 Z" id="Shape"></path>
                                            <path d="M22.9400214,22.2717333 L22.0097153,18.9573333 L20.968066,15.2472 C20.7954184,14.6304 20.1661322,14.148 19.5363221,14.148 L15.6827958,14.148 C17.1116579,11.9229333 18.5001744,9.22346667 18.5001744,7.12506667 C18.5001744,3.19626667 15.3597692,0 11.4999553,0 C7.64014143,0 4.49973628,3.19626667 4.49973628,7.12506667 C4.49973628,9.2232 5.88851476,11.9229333 7.31711486,14.1477333 L3.46358858,14.1477333 C2.83351647,14.1477333 2.2044923,14.6304 2.03184468,15.2469333 L0.990457302,18.9573333 L0.0601512451,22.2717333 C-0.063505319,22.712 0.00539653772,23.1530667 0.249303871,23.4821333 C0.492687235,23.8109333 0.890903289,24 1.34099222,24 L21.6591804,24 C22.1092694,24 22.5069614,23.8109333 22.7508688,23.4826667 C22.9945141,23.1533333 23.063416,22.7125333 22.9400214,22.2717333 Z M5.3341561,7.12506667 C5.3341561,3.66426667 8.09992378,0.8488 11.4999553,0.8488 C14.8999869,0.8488 17.6657546,3.66426667 17.6657546,7.12506667 C17.6657546,11.0424 12.037547,17.7008 11.9806964,17.7672 C11.7184502,18.0754667 11.2817225,18.076 11.0189523,17.7672 C10.9621017,17.7008 5.3341561,11.0445333 5.3341561,7.12506667 Z M22.0846428,22.9712 C21.998974,23.0874667 21.8478091,23.1512 21.6589184,23.1512 L1.34099222,23.1512 C1.1518396,23.1512 1.00093667,23.0874667 0.915267824,22.9712 C0.828813023,22.8549333 0.810212141,22.6890667 0.862085022,22.5048 L1.79239108,19.1906667 L2.83377846,15.4802667 C2.90477619,15.2272 3.20527212,14.9968 3.46385057,14.9968 L7.87933305,14.9968 C9.13449957,16.84 10.2835625,18.1992 10.3888801,18.3234667 C10.6812546,18.6664 11.0755408,18.8552 11.4999553,18.8552 C11.9246318,18.8552 12.3189181,18.6664 12.6112925,18.3234667 C12.7166102,18.1992 13.8656731,16.84 15.1208396,14.9968 L19.5363221,14.9968 C19.7949005,14.9968 20.0953965,15.2269333 20.1661322,15.4802667 L21.2075196,19.1906667 L22.1380876,22.5048 C22.1899605,22.6890667 22.1708356,22.8549333 22.0846428,22.9712 Z" id="Shape"></path>
                                        </g>
                                    </g>
                                </g>
                            </g>
                        </g>
                    </g>
                </g>
            </g>
        </g>
    </g>
</svg>