<?xml version="1.0" encoding="UTF-8"?>
<svg width="20px" height="25px" viewBox="0 0 20 25" version="1.1" xmlns="http://www.w3.org/2000/svg" xmlns:xlink="http://www.w3.org/1999/xlink">
    <!-- Generator: Sketch 55.2 (78181) - https://sketchapp.com -->
    <title>39</title>
    <desc>Created with Sketch.</desc>
    <g id="Page-1" stroke="none" stroke-width="1" fill="none" fill-rule="evenodd">
        <g id="Butlers-||-Flow-Copy-2" transform="translate(-554.000000, -26788.000000)" fill="#1E272E">
            <g id="My-account" transform="translate(235.000000, 26290.000000)">
                <g id="Group-11" transform="translate(0.000000, 1.000000)">
                    <g id="Group-6" transform="translate(20.000000, 65.000000)">
                        <g id="Group-3" transform="translate(0.000000, 224.000000)">
                            <g id="Row-Copy-9" transform="translate(0.000000, 208.000000)">
                                <g id="39" transform="translate(299.000000, 0.000000)">
                                    <path d="M3.17903461,25 L16.8212482,25 C18.5741157,25 20,23.5994444 20,21.8783333 L20,13.8397222 L20,7.00722222 C20,6.59722222 19.7776741,6.06972222 19.4823709,5.77972222 L14.1151513,0.508611111 C13.820131,0.218611111 13.282419,0 12.8652043,0 L5.90719448,0 L3.17875175,0 C1.42588428,0 0,1.40055556 0,3.12166667 L0,21.8780556 C0,23.5994444 1.42616714,25 3.17903461,25 Z M13.8611453,1.51 L18.4632356,6.02888889 L14.7750576,6.02888889 C14.2710057,6.02888889 13.8614281,5.62666667 13.8614281,5.13194444 L13.8614281,1.51 L13.8611453,1.51 Z M0.900618043,3.12166667 C0.900618043,1.88805556 1.92258192,0.884166667 3.17903461,0.884166667 L5.90747734,0.884166667 L12.8654872,0.884166667 C12.8943386,0.884166667 12.9268672,0.888611111 12.9608101,0.894166667 L12.9608101,5.13138889 C12.9608101,6.11388889 13.7745909,6.91333333 14.7753405,6.91333333 L19.0897648,6.91333333 C19.0957048,6.94666667 19.0999477,6.97833333 19.0999477,7.00694444 L19.0999477,13.8397222 L19.0999477,21.8780556 C19.0999477,23.1116667 18.0782666,24.1155556 16.8215311,24.1155556 L3.17931747,24.1155556 C1.92314764,24.1155556 0.900900901,23.1119444 0.900900901,21.8780556 L0.900900901,3.12166667 L0.900618043,3.12166667 Z" id="Shape" fill-rule="nonzero"></path>
                                    <text id="$" stroke="#1E272E" stroke-width="1" font-family="AvenirNext-UltraLight, Avenir Next" font-size="14" font-weight="200">
                                        <tspan x="6.08" y="18">$</tspan>
                                    </text>
                                </g>
                            </g>
                        </g>
                    </g>
                </g>
            </g>
        </g>
    </g>
</svg>