<?xml version="1.0" encoding="UTF-8"?>
<svg width="19px" height="24px" viewBox="0 0 19 24" version="1.1" xmlns="http://www.w3.org/2000/svg" xmlns:xlink="http://www.w3.org/1999/xlink">
    <!-- Generator: Sketch 55.2 (78181) - https://sketchapp.com -->
    <title>39</title>
    <desc>Created with Sketch.</desc>
    <g id="Page-1" stroke="none" stroke-width="1" fill="none" fill-rule="evenodd">
        <g id="Butlers-||-Flow-Copy-2" transform="translate(-4288.000000, -26520.000000)" fill="#1E272E" fill-rule="nonzero">
            <g id="My-account" transform="translate(235.000000, 26290.000000)">
                <g id="Group-2-Copy-19" transform="translate(3735.000000, 1.000000)">
                    <g id="Group-9" transform="translate(19.000000, 197.000000)">
                        <g id="Row-Copy-5">
                            <g id="39" transform="translate(299.000000, 32.000000)">
                                <path d="M3.02008288,24 L15.9801858,24 C17.6454099,24 19,22.6554667 19,21.0032 L19,13.2861333 L19,6.72693333 C19,6.33333333 18.7887904,5.82693333 18.5082524,5.54853333 L13.4093937,0.488266667 C13.1291244,0.209866667 12.618298,0 12.2219441,0 L5.61183475,0 L3.01981416,0 C1.35459007,0 0,1.34453333 0,2.9968 L0,21.0029333 C0,22.6554667 1.35485878,24 3.02008288,24 Z M13.168088,1.4496 L17.5400738,5.78773333 L14.0363048,5.78773333 C13.5574554,5.78773333 13.1683567,5.4016 13.1683567,4.92666667 L13.1683567,1.4496 L13.168088,1.4496 Z M0.855587141,2.9968 C0.855587141,1.81253333 1.82645283,0.8488 3.02008288,0.8488 L5.61210347,0.8488 L12.2222128,0.8488 C12.2496217,0.8488 12.2805239,0.853066667 12.3127696,0.8584 L12.3127696,4.92613333 C12.3127696,5.86933333 13.0858614,6.6368 14.0365735,6.6368 L18.1352766,6.6368 C18.1409196,6.6688 18.1449503,6.6992 18.1449503,6.72666667 L18.1449503,13.2861333 L18.1449503,21.0029333 C18.1449503,22.1872 17.1743533,23.1509333 15.9804546,23.1509333 L3.02035159,23.1509333 C1.82699026,23.1509333 0.855855856,22.1874667 0.855855856,21.0029333 L0.855855856,2.9968 L0.855587141,2.9968 Z" id="Shape"></path>
                                <path d="M5.41284404,18 L14.587156,18 C14.815218,18 15,17.7764521 15,17.500157 C15,17.2235479 14.815218,17 14.587156,17 L5.41284404,17 C5.18478205,17 5,17.2235479 5,17.500157 C5,17.7764521 5.18478205,18 5.41284404,18 Z" id="Shape"></path>
                                <path d="M5.41284404,13 L14.587156,13 C14.815218,13 15,12.7761381 15,12.499843 C15,12.2241758 14.815218,12 14.587156,12 L5.41284404,12 C5.18478205,12 5,12.2241758 5,12.499843 C5,12.7761381 5.18478205,13 5.41284404,13 Z" id="Shape"></path>
                                <path d="M5.39631795,9 L10.6039308,9 C10.8228635,9 11,8.77638191 11,8.5 C11,8.22424623 10.8228635,8 10.6039308,8 L5.39631795,8 C5.17738525,8 5,8.22424623 5,8.5 C5,8.77638191 5.17738525,9 5.39631795,9 Z" id="Shape"></path>
                            </g>
                        </g>
                    </g>
                </g>
            </g>
        </g>
    </g>
</svg>