<?xml version="1.0" encoding="UTF-8"?>
<svg width="144px" height="138px" viewBox="0 0 144 138" version="1.1" xmlns="http://www.w3.org/2000/svg" xmlns:xlink="http://www.w3.org/1999/xlink">
    <!-- Generator: Sketch 55.2 (78181) - https://sketchapp.com -->
    <title>Group 79</title>
    <desc>Created with Sketch.</desc>
    <defs>
        <polygon id="path-1" points="1.4679144e-15 0 144 0 144 138 1.4679144e-15 138"></polygon>
    </defs>
    <g id="Page-1" stroke="none" stroke-width="1" fill="none" fill-rule="evenodd">
        <g id="Butlers-||-Flow-Copy-2" transform="translate(-7325.000000, -1134.000000)">
            <g id="Main-Screen" transform="translate(270.000000, 648.000000)">
                <g id="Group-50">
                    <g id="Registration-flow">
                        <g id="Group-2-Copy-41" transform="translate(6939.000000, 127.000000)">
                            <g id="Group" transform="translate(0.000000, 44.000000)">
                                <g id="Group-79" transform="translate(116.000000, 315.000000)">
                                    <g id="Group-3">
                                        <mask id="mask-2" fill="white">
                                            <use xlink:href="#path-1"></use>
                                        </mask>
                                        <g id="Clip-2"></g>
                                        <path d="M0.275111857,29.6424351 C0.893468741,22.2025852 -1.86947104,1.20001748 24.1621287,1.20001748 C50.1937284,1.20001748 84.4322587,0 84.4322587,0 C84.4322587,0 120.22861,0.239745011 125.179334,1.20001748 C130.130058,2.15964374 142.805407,-2.15964374 143.630742,25.1984285 C144.455433,52.5571469 143.836431,116.775207 142.392739,122.054767 C140.949046,127.334327 142.18705,137.893447 114.134023,137.893447 C86.0816403,137.893447 42.7657083,138.133192 34.5149318,137.893447 C26.2648,137.653702 0.476287402,140.774264 0.275111857,103.575661 C0.275111857,103.575661 -0.343889821,37.082285 0.275111857,29.6424351" id="Fill-1" fill="#2EB642" mask="url(#mask-2)"></path>
                                    </g>
                                    <g id="Group-2" transform="translate(72.500000, 68.500000) rotate(-45.000000) translate(-72.500000, -68.500000) translate(42.000000, 50.000000)" fill="#FFFFFF">
                                        <path d="M50.2395325,22.7459787 C49.2181534,23.3428831 39.2586475,18.863512 39.233168,18.1061679 C39.2069428,17.3496863 49.3461437,12.3967595 49.8945522,12.698662 C50.4429607,12.999702 51.2609117,22.1490742 50.2395325,22.7459787 Z M9.88700509,24.1795845 C9.34452987,23.9751533 8.99531145,14.4971386 9.54202475,14.1322678 C10.0878904,13.767397 20.3177863,18.0397493 20.5483383,18.7703535 C20.7780426,19.5009576 10.4286327,24.3848782 9.88700509,24.1795845 Z M57.3179865,0.117089175 C54.7412292,-1.49679556 29.741598,14.1063905 29.741598,14.1063905 C29.741598,14.1063905 3.1543791,0.112776281 1.27436343,2.10878338 C-0.604804621,4.10479048 -0.563271362,34.5745203 2.46357081,36.7611573 C5.49041299,38.9469317 30.0382641,22.771856 30.0382641,22.771856 C30.0382641,22.771856 55.6430942,36.253961 58.5063462,34.7694631 C61.3695982,33.2849652 59.8930485,1.73183649 57.3179865,0.117089175 L57.3179865,0.117089175 Z" id="Fill-12"></path>
                                    </g>
                                </g>
                            </g>
                        </g>
                    </g>
                </g>
            </g>
        </g>
    </g>
</svg>