<svg id="fcc092c3-8256-4986-9c63-769ae1a006fd" data-name="Layer 1" xmlns="http://www.w3.org/2000/svg" xmlns:xlink="http://www.w3.org/1999/xlink" width="250" height="250" viewBox="0 0 733.6 847.52">
  <defs>
    <linearGradient id="b758c9b9-c7f3-448b-9d91-d5b68ddb5757" data-name="Градієнт без назви 14" x1="344.58" y1="645.01" x2="268.36" y2="380.04" gradientUnits="userSpaceOnUse">
      <stop offset="0" stop-color="#bbedb2"/>
      <stop offset="1" stop-color="#d1f0cb"/>
    </linearGradient>
    <linearGradient id="a0fe7d4b-000f-47d8-8e0b-64fd9ded0f40" data-name="Градієнт без назви 9" x1="557.7" y1="634.07" x2="557.7" y2="276.75" gradientUnits="userSpaceOnUse">
      <stop offset="0" stop-color="#c5f0bd"/>
      <stop offset="1" stop-color="#d6f2d1"/>
    </linearGradient>
    <linearGradient id="bf75f5c2-32a4-4160-b4d3-ea7d972370b7" data-name="Градієнт без назви 108" x1="312.53" y1="102.75" x2="342.98" y2="490.65" gradientUnits="userSpaceOnUse">
      <stop offset="0" stop-color="#e2f9de"/>
      <stop offset="1" stop-color="#d6f2d1"/>
    </linearGradient>
  </defs>
  <title>Butlers3</title>
  <g id="b349ef2c-6345-4f30-a5d1-c434682a7154" data-name="bg">
    <path d="M69.57,372.65c-12.88,78.06-17.43,152-10.17,219.15,3.07,28.4,19.36,39.53,41.39,43.6,2.36.43,4.63,3.33,5.4,5.18a9.29,9.29,0,0,1,.35,6.37,50.4,50.4,0,0,1-6.7,14.59A58.78,58.78,0,0,1,87.9,674.66l-.24.2a3.14,3.14,0,0,0-1.15,2,3.18,3.18,0,0,0,2.67,3.62,72.14,72.14,0,0,0,21.2-.12,80,80,0,0,0,22-6.66,87.73,87.73,0,0,0,10.73-6.06,93.13,93.13,0,0,0,10.12-7.85,102.73,102.73,0,0,0,13-14.19c91,11.93,201.6,18.08,325.62,18.08,28.1,0,42.72,2.32,54.63-25.92a460.39,460.39,0,0,0,32.63-119.59Z" style="fill: url(#b758c9b9-c7f3-448b-9d91-d5b68ddb5757)"/>
    <path d="M732.69,313.49c-1.46-27-8.56-42-31.28-50.28C656.07,246.69,616,237.3,579.63,237L381.81,452l20.6,113.91c60.86,15.06,123.08,24.55,192.15,29.37A103.23,103.23,0,0,0,601.71,614a93.24,93.24,0,0,0,6.58,11,86.47,86.47,0,0,0,7.8,9.54,80,80,0,0,0,18.07,14.19,72,72,0,0,0,19.7,7.81,3.19,3.19,0,0,0,3.46-4.7l-.15-.26A59.22,59.22,0,0,1,650.81,635a50.16,50.16,0,0,1-.95-16,44.39,44.39,0,0,1,1.44-7.17,42,42,0,0,1,2.49-6.42c1.24-2.51,7-6.86,8.41-6.83,20.7.55,33-6.7,38.37-27.36C721.71,489.91,737.63,404.83,732.69,313.49Z" style="fill: url(#a0fe7d4b-000f-47d8-8e0b-64fd9ded0f40)"/>
    <path d="M647.05,332.29C642.21,218.5,624.51,120.77,597,37c-5.78-17.59-21.51-30.62-44.27-27.88C454,21,352.66,38.75,261,57.88c-4.95,1-15.89,5.88-17.1,8.53l-.37,1L242,71.62c-.24.7-.55,1.44-.74,2.12l-.61,2.06-1.25,4.25-.94,4.18L238,86.37l-.31,2.08c-.2,1.39-.49,2.86-.64,4.28a74.91,74.91,0,0,0,.07,17.19,62.26,62.26,0,0,0,4.87,17.5,74.83,74.83,0,0,0,10.43,17l.82,1,.87,1,1.77,2c1.19,1.33,2.49,2.56,3.76,3.88a103.91,103.91,0,0,0,8.4,7.25,102.76,102.76,0,0,0,9.38,6.51,93.2,93.2,0,0,0,10.22,5.5l.15.07a2.18,2.18,0,0,1,1.09,2.89,2.21,2.21,0,0,1-1.71,1.27c-2.16.27-4.18.45-6.28.56-1.05.07-2.09.1-3.14.13s-2.1,0-3.15,0a114.4,114.4,0,0,1-12.75-.7,122.9,122.9,0,0,1-12.94-2.07c-2.14-.53-9.75-2.58-9.75-2.58S215,164,206.78,158.55A112.88,112.88,0,0,1,184,138.74,137.56,137.56,0,0,1,166.15,113c-1.24-2.31-2.32-4.64-3.47-7l-1.7-3.58c-.5-1.19-1-2.38-1.47-3.59-1-2.41-1.92-4.84-2.87-7.3-2.53-8.25-16.75-5.26-23.64-3.44C97.48,97.5,71.88,104,38.08,115,17.85,121.56-2.35,143.57.22,167.36,13.63,291.25,53.18,412.76,110,532c9.47,19.86,35.3,27.92,60.28,22.22,173.89-39.69,338.4-86,446.74-146.25C643.24,393.33,647.84,350.74,647.05,332.29Z" style="fill: url(#bf75f5c2-32a4-4160-b4d3-ea7d972370b7)"/>
  </g>
  <g id="ace8c64b-a485-439c-abb1-e631db83d367" data-name="butler">
    <path d="M206,761.31c-29.87,1.93-57.4,8.29-63.86,26.08s44,45.5,100.24,58.21c36.18,8.17,134.19-12.94,185.12-4.05s128.72,3.76,145.52-2.14c54.27-19,88.11-35,21-63.34s-149.86-8.89-201.85-8.89S259.32,757.86,206,761.31Z" style="fill: #efefef"/>
    <path d="M414.41,81.27,407.32,4.19a2.41,2.41,0,0,0-2-2.16,188.38,188.38,0,0,0-49.1-.86C330.67,3.93,301.8,15.55,294.34,18.7a2.42,2.42,0,0,0-1.41,2.74l16.88,75.44Z" style="fill: #626f70"/>
    <path d="M319.59,124s-26,1.75-31.24-.75-14.79-14.8-7.29-21.47,49.57-20.29,90.21-23.21,65.91,2.37,73.41,8.62.42,17.09-3.75,20.84-36.52,11.6-36.52,11.6Z" style="fill: #515e5e"/>
    <path d="M317.16,104.32s-10.16,3.37-13.26,5-2,3-.07,3.3,12.53.9,12.53.9Z" style="fill: #384242"/>
    <path d="M407.9,93.78s16.29,1.55,19.44,2.44,1.72,2.65-.29,4-11.25,2.93-11.25,2.93l-7.9-9" style="fill: #384242"/>
    <path d="M363.68,479.24l-67.12,41.54s-22.51,47.53-23.06,49.75-.4,2.38,2.21,3.85,57,17.59,57,17.59l28.38,4.66a1.37,1.37,0,0,0,1.57-1.21l5-35.67,5.15,32.1a1.35,1.35,0,0,0,1.57,1.19L395,589.37l44.47-18.23,14.45-7.58s2.12-1,1.56-4.3c-.76-4.51-28.23-68.29-28.23-68.29Z" style="fill: #384242"/>
    <path d="M339.65,749.91,336,789.32a1.73,1.73,0,0,1-1.73,1.58s-52.35,1.85-62.5,1.85-31.51-1.85-31.51-1.85a1.74,1.74,0,0,1-1.74-1.69c-.08-3.13,0-9.76,2-12.5,2.67-3.64,27.92-13.59,33.25-17.47s10.93-29.37,10.93-29.37Z" style="fill: #384242"/>
    <path d="M494.59,745.34A96.17,96.17,0,0,0,499,759.1c2.22,5.84,28.15,18.67,32.7,21.4,3.88,2.32,2.52,11.17,2.42,14.91a1.74,1.74,0,0,1-1.74,1.69s-13.12,4.39-34.86,2.94-49-7.59-49-7.59c-.8,0-13.41-50.46-13.41-50.46Z" style="fill: #384242"/>
    <polygon points="297.99 467.63 271.81 746.71 339.65 749.91 364.39 517.68 427.99 762.63 494.59 745.34 415.69 445.73 367.11 433.69 297.99 467.63" style="fill: #515e5e"/>
    <path d="M488.92,226.27a73.22,73.22,0,0,0,0-13.35c-.7-6.92-3.44-25.52-3.44-27.48a10,10,0,0,1,2.94-7.63c2.74-2.74,12.92-10.38,15.27-12.34s3.13-2.54,6.65-1.56,18.8,7.05,18.8,7.05L516.8,184.07l-6.65,57.17Z" style="fill: #f9f8f4"/>
    <path d="M529.14,171s10.82,8.09,12.29,11.52-.13,18.76-2,22-17.16,7.35-17.16,7.35l-10.06-28.44Z" style="fill: #efeeea"/>
    <path d="M552.87,160.88l-2.66,2.75-5.08,5.23-74.3,42.89a9.81,9.81,0,0,1-3.53-4.22,7.6,7.6,0,0,1-.53-2.82l74.3-42.89,7-1.68,3.83-.91A1,1,0,0,1,552.87,160.88Z" style="fill: #ffde9c"/>
    <path d="M545.13,168.86l-74.3,42.89a9.81,9.81,0,0,1-3.53-4.22L539.67,166a2.4,2.4,0,0,1,3,.5A22.33,22.33,0,0,0,545.13,168.86Z" style="fill: #f2b85a"/>
    <path d="M506.45,205.21a14.57,14.57,0,0,0,.53-5.76c-.5-4.66-1.34-13.53-.62-15.5,1-2.7,6.62-11.89,9.56-12.75s13.61.37,11.28,9.19-3.92,12.58-3.43,15.73,7.11,9.41,7.85,15.79-3.07,32.49-3.07,32.49l-31-9.2Z" style="fill: #f9f8f4"/>
    <path d="M369.52,233.16c-17.53-7.09-36-13.44-35.33-35.4l-2.7-16.5s-13.16-21.19-15.13-31.21-6.55-42.63-6.55-42.63,33.27-12.58,61.57-14.15S417.1,95,417.1,95s4.36,31.57,1.4,49.34c-2.1,12.68-8.05,29.73-15.1,39.62l.3,12.14C404.56,217.94,388.58,226.74,369.52,233.16Z" style="fill: #ffd3c2"/>
    <path d="M369.52,227.34c-14.58-9-26.48-18.77-35.33-29.58a2.69,2.69,0,0,0-3,2.07c-.88,2.51-13.07,47.34-13.07,47.34v70.77h97.94l-4.42-97.44s-4.83-19.63-5.16-21.39c-.65-3.42-2.8-3-2.8-3C393.91,208.3,382.93,219.16,369.52,227.34Z" style="fill: #f9f8f4"/>
    <path d="M367.11,304.77c.24-.95,0-59.66,0-59.66h4.39v59.66Z" style="fill: #e2e0d9"/>
    <polygon points="327.95 219.31 344.24 235.69 342 241.72 327.82 222.97 327.95 219.31" style="fill: #e2e0d9"/>
    <polygon points="408.46 218.12 396.06 234.85 397.71 241.72 408.72 223.08 408.46 218.12" style="fill: #e2e0d9"/>
    <path d="M319,455.4c1.07.21,33.14,14.67,33.14,14.67L371,453.92,385.3,469.1l31.93-15L409.3,268.7l-39.78,34.46-45.75-48.08Z" style="fill: #e2e0d9"/>
    <path d="M401.91,225.12c-.56-3.24-2.54-4.62-5.64-4.27-2.27.26-17.95,4.43-17.95,4.43-7-1.77-12.61-1-18,0,0,0-15.85-4.17-18.13-4.68a4.19,4.19,0,0,0-5,3c-1.44,6.42-.1,19.95,2.85,27.21a3.47,3.47,0,0,0,4.56,1.94c1.19-.42,16.57-6.92,16.57-6.92a34,34,0,0,0,15.64.75s14.47,6.68,16.75,6.93,4-1.77,5-4.05C401.29,243.35,403.43,234,401.91,225.12Z" style="fill: #9ac677"/>
    <path d="M295,297.23l3.89,90.8L295,426.56s-2.09,37.93-3.58,47.19-17.92,96.78-17.92,96.78a5.79,5.79,0,0,0,3.49.53c1.92-.34,12.46-4.36,16.75-10.88,2.93-4.46,16.84-26.66,20.56-38.79S340,398.52,340,398.52l-13.7-181.28-34.72,7.68Z" style="fill: #626f70"/>
    <path d="M410.17,214.44l39.11,2.8s5.57-.38,7.32,1.24,2.66,10.43,2.66,10.43l15,55.21,14.68-57.85,49.92,15.27s-32.89,113-34.65,118.34-15.86,14.89-19.68,16.25-16.44-3.92-20.26-5.09-27.8-24.58-27.8-24.58l-1.56,72.73s2.93,44.35,4.4,58.15,16.15,81.92,16.15,81.92a31.32,31.32,0,0,1-3.5,1.36c-1.37.38-9.34-2.84-13.63-7.89s-22.1-30-25.49-45.76c-1.6-7.48-7.68-37-12-66.16-4.83-32.42-4.08-68.34-4.08-68.34Z" style="fill: #626f70"/>
    <path d="M436.77,216.35,400.36,370.81s-.43,2.52-3.65,1.66c0,0,3.12-68.49,5-91.54s5.82-65.72,5.85-66.77c.07-2.38,2-3.23,3.87-3s20.15,2.07,22.61,2.42C437.6,214.09,436.77,216.35,436.77,216.35Z" style="fill: #515e5e"/>
    <path d="M298,223.53a2.49,2.49,0,0,1,1.85-2.75c2.27-.89,25.51-7.75,26.1-7.84s2.67.39,2.76,1.57c0,0,7,67.66,7.9,80s3.39,104,3.39,104Z" style="fill: #515e5e"/>
    <path d="M296.15,412.35c6.2.32,10,0,14.61-1.34a3,3,0,0,1,3.3,2.72l1.18,16.92a3,3,0,0,1-3.2,3.12,56.51,56.51,0,0,1-18.38-.87,3,3,0,0,1-2.89-3.07l2.6-14.71A3,3,0,0,1,296.15,412.35Z" style="fill: #515e5e"/>
    <ellipse cx="369.25" cy="323.52" rx="3.35" ry="6.67" style="fill: #515e5e"/>
    <path d="M347,445.68,309.59,306.76a25.71,25.71,0,0,1,4.24-.94,5.36,5.36,0,0,1,2.2.2l71.31,21.92a6.82,6.82,0,0,1,4.42,8.8L354.62,441.39a5.4,5.4,0,0,1-3.13,3.23A37.51,37.51,0,0,1,347,445.68Z" style="fill: #ffde9c"/>
    <path d="M344.29,445.38l-68.64-26.31a5.4,5.4,0,0,1-3.2-6.73L306,310.24a5.39,5.39,0,0,1,6.71-3.47l72.73,22.36a5.4,5.4,0,0,1,3.5,7L351.31,442.14A5.41,5.41,0,0,1,344.29,445.38Z" style="fill: #f7c172"/>
    <path d="M383.3,391.94c0,3.43-6.73,14.63-11.63,21.62a34.24,34.24,0,0,1-4.56,5.71c-1.35,1-8.42,2.41-9.76,1.69s-21.63-7.06-25.67-12.82c-1.45-2.06-24.92-9.67-24.92-9.67l29.14-32.38s5.73,2.21,8.38,3c1.3.39,7-1.25,14-1.25,8.33,0,10.53,1.39,14.4,2.93,6.85,2.6,5.87,7.84,4.13,11.08C380.83,385.76,383.29,389.79,383.3,391.94Z" style="fill: #f9f8f4"/>
    <path d="M291.6,224.92,280,227.48s-6.58.84-8,2.42S269,237,269,237s-6.49,12.72-13.2,30c-10.93,28.09-24.41,66.74-26.07,71.16-2.68,7.15-.73,19.43,4.68,24.94,3.55,3.62,82.71,50.47,82.71,50.47l18.76-47.48-47.46-29,21.35-41.13Z" style="fill: #626f70"/>
    <path d="M552.87,160.88l-2.66,2.75a5.55,5.55,0,0,1-2.11-3.49l3.83-.91A1,1,0,0,1,552.87,160.88Z" style="fill: #f2b85a"/>
    <path d="M363.66,330.73l-34.8-10.86a1.26,1.26,0,0,0-1.58.81L325.21,327a1.26,1.26,0,0,0,.83,1.6L361,339.45a1.26,1.26,0,0,0,1.57-.83l2-6.31A1.26,1.26,0,0,0,363.66,330.73Zm-32.18-4a1.41,1.41,0,1,1,1.41-1.41A1.42,1.42,0,0,1,331.48,326.74Zm27,8.35a1.41,1.41,0,1,1,1.42-1.41A1.41,1.41,0,0,1,358.44,335.09Z" style="fill: #ffde9c"/>
    <path d="M360.3,225.28a3.13,3.13,0,0,0-1.9,2.43,30.08,30.08,0,0,0-.87,8,32.61,32.61,0,0,0,2.14,9,1.91,1.91,0,0,0,1.52,1.14,79.82,79.82,0,0,1-1.43-11C359.73,230.82,360.3,225.28,360.3,225.28Z" style="fill: #6e9b59"/>
    <path d="M378.32,225.28a66.52,66.52,0,0,1,.51,10c-.3,3.4-2,11.31-2,11.31a3.49,3.49,0,0,0,2-1.74c1.16-1.84,1.93-4.94,2.34-8.53.42-3.76-.09-7.7-1.14-9.53C379.24,225.41,378.32,225.28,378.32,225.28Z" style="fill: #6e9b59"/>
    <path d="M364.39,517.68s2-23.42,2.06-24.23,2.27-.84,2.75,1.08-1.26,36.54-1.26,36.54Z" style="fill: #384242"/>
    <polygon points="366.83 512 437.04 760.28 442.76 758.8 368.14 500.94 366.83 512" style="fill: #384242"/>
    <path d="M434.42,403.53a51.94,51.94,0,0,1-16.47.52,3,3,0,0,0-3,3.08l.75,16.95a3,3,0,0,0,3.53,2.73,56.18,56.18,0,0,0,18.16-2.94,3,3,0,0,0,2.53-3.38L437.5,406A3,3,0,0,0,434.42,403.53Z" style="fill: #515e5e"/>
    <path d="M474.24,284.12s-6.9,24.75-7.34,27-4.18,4-3.47,0,7.81-38,7.81-38Z" style="fill: #515e5e"/>
    <path d="M436.45,346.46,428,338.74s-2-.46,0,3.16,8.25,12.28,8.25,12.28Z" style="fill: #515e5e"/>
    <path d="M288.44,337.07l-13.8-7.77s-1.56-2.55,1.31-2.12,14.85,5.34,14.85,5.34Z" style="fill: #515e5e"/>
    <ellipse cx="309.14" cy="396.2" rx="2.91" ry="4.73" transform="translate(-188.55 465.82) rotate(-60)" style="fill: #515e5e"/>
    <ellipse cx="296.87" cy="389.12" rx="2.91" ry="4.73" transform="matrix(0.5, -0.87, 0.87, 0.5, -188.55, 451.66)" style="fill: #515e5e"/>
    <ellipse cx="521.18" cy="268.47" rx="4.73" ry="2.91" transform="translate(116.22 692.4) rotate(-73.57)" style="fill: #515e5e"/>
    <ellipse cx="525.18" cy="254.89" rx="4.73" ry="2.91" transform="translate(132.12 686.5) rotate(-73.57)" style="fill: #515e5e"/>
    <path d="M376.82,381.84s-7.57-4.69-14.13-6.11c0,0-2-3.08,5.43-1.12s9.94,3.29,9.94,3.29A6.55,6.55,0,0,1,376.82,381.84Z" style="fill: #efeeea"/>
    <ellipse cx="371.07" cy="427.69" rx="3.35" ry="6.67" style="fill: #515e5e"/>
    <path d="M403.4,184c-3.7,4.49-15.64,12.61-22.83,12.75-6.06.12-20-2.19-29.25-8-4.67-2.95-3.36,1,1.18,4.52,3.28,2.56,13.25,8.49,27.88,9.23,14.43.74,23.17-11.08,23.17-11.08Z" style="fill: #e8a397"/>
    <path d="M407.36,93.78s.57,5.08,2.91,6.08,8.16,6.91,8.81,17.87c0,0,2.74,0,2.34-6.32-.33-5.23-4.29-16.47-4.29-16.47C413.9,94.4,410.62,94.07,407.36,93.78Z" style="fill: #473f3d"/>
    <path d="M346.44,96.84s1.08,3.77-1.61,4.66-9.11,4-9.37,11.87-1.22,19.53-1.22,19.53l-3,.82s-.3-10.61-3-13.73c-.48-.56-5.15.66-5.38,2.49-.87,7,1.21,21.6,1.92,23.2a78,78,0,0,1,4.06,9.2c1.25,3.6,2.25,20.6,2.66,26.38-1.65,1.24-3,.05-6.61-5.78s-13.8-35.33-14.25-42.28-.82-25.78-.82-25.78A130.58,130.58,0,0,1,346.44,96.84Z" style="fill: #473f3d"/>
    <path d="M325.61,125.41c-.71.54.39,14.51.88,15.58s1.14,2.53,1.74,1.6-.77-7.82-.77-9.29c.85-.94,1.1-5.1.44-7.16A1.35,1.35,0,0,0,325.61,125.41Z" style="fill: #e8a397"/>
    <path d="M380,175.42c-13.29-1.33-16.42-9.69-13.88-12.1s12.49.16,19.71.44c5.6.22,10.28-3.1,12.11-.82S390.17,176.43,380,175.42Z" style="fill: #e8a397"/>
    <path d="M385,153.68c1.52,0,7.43-4,6.27-5.15-.53-.55-3.54.13-6.88.05-3.71-.08-7.79-.88-8.5-.31C374.33,149.53,380.91,153.57,385,153.68Z" style="fill: #e8a397"/>
    <ellipse cx="362.53" cy="129.11" rx="5.06" ry="8.67" style="fill: #473f3d"/>
    <ellipse cx="401.73" cy="128.08" rx="5.06" ry="8.67" style="fill: #473f3d"/>
    <path d="M370.49,105.48c-4.63-2.16-13.8,1.9-21.54,5.76a.87.87,0,0,0-.66,1.08l.42,1.71a.89.89,0,0,0,1,.66c7.28-1.63,15.85-3.62,21.13-3.15a.89.89,0,0,0,.78-1l-.33-3.68C371.2,106.37,371.2,105.84,370.49,105.48Z" style="fill: #473f3d"/>
    <path d="M394.73,114.46a75.21,75.21,0,0,1,15.48.86.75.75,0,0,0,.79-.61l.34-1.81a.76.76,0,0,0-.59-.88c-4.65-2.37-11.24-3.89-15.93-3-.43.24-.8.36-.8.84v3.8A.76.76,0,0,0,394.73,114.46Z" style="fill: #473f3d"/>
  </g>
</svg>
