<svg id="aa26ef9b-ed49-4529-87a9-28af74c1c8de" data-name="Layer 1" xmlns="http://www.w3.org/2000/svg" xmlns:xlink="http://www.w3.org/1999/xlink" width="250" height="250" viewBox="0 0 906.02 934.16">
  <defs>
    <linearGradient id="aa49df39-0186-4cb1-ad9a-c953598093a7" x1="378.2" y1="808.95" x2="555.58" y2="154.37" gradientTransform="matrix(1, 0, 0, -1, -51, 855.59)" gradientUnits="userSpaceOnUse">
      <stop offset="0" stop-color="#e2f9de"/>
      <stop offset="1" stop-color="#d6f2d1"/>
    </linearGradient>
  </defs>
  <title>Butlers1new2</title>
  <g id="a0870979-ffd5-4db1-bff3-ef3656b5e8fe" data-name="bg">
    <path d="M108.58,164.26C153.45,86,176.71,27.59,267.35,5.91S435.11,25,510.35,80.43c53.22,39.22,230,119.56,342.77,195.68,50.32,34,60,130,48.63,180.66-14.81,65.82-34.63,195.82-122.62,248.31C569,830.49,191.31,778.84,130.79,784.71,44.93,793.05,6.62,728.47.22,599.59-4.16,511.59,58.87,251,108.58,164.26Z" transform="translate(0 0.01)" style="fill: url(#aa49df39-0186-4cb1-ad9a-c953598093a7)"/>
    <path d="M63.62,809.73c-19.92,7.15-53.86,24.48-18.39,41.86s205.64,22.52,255.68,15.7,55.87-2.63,55.87-2.63-20.86,18,6.69,37.89,133.32,10,184.72,21.33S735,943,755,914.59s26.43-45.15,26.43-45.15S864,872.15,864,851.59s-46.29-33-46.29-33Z" transform="translate(0 0.01)" style="fill: #efefef"/>
    <path d="M836.07,150.8l-6.91,683.86a8,8,0,0,1-8.11,7.89l-.6,0L579.33,820.06l-264,24.81L65.49,838.19a8,8,0,0,1-7.75-7.82L45.23,149.93a8,8,0,0,1,7.87-8.13h.44l66.06,2.78,181.31,7.75,269.78-35.28,2.94.29,255.26,25.41A8,8,0,0,1,836.07,150.8Z" transform="translate(0 0.01)" style="fill: #fff0d7"/>
    <polygon points="315.35 844.88 579.33 820.07 570.69 117.11 300.92 152.39 315.35 844.88" style="fill: #ffe9c2"/>
    <g style="opacity: 0.5">
      <polygon points="734.9 492.87 834.68 343.11 833.72 438.01 776.97 524.98 734.9 492.87" style="fill: #ffdeae"/>
      <path d="M830.66,741l-.94,93.63a8,8,0,0,1-8.11,7.89l-.6,0-39.08-3.65,36-106.81Z" transform="translate(0 0.01)" style="fill: #ffdeae"/>
      <polygon points="818.27 352.22 728.04 487.63 681.92 452.4 766.22 316.06 818.27 352.22" style="fill: #ffdeae"/>
      <polygon points="813.24 563.52 744.73 669.92 709.07 644.78 779.11 537.45 813.24 563.52" style="fill: #ffdeae"/>
      <polygon points="808.08 140.68 787.18 174.38 744.17 140.81 748 134.7 808.08 140.68" style="fill: #ffdeae"/>
      <polygon points="740.91 766.39 715.3 806.87 618.17 784.08 664.6 712.94 740.91 766.39" style="fill: #ffdeae"/>
      <polygon points="739.75 250.86 668.3 366.02 595.15 310.3 665.72 194.18 739.75 250.86" style="fill: #ffdeae"/>
      <polygon points="710.42 814.58 699.87 831.25 633.42 825.05 648.92 800.14 710.42 814.58" style="fill: #ffdeae"/>
      <path d="M646,610.82l-56.79,85.24-7.74-8.25a3.85,3.85,0,0,0-.89-.72L539,661.48l41.66-67.57,13.86-19.32Z" transform="translate(0 0.01)" style="fill: #ffdeae"/>
      <path d="M635.69,227l-47.43,78-12.18-9.27-.34-.24L498.62,248,554,169.52Z" transform="translate(0 0.01)" style="fill: #ffdeae"/>
      <path d="M622.5,122.19l-19,71.66L555.39,160h0l-.06-.06-50.56-34.15,66.48-8.69,2.94.29Z" transform="translate(0 0.01)" style="fill: #ffdeae"/>
      <path d="M575.54,694.11l8.72,9.31-9.2,13.82-.08.13-24.24,39.31-51-31.47,34.78-56.4Z" transform="translate(0 0.01)" style="fill: #ffdeae"/>
      <polygon points="527.15 664.3 467.66 760.81 363.47 694.92 422.23 599.61 527.15 664.3" style="fill: #ffdeae"/>
      <polygon points="520.43 423.89 493.67 467.3 450.57 441.31 454.23 383.08 520.43 423.89" style="fill: #ffdeae"/>
      <polygon points="515.43 557.65 475.55 622.37 426.75 592.28 466.63 527.58 515.43 557.65" style="fill: #ffdeae"/>
      <polygon points="450.63 304.56 446.55 368.25 431.13 358.73 433.67 294.12 450.63 304.56" style="fill: #ffdeae"/>
      <polygon points="425.73 167.49 408.93 192.71 336.16 147.86 384.07 141.59 425.73 167.49" style="fill: #ffdeae"/>
      <polygon points="404.15 199.87 373.01 246.61 305.04 204.71 261.75 172.7 253.81 150.35 301.47 152.39 322.63 149.62 404.15 199.87" style="fill: #ffdeae"/>
      <polygon points="352.06 697.03 333.14 727.74 315.73 716.86 279.44 695.58 304.82 653.18 352.06 697.03" style="fill: #ffdeae"/>
      <path d="M341.47,376.83l-37.25,68.5L280.35,475.5,238,446.64l63.73-94.46,1.34,1,.25.16Z" transform="translate(0 0.01)" style="fill: #ffdeae"/>
      <polygon points="298.37 647.19 272.01 691.23 237.44 670.97 270.39 621.21 298.37 647.19" style="fill: #ffdeae"/>
      <polygon points="295.64 567.48 230.01 666.61 196.1 646.73 264 546.45 295.64 567.48" style="fill: #ffdeae"/>
      <polygon points="200.82 726.29 264.69 825.57 251.5 843.16 203.62 841.88 203.61 841.88 146.68 808.06 200.82 726.29" style="fill: #ffdeae"/>
      <polygon points="239.46 307.89 206.63 356.49 147.62 312.93 161.23 252.23 239.46 307.89" style="fill: #ffdeae"/>
      <polygon points="225.24 673.8 184.13 735.9 150.56 714.02 191.27 653.88 225.24 673.8" style="fill: #ffdeae"/>
      <polygon points="146.05 582.92 184.87 647.98 143.34 709.31 85.99 671.96 146.05 582.92" style="fill: #ffdeae"/>
      <polygon points="182.11 514.09 130.01 591.3 80.58 558.44 133.54 480.07 182.11 514.09" style="fill: #ffdeae"/>
      <polygon points="153.63 246.82 148.18 271.1 46.67 198.38 46.15 170.36 153.63 246.82" style="fill: #ffdeae"/>
      <path d="M153.38,327.89,138.83,349,75,302.1a8.4,8.4,0,0,1-1.76-11.75l.07-.09L83.79,276.5Z" transform="translate(0 0.01)" style="fill: #ffdeae"/>
      <polygon points="146.12 280.23 140.04 307.35 47.41 238.98 46.87 209.11 146.12 280.23" style="fill: #ffdeae"/>
    </g>
    <path d="M831.31,622.59l-47.57,75.2-32.53-22.93,80.84-125.52.16-16.16-14.85,23.06-34.08-26L833,454l.16-16-56.75,87-42.07-32.13,99.78-149.75.15-15.77-11.79,17.71L770.2,308.75l65.33-105.67.17-16.65-72.53,117.3L731,280.4l86.08-138.81-9.55-1-20.9,33.7-43-33.57,3.82-6.11-9.56-.95-44.55,71.14-23.67-18.12L704,130.33l-9.5-1-54.84,90.26L610.49,199.1,630.62,123l-8.67-.86-19,71.66L554.84,160h-.07l-50.55-34.17-12.89,1.69,55,37.15-55.61,78.84-75-46.25,43.68-65.57-11.33,1.49L430,160.3l-33-20.48-13.48,1.77,41.66,25.89-16.81,25.23-72.76-44.86-13.53,1.74,81.52,50.26-31.14,46.74-68-41.9-43.29-32-8-22.34L244,150l7.64,21.51-90.05,6.13-13-9.4,14.55-21.67L153,146.06l-11.46,17.05-25.8-18.64-15.62-.67,36.62,26.46L112,207.05,45.41,159.64l.2,10.71,107.46,76.46-5.45,24.28L46.12,198.38l.2,10.73,99.26,71.11-6.09,27.12L46.87,239l.2,10.85,29.22,21.57-10.4,13.66a17,17,0,0,0,3.23,23.82l.23.18,64,47.08L96.9,409.06,49.34,375.81l.2,10.64L92,416.15,51.17,475.47l.27,14.78L65.88,469.3l33.61,44.89-46.34,68.6.27,15,21.79-32.2,49.44,32.87L55.36,701.16l.27,15,25-37,28.22,18.39L56.69,773.28,57,788.06l59.09-85.81L138,716.44,58.6,833.7a8,8,0,0,0,6.93,4.48H66l32.72-48.32,35.32,21-19,28.67,10.14.27,16.25-24.54,44,26.16,17.66.47-56.94-33.81,54.14-81.78,63.88,99.29L251,843.15l10.55.29,55.66-74.34a3.62,3.62,0,0,0,.22-.32l18-29.16,60.46,37.81-43.61,64,11.13-1,39.79-58.37,36.74,23L421.49,835l10.74-1,62.41-101.4,51,31.46-38.75,62.86,10.74-1L553,768.53l23.57,14.52a3.94,3.94,0,0,0,1.27.53l25.86,6.07-20.1,30.81,9.69.9,19.33-29.62,26.9,6.32-16.23,26.09,9.58.9,15.5-24.92,61.5,14.46-10.55,16.67,9.63.9,77.22-122.08,23.88,16.83L772.57,838.05l8.81.82,36-106.82,12.72,9,.11-10.46L790.77,702.8,831.13,639Zm-52.75-85.15,34.13,26.06L744.17,669.9l-35.65-25.13Zm-6.86-5.24L701.48,639.82l-44.26-31.23L729.57,500ZM500.5,471.73l26.71-43.32,45,27.75,58.67,52.14L605,544.36,578.62,519a4.49,4.49,0,0,0-.77-.59Zm44.58,36.93L519.4,550.32l-48.8-30.08L496,479.06Zm32.59-59.18a4.27,4.27,0,0,0-.6-.45l-45.34-28,29.56-48,10.79,6.65,97.57,74.51-33.7,47ZM524.4,416.59l-70.1-43.21,4.08-63.67L554,368.59Zm-4.52,7.33-26.75,43.4-43.11-26,3.66-58.22ZM446,368.23l-15.43-9.51,2.55-64.61,17,10.45Zm-.62,9.73-4.05,64.31-61.06,97.16L338.69,513.8,428,367.22ZM305.73,503.59l.17.1,21,12.94L305.66,551.5l-5.81,8.78-96-63.83,28.8-42.69Zm-68.29-57,63.73-94.46,1.36,1,.24.16,38.16,23.52-37.26,68.5-23.88,30.18Zm73.06,49.79-23.58-16.07,23.73-30a3.65,3.65,0,0,0,.4-.62l37.21-68.42,44.36,27.35L331.36,509.29Zm86.6-95.09L307.4,346,306,345l2.38-3.54a4.7,4.7,0,0,0,.39-.69l16.11-37.13,95.76,59ZM301,337l-2,3-99.11-70.43,26.54-34.5,74.74,54,.26.17,16,9.89Zm-6.87,10.17-63.82,94.6-48.95-33.36,64.55-95.55ZM225.51,448.92l-39.14,58-48.57-34,38.76-57.33ZM199,503.59l57.27,38.07-66.64,98.43L150.81,575Zm64.44,42.84,31.63,21-65.61,99.16-33.91-19.87Zm6.39,74.76,28,26-26.36,44L236.9,670.93Zm4.82-7.28,38.21-57.72.09-.14,21.26-34.9,91.08,56.15L356.11,689.59Zm112.94-70L447,449.5l41.61,25.09L429.82,570Zm78.49-16.32,48.8,30.08L475,622.36l-48.8-30.09Zm86.37-14.46L573,525.52l27,25.91L573,589l-.17.25L531.1,657l-48.8-30.09Zm27.65,80.8L594,574.59l51.43,36.26-56.79,85.23-7.74-8.26a4.33,4.33,0,0,0-.88-.72l-41.54-25.61ZM599,567.59l77.5-108.07,46.22,35.29L650.18,603.66ZM765.67,316.05l52,36.16L727.49,487.59l-46.12-35.22Zm-7-5-52.19,84.41-31.81-24.23,51.8-83.51ZM739,148.14l43,33.58-38.3,61.77L700.2,210.14Zm-73.85,46,74,56.68L667.75,366,594.6,310.29ZM553.43,169.52,635.13,227l-47.42,78-12.18-9.27a2.71,2.71,0,0,0-.35-.24L498.08,248Zm-60.32,85.53,77.38,47.7,131.4,100.09L674.5,447.15,577.13,372.8a2.71,2.71,0,0,0-.35-.24L460.7,301Zm-82.18-50.66,74.83,46.13-32.41,46L379.8,251.12Zm13.78,84.53-2.55,64.67-93-57.36,32.14-46.37Zm-125.2-77.19.3.2,54.11,33.35-32.14,46.38L306.08,282,253.24,243.8l35-40.43Zm-43.21-32,25,18.46-35,40.51-73.78-53.29ZM119.05,212l24.67-36.73L219.45,230l-26.58,34.58Zm41.63,40.19,78.23,55.66-32.83,48.6-59-43.56ZM74.45,302.11a8.39,8.39,0,0,1-1.81-11.71l.1-.13L83.22,276.5l69.61,51.39L138.28,349ZM159.76,333l41.49,30.58L147,444l-42.95-30ZM71.07,461.8l28.05-40.72,43,30.06-37.48,55.45Zm9,96.63L133,480.06l48.57,34-52.11,77.23Zm5.4,113.51,60.07-89L184.35,648l-41.53,61.34Zm53.29,131.71-35.25-20.93,41.7-61.58,33.66,21.92Zm44.86-67.76L150,714l40.71-60.14,34,19.92ZM310.2,764.1l-40.52,54.1L205.5,718.44l26.67-40.29,78.59,46.06,17.34,10.84Zm22.42-36.37-17.4-10.89-36.33-21.25,25.38-42.4L351.5,697Zm111.81,69.92L339.88,732.29l18.52-30,104.19,65.89Zm22.72-36.85L362.92,694.91l58.75-95.32,104.93,64.7Zm83.08-4.12-51-31.46L534,668.8l41,25.31,8.73,9.31-9.2,13.81-.08.13ZM608.75,782l-28.22-6.62-23-14.16,24.2-39.26,70.71-106.15L696.77,647Zm106,24.88-97.12-22.79,46.43-71.14,76.3,53.45ZM745,759.09l-76.2-53.38,35-53.72,75.32,53.09Z" transform="translate(0 0.01)" style="fill: #f8faff"/>
    <path d="M578.77,774.3l-21.25-13.1,20.68-33.55L578,712l-3.49,5.24-.08.13-24.24,39.32-51-31.46L534,668.8l41,25.31,2.84,3-.14-11.48-39.23-24.19,38.15-61.85-.19-15.3L573,589l-.17.25L531.1,657l-48.8-30.09,70.13-113.76L573,525.52l2.7,2.6L575.57,517,500.5,471.73l26.71-43.32,45,27.75,2.66,2.36-.12-10.93-43-26.52,29.56-48,10.79,6.65,1.86,1.42-.13-10.47L460.7,301l32.41-45.94,77.38,47.7,2.51,1.91-.13-10.56L498.08,248l55.35-78.48,18.06,12.71-.13-10.64L554.87,160h-.07l-50.58-34.19-12.88,1.69,55,37.15-55.61,78.84-75-46.25,43.68-65.56-11.34,1.48L430,160.3l-33-20.48-13.48,1.77,41.66,25.89-16.81,25.23-72.76-44.86-13.5,1.74h0l81.52,50.26-31.17,46.74-68-41.9L302,202.83l.22,10.56L354,245.28l-32.14,46.38L306.11,282l-2.5-1.81.22,10.51,13.67,8.43-12.88,29.67.54,26L341,376.84l-34,62.57.32,15.32,3.43-4.33a3.65,3.65,0,0,0,.4-.62l37.21-68.42,44.36,27.35L331.36,509.29,310.5,496.43l-2.45-1.67.22,10.4,18.62,11.48-17.77,29.18.32,15.56,3.43-5.18.09-.14,21.26-34.9,91.08,56.15L356.11,689.59l-44.87-41.7.25,12,40,37.15-18.92,30.71-17.4-10.89-2.53-1.48.21,10.19,15.2,9.5-14.5,23.52.31,14.92,3.3-4.41a3.62,3.62,0,0,0,.22-.32l18-29.16,60.46,37.81-43.61,64,11.14-1L403.15,782l36.74,23-18.44,29.92,10.73-1,62.46-101.35,51,31.46-38.75,62.86,2.89-.27,7.85-.74L553,768.53l23.57,14.52a3.94,3.94,0,0,0,1.27.53l1,.25ZM475,622.36l-48.8-30.09,39.88-64.68,48.8,30.08Zm70.09-113.7L519.4,550.32l-48.8-30.08L496,479.06Zm-52-41.37-43.11-26,3.66-58.22,66.2,40.81ZM446,368.23l-15.43-9.51,2.55-64.61,17,10.45Zm108,.36-29.6,48-70.1-43.21,4.08-63.67ZM411,204.38l74.83,46.13-32.41,45.95L379.8,251.12ZM361.33,249.8l63.45,39.11-2.62,64.68-93-57.36ZM307.4,346.05l-1.41-1,2.38-3.54a4.7,4.7,0,0,0,.39-.69l16.11-37.13,95.76,59L397.1,401.34ZM338.69,513.8,428,367.22,445.42,378l-4.05,64.31-61.06,97.16ZM387.6,544,447,449.5l41.61,25.09L429.82,570Zm56.79,253.7L339.88,732.29l18.52-30,104.19,65.89Zm22.72-36.85L362.92,694.91l58.75-95.32,104.93,64.7Z" transform="translate(0 0.01)" style="fill: #f0f3fc"/>
    <path d="M660.29,329c0,166.68-135.11,301.79-301.78,301.79S56.72,495.7,56.72,329A300.41,300.41,0,0,1,119.6,144.59l181.31,7.75,269.78-35.28,2.94.29A300.71,300.71,0,0,1,660.29,329Z" transform="translate(0 0.01)" style="fill: #ebf5ff;opacity: 0.25;isolation: isolate"/>
    <circle cx="358.51" cy="344.82" r="172.08" style="fill: #ebf5ff;opacity: 0.25;isolation: isolate"/>
    <circle cx="358.51" cy="344.82" r="78.35" style="fill: #ebf5ff;opacity: 0.25;isolation: isolate"/>
    <circle cx="358.51" cy="344.82" r="23.45" style="fill: #ebf5ff;opacity: 0.25;isolation: isolate"/>
  </g>
  <g id="e91cc036-3026-498c-8398-746fe87e0ff9" data-name="butlers">
    <path d="M475.92,495.38S463,476.92,460.6,472.77c-1.85-3.22-7.33-12.64-8.93-15.3a1.41,1.41,0,0,0-1.3-.7c-3.82.15-18.82,2-30.63,11.58C407,478.64,398.42,490.59,396.4,494a1.42,1.42,0,0,0,.16,1.67c2.14,2.45,8.91,10.21,13.65,16.17,5.71,7.16,14.22,19.34,14.22,19.34Z" transform="translate(0 0.01)" style="fill: #626f70"/>
    <path d="M448.44,500.25c17.38-10.83,31.14-12.6,36.62-13.41,10.82-1.62,10.29,13.66,6.18,18.54s-31.13,25.92-31.13,25.92-29.88,17.7-36.17,19.49-14.63-5-10.78-12.73S427.66,513.21,448.44,500.25Z" transform="translate(0 0.01)" style="fill: #515e5e"/>
    <path d="M477.46,500.21s7.1-2.84,8.31-1.73-7.75,6.79-7.75,6.79Z" transform="translate(0 0.01)" style="fill: #384242"/>
    <path d="M429.05,534s-5.83,5.43-4.87,7.84,8.5-3.92,8.5-3.92Z" transform="translate(0 0.01)" style="fill: #384242"/>
    <path d="M573.11,613.59s7.6-5.73,10.36-6.93,22.23.2,24.39,3.2,1.4,10.07,1.4,10.07l-38.26,3Z" transform="translate(0 0.01)" style="fill: #f9f8f4"/>
    <path d="M572.1,621.1l1.9,16.56,9.55-5.54s4.59,1.59,7.27.21,4.75-10,4.75-10Z" transform="translate(0 0.01)" style="fill: #efeeea"/>
    <path d="M489.44,546.1a19.85,19.85,0,0,1-6.66,11.61l1.8,16.55L472.11,582l-23.36-4s-.69-11.08-1.2-15.66c-.12-1-.36-2.09-.55-3.13a104,104,0,0,0-4.06-13.62l-13-10.82s11.81-19.2,26.06-26.41,21.42-8.17,21.42-8.17,6.68,8,9.25,16.27S490.41,541,489.44,546.1Z" transform="translate(0 0.01)" style="fill: #ffd3c2"/>
    <path d="M455.74,512.94c-.48,1.08-5.06,6.66-4.83,8.28.19,1.4.69,7.08.82,8.66a.63.63,0,0,1-.32.62l-1,.59a.64.64,0,0,1-.89-.22l0,0c-.68-1.28-2.34-4.17-3.59-4.59-1.64-.55-4.59,3.26-4.51,5s4.9,9.58,6.07,10.74,4.74,2,5.28,3.48-.56,11.84-1.58,14.09a5.22,5.22,0,0,1-3.61,2.8c-1,.31-2.9-1.65-3.76-3.12-.71-1.22-4.55-5.81-5.49-7.68S432.64,543,431.65,541c-.74-1.48-2.59-7-2.59-7s12.7-18.42,27-25.63C456,508.38,456.2,511.85,455.74,512.94Z" transform="translate(0 0.01)" style="fill: #473f3d"/>
    <path d="M483.46,565l-5.2,13.21L448,567.69a1.72,1.72,0,0,0-1.33,1.63c-.18,1.46-.45,16.3-.45,16.3l17.88,42.63,36.57-13.66-8.76-39.42-5.18-.8s-1.78-7.24-2-8.41a1.11,1.11,0,0,0-1.21-1Z" transform="translate(0 0.01)" style="fill: #f9f8f4"/>
    <path d="M440.61,776.89c-.14,1.08-.21,1.81,1.54,2.21s34.79,8.79,34.79,8.79L481,767.1l3.25,18.38s41.91-12.6,42.49-12.82,1.1-.9.81-2.16c-.34-1.94-49-47.32-49-47.32Z" transform="translate(0 0.01)" style="fill: #384242"/>
    <path d="M540.36,852.44c.76,4.34,1.1,5.74,2.13,7.62,1.38,2.51,12.59,8.07,14.57,10.27s2.09,5.64,2,7.46a1.45,1.45,0,0,1-1.3,1.36,185.36,185.36,0,0,1-21.47.85c-6.16-.26-19-2.5-22.61-3.14a1.3,1.3,0,0,1-1-1.13l-3.47-30.67Z" transform="translate(0 0.01)" style="fill: #384242"/>
    <path d="M426.48,852l-6.16,15.57c-.18.62,1.61,6.46,2.14,7.78,2.18,5.51,6.73,12.5,9.22,14.57,4.64,3.86,17.14,3.68,21.16,1.29a16.11,16.11,0,0,0-.32-9.25c-.89-2.27-3.09-8-3.09-13.31,0-2.23,4.14-15.9,4.14-15.9Z" transform="translate(0 0.01)" style="fill: #384242"/>
    <path d="M519.82,743.17l20.54,109.27-34,3.37L485.78,747.52,481,784.25c-.78,6-3,12.08-4.28,17.55L457,863.87,426.44,852l17.87-71,5.45-92.6L506,677.29Z" transform="translate(0 0.01)" style="fill: #515e5e"/>
    <polygon points="466.82 701.88 486.96 707.7 491.06 694.32 496.88 705.32 506.8 698.94 500.67 597.25 484.34 616.67 462.79 606.76 466.82 701.88" style="fill: #e2e0d9"/>
    <path d="M474.72,646.4a292.93,292.93,0,0,1-1.26,69.77c-2,13.81-9.23,35-20.47,49.81-2.95,3.88-7.65,10.39-10.76,11a4,4,0,0,1-1.62,0s2-50.89,2.67-61.49-3-60.23-6.45-76.3-9.56-29.67-9.56-41.69a17.84,17.84,0,0,1,8.58-15.39c3.23-1.84,10.39-5.13,10.39-5.13L464,615.53Z" transform="translate(0 0.01)" style="fill: #626f70"/>
    <path d="M447.59,575.16a3.94,3.94,0,0,0-2.33-.06c-2.33,1-7.67,4.25-8.14,4.41s0,1.82,0,1.82a47,47,0,0,1,5.71,2.89c2.87,1.72,10.19,9.66,12.4,14.74s18.23,47.13,18.23,47.13l1.26.31s-2.63-22.72-3.21-26.36-5.73-25.12-11.19-34.53A24.52,24.52,0,0,0,447.59,575.16Z" transform="translate(0 0.01)" style="fill: #515e5e"/>
    <path d="M496.9,657.36s1.11,14.45,2.65,25.1c2.94,20.29,15,58,16.75,63,2.58,7.27,8.06,23,8.79,24.22s2.5.79,2.5.79-11.08-70.37-13.14-84.17-7.25-92.23-7.25-92.23l-5.09-20.76-16.33-1.1,10.71,34.44Z" transform="translate(0 0.01)" style="fill: #626f70"/>
    <path d="M485.93,571a.82.82,0,0,0-.72.87c0,.8,5.62,24.54,7.15,31.82s4.57,54.15,4.57,54.15,1.5-.32,1.56-1.47,1.27-37,1.28-43.36c0-12.83-3.84-34.87-4.35-37s-.94-3.52-.94-3.52a1.27,1.27,0,0,0-1.34-.87C492.05,571.68,485.93,571,485.93,571Z" transform="translate(0 0.01)" style="fill: #515e5e"/>
    <path d="M502.11,573.34a15.12,15.12,0,0,1,3.15.27,9,9,0,0,1,1.58,2l30.51,45.11,35.76-7.13,7.5,28s-37.5,10.61-41.05,12.27-9.23.94-15.32-4.5-19.55-20.63-19.55-20.63Z" transform="translate(0 0.01)" style="fill: #626f70"/>
    <path d="M473.92,577.59a15.94,15.94,0,0,1,6.66-1.13l5.2-4.21a1.82,1.82,0,0,1,2.54.43l.05.08c2.64,4.17,3.25,9.35,2.2,15.36a1.81,1.81,0,0,1-1.79,1.48l-6.78-1a16.41,16.41,0,0,1-6.19,1.21l-7.09,4a1.83,1.83,0,0,1-2.47-.73l0-.06c-2.4-4.65-3.9-9.21-3.29-14.78a1.8,1.8,0,0,1,2-1.56Z" transform="translate(0 0.01)" style="fill: #9ac677"/>
    <path d="M482.78,557.71c-7.88,4.58-17.63,3.87-20,3.87s-1.74,2.09,1.88,2.53,11.2,1.23,18.6-2.13Z" transform="translate(0 0.01)" style="fill: #e8a397"/>
    <path d="M444.21,531.59c-.22,1.28,3.4,6.19,4.07,7s2.57,1.51,2.84,1.17-1.28-1.56-1.84-2.29-.15-2.44-.48-3.28-2.1-4.5-3.1-4.5S444.49,530,444.21,531.59Z" transform="translate(0 0.01)" style="fill: #e8a397"/>
    <path d="M487.07,543.34a15.3,15.3,0,0,1-2.89,4.31c-2.35,2.29-9.15,1-10.76.08a1.13,1.13,0,0,1,.49-2.06c1.32-.13,6.74-3.27,7.88-4s3.59-.58,4.33-.35S487.69,541.79,487.07,543.34Z" transform="translate(0 0.01)" style="fill: #e8a397"/>
    <path d="M482.87,530.81c.7.39-.9,3.28-2,3.72s-5.22-.08-6-.65,3.17-1.72,4.46-2S482.3,530.49,482.87,530.81Z" transform="translate(0 0.01)" style="fill: #e8a397"/>
    <path d="M468.43,525a6.8,6.8,0,0,1,.57,2.88,1.82,1.82,0,0,1-1.25,1.82,2,2,0,0,1-2.39-.44,6.82,6.82,0,0,1-1.54-2.32c-1-2.27-.7-4.54.58-5.08S467.48,522.77,468.43,525Z" transform="translate(0 0.01)" style="fill: #473f3d"/>
    <path d="M483.66,518.64a8.13,8.13,0,0,1,.67,2.91c0,1.07-.54,1.14-1.15,1.39s-1.21.61-2-.23a8.48,8.48,0,0,1-1.5-2.41c-1-2.33-.88-4.59.22-5S482.68,516.31,483.66,518.64Z" transform="translate(0 0.01)" style="fill: #473f3d"/>
    <path d="M475,512.41l1.43,1.57a.47.47,0,0,0,.53.15c1-.38,3.72-1.58,6.29-1.19v-1.28a.55.55,0,0,0-.33-.35c-1-.36-4.83-1.58-7.76,0a.72.72,0,0,0-.24,1A.44.44,0,0,0,475,512.41Z" transform="translate(0 0.01)" style="fill: #473f3d"/>
    <path d="M466.94,517.06a18.47,18.47,0,0,0-8.17,4.94.81.81,0,0,1-1.08.09l-.19-.15a.78.78,0,0,1-.21-1c.9-1.64,3.78-6.15,8.81-6.88a.47.47,0,0,1,.5.32l.67,2.08a.47.47,0,0,1-.28.59Z" transform="translate(0 0.01)" style="fill: #473f3d"/>
    <path d="M480.58,576.45a34.42,34.42,0,0,1,1.34,6.1c.16,2.34.08,6.08.08,6.08a1.48,1.48,0,0,0,.92-1.09,18.87,18.87,0,0,0,.25-5.25,10.8,10.8,0,0,0-1.27-4.88C481.25,576.4,480.58,576.45,480.58,576.45Z" transform="translate(0 0.01)" style="fill: #6e9b59"/>
    <path d="M473.92,577.59s.49,3.93.8,6,1.09,6.26,1.09,6.26-.51-.06-1.09-1.27a20.08,20.08,0,0,1-1.26-4.69,16.7,16.7,0,0,1-.23-4.63A2.72,2.72,0,0,1,473.92,577.59Z" transform="translate(0 0.01)" style="fill: #6e9b59"/>
    <polygon points="498.65 675.44 513.88 681.63 514.45 686.34 499.33 680.89 498.65 675.44" style="fill: #515e5e"/>
    <ellipse cx="490.75" cy="681.99" rx="1.31" ry="3.09" style="fill: #515e5e"/>
    <ellipse cx="486.16" cy="627.27" rx="1.31" ry="3.09" transform="translate(-40.61 33.7) rotate(-3.81)" style="fill: #515e5e"/>
    <path d="M441.07,677.32l-.51,7.19a2.18,2.18,0,0,0,2,2.07,125.62,125.62,0,0,0,19,.67,2.22,2.22,0,0,0,2.27-2.09v-7.44a.74.74,0,0,0-.78-.68H463a99.61,99.61,0,0,1-21.07-.4.73.73,0,0,0-.85.59S441.07,677.29,441.07,677.32Z" transform="translate(0 0.01)" style="fill: #515e5e"/>
    <path d="M594.44,539.91l3.06,7.87a13.54,13.54,0,0,1,0,5.23c-.59,2.38-9.39,19.07-11.91,22.62s-18.61,4-19.18-.85,2.87-17.9,3.91-20.43-.69-16.52-.69-16.52Z" transform="translate(0 0.01)" style="fill: #384242"/>
    <path d="M602.82,331.33l-3.49,12.95,3.89,14.85s8.51-5.15,10.34-6.8,5.5-15.84,5.5-15.84Z" transform="translate(0 0.01)" style="fill: #efeeea"/>
    <polygon points="529.16 44.86 508.32 52.32 691.78 896.2 712.62 888.73 529.16 44.86" style="fill: #f4c87a"/>
    <polygon points="537 44.86 529.16 44.86 712.62 888.73 720.46 888.73 537 44.86" style="fill: #ffda9f"/>
    <polygon points="591.21 902.6 612.05 895.13 619.89 895.13 601.63 902.6 591.21 902.6" style="fill: #f4c87a"/>
    <path d="M693.38,858l-88,6.5-9-8.58,96.33-7.12C695.55,848.59,696,857.76,693.38,858Z" transform="translate(0 0.01)" style="fill: #f2b85a"/>
    <path d="M592.59,805.59l-9-8.58,96.34-7.11c2.84-.21,3.33,9,.68,9.19Z" transform="translate(0 0.01)" style="fill: #f2b85a"/>
    <path d="M579.79,746.79l-9-8.58,96.33-7.12c2.85-.21,3.33,9,.68,9.2Z" transform="translate(0 0.01)" style="fill: #f2b85a"/>
    <path d="M567,688l-9-8.59,96.34-7.11c2.84-.21,3.33,9,.68,9.19Z" transform="translate(0 0.01)" style="fill: #f2b85a"/>
    <path d="M554.2,629.12l-9-8.58,96.33-7.12c2.85-.21,3.33,9,.68,9.2Z" transform="translate(0 0.01)" style="fill: #f2b85a"/>
    <path d="M541.41,570.29l-9-8.59,96.32-7.11c2.84-.21,3.33,9,.68,9.2Z" transform="translate(0 0.01)" style="fill: #f2b85a"/>
    <path d="M528.61,511.45l-9-8.58,96.33-7.12c2.85-.21,3.33,9,.68,9.2Z" transform="translate(0 0.01)" style="fill: #f2b85a"/>
    <path d="M515.82,452.59l-9-8.59,96.34-7.11c2.84-.21,3.32,9,.68,9.2Z" transform="translate(0 0.01)" style="fill: #f2b85a"/>
    <path d="M503,393.78l-9-8.58,96.33-7.12c2.85-.21,3.33,9,.68,9.2Z" transform="translate(0 0.01)" style="fill: #f2b85a"/>
    <path d="M490.23,335l-9-8.58,96.33-7.12c2.85-.21,3.33,9,.68,9.2Z" transform="translate(0 0.01)" style="fill: #f2b85a"/>
    <path d="M477.43,276.11l-9-8.58,96.34-7.12c2.85-.21,3.33,9,.68,9.2Z" transform="translate(0 0.01)" style="fill: #f2b85a"/>
    <path d="M464.64,217.28l-9-8.58L552,201.59c2.85-.21,3.33,9,.68,9.2Z" transform="translate(0 0.01)" style="fill: #f2b85a"/>
    <path d="M451.84,158.44l-9-8.58,96.34-7.12c2.85-.21,3.33,9,.68,9.2Z" transform="translate(0 0.01)" style="fill: #f2b85a"/>
    <path d="M527,93.11l-88,6.5L430,91l96.33-7.12C529.21,83.7,529.69,92.91,527,93.11Z" transform="translate(0 0.01)" style="fill: #f2b85a"/>
    <polygon points="691.78 896.2 712.62 888.73 720.46 888.73 702.21 896.2 691.78 896.2" style="fill: #f4c87a"/>
    <polygon points="428.59 51.26 407.75 58.73 591.21 902.6 612.05 895.13 428.59 51.26" style="fill: #f4c87a"/>
    <polygon points="436.43 51.26 428.59 51.26 612.05 895.13 619.89 895.13 436.43 51.26" style="fill: #ffda9f"/>
    <path d="M602.84,358.59l2.55,5a1.36,1.36,0,0,1-.59,1.82l-.15.06-1.5.56Z" transform="translate(0 0.01)" style="fill: #515e5e"/>
    <path d="M364.93,237.72h0a42.55,42.55,0,0,0-58.73,13.15h0a42.56,42.56,0,0,0,6.45,53.46l40.67,39.11c3,2.59,7,1.75,8.29-1.34l20.31-53.29A42.55,42.55,0,0,0,364.93,237.72Zm-9,45.11a15.93,15.93,0,1,1-4.92-22,15.93,15.93,0,0,1,4.92,22h0Z" transform="translate(0 0.01)" style="fill: #81e07c"/>
    <path d="M389,292.05c-3.15.14-7.34-2.47-7.34-2.47l-2.78,7.28s-5.89-.91-9.37-4.25c-2.68-2.59-5-3.6-7-2.25s-3.94,7.56-3.94,12a15.24,15.24,0,0,0,4.2,10.12c1.91,2,11.71,6.68,16.74,7.13s19.92-2.68,19.92-2.68L389,292.05" transform="translate(0 0.01)" style="fill: #f9f8f4"/>
    <path d="M594.44,539.91l3.06,7.87a13.54,13.54,0,0,1,0,5.23c-.59,2.38-28.22,3.87-27.18,1.34s-.69-16.52-.69-16.52Z" transform="translate(0 0.01)" style="fill: #384242"/>
    <path d="M667.16,496.24l15.13,10.13a1,1,0,0,1,.4,1.11l-11.13,43.67a1,1,0,0,1-1,.75c-2-.11-7.08-.64-8.49-3.11-1.77-3.09-5.94-23.94-7.93-27.26s-10.83-12.46-10.83-12.46Z" transform="translate(0 0.01)" style="fill: #384242"/>
    <path d="M602.82,331.33s-2.09,1.26-3.56,1.08-8.4.36-8.4.36V340l10.76,2.08s8.32,3.49,11.94,10.25c1.84-1.65,5.5-15.84,5.5-15.84Z" transform="translate(0 0.01)" style="fill: #f9f8f4"/>
    <path d="M564.81,192.4l-.92,33.95-2.08,31.24-35.41-2.8V243.33a11.44,11.44,0,0,1-8.34-4.85c-.4-.55-.8-1.16-1.2-1.84a36.75,36.75,0,0,1-2.6-5.58c-3-7.78-4.84-18.5-3.5-27,1-6.66,3.53-19.52,3.53-19.52Z" transform="translate(0 0.01)" style="fill: #ffd3c2"/>
    <path d="M536.05,200a11.38,11.38,0,0,0,2.21,3.23c1.34,1.26,3.94,8.19,3.94,9.14l1.41.87s1.3-3.94,2.74-4,4.78.91,5.59,2,.24,12-1.18,13a4.57,4.57,0,0,0-2.22,3.83c-.16,1.19,1.32,5.38,2.79,6.69s8,3.54,10.38,3.13c2-.35,2.62-.45,3.83-4,2-5.91,3.35-17.7,3.43-20.07s0-12.17,0-12.17Z" transform="translate(0 0.01)" style="fill: #473f3d"/>
    <path d="M526.13,246.42a1.7,1.7,0,0,0-1.35,1.73c-.16,1.6-2.49,24.39-2.49,24.39L564.17,268s-.39-17.63-.43-19a1.42,1.42,0,0,0-1.36-1.44,93.3,93.3,0,0,0-15.1-1.4C539.63,246.13,526.13,246.42,526.13,246.42Z" transform="translate(0 0.01)" style="fill: #f9f8f4"/>
    <polygon points="548.92 452.14 560.76 543.72 594.44 539.92 585.13 439.9 600.03 468 643.72 518.45 667.16 496.25 626.97 448.62 606.98 396.12 541.36 405.27 548.92 452.14" style="fill: #515e5e"/>
    <polygon points="554.92 458.33 566.33 543.11 569.61 542.72 557.24 452.59 554.92 458.33" style="fill: #384242"/>
    <polygon points="654.46 509.9 609.27 459.79 597.18 435.66 594.22 436.81 606.32 461.15 652.07 512.16 654.46 509.9" style="fill: #384242"/>
    <path d="M624.81,342.46s7.87-27.26,9-30.21-1.19-9.87-3.33-12.73-37.2-34.16-37.2-34.16a12.67,12.67,0,0,0-2.35-2.16,16.32,16.32,0,0,0-2.69-.49l-25.12-5.88-35.87-1.08-18.68,1.89a14.93,14.93,0,0,0-3.95.1,10.8,10.8,0,0,0-2.83,1.68l-52,27.77L389,292.05l6.84,32.73,64.3-2.39,47.16-17.91A274.71,274.71,0,0,1,522.84,348c4.5,17.55,10.52,50.17,12.09,57.55,4.71,22.22,10.31,50.45,11.07,57a1.42,1.42,0,0,0,1.51,1.25l44.74-2.84-1.45-19.38,11.2,14.8a1.42,1.42,0,0,0,2,.3h0l23.89-16.83a1.41,1.41,0,0,0,.5-1.69c-2.64-6.54-15.58-46.68-22.7-70-8.59-28.12-13.94-53.23-14.92-59.43l11.51,9.69.55,13Z" transform="translate(0 0.01)" style="fill: #626f70"/>
    <path d="M519.7,178.78s-12.79-1.56-17.82-.6-8.11,9.34-1.35,13.49,25.79,10.65,40.26,13.68,36.22,3.39,40.9,2.87,6.56-7.8,1.8-11.87-21.87-9.09-21.87-9.09Z" transform="translate(0 0.01)" style="fill: #515e5e"/>
    <path d="M584.47,151.82,571.9,198.64a1.18,1.18,0,0,1-1.18.88c-4.5-.22-24.08-1.28-36.45-4.46-11.62-3-18.49-7.28-20.51-8.68a1.17,1.17,0,0,1-.49-1.21l9.38-47.47a1.18,1.18,0,0,1,1.11-.94c5.45-.23,33.86-.75,54.51,10.27a51.17,51.17,0,0,1,5.73,3.56A1.14,1.14,0,0,1,584.47,151.82Z" transform="translate(0 0.01)" style="fill: #626f70"/>
    <path d="M526.4,243.33a15.75,15.75,0,0,0,8.68-.59s5-.18,2,1.75-5,1.81-5,1.81l-6,.12Z" transform="translate(0 0.01)" style="fill: #e8a397"/>
    <path d="M514,257.09a32.58,32.58,0,0,0,5,7.55c7,8,30.14,9.64,35.39,9.35s16.9-2.11,19.7-4.27,5.39-8.55,5.63-9-.27-1.16-.56-1.38-15-5.53-15-5.53-12.31-.43-14.54-.43-24,.29-25.39.29a54,54,0,0,0-9.19,2.41A1.73,1.73,0,0,0,514,257.09Z" transform="translate(0 0.01)" style="fill: #515e5e"/>
    <path d="M546.61,212.32c.44-.66,2.71.15,3.18.93s-.41,6-.53,6.89a10.53,10.53,0,0,1-2.4,3.43c-.31.12-.84-1.06-.65-1.5s.93-2.46.65-3.15-1.25-.93-1.25-2.21A10.56,10.56,0,0,1,546.61,212.32Z" transform="translate(0 0.01)" style="fill: #e8a397"/>
    <path d="M507.26,304.48s7-3.15,8.49-3.74,2.85.67.42,2.77-6.83,5.63-6.83,5.63Z" transform="translate(0 0.01)" style="fill: #515e5e"/>
    <path d="M590.76,308.68s-2.35-16-2.71-18.47.67-4.24,2-.48,4.55,22.21,4.55,22.21Z" transform="translate(0 0.01)" style="fill: #515e5e"/>
    <path d="M602.27,318.37s7.42,4.6,8.2,5-1.05,11.27-1.05,11.27l-6.6-3.34Z" transform="translate(0 0.01)" style="fill: #515e5e"/>
    <path d="M378.84,296.86c3,.56,10.67-2.16,10.67-2.16l-.55-2.65a27.27,27.27,0,0,1-7.34-2.47Z" transform="translate(0 0.01)" style="fill: #efeeea"/>
    <ellipse cx="513.24" cy="208.31" rx="3.82" ry="1.17" transform="translate(208.23 670.68) rotate(-78.68)" style="fill: #473f3d"/>
    <path d="M515.34,202.64c.16.05.34-.16.42-.45l.41-1.63c.17-.64-2.21-1.32-4.24-.13a.75.75,0,0,0-.27.48l-.13.66c-.06.32,0,.61.2.63A25.79,25.79,0,0,1,515.34,202.64Z" transform="translate(0 0.01)" style="fill: #473f3d"/>
    <ellipse cx="527.05" cy="211.89" rx="3.82" ry="1.98" transform="translate(215.82 687.1) rotate(-78.68)" style="fill: #473f3d"/>
    <path d="M524.25,204.75l.23-1.47a.57.57,0,0,1,.41-.47c1.46-.39,6,1.44,8.23,3.65a.56.56,0,0,1,.16.52l-.09.42a.59.59,0,0,1-.68.46h0c-1.57-.42-5.78-1.87-7.81-2.45A.58.58,0,0,1,524.25,204.75Z" transform="translate(0 0.01)" style="fill: #473f3d"/>
    <path d="M515.47,219.09c-.62-.2-1.82.64-.84,2s1.45,1.49,3.06,1.49,3.43-.6,3.35-1.24c0-.2.26-.55-1.62-.79A12.38,12.38,0,0,1,515.47,219.09Z" transform="translate(0 0.01)" style="fill: #e8a397"/>
    <path d="M528.06,231.46a22.45,22.45,0,0,1-9.34,2.56,3,3,0,0,1-2.63-1.65c-.43-.83-.84-1.73-1.24-2.68-.2-.49,1-.41,2.15.11s8.31.64,9.73.64S528.69,231,528.06,231.46Z" transform="translate(0 0.01)" style="fill: #e8a397"/>
    <path d="M584.47,151.82c-1.12,3.46-7.35,2.1-11,2a127.07,127.07,0,0,1-19.09-3.23,106.86,106.86,0,0,1-13.58-4.82c-1.8-.91-4-2.94-1-1.81s5.2,1.56,11.83,3.38,19.17,3.06,24.82,3.25,3.48-2.58,1.84-3.56a50.91,50.91,0,0,1,5.71,3.56A1.14,1.14,0,0,1,584.47,151.82Z" transform="translate(0 0.01)" style="fill: #515e5e"/>
    <path d="M551.88,372l1.5,7.06a2.28,2.28,0,0,1-1.88,2.34,148.37,148.37,0,0,1-20.31,3.38,2.33,2.33,0,0,1-2.71-1.74l-.12-7.44a.76.76,0,0,1,.76-.78h0a109.32,109.32,0,0,0,21.72-3.35.77.77,0,0,1,1,.47S551.87,371.94,551.88,372Z" transform="translate(0 0.01)" style="fill: #515e5e"/>
    <path d="M609.25,614.39c.49,4.76.12,13-3.84,15.15s-17.54,3.57-19.67.22c-.71-1.11-.6-3.42.48-5.44.21-.4,1.86-5.59.45-8.57C583.68,609.45,609.25,614.39,609.25,614.39Z" transform="translate(0 0.01)" style="fill: #f9f8f4"/>
    <path d="M528,655.27s4.11-.06,5.19-1.87,2.36-6.81,2.36-6.81l2.9,13.33a26.77,26.77,0,0,0,9.89.5c2.72-.38,4.63.8,5.14,3s-.63,8.74-3,13.07a10.69,10.69,0,0,1-5.92,4.29c-4.59,1.35-14.88-1.64-17.76-2.6-2.67-.89-8.27-3.14-8.27-3.14Z" transform="translate(0 0.01)" style="fill: #f9f8f4"/>
    <polyline points="451.95 593.64 478.5 630.11 528 655.28 519.38 683.88 466.99 662.55 435.43 627.9" style="fill: #626f70"/>
    <path d="M476.07,666.24s-8.72-3.3-9.86-4.55-21.45-22.94-21.45-22.94-3.15-2.36,0,2.83c2.22,3.66,11,14.78,16,21a17.6,17.6,0,0,0,8.81,5.89l6.5,1.91Z" transform="translate(0 0.01)" style="fill: #515e5e"/>
  </g>
</svg>
