<svg id="aa883472-0a7e-4b81-99eb-a4312b9fd5e3" data-name="Layer 1" xmlns="http://www.w3.org/2000/svg" xmlns:xlink="http://www.w3.org/1999/xlink" width="250" height="250" viewBox="0 0 717.03 815.61">
  <defs>
    <linearGradient id="ab0c59f0-881b-4eeb-b211-5075eb4f3f23" data-name="Градієнт без назви 127" x1="387.35" y1="648.94" x2="291.03" y2="166.1" gradientUnits="userSpaceOnUse">
      <stop offset="0" stop-color="#b4e2aa"/>
      <stop offset="1" stop-color="#e2f9de"/>
    </linearGradient>
    <linearGradient id="baa81b68-854c-4666-b524-cab0603f266e" data-name="Градієнт без назви 11" x1="367.64" y1="516.43" x2="328.21" y2="520.81" gradientUnits="userSpaceOnUse">
      <stop offset="0" stop-color="#67a580"/>
      <stop offset="1" stop-color="#5a9171"/>
    </linearGradient>
    <linearGradient id="a1c1c7d3-bacf-453f-96ea-b8efe9ec6210" data-name="Градієнт без назви 21" x1="369.83" y1="516.18" x2="317.6" y2="521.85" gradientUnits="userSpaceOnUse">
      <stop offset="0" stop-color="#f2b149"/>
      <stop offset="1" stop-color="#dd8f28"/>
    </linearGradient>
  </defs>
  <title>Butlers10</title>
  <g id="afefedb6-dc05-4861-a234-6727f0b6adb9" data-name="bg">
    <path d="M74.17,771.07c-15.25,5.19-31.56,18.19-16.65,29.2s33.8,14.27,70.17,15.26c46.06,1.24,81.85-11.06,156.78-22,30.53-4.45,86.49-6.08,137.11-1.3,40.31,3.8,114.47,12.55,174.22,8,28.28-2.16,59.59-10.33,76.22-27.14,9.39-9.5-.73-33.67-64.71-31-74.66,3.12-91.8,6.69-193,11-65.89,2.81-154.43-1.64-213-.68S106.19,760.19,74.17,771.07Z" style="fill: #efefef"/>
    <path d="M577,642.6c178.08,7.34,184.45-204.67,29.91-405.11-104.09-135-379.27-124.67-535.66,45.87C-32.23,396.18-13.26,618.39,66,679c96.12,73.41,199.75,65,276.68,27.7C433.2,662.82,476.9,638.48,577,642.6Z" style="fill: url(#ab0c59f0-881b-4eeb-b211-5075eb4f3f23)"/>
  </g>
  <g id="e727440b-d147-49ac-a988-c61d425a014d" data-name="butlers">
    <g>
      <polygon points="643.64 438.6 649.37 454.45 595.59 504.18 583.11 442.15 620.38 417.67 643.64 438.6" style="fill: #f9f8f4"/>
      <polygon points="593.69 447.69 594.8 471.04 619.54 473.14 581.1 517.81 576.94 456.77 593.69 447.69" style="fill: #e2e0d9"/>
      <path d="M662.87,479.06c-1.18-3.3-6.72-12.68-6.72-12.68L629.45,475v2.15l-7-1L578.7,516.6l7.89,54.79,23.33-33.33,19.51-23.7s34.88-14.53,34.93-21.65S664.05,482.35,662.87,479.06Z" style="fill: #626f70"/>
      <polygon points="581.68 523.21 609.92 538.06 586.76 572.61 581.68 523.21" style="fill: #515e5e"/>
      <path d="M603.87,414c-.26-.06-11.08-9.48-11.26-9.71a23.33,23.33,0,0,0-6.11-1c-1.78,0-20.4-.33-20.4-.33s4.74,80.78,5.21,78.89,22.3-40.58,22.3-40.58Z" style="fill: #626f70"/>
      <path d="M641.63,455.78c-4.24,3.36-11.92,4.86-20,6.17l3.23-2.24c5-.1,13.68-2.57,20.23-5.34Z" style="fill: #e2e0d9"/>
      <path d="M604.73,437.43l8.08-14.05,1.56-5-10.1-6.82a2.9,2.9,0,0,0-2.73.3c-1.35.95-6.18,9.78-9.65,17.78s-14.55,43-14.55,43l1.9,4.14.27-4.77s18.63-23.62,21.38-28.67S604.73,437.43,604.73,437.43Z" style="fill: #515e5e"/>
      <path d="M583,512.12c.48-1.1,20.44-28.08,33.61-39.49s28-16.9,29.34-24,.91-8.13.91-8.13l.7,6.27a84.26,84.26,0,0,1,6,8.42c1.11,2.09,3.47,7.51,4.61,10.16a2.87,2.87,0,0,1-1.41,3.76,10.27,10.27,0,0,1-1.62.53c-16.34,3.93-22.13,7.84-31.05,14-6.19,4.29-40.61,32.46-40.61,32.46Z" style="fill: #515e5e"/>
      <path d="M590.09,475.51c0-.33,20.45-25.75,20.45-25.75l1.48,1.41-20.17,25Z" style="fill: #e2e0d9"/>
      <path d="M606.86,448.2a27,27,0,0,0,6.3,6.33,63.9,63.9,0,0,0,3.12,9.85,1.76,1.76,0,0,0,2.32.89,28,28,0,0,0,10.58-8,1.77,1.77,0,0,0-.2-2.44,72.44,72.44,0,0,0-8.26-5.82l-7.43-7.6c-2.7-4.07-5.43-8.29-7.74-10.43a1.76,1.76,0,0,0-2.39,0,18.51,18.51,0,0,0-6.26,12.32,1.69,1.69,0,0,0,.76,1.54C599.58,446.11,603.06,447.17,606.86,448.2Z" style="fill: #9ac677"/>
      <path d="M613.16,454.53s4.24-3.37,5.89-5.78,1.33,1,1.33,1a13.49,13.49,0,0,1-2.57,2.8,15.33,15.33,0,0,1-3.44,2.23A1.94,1.94,0,0,1,613.16,454.53Z" style="fill: #6e9b59"/>
      <path d="M606.86,448.2s3.47-5.44,5.7-6.43-.4-1.69-.4-1.69-1.55,1.34-2.73,2.49A13.12,13.12,0,0,0,607,446.7,5.51,5.51,0,0,0,606.86,448.2Z" style="fill: #6e9b59"/>
      <path d="M627.1,389.94a124.14,124.14,0,0,0-11.21,18.49,54.69,54.69,0,0,0-5.51,22.18c-.32,6,2,17.33,11.24,20.08s24.5-1.89,28.52-3.54c6-2.46,21.38-15.47,21.38-15.47Z" style="fill: #ffd3c2"/>
      <path d="M652.85,426.07s.92,5.65.75,6.88-4.38,7-4.38,7,0,1.51.64,1.67,2.32-1.54,2.92-1.6,1.39,1.59.46,2.82-8,5.23-8.4,5.52.6.81,1.87.69a68.26,68.26,0,0,0,13.19-4.82c3.64-2,7.5-8.2,7.5-8.2Z" style="fill: #473f3d"/>
      <path d="M617.41,404.21c-.16-.47,4.2-11,8.06-14.09s5.7-.62,5.7-.62l-.92,8.32s-3.53-.36-5,.13S618.28,406.85,617.41,404.21Z" style="fill: #473f3d"/>
      <path d="M686.94,414.07s5,8.82,6.06,17.36-3.08,14.93-14.33,11.69-28.55-15.68-40.46-30-16.54-33.83-17.14-40.61,8.77-8.92,15-6.11,18.64,10.12,18.64,10.12Z" style="fill: #515e5e"/>
      <path d="M714.6,396.33a1.4,1.4,0,0,1-.48,1.14c-2.41,2.11-11.55,9.82-16.21,13.17s-17.2,14.14-20.15,16.61a1.4,1.4,0,0,1-1.56.19c-3.53-1.84-13.23-4.81-27.57-20.77-9.22-10.27-11.61-22.84-12.11-25.84a1.45,1.45,0,0,1,.32-1.17c2.2-2.54,12.23-14.14,16-18,3.61-3.7,10.67-12.09,12.73-14.54a1.41,1.41,0,0,1,1.46-.46c4,1.13,21,6.48,33,19.81a63.56,63.56,0,0,1,11.28,17.75,3.65,3.65,0,0,0,.14.35A40.38,40.38,0,0,1,714.6,396.33Z" style="fill: #626f70"/>
      <path d="M714.6,396.33a1.4,1.4,0,0,1-.48,1.14c-6.3,4.13-19.71-3.77-28.9-14.66-8.7-10.33-13.28-18.09-14.54-21.54-1.36-3.73-.38-3.56.8-1.35s4.22,7.48,11.1,15.25c5,5.65,11.3,12.95,20.91,17.08,8,3.43,10.9-.13,7.94-7.69A40.38,40.38,0,0,1,714.6,396.33Z" style="fill: #515e5e"/>
      <ellipse cx="588.41" cy="478.07" rx="2.9" ry="1.82" transform="translate(-160.49 596.08) rotate(-48.05)" style="fill: #515e5e"/>
      <path d="M628.43,433.18c.08.63-3-.26-3.77-.91a8,8,0,0,1-1.46-3.86c0-.71,1.74,1,2.47,1.89S628.37,432.67,628.43,433.18Z" style="fill: #e8a397"/>
      <path d="M627.45,417.84a4.69,4.69,0,0,1-2.18,1.39,2.2,2.2,0,0,1-2.26-.66,2.4,2.4,0,0,1-.91-2.41,4.78,4.78,0,0,1,1.16-2.16c1.45-1.58,3.56-2,4.72-.94S628.9,416.26,627.45,417.84Z" style="fill: #473f3d"/>
      <path d="M633,413.62a23.21,23.21,0,0,0-7.84-7,1.07,1.07,0,0,1-.53-1.11l0-.25a.66.66,0,0,1,.8-.54c1.84.41,7,2,9.82,7a.5.5,0,0,1-.07.62l-1.55,1.39A.45.45,0,0,1,633,413.62Z" style="fill: #473f3d"/>
      <path d="M637.89,428.69a4.78,4.78,0,0,0-1.48,2.15,2.17,2.17,0,0,0,.57,2.29,2.43,2.43,0,0,0,2.39,1,5,5,0,0,0,2.21-1.11c1.65-1.4,2.16-3.51,1.14-4.71S639.54,427.28,637.89,428.69Z" style="fill: #473f3d"/>
      <path d="M642.13,422.81a23.49,23.49,0,0,1,6.59,8.1,1.1,1.1,0,0,0,1.07.6l.25,0a.61.61,0,0,0,.57-.73,15.1,15.1,0,0,0-6.55-10,.51.51,0,0,0-.62,0L642,422.14A.45.45,0,0,0,642.13,422.81Z" style="fill: #473f3d"/>
      <path d="M622.23,434.78c1.81,2.18,4.26,5.94,4.36,6.67s-5.82,1-8.6-2c-3.18-3.37-2.44-8.08-1.85-9S620,432,622.23,434.78Z" style="fill: #e8a397"/>
    </g>
    <g>
      <path d="M512.23,245.83l-81.69,8.9-4.16-38.24c13.78-4.56,19.4-9.66,20.38-17.84-8.91-.75-22.08,2.34-22.08,2.34l-1.58-14.5a117.11,117.11,0,0,0-129-103.61c-.86.1-1.72.19-2.57.32s-1.61.21-2.4.34q-.58.08-1.17.18l-.47.07a117.12,117.12,0,0,0-97,128.06L209.58,402.4l-81.7,8.91-19-190.55a195.52,195.52,0,0,1-1.16-24.67c0-.59,0-1.18,0-1.77q.18-8.19,1-16.23c.08-.74.16-1.47.25-2.2,0-.41.08-.8.14-1.2.08-.62.16-1.24.25-1.85.36-2.86.81-5.71,1.32-8.54.38-2.12.78-4.22,1.23-6.33.15-.66.28-1.3.43-2,.47-2.14,1-4.26,1.53-6.38.16-.62.33-1.24.5-1.86.09-.37.19-.74.3-1.1.17-.66.36-1.32.54-2,.11-.42.24-.83.37-1.25.19-.68.4-1.36.61-2s.41-1.35.63-2c.41-1.35.87-2.7,1.33-4,.22-.67.45-1.34.69-2,1.4-4,2.94-8,4.61-11.85.15-.4.32-.79.51-1.19s.34-.8.52-1.2c.5-1.14,1-2.27,1.54-3.4.29-.64.59-1.28.9-1.91q1.35-2.85,2.81-5.67l1-1.86c.33-.62.66-1.24,1-1.86l1-1.84c.69-1.23,1.38-2.45,2.1-3.66.35-.61.7-1.21,1.07-1.81.77-1.3,1.56-2.6,2.38-3.87,1.05-1.68,2.14-3.35,3.25-5,1.58-2.35,3.2-4.66,4.89-6.94.39-.54.79-1.07,1.2-1.61L148.9,78q1.9-2.5,3.91-4.93c.89-1.09,1.79-2.16,2.7-3.23q2.69-3.16,5.54-6.21l.19-.22L164,60.5l.33-.35c2.83-2.89,5.74-5.72,8.73-8.44.87-.78,1.73-1.55,2.61-2.32l.74-.65,3-2.55c2.15-1.82,4.35-3.57,6.59-5.28,0,0,0,0,.06,0,1.11-.84,2.2-1.67,3.32-2.48q3.39-2.51,6.9-4.84l.06,0c1.17-.78,2.34-1.55,3.52-2.3s2.4-1.51,3.6-2.26c2.43-1.48,4.87-2.91,7.37-4.27,1.22-.67,2.45-1.33,3.68-2l.07,0q5.69-3,11.57-5.59c1.3-.58,2.62-1.15,3.93-1.7L231,15l3.08-1.24q2-.78,4-1.53c1.35-.5,2.71-1,4.09-1.45,2.74-.95,5.5-1.83,8.3-2.64,0,0,0,0,0,0,1.39-.4,2.78-.8,4.18-1.18s2.82-.74,4.25-1.09,2.86-.69,4.3-1,2.88-.63,4.33-.92c5.76-1.15,11.63-2.07,17.59-2.71C394.38-10.72,492.9,68.41,504.79,177.58L512,243.49Z" style="fill: #defcec"/>
      <g>
        <path d="M267.63,3.91c-99.94,20-170.07,113.64-158.81,216.85l19.07,190.55,81.69-8.91-.25-2.34-64.19,7L126.07,216.52C115.48,119.35,177,30.63,267.63,3.91Z" style="fill: #bde5cf"/>
        <path d="M430.54,254.73l-4.16-38.24c13.78-4.56,19.4-9.66,20.38-17.84-8.91-.75-22.08,2.34-22.08,2.34l-1.58-14.5a117.11,117.11,0,0,0-129-103.61c-.86.1-1.72.19-2.57.32s-1.61.21-2.4.34l-1.17.18-.47.07a117.05,117.05,0,0,1,152.84,98.45l1.31,12a152.89,152.89,0,0,1,37.61-3.56s-9.12,17.46-35,27.13l3,27.44c16.16-7.37,53.5-8.76,64.75-1.79l.25,2.34C513.7,259.15,432,268.05,430.54,254.73Z" style="fill: #bde5cf"/>
      </g>
      <path d="M475.57,680.66,214.12,709.17c-55.87,6.09-99.1-35-105.2-90.9L88.19,428.15c-1.84-16.84,3.31-32.17,14.9-40.62,4.8-3.51,30.49-14.67,39.78-17.55l417,199.11c3.86,35.38-8,81.28-8,81.28C523.19,672.1,513.06,676.57,475.57,680.66Z" style="fill: #67a580"/>
      <path d="M506.05,667.88,244.59,696.4c-55.87,6.09-99.1-35-105.19-90.9L118.66,415.38c-2.6-23.83,8.78-44.62,32.61-47.21l376.33-41c23.82-2.6,39.41,15.24,42,39.07l20.73,190.12C596.44,612.2,561.92,661.79,506.05,667.88Z" style="fill: #9fddb3"/>
      <path d="M512.68,367.2,395.6,380l-75.93,8.28-144,15.7c-16.18,1.77-19.94,15.46-18.17,31.64l17,155.44c4.82,44.27,35.12,77.29,79.39,72.46l94.74-10.33,75.93-8.28,67.8-7.4c44.27-4.83,66.74-43.59,61.91-87.86l-17-155.44C535.49,378,528.87,365.43,512.68,367.2Z" style="fill: #95d1a6"/>
      <path d="M512.68,367.2,395.6,380l-75.93,8.28-144,15.7a21.2,21.2,0,0,0-10.06,3.52c.57-.1,1.16-.18,1.76-.25l144-15.71,75.93-8.28,117.08-12.76c16.19-1.77,22.81,10.79,24.57,27l17,155.45c3.89,35.72-10,67.85-38.77,81.46,34.37-11,51.32-45.72,47.06-84.73l-17-155.44C535.49,378,528.87,365.43,512.68,367.2Z" style="fill: #72b28c"/>
      <ellipse cx="351.71" cy="522.17" rx="84.91" ry="87.89" style="fill: #72b28c"/>
      <ellipse cx="357.68" cy="514.96" rx="84.91" ry="87.89" style="fill: #9fddb3"/>
      <path d="M384.7,490.2c-2-18.08-18.18-31-35.61-27.82-15.13,2.77-25.85,17.33-24.6,33.35a32.07,32.07,0,0,0,15.11,25c3.19,1.94,4.85,3.11,4.94,6.94l-1.33,40.94a4.68,4.68,0,0,0,4,4.58c9.06,1.21,22.77-.23,31.87-3.5a4.68,4.68,0,0,0,2.94-5.34l-10.15-39.82c-.74-3.75.75-5.17,3.42-7.75A32,32,0,0,0,384.7,490.2Z" style="fill: url(#baa81b68-854c-4666-b524-cab0603f266e)"/>
    </g>
    <g>
      <path d="M475.53,680.62,214.07,709.13c-55.87,6.1-99.1-35-105.19-90.89L88.14,428.11C86.31,411.27,91.45,396,103,387.49c4.81-3.5,30.49-14.67,39.78-17.54l417,199.11c3.85,35.37-8,81.28-8,81.28C523.15,672.06,513,676.53,475.53,680.62Z" style="fill: #f2b85a"/>
      <path d="M512.23,245.83l-81.69,8.9-4.16-38.24c13.78-4.56,19.4-9.66,20.38-17.84-8.91-.75-22.08,2.34-22.08,2.34l-1.58-14.5a117.11,117.11,0,0,0-129-103.61c-.86.1-1.72.19-2.57.32s-1.61.21-2.4.34q-.58.08-1.17.18l-.47.07a117.12,117.12,0,0,0-97,128.06L209.58,402.4l-81.7,8.91-19-190.55a195.52,195.52,0,0,1-1.16-24.67c0-.59,0-1.18,0-1.77q.18-8.19,1-16.23c.08-.74.16-1.47.25-2.2,0-.41.08-.8.14-1.2.08-.62.16-1.24.25-1.85.36-2.86.81-5.71,1.32-8.54.38-2.12.78-4.22,1.23-6.33.15-.66.28-1.3.43-2,.47-2.14,1-4.26,1.53-6.38.16-.62.33-1.24.5-1.86.09-.37.19-.74.3-1.1.17-.66.36-1.32.54-2,.11-.42.24-.83.37-1.25.19-.68.4-1.36.61-2s.41-1.35.63-2c.41-1.35.87-2.7,1.33-4,.22-.67.45-1.34.69-2,1.4-4,2.94-8,4.61-11.85.15-.4.32-.79.51-1.19s.34-.8.52-1.2c.5-1.14,1-2.27,1.54-3.4.29-.64.59-1.28.9-1.91q1.35-2.85,2.81-5.67l1-1.86c.33-.62.66-1.24,1-1.86l1-1.84c.69-1.23,1.38-2.45,2.1-3.66.35-.61.7-1.21,1.07-1.81.77-1.3,1.56-2.6,2.38-3.87,1.05-1.68,2.14-3.35,3.25-5,1.58-2.35,3.2-4.66,4.89-6.94.39-.54.79-1.07,1.2-1.61L148.9,78q1.9-2.5,3.91-4.93c.89-1.09,1.79-2.16,2.7-3.23q2.69-3.16,5.54-6.21l.19-.22L164,60.5l.33-.35c2.83-2.89,5.74-5.72,8.73-8.44.87-.78,1.73-1.55,2.61-2.32l.74-.65,3-2.55c2.15-1.82,4.35-3.57,6.59-5.28,0,0,0,0,.06,0,1.11-.84,2.2-1.67,3.32-2.48q3.39-2.51,6.9-4.84l.06,0c1.17-.78,2.34-1.55,3.52-2.3s2.4-1.51,3.6-2.26c2.43-1.48,4.87-2.91,7.37-4.27,1.22-.67,2.45-1.33,3.68-2l.07,0q5.69-3,11.57-5.59c1.3-.58,2.62-1.15,3.93-1.7L231,15l3.08-1.24q2-.78,4-1.53c1.35-.5,2.71-1,4.09-1.45,2.74-.95,5.5-1.83,8.3-2.64,0,0,0,0,0,0,1.39-.4,2.78-.8,4.18-1.18s2.82-.74,4.25-1.09,2.86-.69,4.3-1,2.88-.63,4.33-.92c5.76-1.15,11.63-2.07,17.59-2.71C394.38-10.72,492.9,68.41,504.79,177.58L512,243.49Z" style="fill: #ffe9c2"/>
      <g>
        <path d="M267.63,3.91c-99.94,20-170.07,113.64-158.81,216.85l19.07,190.55,81.69-8.91-.25-2.34-64.19,7L126.07,216.52C115.48,119.35,177,30.63,267.63,3.91Z" style="fill: #f4c87a"/>
        <path d="M430.54,254.73l-4.16-38.24c13.78-4.56,19.4-9.66,20.38-17.84-8.91-.75-22.08,2.34-22.08,2.34l-1.58-14.5a117.11,117.11,0,0,0-129-103.61c-.86.1-1.72.19-2.57.32s-1.61.21-2.4.34l-1.17.18-.47.07a117.05,117.05,0,0,1,152.84,98.45l1.31,12a152.89,152.89,0,0,1,37.61-3.56s-9.12,17.46-35,27.13l3,27.44c16.16-7.37,53.5-8.76,64.75-1.79l.25,2.34C513.7,259.15,432,268.05,430.54,254.73Z" style="fill: #f4c87a"/>
      </g>
      <path d="M506,667.85,244.55,696.36c-55.88,6.1-99.11-35-105.2-90.89L118.62,415.34c-2.6-23.82,8.77-44.61,32.6-47.21l376.33-41c23.83-2.6,39.42,15.25,42,39.08L590.3,556.29C596.39,612.16,561.87,661.76,506,667.85Z" style="fill: #f4c87a"/>
      <path d="M512.64,367.16,395.55,379.93l-75.93,8.28-144,15.71c-16.19,1.76-20,15.45-18.18,31.64L174.38,591c4.83,44.27,35.13,77.28,79.4,72.45l94.73-10.33,75.93-8.28,67.81-7.39c44.27-4.83,66.74-43.6,61.91-87.87L537.21,394.14C535.44,378,528.82,365.4,512.64,367.16Z" style="fill: #ffde9c"/>
      <path d="M512.64,367.16,395.55,379.93l-75.93,8.28-144,15.71a21.24,21.24,0,0,0-10.07,3.52c.58-.1,1.16-.19,1.77-.26l144-15.7,75.94-8.28,117.08-12.77c16.18-1.77,22.8,10.79,24.57,27l17,155.44c3.9,35.73-10,67.86-38.77,81.47,34.37-11,51.32-45.73,47.07-84.74L537.21,394.14C535.44,378,528.82,365.4,512.64,367.16Z" style="fill: #f2b85a"/>
      <ellipse cx="351.66" cy="522.14" rx="84.91" ry="87.89" style="fill: #f2b85a"/>
      <ellipse cx="357.63" cy="514.93" rx="84.91" ry="87.89" style="fill: #f4c87a"/>
      <path d="M384.65,490.17c-2-18.08-18.18-31-35.6-27.82-15.13,2.76-25.86,17.33-24.61,33.35a32.08,32.08,0,0,0,15.12,25c3.18,1.94,4.85,3.11,4.93,6.94l-1.33,40.93a4.69,4.69,0,0,0,4,4.58c9.06,1.22,22.78-.22,31.87-3.49a4.68,4.68,0,0,0,2.94-5.34L371.8,524.49c-.74-3.75.75-5.16,3.43-7.75A32,32,0,0,0,384.65,490.17Z" style="fill: url(#a1c1c7d3-bacf-453f-96ea-b8efe9ec6210)"/>
    </g>
    <g>
      <path d="M37.2,434.7c-.29-.61-8.67-12-10.1-16.56s-3.79-17.78-3.38-21.77S39.47,383,43.86,382.89s9.4,1.83,10.63,6.33c0,0,7.36.59,8.69,4.49s.2,11.25-1.23,13-3.57,4.5-3.78,6.55,1.2,7.68,1.2,7.68Z" style="fill: #f9f8f4"/>
      <path d="M54.49,389.22c-1.18-.1-3.48,1.72-4.08,4.09s4.72,5.59,4.72,5.59a42.22,42.22,0,0,1-4.05,5.2c-1.42,1.28-11.53,6.67-13.35,6.6s-4.86-4-5.2-6.74.95-2.29,2-.4,4.65,2.49,6.2,2,8.64-6.74,8.64-6.74-2-2.84-1.82-5.33a7.64,7.64,0,0,1,6-6.37Z" style="fill: #efeeea"/>
      <path d="M235.72,411.42a5.49,5.49,0,0,0,.16-2.91c-.4-1.23-3.73-9.19-4-11.63s1.35-7,4.48-9.31c0,0,1.3-7.06,3.4-8.62s8.83-1.9,13-.88,11.07,5.09,13.58,7.06,3.13,11.68,2.58,14.94-6.58,7.47-7.67,8.76-3.8,11.54-3.8,11.54Z" style="fill: #f9f8f4"/>
      <path d="M236.36,387.57c2.66-1.47,5.35-.76,6,.64a5.49,5.49,0,0,1,0,4.78l-1.68,2.63a21.57,21.57,0,0,0,4,4.39c1.83,1.27,10.08,4.07,11.69,2.81s6.42-8.25,6.92-8.94.18-3.73-1.61-2-4.52,5.81-6.35,5.67-9.7-3.34-10.31-4.66c0,0,1.24-3.26,0-5.63s-2.67-2.75-4.79-2.78a7.07,7.07,0,0,0-3.29.6Z" style="fill: #efeeea"/>
      <path d="M181.84,473.92l15.87-1.65L225,459.59l10.77-48.17L266,420.18s-8.7,46.92-9.91,51.49-6.61,14.45-13,19.4c-3.88,3-52.54,32.08-52.54,32.08L181.41,492Z" style="fill: #626f70"/>
      <path d="M123.49,475.24l-15-.4L77.34,464.17l-18-43.25L29.54,435s20.45,50.58,22,54.08,9.12,10.4,12.77,12,58.11,25.05,58.11,25.05l20.39-29.73Z" style="fill: #626f70"/>
      <path d="M117.5,416s-5.9-17.22-9.43-25.16c-2.39-5.38-6.29-13.8-7.78-17a1.75,1.75,0,0,1,.58-2.18c4.2-3,18.9-12.87,34.57-16.72a202.67,202.67,0,0,1,30.19-5.19,1.76,1.76,0,0,1,1.87,1.39c1,4.44,3.83,17.57,4.81,22.35,1.2,5.8,4.06,22.14,4.06,22.14Z" style="fill: #626f70"/>
      <path d="M130.48,431.55s-15.64,6.18-21.67,5.28-8.17-9-5.21-12.83,19.34-17.63,43.1-24.88,40-5.27,44.43-4.85c7.7.75,6.68,10.27,1.4,13.66s-26.93,11-26.93,11Z" style="fill: #515e5e"/>
      <path d="M129.55,416.64s-12.36,7.94-13.86,9.12,0,2.28,3.47,1.73,8.9-3.62,8.9-3.62Z" style="fill: #384242"/>
      <path d="M168.06,402.55c7.06-.79,13.35-1.31,16.71-1.31s2.34,1.47-.08,3-8.8,3-8.8,3Z" style="fill: #384242"/>
      <path d="M120.1,676.57s-2.48-.15-2.55,2-.28,3.17,1.28,3.83S152,689.87,152,689.87L160,663.49l3.46,24.28,53.68-12.42s1.3-.34.45-2.91S162.26,633,162.26,633Z" style="fill: #384242"/>
      <path d="M226.25,750.81s.83,6.21,2.86,8.8S245,769.74,247,771.09c1.42.95,2,4.56,2.15,6.63a1.76,1.76,0,0,1-1.31,1.86c-3.07.8-10.5,2.58-16.15,2.68-7.33.12-26.55-3.46-31.55-4.48a1.77,1.77,0,0,1-1.4-1.6l-2-28.28Z" style="fill: #384242"/>
      <path d="M115.2,753.72s-.53,8-1.73,11.36-6.7,14.24-8.3,16.38c-1.23,1.64-1.21,6.4-1.13,8.56a1.31,1.31,0,0,0,1.11,1.25c3.37.55,15.14,1.5,18.5.62,7.85-2.06,18.59-13.53,21.29-16a1.35,1.35,0,0,0,.43-.88l2.1-28.12Z" style="fill: #384242"/>
      <polygon points="122.24 666 115.2 753.72 152.38 756.64 164.28 651.42 182.75 695.4 191.74 753.72 226.25 750.81 218.47 682.52 183.76 582.94 138.46 588.87 122.24 666" style="fill: #515e5e"/>
      <path d="M182.78,423.13a117.11,117.11,0,0,0-4.06-20.7s-8.93-1.19-23.12,2.24c-.63.16-1.26.31-1.92.49-15.28,4-33.12,17.8-33.12,17.8a.16.16,0,0,0,0,.05l14.77,27,1.07,7.8,1.6,11.58L167.74,483l4.06-7.4-.36-12.7c6.37-2.21,11.16-16.22,11.63-21.8C183.07,441.05,184.1,435.24,182.78,423.13Z" style="fill: #ffd3c2"/>
      <path d="M148.61,410.49c-1.59,1.81-4.26,4.13-4.46,5.44s-.65,9.74-.75,10.44-2.66,1.57-2.78,1.16-1.53-5.31-2.6-6.47-5.8.36-5.69,2.14a94,94,0,0,0,2.25,10.47c.55,1.91,5.26,5,6.29,6.6s1.22,8,.51,10.94a11.1,11.1,0,0,1-3.1,5.7c-.77.79-1.28,1-1.86.92a5.41,5.41,0,0,1-1.44-.56c-1.46-.7-6.9-11.41-7.61-14s-3.8-12-4.89-14.2a30.5,30.5,0,0,1-1.9-6.07.16.16,0,0,1,0-.05s14-11.21,29.2-16.59A5.11,5.11,0,0,1,148.61,410.49Z" style="fill: #473f3d"/>
      <path d="M171.58,467.82l-5.3,11s-20.15-12.25-21.41-13a66.65,66.65,0,0,0-7.38-2.46,1.59,1.59,0,0,0-1.36,1.15c-.26,1.05-1.78,16.64-1.78,16.64l16.49,48.31,32.92-7.53-5.61-37.55-3.9-5.73s-1.34-8.58-1.44-9.56S171.58,467.82,171.58,467.82Z" style="fill: #f9f8f4"/>
      <polygon points="138.88 475.06 152.87 484.25 152.01 485.99 139.66 477.47 138.88 475.06" style="fill: #e2e0d9"/>
      <polygon points="165.36 490.73 168.2 520 169.81 519.36 166.78 490.32 165.36 490.73" style="fill: #e2e0d9"/>
      <polygon points="147.71 504.31 168.67 517.76 184.63 501.18 187.45 598.51 176.34 606.49 170.86 596.81 166.01 608.21 144.89 598.82 147.71 504.31" style="fill: #e2e0d9"/>
      <path d="M116.33,514.69s4.06,37,4.23,48.43.11,17.68-.65,48.88-2.36,66.55-2.36,66.55a7.3,7.3,0,0,0,3.09.58c1.34-.17,8.15.4,12.8-6.42,5.31-7.78,13.58-24.89,17.51-45.15s6.1-56.84,6.07-66.09-15.32-74.74-15.32-74.74Z" style="fill: #626f70"/>
      <path d="M179.85,558.66c-.11,7,.19,27.36,2.49,38.39s4.75,24.37,9.81,36.94,14.9,29.92,17,33.41,5.58,5.55,6.64,5.55a3.5,3.5,0,0,0,1.81-.51S204.49,632.73,200.78,622s-5.8-18.57-6.69-35.8,3.64-77.1,3.64-77.1l-16.26-26.89Z" style="fill: #626f70"/>
      <path d="M179.85,558.66s-.34-40.77-1-51.49-5.63-28.81-5.63-28.81-.23-4.55-.23-5.44.91-1.05,1.39-1,8.24.84,9.18,1a1.27,1.27,0,0,1,1,1s1.09,30.95,1,42.11-3.35,40.34-3.78,41.53S179.85,558.66,179.85,558.66Z" style="fill: #515e5e"/>
      <path d="M151.79,476.17c2.39,0,5.76.87,9.22,1.81,2.62-.77,5.19-1.16,7.57-.21a51.58,51.58,0,0,1,8.27-1.36,1.83,1.83,0,0,1,1.84,1.39,28.5,28.5,0,0,1-.29,13.08,1.87,1.87,0,0,1-1.78,1.35,20.06,20.06,0,0,1-6.84-1.51,11.79,11.79,0,0,1-8.27.35,54.44,54.44,0,0,1-6,3.39,2,2,0,0,1-2.65-.91,38,38,0,0,1-3-15.65A1.84,1.84,0,0,1,151.79,476.17Z" style="fill: #9ac677"/>
      <path d="M168.58,477.77a55.18,55.18,0,0,1,1,5.86,53.37,53.37,0,0,1,.24,7.09,2.52,2.52,0,0,0,1.16-1.64,19.36,19.36,0,0,0,.17-5.45A12.61,12.61,0,0,0,170,479C169.32,477.8,168.58,477.77,168.58,477.77Z" style="fill: #6e9b59"/>
      <path d="M161,478s0,5.27,0,6.66.52,6.43.52,6.43a1.29,1.29,0,0,1-1.15-1,26.5,26.5,0,0,1-.72-5.51,17.81,17.81,0,0,1,.4-5.31A2.16,2.16,0,0,1,161,478Z" style="fill: #6e9b59"/>
      <path d="M121.21,476.09a1.59,1.59,0,0,1,.57-1.82c1-.72,11.46-3.52,12.57-3.86a2.74,2.74,0,0,1,2.73,1.15c.65.73,7.95,8,11.27,16.11s4.84,18.72,6.72,32.3,2,28,2,41.5a2.41,2.41,0,0,1-2.65-2.23c-.44-2.52-6-22.94-11.09-41.83s-10.67-27.52-13.68-30.62A115.8,115.8,0,0,1,121.21,476.09Z" style="fill: #515e5e"/>
      <path d="M164.28,651.42l2.37-20.36s1.79-4.58,1.43,1.07-1.87,24.17-1.87,24.17Z" style="fill: #384242"/>
      <polygon points="166.21 645.86 189.9 692.86 199.14 753.1 201.77 752.87 192.2 691.42 166.21 641.86 166.21 645.86" style="fill: #384242"/>
      <ellipse cx="169.43" cy="530.09" rx="1.79" ry="3.25" style="fill: #515e5e"/>
      <ellipse cx="170.72" cy="584.55" rx="1.79" ry="3.25" style="fill: #515e5e"/>
      <ellipse cx="170.56" cy="558.12" rx="1.79" ry="3.25" style="fill: #515e5e"/>
      <ellipse cx="41.45" cy="449.04" rx="1.45" ry="2.95" transform="translate(-161.12 46.15) rotate(-21.42)" style="fill: #515e5e"/>
      <ellipse cx="37.2" cy="440.49" rx="1.45" ry="2.95" transform="translate(-158.29 44.01) rotate(-21.42)" style="fill: #515e5e"/>
      <path d="M171.44,462.85a22.06,22.06,0,0,1-6.59.93,31.54,31.54,0,0,1-13.62-4.51c-3.59-2.11-2.81,0-1.37,1.44s7.89,5.76,13,6.65c3.39.58,8.65-.55,8.65-.55Z" style="fill: #e8a397"/>
      <ellipse cx="257.53" cy="437.23" rx="2.95" ry="1.45" transform="translate(-218.81 612.15) rotate(-79.67)" style="fill: #515e5e"/>
      <ellipse cx="259.96" cy="427.62" rx="2.95" ry="1.45" transform="translate(-207.35 606.65) rotate(-79.67)" style="fill: #515e5e"/>
      <path d="M117.33,524.08c6,2.31,8.91,3.58,11.45,4.29s.47,2.14-2.07,2.22-8.69.34-8.69.34Z" style="fill: #515e5e"/>
      <path d="M197,519.53c.33-4.73.56-8.5.73-10s1.67-2.69,1.76.82a72.64,72.64,0,0,0,.64,7.41Z" style="fill: #515e5e"/>
      <path d="M138.37,426.42s-.77-3.09-1.77-2.94a2.87,2.87,0,0,0-2,1.36c-.45.67,1.44,8.23,2.55,9s1.81-2,1-2.64-1.41-3.43-.89-3.95S138.7,427.47,138.37,426.42Z" style="fill: #e8a397"/>
      <path d="M173.4,414.74a.63.63,0,0,1-.65-.59l-.28-2c-.12-.77,4.67-1.27,8.19.4a.75.75,0,0,1,.37.61l0,.79a.66.66,0,0,1-.59.73C179,414.71,175.47,414.52,173.4,414.74Z" style="fill: #473f3d"/>
      <path d="M163,425.68a8.24,8.24,0,0,1-.18,2.63c-.34,1.35-1.11,1.15-2,1.23s-1.59.53-2.16-.6a7.72,7.72,0,0,1-.75-2.82c-.23-2.64.73-4.88,2.13-5S162.76,423,163,425.68Z" style="fill: #473f3d"/>
      <path d="M180.74,422.85a8,8,0,0,1-.14,2.62c-.32,1.37-1.09,1.18-2,1.27s-1.59.55-2.17-.56a7.93,7.93,0,0,1-.8-2.81c-.28-2.64.65-4.89,2-5S180.47,420.21,180.74,422.85Z" style="fill: #473f3d"/>
      <path d="M164.07,415.77l-.2-1.88a.74.74,0,0,0-.49-.62c-1.82-.6-7.68,1.43-10.7,4.08a.76.76,0,0,0-.24.66l.08.54a.75.75,0,0,0,.89.62c2-.43,7.47-2,10.1-2.6A.74.74,0,0,0,164.07,415.77Z" style="fill: #473f3d"/>
      <path d="M174.15,435c.68-.09,1.82.85.61,2s-1.7,1.12-3.38.88-3.48-1.06-3.31-1.62c.05-.18-.2-.54,1.78-.47A14.23,14.23,0,0,0,174.15,435Z" style="fill: #e8a397"/>
      <path d="M172,453.7c5.06-2.21,7.13-10,6.67-11-.68-1.47-4.43.31-6.83.41-2.65.11-7.29-1.11-8.12.58C162.16,446.92,166.82,456,172,453.7Z" style="fill: #e8a397"/>
    </g>
    <g>
      <path d="M579.75,376.35c-.08,1.36-3.71,7.18-6.12,8.64s-11.53,1.26-12.86.8-4.72-7.11-4.85-12.24,1.43-14.38,2.26-15.5,6-3.48,6.9-4.27a11,11,0,0,0,1.36-1.29l-.73-1.85s4.91-.7,7.14,1.27C574.89,353.72,580.49,363.85,579.75,376.35Z" style="fill: #f9f8f4"/>
      <path d="M541.72,520.76s-17.89-1.58-21.46-1.88-15.17-5.85-15.88-8.14-.15-17.31,1-19.6,5.8-5.36,7.94-4.87,7.51,1.86,7.51,1.86-.07-6.85.21-10.86,5.65-3.43,7.09,0,1.42,9.44,2.71,12.73,7,7.58,8.46,8.06Z" style="fill: #f9f8f4"/>
      <path d="M539.3,498.06l-7.14,33.28s56.65,14.14,61.13,14.29,10.05.53,14.46-1.19c3.43-1.35,56.1-40.07,56.61-51.73s-14.25-11.51-14.25-11.51L597,512.07Z" style="fill: #626f70"/>
      <ellipse cx="542.6" cy="529.03" rx="1.6" ry="3.28" transform="translate(-88.42 948.69) rotate(-77.9)" style="fill: #515e5e"/>
      <ellipse cx="552.44" cy="531.14" rx="1.6" ry="3.28" transform="translate(-82.7 959.97) rotate(-77.9)" style="fill: #515e5e"/>
      <path d="M520.83,488.13a11.53,11.53,0,0,1-.37,3.2c-.27,1.22-1.48,2.31-1.87.15s-3-4.67-3-4.67Z" style="fill: #efeeea"/>
    </g>
  </g>
</svg>
