<svg id="bf15ebb8-b6fc-4ba0-80db-ce31ccd55d64" data-name="Layer 1" xmlns="http://www.w3.org/2000/svg" xmlns:xlink="http://www.w3.org/1999/xlink" width="250" height="250" viewBox="0 0 776 931.22">
  <defs>
    <linearGradient id="ab163509-130e-4681-a43a-5b12823e6434" data-name="Градієнт без назви 108" x1="308.16" y1="59.82" x2="467.36" y2="680.56" gradientUnits="userSpaceOnUse">
      <stop offset="0" stop-color="#e2f9de"/>
      <stop offset="1" stop-color="#d6f2d1"/>
    </linearGradient>
  </defs>
  <title>Butlers2</title>
  <g id="b25a60de-8d9b-4275-95ee-c11c8918d8ff" data-name="bg">
    <path d="M352.89,906.82c57.7,29.43,138.48,28.54,192,16.62C619.58,906.84,654.35,877,654.35,877L462.94,658.91H322.85L141,865.7C201.42,902.7,275.3,867.24,352.89,906.82Z" style="fill: #efefef"/>
    <path d="M490.82,677.64C708,677.64,776,501.54,776,353,776,230.08,693.77,0,494.53,0,336.28,0,315.71,90.84,189,141.62,70.17,189.26,0,274.56,0,408.92,0,556.89,156.29,677.64,490.82,677.64Z" style="fill: url(#ab163509-130e-4681-a43a-5b12823e6434)"/>
    <g>
      <path d="M148.92,505.41a2.14,2.14,0,0,1-.78-.14,8,8,0,0,1-4.78-4.92,8,8,0,1,1,15.54-3.86,3.49,3.49,0,0,0,2.24,2.71l1.66.62a2.22,2.22,0,0,1-1.56,4.16l-1.66-.63a7.91,7.91,0,0,1-5.06-6.16,3.6,3.6,0,1,0-4.82,3.93,2.22,2.22,0,0,1-.78,4.29Z" style="fill: #d8a555"/>
      <path d="M150.75,499.89a2.38,2.38,0,0,1-.78-.14l-24.55-9.21a2.22,2.22,0,1,1,1.56-4.16l24.55,9.21a2.22,2.22,0,0,1-.78,4.3Z" style="fill: #d8a555"/>
      <path d="M636.87,505.41a2.22,2.22,0,0,1-.78-4.29,3.6,3.6,0,1,0-4.81-3.93,7.94,7.94,0,0,1-5.07,6.16l-1.66.63a2.22,2.22,0,0,1-1.56-4.16l1.66-.62a3.49,3.49,0,0,0,2.24-2.71,8,8,0,1,1,15.54,3.86,8,8,0,0,1-4.78,4.92A2.14,2.14,0,0,1,636.87,505.41Z" style="fill: #d8a555"/>
      <path d="M635,499.89a2.22,2.22,0,0,1-.78-4.3l24.55-9.21a2.22,2.22,0,0,1,1.56,4.16l-24.55,9.21A2.38,2.38,0,0,1,635,499.89Z" style="fill: #d8a555"/>
    </g>
    <path d="M395.79,552.22h-3.5c-78.71-.32-153.86-11.57-206.17-30.87l6.4-17.35c108.46,40,299.56,39.7,401-.66l6.84,17.18C548.88,541,476.36,552.22,395.79,552.22Z" style="fill: #fff2d4"/>
    <g>
      <polygon points="136.35 719.5 122.81 724.67 109.27 719.5 116.02 499.68 129.6 499.68 136.35 719.5" style="fill: #ffd797"/>
      <path d="M163.07,496.2H194.7a1.29,1.29,0,0,1,1.29,1.29v20.64a1.29,1.29,0,0,1-1.29,1.29H163.07a3.53,3.53,0,0,1-3.53-3.53V499.73A3.53,3.53,0,0,1,163.07,496.2Z" transform="translate(189.75 -30.08) rotate(20.57)" style="fill: #ffd797"/>
      <polygon points="649.44 719.5 662.98 724.67 676.52 719.5 669.77 499.68 656.18 499.68 649.44 719.5" style="fill: #ffd797"/>
      <path d="M593.32,496.2H625a1.29,1.29,0,0,1,1.29,1.29v20.64a1.29,1.29,0,0,1-1.29,1.29H593.32a3.53,3.53,0,0,1-3.53-3.53V499.73a3.53,3.53,0,0,1,3.53-3.53Z" transform="translate(1355.7 769.62) rotate(159.43)" style="fill: #ffd797"/>
    </g>
    <g>
      <circle cx="122.26" cy="486.31" r="18.67" style="fill: #f4c87a"/>
      <path d="M177,743.76H68.61V739.7a4.8,4.8,0,0,1,2.94-4.42l37.72-15.78h27.08l37.72,15.78A4.8,4.8,0,0,1,177,739.7Z" style="fill: #f4c87a"/>
      <circle cx="663.53" cy="486.31" r="18.67" style="fill: #f4c87a"/>
      <path d="M608.78,743.76h108.4V739.7a4.8,4.8,0,0,0-2.94-4.42L676.52,719.5H649.44l-37.72,15.78a4.8,4.8,0,0,0-2.94,4.42Z" style="fill: #f4c87a"/>
    </g>
  </g>
  <g id="f1d0d852-d3ea-4058-9e6b-3193d881a134" data-name="butler">
    <path d="M451.37,209.33c-3.06-20.09-6.4-58.16-6.47-59.72-.09-1.83-.65-2.32-1.67-2.68-2-.71-19.93-4-41.87-1.34-20.68,2.5-48.88,18.47-49.55,18.86s-1.63.87-.93,3.47,9.25,38.85,12.43,57.37Z" style="fill: #626f70"/>
    <path d="M429.72,739.4,432.59,768a1.93,1.93,0,0,0,1.92,1.73h67.91a1.93,1.93,0,0,0,1.93-2.06c-.19-2.56-.65-6.77-1.67-8.35-1.5-2.33-23.35-11.8-25.82-13s-7.95-4.24-9.86-14.93S429.72,739.4,429.72,739.4Z" style="fill: #384242"/>
    <path d="M343.24,760.74s-.61,5.58-1.05,9-9,17.56-10.48,19-5.68,5.39-6.7,8a38.44,38.44,0,0,0-1.29,8,2.48,2.48,0,0,0,2.12,2.67c6.07.92,20,2.62,21.56,2.85,1.89.29,8.88-.73,11.65-2.18,2.33-1.23,19.37-14.73,24-19.19a5.19,5.19,0,0,0,1.55-3.24l3.61-38.14Z" style="fill: #384242"/>
    <path d="M349.06,604.21s-2.62,1.88-2.77,2.8,0,1.58.75,1.86,26.89,7.78,26.89,7.78l54.67,8.43,29.34-19.49s10.85-6.53,11-6.67a1.74,1.74,0,0,0,.51-1.54c-.17-1.37-7.74-21.13-7.74-21.13L357.57,580.7Z" style="fill: #384242"/>
    <polygon points="357.88 586.71 343.24 760.74 392.89 758.23 410.79 605.53 429.72 739.4 474.62 735.22 460.79 549.89 454.52 472.5 363.15 476.68 357.88 586.71" style="fill: #515e5e"/>
    <polygon points="370.58 322.22 442.17 322.22 443.51 364.07 416.23 394.05 373.93 355.31 370.58 322.22" style="fill: #f9f8f4"/>
    <path d="M367.3,247.18s-16.46.16-19.5-1-7-6.26-4.93-10.39,20.06-18.86,76.11-27.46c38.82-5.95,51.2.84,53.6,3.4s-.72,10.15-3,11.91-25.26,9.59-25.26,9.59Z" style="fill: #515e5e"/>
    <path d="M380.88,304.24s-.15-11.22-1.27-15.62-8.15-26.34-8.15-26.34l-4.31-9.78-4.32-16.59s27.93-15.28,53.33-17.62,35.71.94,35.71.94,1,17.33,1.12,27.08-3.09,24.5-7.12,32.75-18.37,20.42-18.37,20.42l-.12,7.59-2.13,17.07L382.33,326Z" style="fill: #ffd3c2"/>
    <path d="M377.14,280.3c1.58,0,3-1.14,2.85-4.6s-.73-10.3-1.82-12.13-4.47-2.6-5.47-5.79-1.83-14.67-.91-16.41,5.92-2.18,6.65-.82,1.44,8.71,1.44,8.71l2.51-1.33s.45-5.07.6-8.06c.18-3.56,2.1-8.61,3.29-9.62s.72-5,.72-5a169.35,169.35,0,0,0-24.17,10.62s1.4,13.3,1.86,19.41,4.66,16.18,6.2,19.19S372.65,280.34,377.14,280.3Z" style="fill: #473f3d"/>
    <path d="M430,314.27l-1.58-6.36a1.09,1.09,0,0,0-1-.84l-14.23,15.41-32.27-18.24s-1-.06-1.22,1.21S374.28,326,374.28,326l61.62.77Z" style="fill: #f9f8f4"/>
    <polygon points="379.94 354.21 417.6 384.12 437.58 357.07 447.3 493.59 434.42 504.6 423 493.8 413.65 506.47 374.28 486.94 379.94 354.21" style="fill: #e2e0d9"/>
    <path d="M355.13,322.55,330.5,333.08s21.55,121.36,23.66,138.37S346.1,607.2,346.1,607.2a10,10,0,0,0,2.06.2c.52,0,7.27-.74,12-4.79s12.43-14.14,17.13-28.89,15.86-42.62,17.8-72.18c1.77-27.08,1-37.56-.11-49.86C394.13,442.71,355.13,322.55,355.13,322.55Z" style="fill: #626f70"/>
    <path d="M508.71,405.8c-.64-1.63-37.88-69-37.88-69l-2.09-5.7-3.55-.84-16.26-7.81L438.48,447.05s4.11,52.77,7.62,76.75c5,33.9,16.42,69.17,17.59,70.83,2,2.83,3.37,3.3,4.05,3.27a5.17,5.17,0,0,0,1.54-.33s-6.9-54.78-7.63-63.5-3.36-54.5-3.36-54.5S503,439,505.53,435.6a20.15,20.15,0,0,0,3.54-7.81c.18-.91,1-12.09,1.27-14.45S509.34,407.44,508.71,405.8Zm-51.62,19.86,1.43-19.84,6.67,11.94Z" style="fill: #626f70"/>
    <path d="M429.59,326.43s-.14-10.2,0-11.35c.09-.7.67-1.82,2.91-1.1s15.52,6.19,16.89,6.76,2,1.22,2,3.46-2.25,42.58-2.85,48.93c-1.55,16.26-6.88,70.84-7.09,71.7s-.35,1.4-.93,1.69a10.33,10.33,0,0,1-2,.53s-3.82-33.36-6.41-66.05C431.43,373,429.59,326.43,429.59,326.43Z" style="fill: #515e5e"/>
    <path d="M437,320.15c-.61-2.7-1.83-2.84-3.28-2.55-3.48.71-14.21,3.11-14.21,3.11-4-.94-8.32-.57-12.9.52,0,0-13.14-2.54-15-2.89-2.07-.38-3.29-.22-3.9,1.69-2.32,7.3-1.13,16.3,1.37,22.22a3.15,3.15,0,0,0,4.16,1.71c6.95-3.57,14.29-6.69,14.29-6.69a26,26,0,0,0,12-1.31s10.8,5.36,12,5.79c1.57.55,2.42.4,3.75-1.74C437.82,335.91,438.05,324.93,437,320.15Z" style="fill: #9ac677"/>
    <path d="M353.18,324.89c-.43-1.93-.53-3.07.7-3.95s20.8-7,21.76-7.4,2.19-.3,2.55,1.63,5.44,31.15,6.4,38.7S395,451.68,395,451.68a2.91,2.91,0,0,1-1.05.15,2.74,2.74,0,0,1-2.63-1.75c-.79-1.58-22.47-71.38-26.51-84.19S353.18,324.89,353.18,324.89Z" style="fill: #515e5e"/>
    <path d="M353.08,429.28s-9.95,56.44-10.85,59.44S330,502.94,327.56,503.84s-23.95,1.35-28.15-.75S282.79,485.42,282.34,482s.9-15,.9-15l17.52-41.18Z" style="fill: #626f70"/>
    <path d="M285.34,469.85s-1,8.39,0,11.23,12.88,17.67,15.87,19.46,22.46.75,24.7,0,12-10.48,12.58-12.72,2.4-15.27,1.2-18Z" style="fill: #384242"/>
    <path d="M362.42,438.06c-.11,1.57-23,36-24.8,37.3s-15.87,10.95-21,10.95-22.42-3.2-24.32-4.77-12.19-11.26-15.83-17c-4.74-7.53-15.7-19.74-18.08-23.83-1.2-2.05-1.07-6.36,1.36-6.36h6.59s2.75-.22,5.88,2.58c5.47,4.89,13.89,12,13.89,12s3.24-10,3.57-11.36.9-3.25,3.7-3.25h7.26a2.41,2.41,0,0,1,2.23,3.05c-.57,4.11-2.78,17.54-2.78,17.54s3.35,1.46,3.52,1.46h3.53s9.52-18,10.53-19,2.46-3,4.59-3h7c1.34,0,3.11,2.08,1.79,5.26-1.54,3.69-8.47,17.28-8.68,17.71.21-.06,4-1.24,4.91-2.11s17.16-17.48,18-18.6a5.9,5.9,0,0,1,4.95-2.26h8.45C360.21,434.32,362.53,436.49,362.42,438.06Z" style="fill: #f9f8f4"/>
    <path d="M272.72,451.84c-6.57-7.3-15.42-17.52-13-17.52h6.59s2.75-.22,5.88,2.58c5.47,4.89,13.89,12,13.89,12a58.33,58.33,0,0,0-2.74,10.26C282.61,462.86,277.28,456.91,272.72,451.84Z" style="fill: #efeeea"/>
    <path d="M362.43,438.31c-2.38,4.67-23,35.71-24.81,37.05-2.69,2.18-.79-10,1-12.85C340,460.44,349,447.1,354,440.32c1.7-2.33-2.11-5.85-2-6h6.65C360.21,434.32,363.14,436.91,362.43,438.31Z" style="fill: #efeeea"/>
    <path d="M289.52,415.74h50.79a6.25,6.25,0,0,0,6.23-6.55l-5.3-106.73a6.25,6.25,0,0,0-6.23-5.93H284.88a6.23,6.23,0,0,0-6.23,6.51l4.64,106.73A6.23,6.23,0,0,0,289.52,415.74Z" style="fill: #e89e34"/>
    <path d="M293.22,415.74H344a6.25,6.25,0,0,0,6.23-6.55l-5.3-106.73a6.25,6.25,0,0,0-6.23-5.93H288.58a6.23,6.23,0,0,0-6.23,6.51L287,409.77A6.25,6.25,0,0,0,293.22,415.74Z" style="fill: #ffe2b0"/>
    <polygon points="346.89 404.47 289.79 404.47 289.43 396.12 289.15 389.82 288.68 379.21 288.41 372.92 286.42 327.55 285.35 303.18 342.45 303.18 343.37 324.06 343.64 330.31 344.16 342.19 344.37 347.13 345.21 366.22 346.89 404.47" style="fill: #32353a"/>
    <path d="M380,434.32H239.06a13.57,13.57,0,0,1-6.86-1.87l-19-11.2H405.85l-19,11.2A13.51,13.51,0,0,1,380,434.32Z" style="fill: #f7c172"/>
    <path d="M189.32,415.74h240.4a0,0,0,0,1,0,0v1.35a5.88,5.88,0,0,1-5.88,5.88H195.2a5.88,5.88,0,0,1-5.88-5.88v-1.35A0,0,0,0,1,189.32,415.74Z" style="fill: #f9d18a"/>
    <ellipse cx="419.82" cy="399.58" rx="2.69" ry="4.56" transform="translate(-16.82 18.45) rotate(-2.47)" style="fill: #515e5e"/>
    <ellipse cx="423.03" cy="474.23" rx="2.69" ry="4.56" transform="translate(-20.03 18.66) rotate(-2.47)" style="fill: #515e5e"/>
    <ellipse cx="421.57" cy="438.77" rx="2.69" ry="4.56" transform="matrix(1, -0.04, 0.04, 1, -18.51, 18.56)" style="fill: #515e5e"/>
    <path d="M378.59,467.23c-8.57.41-16.35.36-25.15-1.53-.77-.16-1.47.57-1.6,1.71l-1.1,9.56a2.77,2.77,0,0,0,1.06,2.68c8.34,4.31,17.24,5.19,26.49,4.15.7-.08,1.23-.89,1.29-1.93l.66-12C380.32,468.43,379.52,467.18,378.59,467.23Z" style="fill: #515e5e"/>
    <path d="M458,466s1.41-.33,1.56,1.59.28,10.46.28,10.46a1.75,1.75,0,0,1-1.26,1.59c-.85.21-4.17.77-6.17,1.1-.77.13-1.49-.63-1.58-1.69l-.95-10.48c-.09-1.08.5-2,1.3-2.1Z" style="fill: #515e5e"/>
    <path d="M406.59,321.23s-.27,4.73-.19,7.1,1.06,8.94,1.06,8.94a2.93,2.93,0,0,1-1.52-.48c-.46-.43-1.75-6-1.91-8s1.06-7,1.06-7Z" style="fill: #6e9b59"/>
    <path d="M419.49,320.71a69.36,69.36,0,0,1,.58,7.31c0,3-.58,7.94-.58,7.94a2,2,0,0,0,1.45-1.37,22.83,22.83,0,0,0,1.34-7.38,12.74,12.74,0,0,0-1.39-5.6A2.41,2.41,0,0,0,419.49,320.71Z" style="fill: #6e9b59"/>
    <polygon points="378.93 319.39 386.74 323.97 386.41 327.7 379.45 322.41 378.93 319.39" style="fill: #e2e0d9"/>
    <polygon points="411.99 337.44 415.69 382.6 417.6 384.12 418.72 382.6 415.53 337.02 414.07 337.27 411.99 337.44" style="fill: #e2e0d9"/>
    <path d="M465.19,417.76s3.78,6.86,4.51,8.07,2.18-.6.72-3.51-8.51-17.19-8.51-17.19,0-16.5.06-18.56c.09-2.41-1.46-4.53-1.79-1.18s-1.66,20.43-1.66,20.43Z" style="fill: #515e5e"/>
    <path d="M457.09,425.66s-1.83,21.41-2.23,24.35,1.93,0,2.23-2,5.9-12,5.9-12l6.86-9.61-4.66-8.66Z" style="fill: #515e5e"/>
    <path d="M410.79,605.53l6.4-58.44s3.24-2.63,2.43,4-7.26,65.48-7.26,65.48Z" style="fill: #384242"/>
    <polygon points="442.26 738.24 415.27 578.24 416.87 569.38 445.52 737.93 442.26 738.24" style="fill: #384242"/>
    <path d="M446.26,218.18s14.22-1.57,16.7,0-10.84,5.55-10.84,5.55l-.25-4.5Z" style="fill: #384242"/>
    <path d="M367.56,233.43s-9.41,2.79-12.06,4.94,7.83,2.34,7.83,2.34l-.5-4.8Z" style="fill: #384242"/>
    <path d="M427.5,299.48c-1.86,1.15-5.65,1.9-9.95,2.26s-18.74-4.2-22.6-6.78-3.09,1.44-1.56,2.68,15.88,8.43,23.33,8.43,10.78-2.89,10.78-2.89Z" style="fill: #e8a397"/>
    <path d="M431.77,262.92c1.48.3,3.48,1.59-.08,3s-3.39,1.38-4.38,1.48-5.11-1.88-5.68-2.23-.1-2.72,1.4-2.23S431.77,262.92,431.77,262.92Z" style="fill: #e8a397"/>
    <path d="M412.83,275.38c1.17.95,6.88,3.55,12.39,3.87s9-1.49,10.68-1.59-.94,2.43-2.95,3.28-6.78,2.22-8.79,2.12S413,280.67,411,277,412.83,275.38,412.83,275.38Z" style="fill: #e8a397"/>
    <path d="M417.57,232.62a1.28,1.28,0,0,0,1.34-1l.21-3c.1-1.15-10.56-.91-18,2.25a1,1,0,0,0-.69,1l.06,1.17A1.23,1.23,0,0,0,402,234C405.13,233.71,413,232.71,417.57,232.62Z" style="fill: #473f3d"/>
    <ellipse cx="440.37" cy="247.61" rx="6.69" ry="3.84" transform="translate(170.35 674.6) rotate(-87.04)" style="fill: #473f3d"/>
    <path d="M434.48,235.93l0-2.6a1,1,0,0,1,.56-.92c2.27-1.06,10,1,14.18,4.17a1,1,0,0,1,.38.87l0,.74a1,1,0,0,1-1.07,1c-2.64-.32-9.8-1.72-13.23-2.21A1,1,0,0,1,434.48,235.93Z" style="fill: #473f3d"/>
    <ellipse cx="410.6" cy="246.8" rx="6.69" ry="3.91" transform="translate(142.93 644.12) rotate(-87.04)" style="fill: #473f3d"/>
    <path d="M377.24,245.14c0-.8-2.54-1.16-2.75.32s-.54,9.74.47,11,2,1.27,2.28.68-.32-7-.37-7.62S377.29,246.15,377.24,245.14Z" style="fill: #e8a397"/>
    <g style="opacity: 0.75">
      <polygon points="345.51 373.02 300.15 404.47 289.79 404.47 289.43 396.12 344.37 347.13 345.51 373.02" style="fill: #3f4247"/>
      <polygon points="344.16 342.19 289.07 388.2 288.68 379.21 343.64 330.31 344.16 342.19" style="fill: #3f4247"/>
      <polygon points="343.37 324.06 288.12 366.35 286.42 327.55 315.32 303.18 342.45 303.18 343.37 324.06" style="fill: #3f4247"/>
    </g>
  </g>
</svg>
