<svg id="bf95fb62-8ba2-4366-ab17-dda50cb9d362" data-name="Layer 1" xmlns="http://www.w3.org/2000/svg" xmlns:xlink="http://www.w3.org/1999/xlink" width="250" height="250" viewBox="0 0 676.69 730.48">
  <defs>
    <linearGradient id="ed4cd2d4-bb7e-4ff7-ab76-c4b4775e701c" data-name="Градієнт без назви 41" x1="290.37" y1="36.81" x2="433.54" y2="408.79" gradientUnits="userSpaceOnUse">
      <stop offset="0" stop-color="#e2f9de"/>
      <stop offset="1" stop-color="#c5eabe"/>
    </linearGradient>
  </defs>
  <title>Butlers8</title>
  <g id="ac02c889-489c-4d8d-9c16-37cbd931386b" data-name="bg">
    <path d="M349.35,28.54c31.14-6.13,59.29-15.8,97.75,16.86s113.08,75.07,158,100.41,46.22,43.51,34.89,76.08-52.63,125.85-95,187.83S429.93,555,360,593s-96.47,14.28-128.73-20.37S151.5,468.7,130.18,387.23s-32-228.07-26-290,24.67-58,61-58.64S261.31,45.87,349.35,28.54Z" style="fill: url(#ed4cd2d4-bb7e-4ff7-ab76-c4b4775e701c)"/>
    <path d="M572,183.82c-60.12-35.36-120.66-70.09-156.81-100.77-13.39-11.36-22-11.36-25.81-11.36-6.29,0-12.74,1.66-22,3.58-2.73.57-5.55,1.16-8.48,1.74A640.41,640.41,0,0,1,232.06,89.2c-14.81,0-27.87-.41-39.39-.78-8.77-.29-8.7-.26-20.19-.41s-18.93,9.27-19.92,24.67c-1.84,28.45-.26,72.2,3.59,118.08,4.77,56.75,12.71,109.22,21.81,144C196.26,444.66,237.6,506.9,267.44,539c19.15,20.57,25.16,24,31.41,24,4.82,0,16.1-1.74,37.59-13.41,27.26-14.82,58.7-40.26,90.91-73.57a740.67,740.67,0,0,0,76.87-94.15c35.08-51.37,69.73-125.68,83.9-162.47C594.43,203,583.43,190.57,572,183.82Z" style="fill: #c5eabe"/>
    <path d="M511.58,720.19c5.46.33,60.41,5.57,85.42,4.3,9-.45,26.85-17.55,14.56-25.65-9.62-6.36-36-7.88-102.11-20.67S435.54,647.79,363,651.51c-53.55,2.74-117.35,10-131.48,10.23-41.88.51-128.86-3.31-139.26-3s-24.88,30.93,16.4,33.33,55,3.13,73.65,12.19,41.89,30.78,107.29,25.3c62.88-5.26,97.67-4.15,125.55-2.37S467.05,717.54,511.58,720.19Z" style="fill: #efefef"/>
  </g>
  <g id="b72a8a28-66e6-4499-b36c-bbdf1c5723b1" data-name="butler">
    <path d="M385.51,78.59s.92-28.61,1.77-36.77c.74-7,2.9-25.71,3.33-30.68a1.48,1.48,0,0,0-1.09-1.56c-4.64-1.26-24-7.64-47.46-9.35-23.86-1.75-45.73,7.12-50.52,8.94a1.5,1.5,0,0,0-1,1.56c.41,3.72.79,15.9,1.39,25.36.71,11.32,1.06,38.45,1.06,38.45Z" style="fill: #626f70"/>
    <path d="M299.56,104.64s-20.17-1.59-25.7-6.45-7.23-15.65-2.59-19.08c4.82-3.56,26-13.31,66.87-12.3,43.35,1.08,61.1,11.82,67.75,15.77s2.83,18.41-4.9,21.47S366.76,106,366.76,106Z" style="fill: #515e5e"/>
    <path d="M367.33,85s15.75,2.76,22.67,5.39-.78,3.57-2.68,3.74-7.24-.23-7.24-.23l-81.47-.56c-.17,0-8.24-.8-10.05-1.58s-5-2.72-1.25-3.79c4.92-1.4,19.92-5,23.55-5.64s18.29,2.19,18.29,2.19Z" style="fill: #384242"/>
    <polygon points="365.99 155.92 365.67 183.77 337.98 198.57 313.12 180.59 312.67 157.99 365.99 155.92" style="fill: #ffd3c2"/>
    <path d="M310.86,151.71l1.81,5.75.09,4.62s8.3,12.37,15,15.07c8.15,3.29,18.54,2.41,24.27-.4s14-15.61,14-15.61v-4.69Z" style="fill: #e8a397"/>
    <path d="M274.4,489.91s-1.27-2-1.85,2.2,2.3,4.62,4.88,5.22c2.39.57,52.73,14.71,59.6,16.64a.69.69,0,0,0,.86-.59l2.56-23.58,8.07,22.62,50.8-14.48s2-.4,1.69-3.22-65.74-43.87-65.74-43.87Z" style="fill: #384242"/>
    <path d="M416.51,647.36s1.53,6.1,3.63,12,9,13,13.89,15.64,12.21,6,14,9.83c1.29,2.66,1.1,6.73.87,8.9a2.11,2.11,0,0,1-1.63,1.84c-4.48,1-18.31,3.9-26.46,3.67-8.83-.25-40.71-10.47-47-12.52a1.75,1.75,0,0,1-1.2-1.5l-4.52-46.69Z" style="fill: #384242"/>
    <path d="M264.39,641c-.47,8.21-1.56,16-7.3,20.93s-14.37,11.15-18.09,14.8c-2.64,2.58-3.11,7.3-3.26,10.53a1.77,1.77,0,0,0,1.41,1.82c5.09,1.07,22,4.52,27.24,4.13S295.5,682,302.85,678.93a3.63,3.63,0,0,0,2.2-2.94l4.63-41.85Z" style="fill: #384242"/>
    <polygon points="276.83 486.59 264.38 640.98 316.38 646.72 336.16 471.6 360.02 650.23 416.51 647.36 392.62 463.94 378.58 359.63 293.1 356.44 276.83 486.59" style="fill: #515e5e"/>
    <path d="M361.54,163.77c4.45-4.15,10-11.86,12.17-17.26,2.82-6.94,5.65-19.1,6.76-28s2.23-28.3,2.23-28.3S366.89,82.32,338,80.52c-27-1.69-44.41,7.26-44.41,7.26s.64,17.19,1.6,28.49,4,23.69,7.64,30.53,11.17,15,15.41,18.44,9.82,9.3,21.11,9.3S357.09,167.92,361.54,163.77Z" style="fill: #ffd3c2"/>
    <path d="M293.57,87.78s-.92,16.12-.79,22.31,3.24,21,4.76,21.32,0-4.58,0-7.28-.34-20.23,0-22c1.27-6.82,4.32-10.43,6.83-11.82s5.75-3.82,6.48-8C310.86,82.31,300.35,84.29,293.57,87.78Z" style="fill: #473f3d"/>
    <path d="M382.7,90.2s.21,13.41,0,21-3,18.69-4.36,18.06-1.46-10.87-1.07-17.27,1.57-14.5-2.61-17.51-5.62-2.87-6.4-4.83a17.67,17.67,0,0,1-.93-4.65A90.67,90.67,0,0,1,382.7,90.2Z" style="fill: #473f3d"/>
    <path d="M307.29,244.84l26.61,31,39.82-29.39-3.29-51.12s-3.17-19.27-3.46-20.82-1.18-1.26-1.18-1.26l-25.67,19-3.2.38L313,173.26s-1.43-.56-1.53.89-1.64,22.76-1.64,22.76Z" style="fill: #f9f8f4"/>
    <polygon points="310.32 240.49 337.25 261.81 368.17 238.86 369.59 375.08 344.66 388.09 335.62 373.27 327.49 388.09 298.22 374 310.32 240.49" style="fill: #e2e0d9"/>
    <path d="M295.11,190.2l-26.82,7.14a8.59,8.59,0,0,0-3.11,0c-.91.36-2.71,3.1-2.71,3.1l-28.31,23.89-22.42,6.06L200.93,259l-28.6-3.28L164,266.53s7.76,24.21,12,28.16c3.88,3.59,23.15,3.67,29.4,1.51,8.1-2.08,34.77-8.95,39.8-10.6,6.76-2.2,33.53-16.8,33.53-16.8s3.24,71.5,3.31,83.06-4.73,83.93-5.5,97.28-4,43-4,43a7.09,7.09,0,0,0,5.28-.39c3.18-1.32,8-8.82,16.91-27.82s17.15-54.51,17.67-82.19c.26-13.88,1-62,1-62Z" style="fill: #626f70"/>
    <path d="M387.45,193.2l.48-2,21.75,6.34s4.15.53,5.67,1.86,2.59,4.4,2.59,4.4l17.36,52L473,321.74l-57.6,18.05L400.14,311l-3.63-11.89-3.15,30.66s-.23,56.69,0,71.71S401,494.72,401,494.72s-3.87.75-5.5-.88-17-20.14-24.15-43.42-9.64-64.45-9.77-77.59S360,305.5,360,305.5Z" style="fill: #626f70"/>
    <path d="M154.82,212.15s12.42-10,16.5-12,11.86-2.08,15.08,2.18,1.52,10.34,1.52,10.34-16.12,12.62-16.5,12.43S154.82,212.15,154.82,212.15Z" style="fill: #efeeea"/>
    <path d="M439.74,372.94s-10,1.54-12.88,0-6.26-14-7.12-20.67,26.35-1.74,26.35-1.74Z" style="fill: #efeeea"/>
    <path d="M218,275.16c-1.21,4-9.6,15.57-14,17.61s-22.28,2.43-26-1.41-7.61-17.22-7.61-17.22Z" style="fill: #384242"/>
    <path d="M286.39,192.58a2.74,2.74,0,0,1,1.68-2.61c1.84-.82,20.55-6.54,20.55-6.54s3.08-1.74,3.6,1.1,2.71,21,2.71,21l-1.5,114.19a2.81,2.81,0,0,1-3.08-2.51c-.55-2.84-10.53-49.75-12.91-68.34S286.39,192.58,286.39,192.58Z" style="fill: #515e5e"/>
    <path d="M368.9,182.7c-1.36-.56-2.1.1-2.2,1.35S360,305.5,360,305.5l7.42,4.08,24.52-117a2.42,2.42,0,0,0-1.35-2.93C388.62,188.83,368.9,182.7,368.9,182.7Z" style="fill: #515e5e"/>
    <ellipse cx="336.78" cy="279.41" rx="2.74" ry="5.34" style="fill: #515e5e"/>
    <ellipse cx="335.89" cy="355.86" rx="2.74" ry="5.34" style="fill: #515e5e"/>
    <ellipse cx="335.89" cy="321.06" rx="2.74" ry="5.34" style="fill: #515e5e"/>
    <polygon points="336.92 208.34 335.89 266.2 339.04 267.7 339.86 205.8 336.92 208.34" style="fill: #e2e0d9"/>
    <path d="M329.53,191.61a29.93,29.93,0,0,1,16.78,0c6.83-1.62,13.22-3,17.78-3.28a3.55,3.55,0,0,1,3.75,3.1,46.8,46.8,0,0,1-2.33,21.12,3.52,3.52,0,0,1-4.1,2.3c-4.28-1-9.52-3.19-15-5.71a31,31,0,0,1-16.86.07c-5.27,2.85-9.94,5.1-13.32,6a3.56,3.56,0,0,1-4.28-2.11c-2.52-6.51-3.43-14-2.5-22.63a3.53,3.53,0,0,1,3.8-3.15C317.45,187.76,323.56,189.74,329.53,191.61Z" style="fill: #9ac677"/>
    <path d="M400.14,311s-1.85-13.19-.83-19.73c.95-6.11-8.44-16.72-9.57-14.2-.62,1-1.15,5.09-.84,7.22.67,4.56,6.2,28.5,6.2,28.5l1.24-12.06Z" style="fill: #515e5e"/>
    <path d="M440.11,264.22c-3.57-4.89-10.89-6.41-16.89-5.68-7.13.87-3.48-1.3,0-2.87s12.08.15,12.08.15Z" style="fill: #515e5e"/>
    <path d="M412.18,327.62c-.92.31-2.75-2.65-3.62-5.24s-.46-3.82.45-4.13,2.93,2.43,3.8,5S413.09,327.31,412.18,327.62Z" style="fill: #515e5e"/>
    <g>
      <polygon points="145.17 110.94 122.59 160.47 111.38 155.36 126.95 121.2 95.88 107.04 80.31 141.2 69.1 136.09 94.37 80.64 63.3 66.48 20.92 159.44 44.38 170.13 52 173.6 63.21 178.71 94.28 192.87 105.49 197.98 118.55 203.94 136.57 212.15 176.24 125.1 145.17 110.94" style="fill: #fcd288"/>
      <path d="M545,384.65l-10.32,22.64L.12,163.62a31.53,31.53,0,0,1,.76-7.17A28.24,28.24,0,0,1,10.44,141Z" style="fill: #ffde9c"/>
      <path d="M675.82,401a48.86,48.86,0,0,0-17.09-47.15C639.34,338.1,631,334.31,606.43,330a48.87,48.87,0,0,0-46.8,18q-3.74,4.74-7.15,9.57a21.82,21.82,0,0,1-26.87,7.19l-7.43-3.39-18.64,40.88,7.44,3.39a21.85,21.85,0,0,1,12.18,25.05q-1.3,5.36-2.37,10.86A49.07,49.07,0,0,0,535,489.66c9.45,7.19,16.16,11.7,23.43,15s15.06,5.42,26.69,7.83a49.06,49.06,0,0,0,48.22-17.81A213,213,0,0,0,675.82,401Zm-68.09,73.67a16.37,16.37,0,0,1-16,6h0c-18.53-3.85-22-5.42-37.05-16.89a16.34,16.34,0,0,1-6-16.05,178.77,178.77,0,0,1,36.46-79.6A16.39,16.39,0,0,1,600.83,362c9.48,1.66,15.1,2.89,20.21,5.22s9.73,5.76,17.2,11.83a16.41,16.41,0,0,1,5.65,15.87A178.83,178.83,0,0,1,607.73,474.66Z" style="fill: #ffde9c"/>
      <g>
        <path d="M646.62,388.94A16.39,16.39,0,0,0,641,373.08c-7.47-6.07-12.09-9.51-17.2-11.84S613,357.68,603.56,356a16.43,16.43,0,0,0-15.68,6.14,182.8,182.8,0,0,0-24.66,40.92,185.66,185.66,0,0,1,21.93-34.93A16.39,16.39,0,0,1,600.83,362c9.48,1.66,15.1,2.89,20.21,5.22s9.73,5.76,17.2,11.83a16.41,16.41,0,0,1,5.65,15.87,185.17,185.17,0,0,1-12,39.46A182.93,182.93,0,0,0,646.62,388.94Z" style="fill: #f2b85a"/>
        <path d="M636,488.71a49.07,49.07,0,0,1-48.22,17.81c-11.63-2.42-19.43-4.53-26.69-7.84s-14-7.81-23.43-15a49.07,49.07,0,0,1-18.19-48.07q1.07-5.5,2.38-10.87a21.83,21.83,0,0,0-12.19-25l-7.43-3.39-2.73,6,7.44,3.39a21.85,21.85,0,0,1,12.18,25.05q-1.3,5.36-2.37,10.86A49.07,49.07,0,0,0,535,489.66c9.45,7.19,16.16,11.7,23.43,15s15.06,5.42,26.69,7.83a49.06,49.06,0,0,0,48.22-17.81,215.22,215.22,0,0,0,28.15-46.89A217.71,217.71,0,0,1,636,488.71Z" style="fill: #f2b85a"/>
      </g>
      <path d="M505.47,386.45l-2.84,6.22L0,163.57a32.8,32.8,0,0,1,.88-7.12Z" style="fill: #f2b85a"/>
      <path d="M219.48,237.89a32.43,32.43,0,0,0-5.94,23l5.06,2.3a23.57,23.57,0,0,1-.26,11.32c-.89,3.18-3.07,6.33-5.75,9.68-2.48.92-5.39,2.77-16.56,2.94s-22.78-4.56-26.81-8.81a38.81,38.81,0,0,1-3.24-4.2c-4.74-6.83-11.34-18.47-11.94-22.33-.76-4.89,1.56-24.24,5.34-31.08,2.86-5.16,15.22-13.1,21.37-12.86a27.24,27.24,0,0,1,6.45,1.71c.92.32,1.89.69,2.92,1.09,2.31.9,4.84,2,7.41,3.12,1.55.69,3.12,1.41,4.67,2.14,3,1.45,5.87,2.93,8.35,4.32,1.63.89,3.07,1.77,4.27,2.55a11.25,11.25,0,0,1,3.3,2.82C220.29,229.59,222,234.62,219.48,237.89Z" style="fill: #f9f8f4"/>
      <path d="M486.75,370.45c-2.76,4.28-11.43,13.1-14.74,14.68-.72.33-2.41.35-4.67.1-.75-.08-1.59-.19-2.47-.32-2.53-.39-5.48-1-8.47-1.72-1.41-.34-2.81-.72-4.18-1.1a65.5,65.5,0,0,1-9.69-3.46,12.45,12.45,0,0,1-2.95-1.81c-4.08-3.66-5.75-12.28-3.16-15.82s5.82-16.36,2.48-24.72L426,330.39s6.08-7.3,12.87-10.4,24.81-4.94,34.13,1.75h0a121.28,121.28,0,0,0,6.18,11.76c3,4.78,8,14.21,9.13,17.81S489.51,366.18,486.75,370.45Z" style="fill: #f9f8f4"/>
      <path d="M218.34,274.53c-.89,3.18-3.07,6.33-5.75,9.68-2.48.92-5.39,2.77-16.56,2.94s-22.78-4.56-26.81-8.81a38.81,38.81,0,0,1-3.24-4.2,29.83,29.83,0,0,0,11.43,5.79c7,1.84,21.57,2.54,27.58-1.32s9.27-7.42,8.55-17.7l5.06,2.3A23.57,23.57,0,0,1,218.34,274.53Z" style="fill: #efeeea"/>
      <path d="M213.16,221.75c-1.11.82-7.9,5.61-10.29,9-2.61,3.69-3.66,16.66-3.22,20.36,0,0,.17,7.82-2.09-.21s.88-17.94,2.3-21.2,7.39-8.13,10.64-9.44h.05A25.14,25.14,0,0,1,213.16,221.75Z" style="fill: #efeeea"/>
      <path d="M202.2,215.93l0,0c-1.52,1.32-12.86,7.18-14.87,10.67s-3.6,16.94-3.87,20.89-2,4.5-2.16-.64S181,232.05,184,226.06s12.94-10.64,14.63-11.8C200.14,215,200.65,215.2,202.2,215.93Z" style="fill: #efeeea"/>
      <path d="M190.12,210.67c-2.26,2.1-12.59,7.24-15.37,11.3s-6.57,14.35-7.25,18.84-2.13,3.56-2.32-1.22,2.87-13.9,5.26-18.32,12.56-10,16.76-11.69C188.12,209.9,189.09,210.27,190.12,210.67Z" style="fill: #efeeea"/>
      <path d="M454.63,350.84c-.11,3.78-.2,9.14-1.8,13.11s-10.3,14.68-10.3,14.68a12.45,12.45,0,0,1-2.95-1.81s10.58-12.1,11.37-15.61,1.09-10.2,1.2-12.43S454.73,347.07,454.63,350.84Z" style="fill: #efeeea"/>
      <path d="M465.16,370.2c-1.5,4.58-8.76,13-8.76,13-1.41-.34-2.81-.72-4.18-1.1,0,0,8.87-11.29,10-14.46s2.18-12.32,2.39-14.91,2.19-.58,2.38,1.69S466.65,365.64,465.16,370.2Z" style="fill: #efeeea"/>
      <path d="M477.67,363.06c0,3.18-3.56,12.21-4.66,14-.73,1.18-3.73,5.43-5.67,8.16-.75-.08-1.59-.19-2.47-.32,0,0,4.35-7.67,6.15-11.29s4.77-10.49,4.77-12.41S477.67,359.88,477.67,363.06Z" style="fill: #efeeea"/>
      <rect x="477.95" y="369.41" width="56.96" height="22.64" transform="translate(-50.06 683.63) rotate(-65.5)" style="fill: #fcd288"/>
      <rect x="488.92" y="386.47" width="19.46" height="22.64" transform="translate(-70.14 686.54) rotate(-65.5)" style="fill: #f2b85a"/>
      <path d="M473,321.74c-.67-.21-14.37-4.35-25.88,0-11.79,4.47-9.42,9.54-8.2,14.53L426,330.39s6.08-7.3,12.87-10.4S463.66,315.05,473,321.74Z" style="fill: #efeeea"/>
    </g>
    <path d="M346.31,191.61a34.56,34.56,0,0,1,.76,8.07c-.14,4.27-.68,9.46-.68,9.46s1-.15,1.61-1.63.84-3.92,1-7.14c.12-2.94,0-5.51-.63-6.88A2.79,2.79,0,0,0,346.31,191.61Z" style="fill: #6e9b59"/>
    <path d="M329.53,191.61a72.18,72.18,0,0,0-.59,8.58,85.32,85.32,0,0,0,.59,9,5.77,5.77,0,0,1-1.71-2.36,22.4,22.4,0,0,1-.92-6.87,15.4,15.4,0,0,1,1-6.7A3.4,3.4,0,0,1,329.53,191.61Z" style="fill: #6e9b59"/>
    <path d="M392.76,348.83c-4,.56-6.53.93-10,1.29a1.07,1.07,0,0,0-1,1.2l.57,13.29a2.83,2.83,0,0,0,3.09,2.33,89.66,89.66,0,0,0,9-1.7,2.83,2.83,0,0,0,2.12-3.45l-2.45-12.24A1.09,1.09,0,0,0,392.76,348.83Z" style="fill: #515e5e"/>
    <path d="M282.3,346.78c4,.56,9.13.93,12.59,1.29a1.05,1.05,0,0,1,1,1.2l-.57,13.29a2.81,2.81,0,0,1-3.08,2.33c-2.65-.31-8.37-1-11.61-1.7a2.83,2.83,0,0,1-2.11-3.45L281,347.5A1.09,1.09,0,0,1,282.3,346.78Z" style="fill: #515e5e"/>
    <path d="M229.75,283.83c.13,1-3.79,2.27-7,2.7s-4.57-.18-4.7-1.14,3.59-2.48,6.83-2.92S229.63,282.87,229.75,283.83Z" style="fill: #515e5e"/>
    <path d="M245.18,280.05c.12,1-3.8,2.27-7,2.71s-4.58-.18-4.71-1.14,3.59-2.49,6.83-2.92S245.05,279.1,245.18,280.05Z" style="fill: #515e5e"/>
    <path d="M229.15,225.69c2.13,0,14.33-.65,19.09,4.57s4.58,1,2.72-1.21-4.33-6.69-14.26-6.86l-2.54,2.14Z" style="fill: #515e5e"/>
    <path d="M344.76,133.83c.8.95-5,4.3-6.79,4.33s-5.7-3-6.45-4.25,3.82-.94,5.85-.65S344.1,133.06,344.76,133.83Z" style="fill: #e8a397"/>
    <path d="M325,114.06a12.11,12.11,0,0,1-.94,5.14,3.26,3.26,0,0,1-3.27,2.2,3.62,3.62,0,0,1-3.67-2.3,12.24,12.24,0,0,1-1.05-4.84c-.09-4.39,1.83-8,4.29-8.05S324.92,109.67,325,114.06Z" style="fill: #473f3d"/>
    <path d="M327.32,100.32a32.72,32.72,0,0,0-16.93,1.8,1.45,1.45,0,0,1-1.81-.68l-.2-.38a1.41,1.41,0,0,1,.42-1.77c2.7-2,10.76-7.09,19.43-4.45a.82.82,0,0,1,.57.88l-.48,3.88A.85.85,0,0,1,327.32,100.32Z" style="fill: #473f3d"/>
    <path d="M351.45,114.38a12.14,12.14,0,0,0,.52,5.2,3.27,3.27,0,0,0,3.09,2.46,3.62,3.62,0,0,0,3.84-2,12.45,12.45,0,0,0,1.43-4.76c.44-4.37-1.19-8.11-3.64-8.36S351.89,110,351.45,114.38Z" style="fill: #473f3d"/>
    <path d="M349.2,101a32.71,32.71,0,0,1,16.65,3.51,1.45,1.45,0,0,0,1.87-.49l.24-.36a1.4,1.4,0,0,0-.24-1.8c-2.48-2.25-10-8.14-18.88-6.4a.82.82,0,0,0-.65.82l.09,3.9A.84.84,0,0,0,349.2,101Z" style="fill: #473f3d"/>
    <path d="M336.43,147.59c7.14.59,18.05-1.71,18.7-.85,1.63,2.18-6.07,10.89-19.1,11.12s-15.07-9.92-13.68-11.62C323.05,145.37,330.75,147.13,336.43,147.59Z" style="fill: #e8a397"/>
    <g>
      <path d="M306.13,645.59l3.55.39c-.11,0,25.11-170.59,23.95-169.43S306.13,645.59,306.13,645.59Z" style="fill: #384242"/>
      <path d="M341.12,481.93c-.67.49,25.63,168.11,25.63,168.11l4.13-.36S341.79,481.44,341.12,481.93Z" style="fill: #384242"/>
    </g>
  </g>
</svg>
