<svg id="fcd198d9-632e-430c-9675-bd2e97d3eb4f" data-name="Layer 1" xmlns="http://www.w3.org/2000/svg" xmlns:xlink="http://www.w3.org/1999/xlink" width="250" height="250" viewBox="0 0 708.69 900.93">
  <defs>
    <linearGradient id="afc9017e-3548-42c9-bd86-f57a86672d35" data-name="Градієнт без назви 41" x1="282.06" y1="155.06" x2="394.54" y2="489.05" gradientUnits="userSpaceOnUse">
      <stop offset="0" stop-color="#e2f9de"/>
      <stop offset="1" stop-color="#c5eabe"/>
    </linearGradient>
    <linearGradient id="bf061c63-4088-4aa6-bac5-ac5d92c69a0d" x1="340.03" y1="324.01" x2="452.94" y2="1096.18" xlink:href="#afc9017e-3548-42c9-bd86-f57a86672d35"/>
  </defs>
  <title>Butlers6</title>
  <g id="e2cfaada-cae3-4361-b15d-3c739f5c61cc" data-name="bg">
    <path d="M8.75,417.34c-15.47-59.67-10.58-89.3,15.86-128S150,113.92,174.37,50.1,247-5.51,308.1,14.55,559.18,128.31,597.47,153.42s58.76,25.18,67.14,66.38S428.42,587.13,428.42,587.13Z" style="fill: url(#afc9017e-3548-42c9-bd86-f57a86672d35)"/>
    <path d="M664.61,219.8c11.33,45.79,40.63,193.32,43.58,332.78,1.08,51.2,4.58,97-44.65,104.31S233.38,739.45,177.25,754s-85.41,19.8-93.52-38.29c-11-78.47-61.85-256.86-72.8-290.77S-.84,334.25,55.69,339.72,262.9,417.2,317.2,435.9s79.49,26.44,130.26-36.47S558.17,248.9,584.61,219.8,655.61,183.44,664.61,219.8Z" style="fill: url(#bf061c63-4088-4aa6-bac5-ac5d92c69a0d)"/>
    <path d="M158.52,817.45c-24.33,2.34-6.41,49,27.17,61.9s151.6,30.75,201.4,16.06c87.48-25.81,145.93-14.47,192.7-35S559.62,807.6,519.29,806c-30.88-1.27-171,17.76-191.16,16.95S206.92,812.82,158.52,817.45Z" style="fill: #efefef"/>
  </g>
  <g id="aedc574b-a42c-46f5-9d99-b1907c7cff94" data-name="butler">
    <path d="M228.88,219.18C218.92,197.65,197,160,197,160s-.83-1.5.1-2.44c5.26-5.32,26-24.46,52-37.27,23.31-11.5,38.66-13.2,44.59-13.87,2.7-.3,3.47,1.4,3.47,1.4s18.95,42.19,27.15,63.81-53.19,23.52-53.19,23.52S238.83,240.72,228.88,219.18Z" style="fill: #626f70"/>
    <path d="M263,248.5S235.39,258,227.32,258c-11.75,0-20.4-10.58-17-18.65s30.74-40.65,72.73-57.53c27.49-11.06,56.83-11.85,67.44-11.56s10.27,17,3.9,25c-7.61,9.52-49.42,29.52-49.42,29.52Z" style="fill: #515e5e"/>
    <path d="M234.45,232.51c-4.61,4.87-7.51,8-7.19,9.77.48,2.64,10.66.33,16-3C250,235,234.45,232.51,234.45,232.51Z" style="fill: #384242"/>
    <path d="M326.49,187.32c5.14-.6,16.26-2.54,16.61.77S331,198.32,331,198.32Z" style="fill: #384242"/>
    <path d="M258.36,632.43s-13,8.3-13.7,10.39-.37,3,1.15,4.54,35.71,14.57,35.71,14.57l47.26-44.22,6.71,43.86L376,647.36,402.87,634s10.39-5.62,11.83-6.27,2.23-1.46,1.67-3.17-29.88-66.09-29.88-66.09l-107.93,1.44Z" style="fill: #384242"/>
    <path d="M292.23,792.65c-.24,2.94-.88,21.24.78,24s9.66,10,10.72,11.92,1.36,12.68,1.36,12.68.3,1-2.12,1H239.66c-1.51,0-1.58-.61-1.43-3.78.05-.94.44-4.49,1-9,1.25-10.68,3.26-26.78,3.26-26.78Z" style="fill: #384242"/>
    <path d="M447.46,800c1.12,3.91,1.9,9.39,5.17,11.61s25.85,14.46,28.38,16.26c4,2.83,3.69,10.5,3.44,13.32a1.18,1.18,0,0,1-1.18,1.06H404.45a1.16,1.16,0,0,1-1.14-.91L394.1,783.5Z" style="fill: #384242"/>
    <polygon points="270.17 600.39 242.46 802.69 301.88 805.37 337.6 597.26 388.32 807.6 447.46 800.01 393.42 573.71 371.04 486.24 280.89 509.29 270.17 600.39" style="fill: #515e5e"/>
    <polygon points="250.94 803.07 274.97 603.91 279.34 602.35 256.03 803.3 250.94 803.07" style="fill: #384242"/>
    <path d="M337.6,597.27s5.06-27.81,5.49-29.75,4.67-5.06,3.79-.27-6.31,42.3-6.31,42.3Z" style="fill: #384242"/>
    <polygon points="401.2 805.95 343.3 579.53 345.3 572.63 407.92 805.08 401.2 805.95" style="fill: #384242"/>
    <path d="M269.93,296.35,320.88,319l3.28-27.15-1.47-8.35s8.06-2,10.28-3.78c4.71-3.7,10.27-22.79,11.15-34.25s-1.76-33.62-4.11-41-7.9-18-7.9-18-22.38,1.66-43.93,10.19c-28,11.08-53.73,35.82-53.73,35.82L262.05,276S266.56,288,269.93,296.35Z" style="fill: #ffd3c2"/>
    <path d="M234.45,232.51s2,7.84,3.74,12.68,13.55,22.4,14.36,24.95,8.24,11.32,11.16,10.36,7.62-8.61,8.83-11,1.61-15.83,0-17-4.7-.94-6.31-3.49-9.93-15.16-9.25-19.18,10.19-5.77,11.67-4.57,3.62,10.47,3.62,10.47,3.36-.54,4.83-2.82c0,0-1.88-12.21-.94-16s10.2-9.39,11.81-13.55.21-6.63.21-6.63C276.7,200.91,254.73,211.85,234.45,232.51Z" style="fill: #473f3d"/>
    <path d="M421.35,121.33l-21.94-1.18-29.14-1.07c-1.36,0-2.83-.92-1.9-1.92l4.57-4.8a18.76,18.76,0,0,1,8-5.07S518.79,61.62,521.34,60.83c5.39-1.69,7.84-.81,7.84-.81Z" style="fill: #f2b85a"/>
    <path d="M469.75,150.75a6.31,6.31,0,0,1,3,5.64c-.1,4-11.18,21.85-11.18,21.85l-20.8-5.54V137l16,.52Z" style="fill: #f9f8f4"/>
    <path d="M436.41,144.38s6.58-5.75,16.09,0,11.92,11.18,20.28,12l.84-17.45-21.85-18.39-12.12,7.84Z" style="fill: #efeeea"/>
    <path d="M452.71,107.27s11.5.94,14.22,2.62,17,16.61,17.76,21.53-1.56,12.22-3.76,13.9-7.42.73-10.24,0-13.48-17-25-22.06Z" style="fill: #f9f8f4"/>
    <path d="M527.49,60.28c1.15-.52,4.52-.88-1,3.69-6.85,5.69-110.34,93-110.34,93-2,1.72-3.84-.25-4.72-2.73l-12-34.07S526.33,60.8,527.49,60.28Z" style="fill: #ffde9c"/>
    <path d="M428.42,166c1.2-5.28,3.08-14,2.35-17.93s-2.83-15.88-1.89-18.39,8.78-12,11.5-12.86,10.24,2.51,8.05,7.11a94.8,94.8,0,0,1-5,9l2,11.7,3.42,33.66Z" style="fill: #f9f8f4"/>
    <path d="M220.34,578.19c-2.05,1.53-3.74.9-5.19-.61a12.75,12.75,0,0,1-1.58-2.08c-1.7-2.66-6.72-11.62-7-12.18v0s-2.32,11.07-2.45,12.32,1.07,17.27-.93,21c-1,1.87-7.44,3-10.71,2.11-5.9-1.61-13.73-5-14.29-6.2-1.1-2.43-4.35-12-3.68-20.31s2.83-19.33,3.21-21.45,1.5-10.27,2.45-17.31l37.47,1.66s-.51,16.27-.13,18.15,4.13,13.14,5,16.4S223.2,576,220.34,578.19Z" style="fill: #f9f8f4"/>
    <path d="M317.52,308.47l6.64-16.66s2.19-.54,2.82,1.09,5,18.84,5,18.84l14,16.84,6.56,42.32L328,391.2,284.3,369.81,263.64,310.2s1.09-16,1.09-18.47a2.13,2.13,0,0,1,2.19-2.37C276.12,291.68,296,302.19,317.52,308.47Z" style="fill: #f9f8f4"/>
    <polygon points="316.02 327.06 323.73 385.32 327.05 384.39 319.61 326.31 316.02 327.06" style="fill: #e2e0d9"/>
    <polygon points="268.37 308.87 296.48 323.09 297.12 327.99 268.93 312.16 268.37 308.87" style="fill: #e2e0d9"/>
    <polygon points="287.97 361.81 325.3 382.86 344.08 358.72 370.7 499.29 356.39 516.97 343.96 502.38 334.78 522.03 299.69 507.15 287.97 361.81" style="fill: #e2e0d9"/>
    <path d="M344.3,303.89l1.37-1.22,12.95-3.57a18.26,18.26,0,0,1,2.95-2.33,31.42,31.42,0,0,1,4.39-1.51l41.91-36.44L428.42,166l48.49,13.34S459,273,458.15,276.42s-7.13,12.19-9.46,15.34-74.51,70.76-74.51,70.76,5.89,99.86,7,112.6,16.44,84.66,19.59,98.22,15.62,51.23,15.62,51.23-1.86,1.19-2.95,0-11.3-12.13-17.74-22.82-19.79-47.3-25.82-73.88S355,450.57,355,450.57Z" style="fill: #626f70"/>
    <path d="M312.73,462.84c2.11,13.68-5.88,91.35-9.52,105.27s-22.35,50.26-27.78,58.52-16.83,17.08-19.59,17.7a22.22,22.22,0,0,1-9.64-.58,5.37,5.37,0,0,1-1.54-.93s12.41-43,14.12-56.32,3.76-84.48,3.07-95.76-13.68-72.5-13.68-72.5l-7.08,23.93L227.31,542.72l-47.19-9.23s11.35-93,12-97.74a198,198,0,0,1,5.13-24.63c2.39-7.86,23.52-74.28,23.52-74.28s.72-4.41,2.15-5.9,4.69-1.62,4.69-1.62l13.86-7.44L254.33,319l35,43.19Z" style="fill: #626f70"/>
    <path d="M335.82,301.67s6.82-.39,8.16,0a3.41,3.41,0,0,1,2.5,2.51,176.79,176.79,0,0,1,4.46,28c.95,13.41,6.73,112.87,6.65,115.15s-1,2.94-2.56,3.25c0,0-15.84-97-18.42-105s-8.79-23.36-8.79-23.36Z" style="fill: #515e5e"/>
    <path d="M260,305.32a4.86,4.86,0,0,1,6.19,0c2.16,1.75,14.81,13.73,18.32,20.73s13.19,39.18,16.29,55.88,11.57,75.66,12,80.91c0,0-2.84,0-3.43-1.91S294,412.35,290.11,401.45s-22.76-51.49-27.8-59.3-20.8-20.27-20.8-20.27a2.84,2.84,0,0,1,0-2.92C242.45,317.57,260,305.32,260,305.32Z" style="fill: #515e5e"/>
    <path d="M262,478.86a157,157,0,0,0,26.11-2.53,2.25,2.25,0,0,1,2.51,1.36c1.83,4.52,3,10.25,3.82,16.53a2.26,2.26,0,0,1-1.6,2.44c-8.64,2.65-19.65,2.36-31.87.6a2.26,2.26,0,0,1-1.92-2.14,73,73,0,0,1,.8-14.43A2.22,2.22,0,0,1,262,478.86Z" style="fill: #515e5e"/>
    <path d="M373.54,466.73a94.56,94.56,0,0,0,2.6,18.28,1.56,1.56,0,0,0,1.34,1.2c2.4.25,5.35-.92,8.51-2.64a1.57,1.57,0,0,0,.76-1.71c-1.61-6.94-3.55-12.49-5.83-16.56a1.51,1.51,0,0,0-1.77-.69,12,12,0,0,1-4,.53A1.55,1.55,0,0,0,373.54,466.73Z" style="fill: #515e5e"/>
    <path d="M309,308c5.92-2.15,9.78-2.7,14.16-1.4,0,0,7.55-6.32,9.55-7.71s4.31-.53,5.55,2.86c2.31,8.7,2.58,14.51.31,26-.84,4.22-3.76,3.66-5.09,3.24a92.65,92.65,0,0,1-9.82-4.62,20.71,20.71,0,0,1-13,2s-8.56,7.41-10.6,8.83c-2.44,1.7-4.8-.4-6-2.62-4.52-8.21-5.35-16.14-4.35-25.94.42-4,3.16-4.48,6.4-3.55S309,308,309,308Z" style="fill: #9ac677"/>
    <path d="M215.15,577.58a12.75,12.75,0,0,1-1.58-2.08c-1.7-2.66-6.72-11.62-7-12.18v0s1.79-8.28,3.61-6.37S212.6,570.85,215.15,577.58Z" style="fill: #efeeea"/>
    <path d="M323.13,306.58a56.47,56.47,0,0,1,1.11,9.29,66.2,66.2,0,0,1-.61,10.44s1,.11,1.86-2.44a19.88,19.88,0,0,0,.93-6.41c.16-4.11-.71-8.49-1.51-9.81C323.9,306,323.13,306.58,323.13,306.58Z" style="fill: #6e9b59"/>
    <path d="M309,308a80.1,80.1,0,0,1,1.41,9.83c.27,4.46.26,10.5.26,10.5s-.76.05-1.21-1.18a38.51,38.51,0,0,1-1.55-9.36c-.16-3.12-.4-6.33,0-8.15A2.38,2.38,0,0,1,309,308Z" style="fill: #6e9b59"/>
    <path d="M322.69,283.46c-3.42.63-20.59-.25-29.47-.92-2.92-.22-1.2,2.9,2.58,3.71,11.41,2.43,27.78,2.27,27.78,2.27Z" style="fill: #e8a397"/>
    <ellipse cx="329.34" cy="403.34" rx="2.73" ry="5.33" transform="translate(-47.5 43.98) rotate(-7.13)" style="fill: #515e5e"/>
    <ellipse cx="340.86" cy="480.37" rx="2.73" ry="5.33" transform="translate(-56.97 46.01) rotate(-7.13)" style="fill: #515e5e"/>
    <ellipse cx="335.65" cy="441.49" rx="2.73" ry="5.33" transform="translate(-52.19 45.06) rotate(-7.13)" style="fill: #515e5e"/>
    <ellipse cx="220.53" cy="526.05" rx="4.44" ry="2.49" transform="translate(-332.86 664.34) rotate(-81.29)" style="fill: #515e5e"/>
    <ellipse cx="222.94" cy="510.29" rx="4.44" ry="2.49" transform="translate(-315.24 653.35) rotate(-81.29)" style="fill: #515e5e"/>
    <ellipse cx="462.26" cy="208.14" rx="4.44" ry="2.49" transform="translate(174.35 625.41) rotate(-79.63)" style="fill: #515e5e"/>
    <ellipse cx="465.13" cy="192.46" rx="4.44" ry="2.49" transform="translate(192.13 615.37) rotate(-79.63)" style="fill: #515e5e"/>
    <path d="M315.5,253.2c-3.23,3.11,5.28,13.77,7.48,14.33s5.92,2,10.57-3.11c3-3.25,6.06-11.35,6.06-17.22,0-3.5-7.22,1.9-12.66,3.72C323.28,252.15,316.81,252,315.5,253.2Z" style="fill: #e8a397"/>
    <path d="M335.6,231.29c1.14.76-2,5.48-4,6.07s-8.92-.88-10.08-2,5.66-2.48,7.9-2.79S334.67,230.67,335.6,231.29Z" style="fill: #e8a397"/>
    <path d="M268.85,244.92c-1.38-.38-7.1-11.49-6.64-12.79s3.23-2.54,4.1-1.24A14.68,14.68,0,0,1,268.1,237c-.12,1.3-.81,1.46-.41,2.65s1.73,3,1.79,3.62S270.69,245.43,268.85,244.92Z" style="fill: #e8a397"/>
    <path d="M311.75,219.36a11.68,11.68,0,0,1,.56,5,3.16,3.16,0,0,1-2.41,2.93,3.48,3.48,0,0,1-4-1.1,12.09,12.09,0,0,1-2.3-4.18c-1.3-4-.53-7.86,1.72-8.6S310.44,215.34,311.75,219.36Z" style="fill: #473f3d"/>
    <path d="M337.79,211.61a16.73,16.73,0,0,1,.89,5.14c0,1.83-.85,1.83-1.77,2.13s-1.83.76-3-.86a17.23,17.23,0,0,1-2.14-4.47c-1.37-4.21-1.13-8.06.52-8.59S336.43,207.4,337.79,211.61Z" style="fill: #473f3d"/>
    <path d="M325.41,199.09l1.85,2.55a.67.67,0,0,0,.75.28c1.45-.44,5.52-1.89,9.15-1l.12-1.93a.87.87,0,0,0-.44-.56c-1.35-.66-6.73-3-11.12-.91A1.09,1.09,0,0,0,325.41,199.09Z" style="fill: #473f3d"/>
    <path d="M310.34,205.51a31.5,31.5,0,0,0-14.67,7.27,1.4,1.4,0,0,1-1.86,0l-.3-.29a1.33,1.33,0,0,1-.21-1.73c1.76-2.69,7.34-10,16-10.5a.79.79,0,0,1,.81.61l.86,3.65A.83.83,0,0,1,310.34,205.51Z" style="fill: #473f3d"/>
  </g>
</svg>
