<svg id="b14bcf91-7ead-4c21-89ac-eb2d74a6e463" data-name="Layer 1" xmlns="http://www.w3.org/2000/svg" xmlns:xlink="http://www.w3.org/1999/xlink" width="250" height="250" viewBox="0 0 771.38 772.34">
  <defs>
    <linearGradient id="b3c4e8b9-c3ae-426f-8f9b-cc8af06106bb" data-name="Градієнт без назви 127" x1="416.71" y1="593.03" x2="313.09" y2="73.59" gradientUnits="userSpaceOnUse">
      <stop offset="0" stop-color="#b4e2aa"/>
      <stop offset="1" stop-color="#e2f9de"/>
    </linearGradient>
    <linearGradient id="fd13d1d3-3303-4463-bb0e-88fad9094825" data-name="Градієнт без назви 21" x1="397.86" y1="450.21" x2="341.67" y2="456.3" gradientUnits="userSpaceOnUse">
      <stop offset="0" stop-color="#f2b149"/>
      <stop offset="1" stop-color="#dd8f28"/>
    </linearGradient>
  </defs>
  <title>Butlers9</title>
  <g id="fda9aef2-1e8e-4df3-8806-3058c726283a" data-name="bg">
    <path d="M79.79,724.42C63.38,730,45.84,744,61.89,755.83s36.35,15.36,75.48,16.41c49.55,1.34,88-11.89,168.66-23.64,32.84-4.79,93.05-6.54,147.5-1.4,43.37,4.09,123.15,13.51,187.43,8.59,30.42-2.33,64.11-11.12,82-29.2,10.1-10.23-.79-36.22-69.62-33.36-80.32,3.35-98.75,7.2-207.59,11.85-70.88,3-166.13-1.76-229.14-.73S114.24,712.71,79.79,724.42Z" style="fill: #efefef"/>
    <path d="M620.71,586.21c191.57,7.9,198.43-220.18,32.17-435.82-112-145.24-408-134.12-576.26,49.35C-34.67,321.11-14.27,560.17,71,625.32c103.41,79,214.89,69.9,297.65,29.8C466,608,513.05,581.78,620.71,586.21Z" style="fill: url(#b3c4e8b9-c3ae-426f-8f9b-cc8af06106bb)"/>
  </g>
  <g id="ef45628f-3452-499a-b597-3ab60e99d91f" data-name="butlers">
    <g>
      <polygon points="692.42 366.75 698.59 383.8 640.73 437.3 627.31 370.56 667.41 344.23 692.42 366.75" style="fill: #f9f8f4"/>
      <polygon points="638.69 376.53 639.88 401.64 666.5 403.91 625.14 451.96 620.67 386.29 638.69 376.53" style="fill: #e2e0d9"/>
      <path d="M713.11,410.27c-1.27-3.54-7.23-13.64-7.23-13.64L677.16,406v2.32l-7.51-1.06-47.08,43.45,8.49,58.94,25.09-35.86,21-25.49-1.35,14.28s2,35,11.73,37.44,16.88-2,19.44-13.58,7.72-53.77,7.76-61.43S714.38,413.81,713.11,410.27Z" style="fill: #626f70"/>
      <polygon points="625.77 457.77 656.15 473.75 631.24 510.91 625.77 457.77" style="fill: #515e5e"/>
      <path d="M649.64,340.25c-.28-.06-11.92-10.2-12.11-10.45a26.06,26.06,0,0,0-6.58-1.11c-1.91,0-21.94-.35-21.94-.35s5.1,86.9,5.61,84.87,24-43.65,24-43.65Z" style="fill: #626f70"/>
      <path d="M690.26,385.23c-4.56,3.61-12.82,5.22-21.46,6.63l3.48-2.4c5.35-.11,14.71-2.77,21.76-5.75Z" style="fill: #e2e0d9"/>
      <path d="M650.56,365.49l8.7-15.12,1.68-5.42-10.87-7.33a3.09,3.09,0,0,0-2.94.32c-1.45,1-6.64,10.52-10.38,19.13s-15.65,46.21-15.65,46.21l2,4.45.29-5.13s20-25.4,23-30.84S650.56,365.49,650.56,365.49Z" style="fill: #515e5e"/>
      <path d="M627.16,445.84c.51-1.18,22-30.21,36.16-42.49s30.14-18.18,31.56-25.85,1-8.74,1-8.74l.75,6.74a89.84,89.84,0,0,1,6.41,9.07c1.2,2.24,3.73,8.07,5,10.92a3.08,3.08,0,0,1-1.52,4,9.34,9.34,0,0,1-1.74.57c-17.58,4.24-23.8,8.44-33.4,15.08-6.66,4.61-43.7,34.92-43.7,34.92Z" style="fill: #515e5e"/>
      <path d="M677.13,448.25s.25-7.95.19-10.5-1.94-2.45-2.75,1.44S672,454.47,672,454.47Z" style="fill: #515e5e"/>
      <path d="M634.82,406.46c0-.36,22-27.71,22-27.71l1.59,1.52-21.7,26.89Z" style="fill: #e2e0d9"/>
      <path d="M652.85,377.08a29.32,29.32,0,0,0,6.78,6.8,69.41,69.41,0,0,0,3.36,10.6,1.89,1.89,0,0,0,2.5,1,30,30,0,0,0,11.37-8.61,1.9,1.9,0,0,0-.21-2.63,77.43,77.43,0,0,0-8.88-6.26l-8-8.18c-2.91-4.38-5.85-8.92-8.33-11.22a1.88,1.88,0,0,0-2.57,0,19.84,19.84,0,0,0-6.73,13.26,1.8,1.8,0,0,0,.81,1.65C645,374.82,648.77,376,652.85,377.08Z" style="fill: #9ac677"/>
      <path d="M659.63,383.88s4.57-3.62,6.34-6.22,1.43,1.09,1.43,1.09a14.38,14.38,0,0,1-2.77,3,16.38,16.38,0,0,1-3.69,2.39A2,2,0,0,1,659.63,383.88Z" style="fill: #6e9b59"/>
      <path d="M652.85,377.08s3.74-5.85,6.14-6.93-.43-1.81-.43-1.81-1.67,1.44-2.94,2.68a14.23,14.23,0,0,0-2.67,4.44A6.12,6.12,0,0,0,652.85,377.08Z" style="fill: #6e9b59"/>
      <path d="M674.64,314.4a132.25,132.25,0,0,0-12.06,19.89,58.9,58.9,0,0,0-5.94,23.87c-.34,6.47,2.18,18.63,12.09,21.59s26.36-2,30.69-3.8c6.48-2.66,23-16.65,23-16.65Z" style="fill: #ffd3c2"/>
      <path d="M702.33,353.27s1,6.07.81,7.4-4.71,7.51-4.71,7.51,0,1.63.68,1.8,2.51-1.66,3.15-1.73,1.49,1.71.49,3-8.58,5.62-9,5.93.64.87,2,.75a74.16,74.16,0,0,0,14.19-5.18C713.83,370.65,718,364,718,364Z" style="fill: #473f3d"/>
      <path d="M664.21,329.75c-.17-.51,4.51-11.84,8.66-15.15s6.14-.67,6.14-.67l-1,8.95s-3.79-.39-5.34.14S665.14,332.59,664.21,329.75Z" style="fill: #473f3d"/>
      <path d="M739,340.36s5.36,9.48,6.52,18.68-3.31,16.06-15.42,12.57-30.72-16.86-43.52-32.3-17.8-36.39-18.44-43.68,9.43-9.6,16.18-6.58,20.06,10.89,20.06,10.89Z" style="fill: #515e5e"/>
      <path d="M768.77,321.28a1.53,1.53,0,0,1-.53,1.22c-2.58,2.27-12.42,10.57-17.44,14.16s-18.5,15.22-21.66,17.88a1.52,1.52,0,0,1-1.69.2c-3.79-2-14.23-5.17-29.66-22.34-9.92-11-12.49-24.57-13-27.8a1.56,1.56,0,0,1,.35-1.26c2.37-2.74,13.15-15.21,17.22-19.37,3.89-4,11.48-13,13.69-15.65a1.54,1.54,0,0,1,1.58-.49c4.35,1.22,22.62,7,35.47,21.31a68.42,68.42,0,0,1,12.13,19.1c0,.12.1.25.16.37A44.18,44.18,0,0,1,768.77,321.28Z" style="fill: #626f70"/>
      <path d="M768.77,321.28a1.53,1.53,0,0,1-.53,1.22c-6.77,4.44-21.2-4.06-31.08-15.78-9.37-11.1-14.29-19.45-15.65-23.17-1.46-4-.41-3.83.87-1.45s4.54,8,11.94,16.41c5.39,6.07,12.15,13.93,22.49,18.37,8.61,3.7,11.73-.14,8.55-8.27A44.18,44.18,0,0,1,768.77,321.28Z" style="fill: #515e5e"/>
      <ellipse cx="633.01" cy="409.21" rx="3.12" ry="1.96" transform="translate(-94.49 606.42) rotate(-48.05)" style="fill: #515e5e"/>
      <path d="M676.06,360.92c.08.68-3.27-.28-4.06-1a8.58,8.58,0,0,1-1.56-4.15c0-.76,1.87,1.13,2.65,2S676,360.37,676.06,360.92Z" style="fill: #e8a397"/>
      <path d="M675,344.41a5.07,5.07,0,0,1-2.34,1.5,2.39,2.39,0,0,1-2.44-.71,2.61,2.61,0,0,1-1-2.6,5.25,5.25,0,0,1,1.25-2.32c1.56-1.7,3.83-2.15,5.08-1S676.57,342.71,675,344.41Z" style="fill: #473f3d"/>
      <path d="M680.45,340.57a24.76,24.76,0,0,0-8.43-7.51,1.17,1.17,0,0,1-.58-1.19l.06-.27a.7.7,0,0,1,.85-.59c2,.44,7.58,2.13,10.57,7.56a.58.58,0,0,1-.07.68l-1.68,1.49A.49.49,0,0,1,680.45,340.57Z" style="fill: #473f3d"/>
      <path d="M686.24,356.08a5.42,5.42,0,0,0-1.6,2.31,2.37,2.37,0,0,0,.62,2.47,2.59,2.59,0,0,0,2.57,1.07,5.27,5.27,0,0,0,2.38-1.2c1.77-1.51,2.32-3.78,1.23-5.06S688,354.57,686.24,356.08Z" style="fill: #473f3d"/>
      <path d="M689.15,350.93a25.28,25.28,0,0,1,7.09,8.71,1.18,1.18,0,0,0,1.15.65l.27,0a.67.67,0,0,0,.62-.79,16.27,16.27,0,0,0-7-10.79.54.54,0,0,0-.67,0L689,350.21A.49.49,0,0,0,689.15,350.93Z" style="fill: #473f3d"/>
      <path d="M666.42,365.15c1.94,2.34,7.56,3.88,7.66,4.66s-6.26,1-9.25-2.13c-3.41-3.63-2.59-8-2-9S664,362.18,666.42,365.15Z" style="fill: #e8a397"/>
    </g>
    <g>
      <path d="M511.57,627.11,230.3,657.78c-60.11,6.56-106.61-37.67-113.17-97.78L94.83,355.47c-2-18.12,3.55-34.61,16-43.7,5.17-3.77,32.8-15.79,42.8-18.88l448.61,214.2c4.15,38.06-8.64,87.44-8.64,87.44C562.8,617.9,551.9,622.71,511.57,627.11Z" style="fill: #f2b85a"/>
      <path d="M225,305.39,137.13,315l-8.45-77.48C115.87,120.05,201,14.08,318.45,1.28S541.86,73.6,554.67,191l8,73.42L474.78,274l-8-73.41a125.85,125.85,0,0,0-250.21,27.28Z" style="fill: #ffe9c2"/>
      <g>
        <path d="M155.69,310.41l-8.45-77.48C135.84,128.4,202,33,299.53,4.21,192,25.7,116.57,126.46,128.68,237.5L137.13,315,225,305.39l-.28-2.51Z" style="fill: #f4c87a"/>
        <path d="M493.34,269.48l-8-73.42A125.89,125.89,0,0,0,320.91,90.15q3.52-.59,7.12-1A126,126,0,0,1,466.78,200.63l8,73.41,87.89-9.58-.27-2.52Z" style="fill: #f4c87a"/>
      </g>
      <path d="M544.35,613.37,263.08,644.05C203,650.6,156.47,606.37,149.91,546.26l-22.3-204.53c-2.8-25.64,9.44-48,35.07-50.79l404.86-44.15c25.63-2.8,42.4,16.4,45.19,42L635,493.35C641.59,553.46,604.46,606.82,544.35,613.37Z" style="fill: #f4c87a"/>
      <path d="M551.49,289.9,425.54,303.63l-81.69,8.91-154.93,16.9c-17.42,1.89-21.46,16.62-19.56,34L187.6,530.7c5.19,47.62,37.79,83.14,85.41,77.94l101.92-11.11,81.69-8.91,72.94-8c47.62-5.2,71.79-46.9,66.6-94.53L577.92,318.92C576,301.5,568.91,288,551.49,289.9Z" style="fill: #ffde9c"/>
      <path d="M551.49,289.9,425.54,303.63l-81.69,8.91-154.93,16.9a22.76,22.76,0,0,0-10.83,3.78c.62-.1,1.25-.2,1.9-.27l154.93-16.9,81.69-8.9,125.95-13.74c17.42-1.9,24.54,11.61,26.44,29l18.23,167.23c4.19,38.43-10.75,73-41.7,87.64,37-11.84,55.21-49.19,50.63-91.16L577.92,318.92C576,301.5,568.91,288,551.49,289.9Z" style="fill: #f2b85a"/>
      <ellipse cx="378.32" cy="456.62" rx="91.35" ry="94.56" style="fill: #f2b85a"/>
      <ellipse cx="384.74" cy="448.86" rx="91.35" ry="94.56" style="fill: #f4c87a"/>
      <path d="M413.81,422.22c-2.12-19.45-19.56-33.35-38.31-29.93-16.28,3-27.81,18.65-26.46,35.88a34.47,34.47,0,0,0,16.25,26.89c3.43,2.09,5.22,3.35,5.32,7.47l-1.44,44a5,5,0,0,0,4.29,4.93c9.74,1.3,24.5-.24,34.28-3.76A5,5,0,0,0,410.9,502L400,459.15c-.79-4,.81-5.56,3.69-8.34A34.44,34.44,0,0,0,413.81,422.22Z" style="fill: url(#fd13d1d3-3303-4463-bb0e-88fad9094825)"/>
    </g>
    <g>
      <path d="M126.41,342.46s-6.36-18.52-10.15-27.06c-2.57-5.79-6.76-14.85-8.37-18.31a1.9,1.9,0,0,1,.63-2.35c4.51-3.21,20.33-13.84,37.18-18a217.51,217.51,0,0,1,32.49-5.57,1.89,1.89,0,0,1,2,1.48c1,4.79,4.11,18.91,5.17,24,1.29,6.24,4.37,23.82,4.37,23.82Z" style="fill: #626f70"/>
      <path d="M140.37,359.16s-16.83,6.65-23.31,5.69-8.79-9.67-5.6-13.81,20.79-19,46.36-26.77,43.06-5.67,47.8-5.21c8.28.81,7.18,11,1.5,14.7s-29,11.81-29,11.81Z" style="fill: #515e5e"/>
      <path d="M139.37,343.12s-13.3,8.54-14.91,9.81,0,2.46,3.73,1.87,9.58-3.9,9.58-3.9Z" style="fill: #384242"/>
      <path d="M180.79,328c7.6-.84,14.37-1.4,18-1.4s2.51,1.58-.09,3.25-9.47,3.24-9.47,3.24Z" style="fill: #384242"/>
      <path d="M129.21,622.75s-2.68-.16-2.75,2.14-.3,3.4,1.37,4.11,35.64,8.06,35.64,8.06l8.68-28.37,3.72,26.11,57.75-13.36s1.4-.36.49-3.13-59.55-42.42-59.55-42.42Z" style="fill: #384242"/>
      <path d="M243.39,702.62s.91,6.68,3.09,9.47,17,10.9,19.23,12.35c1.53,1,2.11,4.91,2.31,7.13a1.87,1.87,0,0,1-1.41,2c-3.29.86-11.29,2.78-17.37,2.88-7.89.13-28.56-3.71-33.94-4.81a1.92,1.92,0,0,1-1.51-1.73l-2.19-30.42Z" style="fill: #384242"/>
      <path d="M123.93,705.75s-.57,8.58-1.86,12.22-7.2,15.32-8.93,17.62c-1.32,1.76-1.3,6.89-1.21,9.21a1.41,1.41,0,0,0,1.19,1.35c3.62.59,16.29,1.61,19.91.66,8.44-2.21,20-14.55,22.9-17.18a1.41,1.41,0,0,0,.46-.94l2.26-30.25Z" style="fill: #384242"/>
      <polygon points="131.51 611.38 123.93 705.75 163.92 708.89 176.74 595.7 196.6 643.01 206.27 705.75 243.4 702.62 235.03 629.16 197.69 522.03 148.96 528.4 131.51 611.38" style="fill: #515e5e"/>
      <path d="M196.64,350.11c1.42,13,.31,19.28.31,19.28l-12.66,18.45.53,18.66-4.36,8-32-14.57-1.72-12.45L145.6,379,129.72,350a.1.1,0,0,1,0-.05s19.19-14.82,35.63-19.15c.71-.19,1.39-.36,2.07-.52,15.26-3.7,24.86-2.42,24.86-2.42A125.45,125.45,0,0,1,196.64,350.11Z" style="fill: #ffd3c2"/>
      <path d="M159.88,336.51c-1.72,1.94-4.59,4.44-4.81,5.85s-.7,10.48-.81,11.23-2.85,1.69-3,1.25-1.63-5.72-2.79-7-6.24.39-6.12,2.3a101.87,101.87,0,0,0,2.42,11.26c.59,2.06,5.65,5.38,6.77,7.1s1.31,8.64.55,11.77a11.93,11.93,0,0,1-3.34,6.13c-.83.86-1.38,1.11-2,1a6.1,6.1,0,0,1-1.55-.61c-1.57-.76-7.42-12.28-8.18-15.05s-4.09-12.92-5.27-15.27a33.55,33.55,0,0,1-2-6.54.1.1,0,0,1,0-.05s15.1-12.06,31.41-17.84A5.53,5.53,0,0,1,159.88,336.51Z" style="fill: #473f3d"/>
      <path d="M186.31,399.05,178.88,410s-21.67-13.17-23-14-7.94-2.65-7.94-2.65a1.72,1.72,0,0,0-1.46,1.24c-.28,1.13-1.91,17.91-1.91,17.91l17.73,52,35.42-8.1-6-40.39-3.14-15.83Z" style="fill: #f9f8f4"/>
      <polygon points="149.41 405.97 164.45 415.85 163.53 417.73 150.25 408.57 149.41 405.97" style="fill: #e2e0d9"/>
      <polygon points="177.89 422.82 180.95 454.32 182.69 453.63 179.42 422.39 177.89 422.82" style="fill: #e2e0d9"/>
      <polygon points="158.9 437.44 181.46 451.91 198.63 434.07 201.66 538.77 189.71 547.36 183.81 536.94 178.6 549.21 155.87 539.11 158.9 437.44" style="fill: #e2e0d9"/>
      <path d="M126.46,449.91s3,34.53,3.24,46.86.12,23-.71,56.52-2.53,71.6-2.53,71.6a7.74,7.74,0,0,0,3.32.62c1.45-.19,8.77.43,13.78-6.91,5.71-8.36,14.6-26.77,18.83-48.57s6.57-61.15,6.53-71.1-16.47-80.4-16.47-80.4Z" style="fill: #626f70"/>
      <path d="M193.48,495.91c-.12,7.5.21,29.43,2.68,41.3s5.11,26.22,10.56,39.74,16,32.18,18.3,35.94,6,6,7.14,6a3.77,3.77,0,0,0,2-.55S220,575.59,216,564.08s-6.24-20-7.2-38.51.32-54.34.32-54.34,16,4.15,18.86,4.95,14.39-1.6,16-4.17,5-16.76,1-26.51-49.7-31.8-49.7-31.8Z" style="fill: #626f70"/>
      <path d="M193.48,495.91s-.36-43.86-1.06-55.39-6-31-6-31l2.93-6.34,9.31,4-.2,6.87s1.38,24,1.27,36.05-3.61,43.4-4.07,44.68S193.48,495.91,193.48,495.91Z" style="fill: #515e5e"/>
      <path d="M163.3,407.16c2.57,0,6.19.94,9.91,1.95,2.82-.82,5.58-1.25,8.15-.23a55.64,55.64,0,0,1,8.9-1.46,2,2,0,0,1,2,1.49,30.62,30.62,0,0,1-.3,14.08,2,2,0,0,1-1.93,1.45,21.77,21.77,0,0,1-7.35-1.62,12.64,12.64,0,0,1-8.9.37,55.83,55.83,0,0,1-6.46,3.65,2.12,2.12,0,0,1-2.86-1A40.86,40.86,0,0,1,161.22,409,2,2,0,0,1,163.3,407.16Z" style="fill: #9ac677"/>
      <path d="M181.36,408.88a59.8,59.8,0,0,1,1,6.31,57.55,57.55,0,0,1,.26,7.63,2.7,2.7,0,0,0,1.24-1.77,20.66,20.66,0,0,0,.19-5.86,13.4,13.4,0,0,0-1.21-5C182.15,408.92,181.36,408.88,181.36,408.88Z" style="fill: #6e9b59"/>
      <path d="M173.21,409.11s-.05,5.67,0,7.17.56,6.91.56,6.91a1.38,1.38,0,0,1-1.23-1.11,27.93,27.93,0,0,1-.78-5.93,19.07,19.07,0,0,1,.43-5.72A2.29,2.29,0,0,1,173.21,409.11Z" style="fill: #6e9b59"/>
      <path d="M173.75,392.82a57.94,57.94,0,0,1-13.16-2.26c-2-.78-1.68,1.34,0,2.47s9.1,4.12,16.28,4.85,2.2-2.73,2.2-2.73Z" style="fill: #e8a397"/>
      <path d="M218.39,396.12l-16.38,17-1.45-1.6c-1.82-1.95-4.86-5.08-6.29-5.77-2.12-1-8.81-2-13.08-4s-7.44-8.9-7.44-8.9a18.15,18.15,0,0,0,4.56-.43s-2-6.07-1.24-9.61,9.83-13.44,11.56-14.09,12.8-1.16,15.25,0,6.44,11.05,7.72,14.3S218.39,396.12,218.39,396.12Z" style="fill: #f9f8f4"/>
      <path d="M201.75,409.44l-1.19,2.08c-1.82-1.95-4.86-5.08-6.29-5.77-2.12-1-8.81-2-13.08-4s-7.44-8.9-7.44-8.9a18.15,18.15,0,0,0,4.56-.43c.58,1.66,2.86,5.11,5.07,5.61s6.83-.8,9-1.87,7.7-6.25,8.2-8-.78-8-1.8-10.3,2.22-.59,3.47.87,3.06,6.64,3.25,10.12-.63,9.51-4.49,11.6S201.75,409.44,201.75,409.44Z" style="fill: #efeeea"/>
      <polygon points="212.64 452.37 194.26 412.42 218.39 396.12 244.92 445.5 212.64 452.37" style="fill: #626f70"/>
      <path d="M150.26,536.9c-9.16,3.86-11.18,1-14.81,2.05s-6.16,1.81-6.16,1.81l.43-42.74,9.45,15.16S155.53,534.23,150.26,536.9Z" style="fill: #515e5e"/>
      <path d="M149.67,537.07c-4.27,1-9-1.48-13.35-2.45h0c-.38-.09-.76-.17-1.13-.22-2.12-.33-4.44.13-7.23.13-1.61,0-5.77-3.37-9-6.22-2.37-2.09-4.24-3.91-4.24-3.91l21-13.35s9.55-.29,12.69.6,11.18,6.79,11.57,9.17C160.77,525.75,155.72,535.59,149.67,537.07Z" style="fill: #f9f8f4"/>
      <path d="M136.31,534.62c-.38-.09-.76-.17-1.13-.22-2.12-.33-4.44.13-7.23.13-1.61,0-5.77-3.37-9-6.22l3.55-4.14s3.85,6.19,5.12,7.14S132.66,533.59,136.31,534.62Z" style="fill: #efeeea"/>
      <path d="M129.09,411l-11.37,4.22s-2.38.31-3.07,1a8.89,8.89,0,0,0-1.34,2.34S82.52,459.73,80,463.34s-4.89,16-2.4,22.13,6.89,11,10.66,16.12S116,535.64,116,535.64l19.65-24.59-21.57-31.67L155,423.89Z" style="fill: #626f70"/>
      <path d="M129.09,411a1.72,1.72,0,0,1,.61-2c1.06-.78,13.63-7.72,14.84-8.08a2.93,2.93,0,0,1,2.93,1.24c.7.78,8.55,8.63,12.13,17.33s5.2,20.13,7.22,34.74,2.1,30.12,2.1,44.65a2.59,2.59,0,0,1-2.85-2.39c-.48-2.72-6.43-24.68-11.93-45s-11.48-29.61-14.72-32.94C135.85,414.9,129.09,411,129.09,411Z" style="fill: #515e5e"/>
      <path d="M199.05,422.82s16,31.68,17.11,34.3.11,4.26-2.18.87-17.25-29-17.25-29l1.2-8.56Z" style="fill: #515e5e"/>
      <path d="M209.12,471.23s-4.24-1.25-5.51-1.47-.3,1.35.9,2.25,4.47,3.68,4.47,3.68Z" style="fill: #515e5e"/>
      <path d="M127.42,461.32l6.74-9.15c1.88-2.55,3.42-1.29,2.25,1.55s-8.13,18.55-8.13,18.55Z" style="fill: #515e5e"/>
      <path d="M176.74,595.7l2.54-21.91s1.92-4.92,1.54,1.15-2,26-2,26Z" style="fill: #384242"/>
      <polygon points="178.8 589.71 204.3 640.27 214.23 705.08 217.07 704.84 206.77 638.73 178.8 585.41 178.8 589.71" style="fill: #384242"/>
      <ellipse cx="182.27" cy="465.18" rx="1.92" ry="3.5" style="fill: #515e5e"/>
      <ellipse cx="183.66" cy="523.76" rx="1.92" ry="3.5" style="fill: #515e5e"/>
      <ellipse cx="183.49" cy="495.32" rx="1.92" ry="3.5" style="fill: #515e5e"/>
      <ellipse cx="113.42" cy="523.93" rx="1.56" ry="3.17" transform="translate(-278.44 158.12) rotate(-34.75)" style="fill: #515e5e"/>
      <ellipse cx="106.86" cy="516.04" rx="1.56" ry="3.17" transform="translate(-275.11 152.97) rotate(-34.75)" style="fill: #515e5e"/>
      <ellipse cx="206.35" cy="425.51" rx="1.42" ry="2.92" transform="translate(-148.02 112.36) rotate(-22.66)" style="fill: #515e5e"/>
      <ellipse cx="201.97" cy="417.14" rx="1.42" ry="2.92" transform="translate(-145.13 110.03) rotate(-22.66)" style="fill: #515e5e"/>
      <path d="M148.86,353.65s-.83-3.33-1.91-3.17a3.08,3.08,0,0,0-2.2,1.47c-.48.71,1.54,8.84,2.74,9.65s1.95-2.19,1.1-2.84-1.52-3.69-1-4.24S149.21,354.78,148.86,353.65Z" style="fill: #e8a397"/>
      <path d="M185.52,339.29a.67.67,0,0,1-.63-.71l-.06-2.15c0-.84,5.15-.79,8.7,1.43a.77.77,0,0,1,.33.69l-.06.85a.69.69,0,0,1-.72.7C191.54,339.94,187.75,339.3,185.52,339.29Z" style="fill: #473f3d"/>
      <path d="M175.34,352.85a8.83,8.83,0,0,1-.19,2.82c-.37,1.46-1.07,2.32-2,2.4a2.63,2.63,0,0,1-2.45-1.72,8.51,8.51,0,0,1-.81-3c-.24-2.84.79-5.25,2.3-5.38S175.1,350,175.34,352.85Z" style="fill: #473f3d"/>
      <path d="M194.11,349.8a8.61,8.61,0,0,1-.15,2.82c-.34,1.47-.89,1.18-1.86,1.28s-2,.68-2.61-.52a8.45,8.45,0,0,1-.86-3c-.29-2.83.7-5.26,2.21-5.42S193.82,347,194.11,349.8Z" style="fill: #473f3d"/>
      <path d="M176.51,344.5l-.22-2a.78.78,0,0,0-.53-.67c-2-.64-8.26,1.55-11.51,4.4a.77.77,0,0,0-.25.7l.08.58a.8.8,0,0,0,.95.67c2.18-.46,8.05-2.14,10.87-2.8A.8.8,0,0,0,176.51,344.5Z" style="fill: #473f3d"/>
      <path d="M187.35,362.82c.73-.1,2,.91.66,2.11s-1.83,1.2-3.64.94-3.75-1.14-3.57-1.74c.06-.19-.21-.57,1.92-.51A15.26,15.26,0,0,0,187.35,362.82Z" style="fill: #e8a397"/>
    </g>
    <g>
      <path d="M623.7,299.78c-.09,1.46-4,7.72-6.6,9.3s-12.39,1.35-13.83.86-5.07-7.65-5.21-13.17,1.54-15.47,2.42-16.68,6.42-3.74,7.43-4.59a11.72,11.72,0,0,0,1.46-1.39l-.78-2s5.28-.76,7.68,1.36C618.46,275.43,624.49,286.33,623.7,299.78Z" style="fill: #f9f8f4"/>
      <path d="M649.19,449c-3-1.94-7.54-7-11.34-10.24A96.61,96.61,0,0,0,628.4,432l.71,6.56s-6.44,2.31-8.77,2.16c-5.34-.35-13.47-3.42-15.29-.91-2.93,4-1.57,17.83,1.42,20.88s21.17,4.77,24.82,4.89,15.21,9.65,15.21,9.65S652.22,451,649.19,449Z" style="fill: #f9f8f4"/>
      <path d="M707,486.39C704.39,498,694.37,505,684.68,502.48s-48.88-22.24-48.88-22.24L649.19,449l27.94,11.56S709.51,474.77,707,486.39Z" style="fill: #626f70"/>
      <path d="M676,460.14c9,4.4,14.24,8.89,15.61,10.44s2.4.68,1.23-1.39-6.82-9.43-16.41-13.66Z" style="fill: #515e5e"/>
      <ellipse cx="657.47" cy="484.05" rx="1.72" ry="3.53" transform="translate(-79.93 834.5) rotate(-61.78)" style="fill: #515e5e"/>
      <ellipse cx="646.97" cy="479.53" rx="1.72" ry="3.53" transform="translate(-81.48 822.87) rotate(-61.78)" style="fill: #515e5e"/>
    </g>
  </g>
</svg>
