<svg id="ae5354b8-59aa-4192-b0a6-c34243bb12e4" data-name="Layer 1" xmlns="http://www.w3.org/2000/svg" xmlns:xlink="http://www.w3.org/1999/xlink" width="250" height="250" viewBox="0 0 705.2 948.21">
  <defs>
    <linearGradient id="e0cf1aa8-f70a-43ed-8a30-022fd9610ec6" data-name="Градієнт без назви 41" x1="289.89" y1="96.18" x2="382.27" y2="734.08" gradientUnits="userSpaceOnUse">
      <stop offset="0" stop-color="#e2f9de"/>
      <stop offset="1" stop-color="#c5eabe"/>
    </linearGradient>
  </defs>
  <title>Butlers7</title>
  <g id="bd6f7f96-9b4a-4d9e-acee-b141e50938d4" data-name="bg">
    <path d="M152.4,793.89c-13.36,8.08-17.81,25.79-5,35.41s19,40.88,8.33,46.74-76.65,4.5-99.66,14.57S7,923.08,61.53,935.2s122.82,17.56,181.61,8.47S305,912.08,349.47,917s97.77,22.45,170.45,8.53,113.25-37,126-47.55,22.41-8.16,26.65-32.39-86.88-63.67-86.88-63.67H227.94Z" style="fill: #efefef"/>
    <path d="M623.59,636.11c-42.74,51.28-299.17,145.75-299.17,145.75s-173,5.21-267.43-98.79-55.3-222.75.82-343c44.73-95.85,141.7-224.93,247-290.82,2.54-1.59,5.07-3.13,7.62-4.64,24.37-14.5,49.14-25.5,73.74-31.83,130.2-33.5,198.12,3.94,223.64,55.11.73,1.44,1.4,2.88,2.06,4.33.33.73.65,1.47,1,2.23,21.47,49.76,45.92,160.13,66.25,258.12C699.71,432,705.2,538.22,623.59,636.11Z" style="fill: url(#e0cf1aa8-f70a-43ed-8a30-022fd9610ec6)"/>
  </g>
  <g id="aaa0f640-29f5-4803-b97f-efa63ef0c629" data-name="butlers">
    <g>
      <path d="M294.18,440.72l-28.07-20.28H153.86c-7,0-14.43,5.58-14.43,22.41V807.14s111.72,47.31,117.6,50,16.9,5.49,33.84,4.47S305.4,738.66,305.4,738.66Z" style="fill: #f4c87a"/>
      <path d="M587.06,420.44c7.59,0,22.11.73,22.11,26.74V821.7c0,11.66,1.4,20.23-22.18,21.31S307.4,860.78,290.87,861.59s-20.18-7.66-20.18-27.17V454.23c0-19.51-.21-33.79-15.11-33.79Z" style="fill: #ffe9c2"/>
      <circle cx="444.27" cy="640.34" r="96.18" style="fill: #474339"/>
      <path d="M614.46,533.73c-45.06,0-81.6,47.25-81.6,105.53s36.54,105.53,81.6,105.53h9.14V533.73Z" style="fill: #f2b85a"/>
      <path d="M400.19,575.25a68.43,68.43,0,0,0-16.86,2.1,86.76,86.76,0,0,0,18.78,137c37.16-1,67-31.75,67-69.51C469.09,606.39,438.24,575.25,400.19,575.25Z" style="fill: #3a362e"/>
      <path d="M356,456.89v13a4.87,4.87,0,0,1-4.54,4.85H304.66a4.87,4.87,0,0,1-4.88-4.86v-13a4.87,4.87,0,0,1,4.88-4.86H351.1A4.87,4.87,0,0,1,356,456.89Z" style="fill: #ffda9f"/>
      <path d="M356,456.89v13a4.87,4.87,0,0,1-4.54,4.85c2.77-.28,2-4,1.33-5.18s-6-17.57-6-17.57h4.38A4.87,4.87,0,0,1,356,456.89Z" style="fill: #f4c87a"/>
      <circle cx="438.11" cy="460.03" r="20.4" style="fill: #ffda9f"/>
      <circle cx="484.01" cy="460.94" r="7.77" style="fill: #ffda9f"/>
      <circle cx="486.29" cy="459.8" r="7.77" style="fill: #fff2dc"/>
      <g>
        <rect x="519.92" y="441.89" width="65.74" height="9.15" rx="1.04" style="fill: #ffda9f"/>
        <rect x="519.92" y="454.98" width="65.74" height="9.15" rx="1.04" style="fill: #ffda9f"/>
        <rect x="519.92" y="468.08" width="65.74" height="9.15" rx="1.04" style="fill: #ffda9f"/>
      </g>
      <g>
        <rect x="522.2" y="440.74" width="65.74" height="9.15" rx="1.04" style="fill: #fff2dc"/>
        <rect x="522.2" y="453.84" width="65.74" height="9.15" rx="1.04" style="fill: #fff2dc"/>
        <rect x="522.2" y="466.94" width="65.74" height="9.15" rx="1.04" style="fill: #fff2dc"/>
      </g>
      <path d="M609.09,802.22,279.76,820.39A44.25,44.25,0,0,1,262.61,818l-11.24-4V500.19l14.36,1.21c2.89.24,5.83.37,8.75.37h1.07l333.64-3.48,0-3.43-223.3,2.33V420.44h-3.42v76.78l-106.92,1.12c-3.15,0-6.35-.09-9.49-.35l-14.65-1.23V420.44H248V848.29l3.42,4.23v-34.9l10.1,3.56a47.72,47.72,0,0,0,15.81,2.7c.89,0,1.78,0,2.67-.07l329.33-18.17Z" style="fill: #f2b85a"/>
      <path d="M439.46,537.89c-56.71,0-102.67,46.41-102.67,103.65s46,103.66,102.67,103.66,102.67-46.41,102.67-103.66S496.17,537.89,439.46,537.89Zm0,186c-45,0-81.55-36.87-81.55-82.34s36.51-82.33,81.55-82.33S521,596.07,521,641.54,484.5,723.88,439.46,723.88Z" style="fill: #f2b85a"/>
      <path d="M444,535.61c-56.71,0-102.68,46.4-102.68,103.65s46,103.65,102.68,103.65S546.7,696.51,546.7,639.26,500.73,535.61,444,535.61Zm0,186c-45,0-81.56-36.86-81.56-82.33S399,556.93,444,556.93s81.55,36.86,81.55,82.33S489.07,721.59,444,721.59Z" style="fill: #ffda9f"/>
      <circle cx="441.89" cy="459.26" r="20.4" style="fill: #fff2dc"/>
      <path d="M446.45,456.07a1.48,1.48,0,0,1-1.26-2.27l4.67-7.46a1.48,1.48,0,0,1,2.52,1.57l-4.68,7.47A1.46,1.46,0,0,1,446.45,456.07Z" style="fill: #ffda9f"/>
      <ellipse cx="623.6" cy="639.26" rx="81.6" ry="105.53" style="fill: #ffda9f"/>
      <path d="M640.12,570.05a45,45,0,0,0-10.36-2.77l10.33,12.27-9.45,2-17.81-13.32a45.84,45.84,0,0,0-9.3,3.45s21.06,12.83,21.73,12.83l-10.85,7.69-11.82,19.18-27-9.38a88.64,88.64,0,0,0-8,37.3c0,40,25.07,72.42,56,72.42a44,44,0,0,0,10.29-1.22c5.87-1.41,29.92-16,29.92-16l3.29-108.13S648.24,573.29,640.12,570.05Z" style="fill: #f2b85a"/>
      <path d="M690.67,639.26a74.51,74.51,0,0,1-7.49,33c0,.07-.06.14-.09.2l-.05.09c-8.44,16.77-23.07,27.86-39.7,27.86-26.13,0-47.31-27.4-47.31-61.19s21.18-61.19,47.31-61.19c18.69,0,34.85,14,42.53,34.34v0A75.88,75.88,0,0,1,690.67,639.26Z" style="fill: #ffda9f"/>
      <path d="M683.84,610.39c-4.18-7.79-17.21-29.46-40.5-29.46s-44.92,26.39-44.92,59.42c0,26.54,14.07,47.48,27.57,54.56,4,2.1,9.38,4.89,5.64,3.65-20.47-6.74-35.6-30.74-35.6-59.3,0-33.79,21.18-61.19,47.31-61.19,18.69,0,34.85,14,42.53,34.34v0C686.5,614.12,685.8,614.05,683.84,610.39Z" style="fill: #fff2dc"/>
    </g>
    <g>
      <g>
        <path d="M128.38,750.73s-2.24,5.58-3.59,6.32a13.1,13.1,0,0,0-6,7.51c-.75,1.91-2.11,8.73-2.11,8.73l31.37-1.87s-.55-13.91-.34-16S128.38,750.73,128.38,750.73Z" style="fill: #efeeea"/>
        <path d="M177.07,633.91l.66-6.87a40.43,40.43,0,0,1-5.35-4.59c-5.11-6.32-6.53-13.22-7.62-17s-1.22-21-1.1-24.56l52.22-.31,3.29,21.88-6.24,16.37-.4,15.59-24.25,9.42Z" style="fill: #ffd3c2"/>
        <path d="M177.73,627a14.49,14.49,0,0,0,7.43,3.24c3.78.48,10.82-3.28,12.61-4.37s1,.47-.28,1.78c-2.35,2.38-6.62,5-9.07,5.56a11.92,11.92,0,0,1-8.72-1.65l-2.2-2.29Z" style="fill: #e8a397"/>
        <path d="M220.46,532.42c-.2.74-1.35,2.18-6.78,3.74-9.23,2.65-31.68,2.35-34.88,1.34s-.23-1.13-.23-1.13c16.55,1.3,34.77-2.57,37.59-4.27s-.55-2.24-1.6-2.8a25.92,25.92,0,0,1,5.1,1.54,1,1,0,0,1,.79,1h0A.88.88,0,0,1,220.46,532.42Z" style="fill: #515e5e"/>
        <path d="M178.05,612c1.49.18,4.4-1.93,4.17-2.51s-2.71.07-4.38.1-3.08-.32-3.3-.11C174.12,609.89,176.5,611.8,178.05,612Z" style="fill: #e8a397"/>
        <path d="M172.09,599.6c.4,2.76-.29,3.48-1.52,3.65s-2.52-.25-2.92-3,.27-5.15,1.5-5.32S171.7,596.84,172.09,599.6Z" style="fill: #473f3d"/>
        <path d="M189.22,599.46c.4,2.77-.29,3.48-1.52,3.66s-2.52-.25-2.92-3,.27-5.15,1.5-5.32S188.83,596.7,189.22,599.46Z" style="fill: #473f3d"/>
        <path d="M182.51,592.78l-.15-1.92a.53.53,0,0,1,.47-.51c4.58-.24,6.22-.16,9.84,1.58a.53.53,0,0,1,.25.67l-.27.72a.55.55,0,0,1-.66.33c-4.6-.91-6-.9-9.28-.55C182.71,593.1,182.51,593.07,182.51,592.78Z" style="fill: #473f3d"/>
        <path d="M172.38,590.9l-.2,1.94a.26.26,0,0,1-.34.22,9.68,9.68,0,0,0-5.52.58.27.27,0,0,1-.37-.14l-.32-1a.29.29,0,0,1,.08-.29c.56-.58,4.17-2.07,6.47-1.56A.27.27,0,0,1,172.38,590.9Z" style="fill: #473f3d"/>
        <path d="M219.77,583.3a42.91,42.91,0,0,1,.83,6.27c.1,2.92-.53,8.45-.13,11.25s-1.16,9.74-1.74,11.76c-.71,2.5-3.71,7.77-5.51,7.83s-1.78-1.17-2-3-1.05-6.82-.27-7.29a9,9,0,0,0,2.94-4.61c.24-1.69.73-9.84.29-11.06s-4.74-1.26-5.39.34a13.1,13.1,0,0,0-.35,4.61.3.3,0,0,1-.25.34l-1.26.12a.28.28,0,0,1-.3-.25c-.18-1-.9-4.58-2.46-5.1-1.83-.61-7.72-3-8.35-3.75s-1.58-5.56-1.58-5.56Z" style="fill: #473f3d"/>
        <path d="M211.63,606.51s.43-1.08.61-1.77.46-7.41.15-7.83-1.42-.7-1.78-.2-.44,4.69-.31,5.08,1,0,1,1.08S210.77,607.69,211.63,606.51Z" style="fill: #e8a397"/>
        <path d="M166,568.64s-9.9,2.31-12.93,3.75c-4.35,2.05-3.61,8.12-.53,10.24s10.83,5.13,24.2,5.63c21.21.79,49.72-4.93,53.5-6.69s7.48-8,1.85-11.42c-3.24-2-16.84-3.33-16.84-3.33Z" style="fill: #515e5e"/>
        <path d="M220.46,532.42c0-.2,0-.38,0-.52v0a1,1,0,0,0-.79-1,25.92,25.92,0,0,0-5.1-1.54h0a79.2,79.2,0,0,0-17-1.46c-18.44.12-31.36,4.11-33,4.79-1.86.77-2.13.83-1.9,2.73.2,1.64,1.7,28.54,1.7,28.54l.11,11.84a1.58,1.58,0,0,0,.93,1.45c1.95.89,6.23,2.74,14.74,2.74a139.68,139.68,0,0,0,39.1-5.87,1.62,1.62,0,0,0,1.16-1.56l-.11-10.77c.24-9.75.24-27.74.24-29Z" style="fill: #626f70"/>
        <path d="M173.15,618.28c.82-.25,2.64.92,5.65.87a19.4,19.4,0,0,0,9-1.88c.85-.34.21,1.85-.69,2.88a8.57,8.57,0,0,1-8.32,2.75C175.86,622.39,172.19,618.58,173.15,618.28Z" style="fill: #e8a397"/>
        <path d="M165.2,892.33c-.13,2.9-.48,5.32-2.74,7.51s-11.92,7.5-13.4,8.6-1.87,6-1.54,6.41,8,2,16.07,2c11.92,0,25.56-4.29,25.56-4.29s.49-.3.61-1.6,1.81-26.08,1.81-26.08Z" style="fill: #384242"/>
        <path d="M235.85,888.05,245,910.63a1.16,1.16,0,0,0,1.07.79c2.91,0,19.49-3.23,26.6-5.57a27.2,27.2,0,0,0,10.91-6.54,1.17,1.17,0,0,0,.55-1.08c-.3-1.39-1.15-4.5-2.68-5s-16.6-4.45-18.26-6.2-2.93-6.08-2.93-6.08Z" style="fill: #384242"/>
        <path d="M194.66,753.75l-24.32,23.86-6,24A1.25,1.25,0,0,0,165.4,803c1.07.35,40.66,6.15,40.66,6.15l2-32L219.72,810c-.43.34,25-8.36,27.18-9.54.69-.37.88-1.13.53-2.31s-23.34-42.9-23.34-42.9Z" style="fill: #384242"/>
        <polygon points="168.33 792.36 165.2 892.33 194.96 892.33 200.47 780.23 233.44 891.15 260.23 880.96 231.14 768.03 223 726.13 173.04 728.48 168.33 792.36" style="fill: #515e5e"/>
        <path d="M189.09,639.93c-.12,0-11.46-11.82-11.46-11.82a1.08,1.08,0,0,0-1.33,1c-.17,1.22-2.08,10.11-2.08,10.11l.61,36.52,16.7,7.36,22.95-12.72s-.6-42.53-.65-43.24-1.09-.83-1.09-.83-4.58,2-8.44,4S189.09,639.93,189.09,639.93Z" style="fill: #f9f8f4"/>
        <path d="M203.65,644.59c.32-.05,9-8,9-8v2l-9,8.28Z" style="fill: #e2e0d9"/>
        <polygon points="187.84 647.79 190.48 678.41 191.8 678.41 190.03 647.79 187.84 647.79" style="fill: #e2e0d9"/>
        <polygon points="176.28 665.81 191.21 677.86 211.25 663.82 216.15 738.91 201.18 748.71 194.35 740.66 189.23 749.54 177.74 741.29 176.28 665.81" style="fill: #e2e0d9"/>
        <path d="M166.27,639.81l-11.65,5.71s-1.46.52-1.68.91a11.44,11.44,0,0,0-.3,2.32l-8.51,48.52-15.75,53.46,24.14,7.21L167,706s2,15.68,1.77,24c-.14,5.63-1.72,36.33-3,55.67-.61,9.29-1.43,15.95-1.43,15.95a2.33,2.33,0,0,0,2.55-.57c1-1.19,7.8-16.37,9.38-21.83s5.5-27.24,6.41-39.07a129.2,129.2,0,0,0,0-20.54Z" style="fill: #626f70"/>
        <path d="M211.17,694.55s-3.38,14.46-2.7,22.92,3.59,24.66,5.3,32.83,7.47,25.59,9.34,29.18,8.54,14,12.57,17,10.49,2.21,10.9,2.11a2.44,2.44,0,0,0,.85-.53s-13.17-43.74-15-75.19a176.58,176.58,0,0,1,1-28.36l-18-38Z" style="fill: #626f70"/>
        <path d="M220.91,722.44a33.45,33.45,0,0,0,1.47,10,1,1,0,0,0,1,.68c3.74-.18,6.35-.92,10.91-2.31a1,1,0,0,0,.64-1.28l-1.83-9.23a1,1,0,0,0-1.21-.61,45,45,0,0,1-10,1.78A1,1,0,0,0,220.91,722.44Z" style="fill: #515e5e"/>
        <path d="M177.88,643.31s-1.71-7.44-1.9-8.22-.84-1.8-1.76-1.34-6.41,4.11-7.15,4.48-.88,1.2-.78,2.31,2.59,21.73,3.38,25.65,11.05,51.95,11.24,52.6.8,1,1.82.86Z" style="fill: #515e5e"/>
        <path d="M184.71,638.66c2.49-.87,5.35-.52,9.13,0a56,56,0,0,1,9.35-2.49c1.49-.24,2.17.25,2.46,1.71a32.9,32.9,0,0,1-.41,12.76c-.28,1.31-.51,2-2.11,1.87s-9.33-3.29-9.33-3.29a22.49,22.49,0,0,1-8.89-.28s-5.89,4.3-8.81,4.12a2.13,2.13,0,0,1-2.19-1.76,36.79,36.79,0,0,1-.64-12.52c.16-1.36.71-2,2-2A68.31,68.31,0,0,1,184.71,638.66Z" style="fill: #9ac677"/>
        <path d="M172.81,724.92a28.49,28.49,0,0,1-3.61.13,1.42,1.42,0,0,0-1.43,1.23l-1.36,9.88a1.43,1.43,0,0,0,.87,1.53,13.64,13.64,0,0,0,6,.95,1.45,1.45,0,0,0,1.35-1.3,59.37,59.37,0,0,0-.24-11.14A1.42,1.42,0,0,0,172.81,724.92Z" style="fill: #515e5e"/>
        <path d="M167,706s-1.47-14.14-1.7-15.84-1.77-.05-1.67,1.49c.13,1.75,1.43,21.29,1.43,21.29Z" style="fill: #515e5e"/>
        <path d="M184.71,638.66s-.37,3.18-.38,5a22.55,22.55,0,0,0,.58,5.24s-.53.2-1-.93a12.16,12.16,0,0,1-.8-3.75,16.37,16.37,0,0,1,.57-4.61C184.08,638.64,184.71,638.66,184.71,638.66Z" style="fill: #6e9b59"/>
        <path d="M193.84,638.66a24.09,24.09,0,0,1,.22,4.83c-.08,3.39-.26,5.73-.26,5.73a1.33,1.33,0,0,0,.82-.92,15.4,15.4,0,0,0,.72-4.45,12.65,12.65,0,0,0-.72-4.46C194.28,638.59,193.84,638.66,193.84,638.66Z" style="fill: #6e9b59"/>
        <ellipse cx="191.88" cy="686.68" rx="1.62" ry="2.97" transform="translate(-24.77 7.41) rotate(-2.08)" style="fill: #515e5e"/>
        <ellipse cx="193.99" cy="728.49" rx="1.68" ry="3.08" transform="translate(-26.28 7.51) rotate(-2.08)" style="fill: #515e5e"/>
        <ellipse cx="192.83" cy="707.76" rx="1.63" ry="2.98" transform="translate(-25.53 7.46) rotate(-2.08)" style="fill: #515e5e"/>
        <ellipse cx="150.17" cy="749.18" rx="2.4" ry="1.46" transform="translate(-610.36 675.61) rotate(-73.14)" style="fill: #515e5e"/>
        <ellipse cx="152.4" cy="741.81" rx="2.4" ry="1.46" transform="translate(-601.72 672.52) rotate(-73.14)" style="fill: #515e5e"/>
        <path d="M238.25,889.32S201,770.92,200.49,769.78c-.44-.92-1.69-.85-1.75.12l0,.31L186.64,892.33h2.16L200,773.28c6.73,19.13,35.84,117,35.84,117Z" style="fill: #384242"/>
        <path d="M198.83,771.45l-.09-1.55.71-7.56s1.63-2,1.55,0-.81,9.62-.81,9.62Z" style="fill: #384242"/>
        <path d="M241.14,761.46s-.65-14.25-1.69-16.05-4.18-2.39-5.77-3-9.35-1.71-9.35-1.71l-1,4.49s7.59,2.38,8.83,3.56c1,.92,2.35,3.74,1.16,6-7.63-1.33-22.75-3.9-25.21-3.64-3.32.35-9,8.85-9,8.85l38.18,2.56,3.87,1.11Z" style="fill: #ffda9f"/>
        <path d="M194.87,763.82l3-4.33a.81.81,0,0,1,.7-.35L241.4,761a.81.81,0,0,1,.77.75l.2,2.52a.81.81,0,0,1-.81.87h-46A.81.81,0,0,1,194.87,763.82Z" style="fill: #fff2dc"/>
        <path d="M221.83,736.69s.13-1-.92-.44a17.21,17.21,0,0,0-1.95,1.21c-.54.33-2.61,4.37-2.81,5.51s0,3.21,1.17,3.67a3.3,3.3,0,0,0,2.44-.2Z" style="fill: #efeeea"/>
        <path d="M231.69,751.42c1.88,0,4.86-2.2,5.76-3.48s1.21-5.07,1.35-7.26,3-7.13,3-7.13l-18.43-2.66s-.77,4.24-2.45,5.36c-1,.7-2.09,3.51-2.46,5.29a10.54,10.54,0,0,0,.1,3.13c.2,2.06.79,4.6,2.85,5.15A53.11,53.11,0,0,0,231.69,751.42Z" style="fill: #faf9f6"/>
        <path d="M222.07,740s-6.95-1.26-7.7-1.32c-1.78-.14-1,4,.41,4.46.52.18,6.24,2.32,6.24,2.32C222.19,745.24,223.7,741.32,222.07,740Z" style="fill: #ffda9f"/>
        <path d="M254.67,680.81c-1-2.79-14.44-37.4-14.44-37.4a4.89,4.89,0,0,0-1.22-2c-.76-.54-3.54-.6-3.54-.6l-21.93-3.86L211.06,642l3.2,17.12,16.64,34.17-7.54,37.62L245,737.63s9.58-38,10-39.52C256.32,692.88,255.66,683.59,254.67,680.81Z" style="fill: #626f70"/>
        <ellipse cx="243.14" cy="730.75" rx="2.4" ry="1.46" transform="translate(-525.35 781.17) rotate(-75.35)" style="fill: #515e5e"/>
        <ellipse cx="245.09" cy="723.3" rx="2.4" ry="1.46" transform="translate(-516.68 777.49) rotate(-75.35)" style="fill: #515e5e"/>
        <path d="M213,633.8a34.11,34.11,0,0,0-3.9,11.94c-1.93,12.15-2.7,30.1-2.85,34.31-.24,6.76,2.24,37.42,2.24,37.42s1.55,0,1.72-1.29c.31-2.25,4.63-33.51,5.74-38.62,1-4.58,7.77-32.84,9.14-38.33a1.31,1.31,0,0,0-.64-1.46c-2.47-1.36-9.36-4-10-4.27S213.26,633.28,213,633.8Z" style="fill: #515e5e"/>
        <path d="M230.9,693.27l-6.63,33.09-2.17-1.71,5.84-32.36S226.39,681,226,678s1.12-4.18,1.94.42S230.9,693.27,230.9,693.27Z" style="fill: #515e5e"/>
      </g>
      <g>
        <path d="M284,911.29,189,835l75.82-60.88-4-5-76.93,61.76-76.92-61.76-4,5L178.74,835l-95,76.3a3.2,3.2,0,0,0-.49,4.49h0a3.2,3.2,0,0,0,4.5.49l96.12-77.18L280,916.27a3.18,3.18,0,0,0,4.49-.49h0A3.18,3.18,0,0,0,284,911.29Z" style="fill: #ffe9c2"/>
        <path d="M313.32,777H42.1a18.38,18.38,0,0,1,0-10.24H313.32A14,14,0,0,1,313.32,777Z" style="fill: #f2b85a"/>
        <path d="M110.21,765.09c-1.39,0-1.24,1.62-1.24,1.62l17.09,102.87,21.29-2.34,3.78-62.43,87.12,13.92s9.67-15.31,13.39-30.2,2.9-21.82,2.9-21.82.22-1.62-1.24-1.62Z" style="fill: #fce7a7"/>
      </g>
    </g>
    <g>
      <path d="M438.75,706.5l-7.87,15-1.52.09a11.57,11.57,0,0,0-3.49,2.88c-1.05,1.57-3.66,4.71-6.63,4.71a22.17,22.17,0,0,1-10.13-3.38,13.85,13.85,0,0,1-4.1-5.59c-.62-1.39,1.3-7.15,1.3-7.15l-3.49-2.27s5.76-5,8.29-5.85,6.18-1.61,8.38-4.45S438.75,706.5,438.75,706.5Z" style="fill: #f9f8f4"/>
      <path d="M588.78,853.2s2.53,15.63,2.71,16.57-18.48,7.81-22.92,8.11c-3.12.21-14.67,0-15.42-.41s-1.13-5.17,0-6.58,7.89-6.95,9-8.36.84-9.68.84-9.68Z" style="fill: #384242"/>
      <path d="M502.08,857.64a14.39,14.39,0,0,1-2.59,7.59,68.35,68.35,0,0,1-6.78,6.18c-1.7,1.21-1.09,5.87-1,7.3s10.27,1.67,13.74,1.67,22.25-2.79,22.25-2.79l1.33-28.12Z" style="fill: #384242"/>
      <polygon points="501.58 757.53 502.08 857.64 532.83 858.78 534.89 759.25 537.44 743.49 557.91 857.68 588.78 853.2 569.95 745.63 545.22 729.01 501.58 757.53" style="fill: #515e5e"/>
      <polygon points="504.18 857.72 504.95 763.12 506.78 764.05 505.54 857.8 504.18 857.72" style="fill: #384242"/>
      <polygon points="548.42 759.17 566.8 856.39 568.64 856.13 550.84 759.65 548.42 759.17" style="fill: #384242"/>
      <path d="M574.83,578.74l2.94-5.42s-2.11-10.89-2.94-13.54-4.2-7.39-6.47-7.89c-2.79-.6-6-.27-8,1s-8.13,6.06-8.67,7.43-.16,4.63-.16,4.63-2,.69-1.4,3.89c.24,1.33,3.17,5.86,4.77,6.13s5.49,5.83,5.49,5.83l1.2,4.43Z" style="fill: #f9f8f4"/>
      <path d="M460.65,535.61S456.22,519,453,510.89L447.13,496a107.61,107.61,0,0,1,26.51-10.65,175.22,175.22,0,0,1,31.75-4.46S507.5,493.7,509,501s5.62,22.7,5.62,22.7Z" style="fill: #626f70"/>
      <path d="M447.17,539c-1.76,1.73-.2,8.49,4.82,8.76s25.56-2.67,38.79-7.2,29-10.39,32.83-12.9,6.28-11.15.2-11.65-15.31-.49-40.14,6.66S448.94,537.21,447.17,539Z" style="fill: #515e5e"/>
      <path d="M465.4,549.63s-.19,1.72,1.61,7.48,8.37,18.19,13,21.72,6.38,3.72,6.38,3.72l5.71,15.39,29.38-13.2-9.2-32.19Z" style="fill: #ffd3c2"/>
      <path d="M487.1,584.14l32-7.06s1.19-.51,1.57.32,3.69,12.47,3.69,12.47l-37.24,4.8s-.77-8-.75-8.7S486.39,584.29,487.1,584.14Z" style="fill: #f9f8f4"/>
      <path d="M565.47,713.61c-1.88-6.46-8.76-36.31-11.37-49s-6.32-36.68-6.32-36.68l18.41,7.6c3.39,1.4,10.77-.27,13.22-3a16.78,16.78,0,0,0,4-12.53c-.58-4.9-5.68-46.73-5.68-46.73l-24.69,7.77,1.55,12.22-8.85-9.76a12.64,12.64,0,0,0-2.31-2.29,15.2,15.2,0,0,0-3.66-.11l-20.7.23L506.72,589l-15.53.32L472,600.62a7.28,7.28,0,0,0-2.55,1,6.8,6.8,0,0,0-1.52,2.4l-18.8,46-29.68,50.47,22.82,13.92,30.12-44.56,11.2-20.46s9.88,30.74,12.28,47.87c2.16,15.38,2.34,62.67,3.09,71.43a1.64,1.64,0,0,0,1.68,1.5L539,767.69l-.24-21.93,5.16,20L574.21,758a1.65,1.65,0,0,0,.81-1.9C573.9,752.13,567,719,565.47,713.61Z" style="fill: #626f70"/>
      <path d="M486.17,589.74c-.41.38-6.59,5.32-6.59,5.32a1.94,1.94,0,0,0-.55,2.33,10.24,10.24,0,0,0,.76,1.37c1,1.48,4.94,4.15,9,5,10.33,2.19,36.61-4.58,40.59-11.36s3.24-9.74,3.23-10.68-.12-1.22-1.19-1.51c-.63-.17-9.21-.15-9.78.28s-10.49,3.12-12.71,3.89c-1.89.65-16.81,3.81-21.14,4.72A2.94,2.94,0,0,0,486.17,589.74Z" style="fill: #515e5e"/>
      <path d="M461.55,538.57s26.1-11.63,53-14.92c0,0,4.43,15.38,5.24,22.21s-1.19,22.69-2.63,23.69a65.93,65.93,0,0,1-10.87,5.25c-5.41,2.15-20.64,2-23.6.2-1.5-.9-3.61-5-5.36-8.88-.68-1.52.35-1.76-.16-4.4-.75-3.89-3.8-10.26-4.18-11-.63-1.19-2.6-.56-3.2.33s1.07,5.24,1.07,5.24l-1.15.56s-2.7-3-3.68-3.76C463.37,551,461.55,538.57,461.55,538.57Z" style="fill: #473f3d"/>
      <path d="M471.27,553.11c0-.52.52-1.17,1.1-.05s3.12,6.49,3.05,7.75-.89.29-1.37-.71S471.35,554.58,471.27,553.11Z" style="fill: #e8a397"/>
      <path d="M483.63,649.42a83.34,83.34,0,0,1,4.84-8c1.12-1.5,2.38.84,1.59,3.15s-4.38,11.5-4.38,11.5Z" style="fill: #515e5e"/>
      <path d="M494.64,688.18a38.2,38.2,0,0,0,12.28-1.45c.4-.1.81.22.93.75l1.88,8.07a1.16,1.16,0,0,1-.64,1.43c-6,1.37-11.15,1.94-14.68.75a1.1,1.1,0,0,1-.61-1.07l0-7.38C493.78,688.64,494.17,688.15,494.64,688.18Z" style="fill: #515e5e"/>
      <path d="M556.32,675.37l-.88.26a.53.53,0,0,0-.37.62l1.34,6.34a.56.56,0,0,0,.53.44,4,4,0,0,0,2.19-.51.58.58,0,0,0,.22-.72L557,675.69A.55.55,0,0,0,556.32,675.37Z" style="fill: #515e5e"/>
      <ellipse cx="442.35" cy="705.34" rx="2.94" ry="1.4" transform="translate(-389.77 678) rotate(-56.02)" style="fill: #515e5e"/>
      <ellipse cx="448.06" cy="696.87" rx="2.94" ry="1.4" transform="translate(-380.23 678.99) rotate(-56.02)" style="fill: #515e5e"/>
      <ellipse cx="575.3" cy="581.97" rx="1.4" ry="2.94" transform="translate(-70.86 79.84) rotate(-7.48)" style="fill: #515e5e"/>
      <ellipse cx="576.63" cy="592.1" rx="1.4" ry="2.94" transform="translate(-72.17 80.1) rotate(-7.48)" style="fill: #515e5e"/>
      <path d="M551.53,565a2.43,2.43,0,0,1,3.26.63l2.88,4.7s2.12,1.59,1.2-.62-2.69-6-3.65-6.73-3.79-1.11-3.79-1.11A19.84,19.84,0,0,0,551.53,565Z" style="fill: #f1f1ec"/>
      <path d="M547.78,627.94c-1.26-7.31-2.14-14.93-2.66-16.94s1-2.45,1.92.53,4.12,17.81,4.12,17.81Z" style="fill: #515e5e"/>
      <path d="M554.63,593.31c2.55,2.74,10.86,11.58,12.21,13.37s3.51,2.92,1.42-1.19-14.38-18.1-14.38-18.1Z" style="fill: #515e5e"/>
    </g>
    <g>
      <g>
        <rect x="363.4" y="87.06" width="37.06" height="14.42" transform="translate(2.6 -9.99) rotate(1.5)" style="fill: #d1af65"/>
        <path d="M431.2,92.32,393,81.58l.05-1.77a2.4,2.4,0,0,0-1.79-2.38l-8-2.08a2.51,2.51,0,0,0-1.09,0L374.08,77a2.4,2.4,0,0,0-1.91,2.29L372.12,81l-38.76,8.71A1.89,1.89,0,0,0,332,92.14h0a1.88,1.88,0,0,0,2,1.33l43.28-3.75A44.45,44.45,0,0,1,387.4,90l43,6a1.9,1.9,0,0,0,2-1.23h0A1.89,1.89,0,0,0,431.2,92.32Z" style="fill: #fff5e6"/>
        <path d="M461.78,224.75,440,98.74a10.88,10.88,0,0,0-7.31-6.68l-30.81-9.3a1.82,1.82,0,0,0-2.23,1.11c-1.34,3.64-5.74,12-17.5,11.72S366.45,86.67,365.3,83a1.82,1.82,0,0,0-2.17-1.23l-31.25,7.67a10.89,10.89,0,0,0-7.65,6.29L301.48,215.87a1.8,1.8,0,0,0,.78,2.29l17.81,4.58a1.8,1.8,0,0,0,2.45-.75l18.72-76.75L335.86,240s20.5,7.29,41.35,7.06c24.15-.26,41.08-5.66,41.08-5.66l2.09-106.2,18.95,94.57a1.78,1.78,0,0,0,2.4.87L460.88,227A1.78,1.78,0,0,0,461.78,224.75Z" style="fill: #efd084"/>
      </g>
      <g>
        <rect x="423.38" y="108.88" width="37.06" height="14.42" transform="translate(19.75 -58.68) rotate(7.77)" style="fill: #e8cf8e"/>
        <path d="M386.15,105.11s8.17-6.87,10.13-8.56a11.4,11.4,0,0,1,9-3c4.26.45,12.86,1.05,14.72,2.2s5.49,9.91,5.49,9.91l-26.11,5.68-15.5,7.1Z" style="fill: #f9f8f4"/>
        <path d="M491.1,119.52l-36.85-14.84.24-1.76a2.4,2.4,0,0,0-1.52-2.56l-7.69-2.94a2.36,2.36,0,0,0-1.08-.14L436,98a2.4,2.4,0,0,0-2.15,2.07l-.24,1.75-39.49,4.43a1.89,1.89,0,0,0-1.64,2.23h0a1.89,1.89,0,0,0,1.81,1.54l43.44,1a45.82,45.82,0,0,1,10.09,1.37l42.11,10.69a1.9,1.9,0,0,0,2.16-1h0A1.89,1.89,0,0,0,491.1,119.52Z" style="fill: #fff5e6"/>
        <path d="M511.3,176.33l-12.14-49.47a10.88,10.88,0,0,0-6.54-7.43L463,106.82a1.81,1.81,0,0,0-2.33.87c-1.74,3.46-7,11.32-18.68,9.73S427.36,106.84,426.61,103a1.81,1.81,0,0,0-2-1.46l-31.91,4.21a10.93,10.93,0,0,0-8.29,5.42l-24.95,44.4A1.78,1.78,0,0,0,360,158l21,12.79a1.79,1.79,0,0,0,2.51-.48l14.45-19.93c-4.91,34.25-7.21,70-7.51,107,0,0,20.12,6.23,41,7a131.39,131.39,0,0,0,42.09-5.67c-3.08-35.53-2.29-64.63,2.22-97.72l8.43,24.2a1.79,1.79,0,0,0,2.29,1.14l23.78-7.84A1.78,1.78,0,0,0,511.3,176.33Z" style="fill: #fce7a7"/>
      </g>
      <g id="bbe0f172-e331-49be-b44c-519898107961" data-name="butler">
        <path d="M418.67,100.79c-.57,0-8.76,4.32-8.76,4.32a14,14,0,0,0,5,.57,18.29,18.29,0,0,1,7.08,1.14c1.41.53,1.72,2.81.59,4.31s-4.38,1.09-7.39,1.09-8.48,1.89-10.45,2.45-15.16,5.27-15.16,5.27l-3.42-14.83,24.23-7Z" style="fill: #f9f8f4"/>
        <path d="M321.15,311.29c.05.54-.43.64-1.14.89-.5.18-40.81,8.36-46.46,9.53a.65.65,0,0,1-.77-.53s-1.79-14.69-1.29-19.75-31.12,23.84-31.12,23.84l-13.29-9.51a1.48,1.48,0,0,1-.41-1.7c.27-.63,12-5,12-5l42.64-24.82,36.07,12.3Z" style="fill: #384242"/>
        <path d="M322.18,396.78c.31,2.7.31,4.32,2.36,6.07a70.11,70.11,0,0,0,14.64,8.85c.85.36,3.18,1.4,3.61,3.75a25.83,25.83,0,0,1,.43,4s.12,1-1.33,1H299.13c-1,0-1.26-.9-1.5-2.17s-3.08-28.19-3.08-28.19Z" style="fill: #384242"/>
        <path d="M199.53,387.12l-7.27,17.22s-1.18,1.38.69,3.45,6.73,7.55,8.67,9.07a18.87,18.87,0,0,0,10.54,3.58h18.5s.86-.12.86-1.59-.22-5.05-1.27-5.85c-3.12-2.35-3.89-2.59-5.07-4.26s-2.78-3.81-3.07-5.3,3.11-9.3,3.11-9.3Z" style="fill: #384242"/>
        <path d="M307.19,75.94,293,40.72a1.92,1.92,0,0,0-1.9-1c-3.37.32-13.66.31-26.35,5.45s-21.32,15.52-23.67,18a1.92,1.92,0,0,0-.38,2.08l16,32.53Z" style="fill: #626f70"/>
        <polygon points="231.13 311.37 199.53 387.13 230.46 398.82 280.93 288.39 290.26 399.8 322.18 396.78 312.75 267.76 309.6 233.6 260.86 233.6 231.13 311.37" style="fill: #515e5e"/>
        <polygon points="235.92 313.12 204.51 389.01 206.49 389.75 239.67 310.99 235.92 313.12" style="fill: #384242"/>
        <path d="M308.49,90.65s10.84-3.47,13.75-7,2.91-10.22,0-11.27-28.73,2.1-42.48,8.48-34.43,21.42-35.23,25.63,5.2,6.38,8.11,6.44,14.5-3.86,14.5-3.86Z" style="fill: #515e5e"/>
        <path d="M259.91,102.09s7.69,18.9,8.82,22.22c.25.72.54,1.78.85,3,1.12,4.45,2.45,11.06,2.45,11.06l2,7.19,19.4,5.77,7.51-9.45-.34-2.13v-4.07s3.47.14,4.72-.5c3.18-1.63,7.61-10.28,9.24-16.16s1.24-19.17-.23-27.14c-.74-4-4-10.56-4-10.56a156.9,156.9,0,0,0-24.15,6.1c-2.35.85-4.61,1.78-6.75,2.77A97.29,97.29,0,0,0,259.91,102.09Z" style="fill: #ffd3c2"/>
        <path d="M257.94,103.48s1.34,5,2,7.12,6.45,15.23,7,16a2.18,2.18,0,0,0,2.64.72c1.12-.39,2.87-1.56,2.93-3s0-6.67,0-6.67a4.76,4.76,0,0,1-2.75-2.34c-1.2-2-3.66-8.55-3.66-10.49s3-4,4.76-4,3.6,5.18,3.6,5.18l2.72-1.68a27.21,27.21,0,0,1,0-8c.33-1.5,1.9-2.44,2.34-3.55a3.61,3.61,0,0,0-.14-2.6,97.29,97.29,0,0,0-19.47,11.89Z" style="fill: #473f3d"/>
        <polygon points="269.76 187.4 306.79 187.4 307.14 146.36 292.42 148.8 270.86 147.35 269.76 187.4" style="fill: #f9f8f4"/>
        <path d="M293.5,155.71l.11,29s-2,0-1.92-.44-.6-28.59-.6-28.59Z" style="fill: #e2e0d9"/>
        <path d="M188.6,272c.41,1.07,5.86,8.64,6.31,9.21s3.7,1,4.62.75l.38-.15a9.48,9.48,0,0,0,2.19-1.67c.33-.32.49-1.23,0-2.46s-.33-6.17-.16-6.75,2.55-6.66,2.55-6.66a32.07,32.07,0,0,1,2,3.87c.17.74,0,2.8,1,4.2s3.29.49,3.71-1.32a14.46,14.46,0,0,0-.13-6c-.41-.83-2.84-7.37-2.92-7.94s3.7-10.2,3.7-10.2l-16.9-3.25c-1.53,2.67-5.3,10.91-5.65,11.68-.89,2-1.15,13.2-1.23,14A6.55,6.55,0,0,0,188.6,272Z" style="fill: #f9f8f4"/>
        <path d="M276.28,170.66,293,184.16l13-13.5,1.47,78.58-8.36,7.28a1.07,1.07,0,0,1-1.58-.19L293.08,250l-6.44,7.42a1.06,1.06,0,0,1-1.22.28l-19.59-8.49Z" style="fill: #e2e0d9"/>
        <path d="M386.15,105.11,400,124.88l-34.19,30.69a58.49,58.49,0,0,1-10.41,5.49l-35.06,11-4.93,57.72v12.95l5.77,68.57a1.84,1.84,0,0,1-1.79-.73c-.93-1.25-8.07-15.69-10.54-27.57S303,228,303,228V148.61l-1.32-3.81,10.23.4s2.29-1.66,3.49-1.76a6.26,6.26,0,0,1,2.41,1.05l30.8-10.35Z" style="fill: #626f70"/>
        <path d="M258.55,151.66l-5.38.57s-3.3.13-3.7.45a38.34,38.34,0,0,0-2.18,4.48s-25,36.56-27.55,41.16l-24.83,45.27L212.74,256l25.43-41.44,15.19-17.84s-2.56,35.63-3.63,43.93-7.24,29.57-11.86,43.94-11.2,29.5-11.2,29.5a3.37,3.37,0,0,0,1.59,1.34c1,.33,7,.31,12.11-2.5s14.81-16.64,18.94-25.06,15.62-41.41,17.63-60.58l-6.09-63.76Z" style="fill: #626f70"/>
        <path d="M300.55,139.76s1,0,1.23,1.24,1.75,11.77,1.75,11.77l-23.28-.87-9.4-4.55s.33-7.39.39-8.15a.89.89,0,0,1,.79-.82l20.39,10.42Z" style="fill: #f9f8f4"/>
        <polygon points="270.95 145.24 277.64 150.49 278.06 154.11 270.86 147.35 270.95 145.24" style="fill: #e2e0d9"/>
        <path d="M302.18,143.41s5.73.75,6.25.89.59.79.59.79.44,23.46.58,25.8c.12,1.94-5.21,54.62-5.34,55.93A1.16,1.16,0,0,1,303,228V148.61Z" style="fill: #515e5e"/>
        <path d="M276.94,227.26s-1.63.08-1.81-1.3c-.09-.7-9.52-58.19-10.22-60.09s-6.36-14.21-6.36-14.21-.47-1.4.56-1.77S271,145.24,271,145.24s4.36,9,5.51,12.81,1.94,24.26,1.94,38S276.94,227.26,276.94,227.26Z" style="fill: #515e5e"/>
        <path d="M278.07,146.2c.17-1.15,1.39-1,2.16-.88s7.91,2.8,7.91,2.8a22.36,22.36,0,0,1,7.69-.35s6.22-1.74,7.54-1.88a1.94,1.94,0,0,1,2.16,1.66c.73,2.44.39,8.72-.08,10.69a1.73,1.73,0,0,1-2.2,1.33c-.8-.2-7.42-3.21-7.42-3.21a16.21,16.21,0,0,1-6.8.27s-6.74,3.21-8.1,3.38a2,2,0,0,1-2.1-1.57C277.53,155.08,277.24,152,278.07,146.2Z" style="fill: #9ac677"/>
        <path d="M300.55,135.69s-13.36-1-18-2.62a2.9,2.9,0,0,0,1.59,2.29c1.6.95,10.33,2.59,16.41,2.74Z" style="fill: #e8a397"/>
        <path d="M272.45,106.41s-1.15-2.79-2.06-2.52a2.73,2.73,0,0,0-1.73,1.56c-.33.68,2.46,7.5,3.61,8s1.41-2.14.59-2.6-1.78-3-1.37-3.57S272.9,107.35,272.45,106.41Z" style="fill: #e8a397"/>
        <path d="M199.53,278.22c.35.93,1.17,3,.38,3.6a9.48,9.48,0,0,0,2.19-1.67c.33-.32.49-1.23,0-2.46s-.33-6.17-.16-6.75,2.55-6.66,2.55-6.66c-1.28-2.14-2.52-2.65-3.22-1.78s-1.93,6.26-2.22,7.31A27.42,27.42,0,0,0,199.53,278.22Z" style="fill: #e2e0d9"/>
        <path d="M295.83,156.36c.29-.06.44-.05.56-.38a9.3,9.3,0,0,0,.93-3.85,9.69,9.69,0,0,0-1-4,.43.43,0,0,0-.49-.37A31.19,31.19,0,0,1,295.83,156.36Z" style="fill: #6e9b59"/>
        <path d="M288.14,148.12a36.28,36.28,0,0,0,.89,8.51s-.5-.07-.58-.27a6.38,6.38,0,0,1-1.26-3.42,10,10,0,0,1,.55-4.57A.3.3,0,0,1,288.14,148.12Z" style="fill: #6e9b59"/>
        <ellipse cx="293.33" cy="195.18" rx="1.64" ry="2.77" style="fill: #515e5e"/>
        <ellipse cx="293.42" cy="238.34" rx="1.64" ry="2.77" style="fill: #515e5e"/>
        <ellipse cx="293.42" cy="215.87" rx="1.64" ry="2.77" style="fill: #515e5e"/>
        <path d="M253.36,196.69s3.49-4,5.08-5.48a.94.94,0,0,1,1.13-.05,2.58,2.58,0,0,1,0,2.79c-.87,1.61-7,13.4-7,13.4Z" style="fill: #515e5e"/>
        <path d="M257.94,103.48A13.21,13.21,0,0,0,254.8,106c-.61.61.55,1.36,1.57,1.18a10.73,10.73,0,0,0,2.34-.81Z" style="fill: #384242"/>
        <path d="M310.28,81.33c2.77-.45,4.27-.87,5.36-1,.62-.08,1.3,1.6.11,2.59A24.84,24.84,0,0,1,312,85.16Z" style="fill: #384242"/>
        <path d="M266,228.13a56.64,56.64,0,0,1-15.25-1.33c-.47-.12-.9.32-1,1l-.82,5.79a1.66,1.66,0,0,0,.6,1.64c5,2.76,10.39,3.44,16,2.95.43,0,.76-.51.81-1.15l.6-7.3C267,228.89,266.57,228.12,266,228.13Z" style="fill: #515e5e"/>
        <path d="M315.16,228.69s.86-.18.92,1,0,6.36,0,6.36a1.06,1.06,0,0,1-.79.94c-.52.12-2.55.4-3.76.57-.48.07-.9-.41-.94-1.05l-.4-6.38c0-.66.33-1.24.82-1.26Z" style="fill: #515e5e"/>
        <ellipse cx="211.79" cy="246.02" rx="2.96" ry="2.02" transform="matrix(0.54, -0.84, 0.84, 0.54, -109.54, 292.13)" style="fill: #515e5e"/>
        <ellipse cx="216.99" cy="237.87" rx="2.96" ry="2.02" transform="translate(-100.27 292.75) rotate(-57.44)" style="fill: #515e5e"/>
        <ellipse cx="383.92" cy="131.85" rx="2.98" ry="2.04" transform="translate(10.33 290.63) rotate(-41.98)" style="fill: #515e5e"/>
        <ellipse cx="391.17" cy="125.34" rx="2.98" ry="2.04" transform="translate(16.54 293.8) rotate(-41.98)" style="fill: #515e5e"/>
        <path d="M280.93,288.39s7.75-16.83,7.87-17.06a.51.51,0,0,1,.75-.23,1.13,1.13,0,0,1,.47,1.31c-.17.58-8.38,21.86-8.38,21.86Z" style="fill: #384242"/>
        <polygon points="296.83 399.17 283.8 285.76 285.84 280.91 299.79 398.89 296.83 399.17" style="fill: #384242"/>
        <ellipse cx="310.78" cy="98.28" rx="2.25" ry="4.36" transform="translate(-13.25 62.91) rotate(-11.32)" style="fill: #473f3d"/>
        <path d="M305.9,92.48a.62.62,0,0,1-.74-.42l-.52-1.72c-.21-.66,4.56-1.84,8.31-.89a.6.6,0,0,1,.45.48l.14.69a.62.62,0,0,1-.51.74C311.58,91.59,308,92,305.9,92.48Z" style="fill: #473f3d"/>
        <ellipse cx="293.59" cy="102.54" rx="2.44" ry="4.71" transform="translate(-14.42 59.62) rotate(-11.32)" style="fill: #473f3d"/>
        <path d="M296.1,94.38l-.24-1.56a.61.61,0,0,0-.46-.49c-1.66-.4-6.85,1.63-9.47,4a.58.58,0,0,0-.18.56l.08.45a.65.65,0,0,0,.82.46c1.8-.47,6.64-2.08,9-2.74A.63.63,0,0,0,296.1,94.38Z" style="fill: #473f3d"/>
        <path d="M308.5,110.36c.56-.16,1.66.5.76,1.61s-1.32,1.18-2.79,1.18-3.12-.48-3-1c0-.16-.24-.44,1.46-.63A12.28,12.28,0,0,0,308.5,110.36Z" style="fill: #e8a397"/>
        <path d="M300.45,119c-1.64,2.49,2.44,9.1,4.88,8.41s4.28-7.18,4.27-8.48c0-2.06-4.24-1.86-4.9-1.8C302.62,117.36,301.23,117.84,300.45,119Z" style="fill: #e8a397"/>
      </g>
      <g>
        <path d="M580.15,98.75,541.62,89V87.26a2.39,2.39,0,0,0-1.85-2.34l-8-1.87a2.51,2.51,0,0,0-1.09,0l-8,1.87a2.4,2.4,0,0,0-1.85,2.34V89l-38.52,9.72a1.89,1.89,0,0,0-1.33,2.43h0a1.88,1.88,0,0,0,2,1.28l43.18-4.89a45.6,45.6,0,0,1,10.18,0l43.17,4.89a1.9,1.9,0,0,0,2-1.28h0A1.9,1.9,0,0,0,580.15,98.75Z" style="fill: #fff5e6"/>
        <path d="M578.26,254.61a419.53,419.53,0,0,0-14.47-55.36l.2-7.47s5.58-9.23,7.06-36.67-.13-56.84,0-58.72A2.32,2.32,0,0,0,569.57,94s-15.87-3.5-17.89-4-2.61.9-2.61.9c-.59,5.77-4.07,19.5-7.55,27.56s-10.31,22.89-10.31,22.89-6.84-14.83-10.31-22.89-7-21.79-7.55-27.56c0,0-.6-1.44-2.62-.9s-17.89,4-17.89,4a2.31,2.31,0,0,0-1.51,2.43c.16,1.88-1.45,31.28,0,58.72s7.06,36.67,7.06,36.67l.2,7.47a419.53,419.53,0,0,0-14.47,55.36c-5.38,29.33-7.61,63.51-7.61,63.51s14.6,9,54.67,9,54.66-9,54.66-9S583.64,283.94,578.26,254.61Z" style="fill: #efd084"/>
      </g>
      <g>
        <polygon points="638.41 96.13 646.99 93.34 665.2 162.91 677.92 234.61 649.02 240.1 630.51 151.26 638.41 96.13" style="fill: #fce7a7"/>
        <path d="M566.89,264.37c23.35-4.95,46.29-7,68.72-5.57L612.12,92.39l-31.27-.85-17.37,6.55Z" style="fill: #e8cf8e"/>
        <path d="M635,92.77l-39.18-6.58-.14-1.77a2.39,2.39,0,0,0-2-2.17L585.45,81a2.47,2.47,0,0,0-1.08.09l-7.85,2.51a2.38,2.38,0,0,0-1.65,2.47l.14,1.77-37.61,12.8a1.89,1.89,0,0,0-1.13,2.53h0a1.88,1.88,0,0,0,2.1,1.11L581,96a44.85,44.85,0,0,1,10.15-.82l43.42,1.39a1.9,1.9,0,0,0,1.9-1.44h0A1.9,1.9,0,0,0,635,92.77Z" style="fill: #fff5e6"/>
        <polygon points="537.45 104.3 528.54 102.93 521.76 174.53 520.74 247.34 550.14 248.1 554.12 157.45 537.45 104.3" style="fill: #fce7a7"/>
        <path d="M636.34,179.29c0-21.16,10.65-85.95,10.65-85.95l-26.72-5-8.15,4-18.18,82-31.14-78-8.7-2.68-25.56,9.23s21,62.23,24.33,83.12,1,84.18,1,84.18,27.8,7.18,45.76-26.13c23.09,30,49.37,18.43,49.37,18.43S636.38,200.46,636.34,179.29Z" style="fill: #fce7a7"/>
        <path d="M568,89.9l25.92,84.52-35.44-56a3.41,3.41,0,0,1-.36-2.9l3.28-9.89-8.33-11.21a1.38,1.38,0,0,1,.75-2.15L566.35,89A1.38,1.38,0,0,1,568,89.9Z" style="fill: #ffeec2"/>
        <path d="M605.92,86.83l-12,87.59,26-61a3.37,3.37,0,0,0-.12-2.91L615,101.29l6.42-12.4a1.38,1.38,0,0,0-1.09-2l-12.88-1.24A1.38,1.38,0,0,0,605.92,86.83Z" style="fill: #ffeec2"/>
      </g>
      <path d="M612.82,74.42c-20.34,2.21-49.66,4.63-83.78,5.23q-7.6.13-15.77.14c-58.68,0-137.59-5.83-208.48-30.57,2.54-1.59,5.07-3.13,7.62-4.64C387.51,69.64,471,73.83,528.8,72.81c32.69-.58,60.92-2.84,81-5,.73,1.44,1.4,2.88,2.06,4.33C612.18,72.92,612.5,73.66,612.82,74.42Z" style="fill: #e8cf8e"/>
    </g>
    <g>
      <path d="M343.41,896.56c0,2.68,20.94,4.85,46.78,4.85S437,899.24,437,896.56l9.53-60H333.87Z" style="fill: #ffda9f"/>
      <path d="M448.48,831.67v18.1c0,4.3-26.09,7.78-58.29,7.78-7.12,0-13.94-.17-20.25-.48h-.33c-22.05-1.12-37.72-4-37.72-7.29v-18.1c0-4.24,26.11-7.66,58.3-7.66S448.48,827.43,448.48,831.67Z" style="fill: #f2b85a"/>
      <path d="M430,861.71c0-1.16,4.61-3.51,5.41-.9s.16,8.37-1.25,10-13.5,7.66-27.74,4.13c-3.14-.86-5.11-8.16-5.41-11s6-2.69,6.4.06,1,5.51,4.08,6.82,14.62-1,16.24-2.47S429.9,866.35,430,861.71Z" style="fill: #f2b85a"/>
      <path d="M438.12,834.33c-7.22,1.91-22,3.33-39.67,3.67l-4.27,0,.66-6.12s.64-.45,1.68-1.14c2-1.32,5.36-3.54,8.47-5.27.77-.43,1.53-.83,2.23-1.18a13.8,13.8,0,0,1,3.46-1.3c4-.66,23.77.82,25.73,1.65.59.25,1,1.23,1.26,2.52a14.62,14.62,0,0,1,.27,1.75A42,42,0,0,1,438.12,834.33Z" style="fill: #efd084"/>
      <path d="M398.45,838l-4.27,0-4,0c-20.19,0-37.73-1.38-46.58-3.41a21.11,21.11,0,0,1-.77-5.8,15.15,15.15,0,0,1,.11-1.69c.25-1.78.89-3.28,2.18-3.81,3.9-1.63,34.62-2.71,39.4-1.63A14.49,14.49,0,0,1,389,824c.57.38,1.13.81,1.7,1.25a46.48,46.48,0,0,1,5.83,5.53,10,10,0,0,1,2.34,3.64A11.9,11.9,0,0,1,398.45,838Z" style="fill: #fce7a7"/>
      <path d="M427.6,836.18c.08-.38,5.45-4.88,5.77-5.72s2.85-2,1.93-.24-2.92,5.28-2.92,5.28Z" style="fill: #d1af65"/>
      <path d="M349,835.66a52.83,52.83,0,0,1-3.65-4c-.19-.48-1.09-3.76.51-2.35s8.09,7,8.09,7Z" style="fill: #e8cf8e"/>
    </g>
  </g>
</svg>
