<svg id="e6ff4c41-fd17-4f51-8df2-ca3f8cab080d" data-name="Layer 1" xmlns="http://www.w3.org/2000/svg" xmlns:xlink="http://www.w3.org/1999/xlink" width="250" height="250" viewBox="0 0 853.06 824.18">
  <defs>
    <linearGradient id="a096aa41-6cb9-4bcd-9179-d92682f5460c" data-name="Градієнт без назви 9" x1="521.46" y1="703.68" x2="636.04" y2="258.26" gradientUnits="userSpaceOnUse">
      <stop offset="0" stop-color="#c5f0bd"/>
      <stop offset="1" stop-color="#d6f2d1"/>
    </linearGradient>
    <linearGradient id="f34adaf7-b8c4-484f-82c3-3324abf6788a" x1="404.61" y1="672.5" x2="179.75" y2="214.18" xlink:href="#a096aa41-6cb9-4bcd-9179-d92682f5460c"/>
    <linearGradient id="a6c1e09a-bb90-4196-8b0e-81be6aa72eb0" data-name="Градієнт без назви 108" x1="398.77" y1="22.77" x2="421.56" y2="470.42" gradientUnits="userSpaceOnUse">
      <stop offset="0" stop-color="#e2f9de"/>
      <stop offset="1" stop-color="#d6f2d1"/>
    </linearGradient>
  </defs>
  <title>Butlers4</title>
  <g id="a6ec8eb1-89bb-458e-8f1b-5eb63803fcca" data-name="bg">
    <path d="M388.9,381.74c-33.47,110.32,33.82,328.6,111.32,352.11S755,613.27,788.42,502.94,759.59,276.05,649.26,242.58,422.37,271.41,388.9,381.74Z" style="fill: url(#a096aa41-6cb9-4bcd-9179-d92682f5460c)"/>
    <path d="M62.08,507.47C121.4,622.82,346.65,746.55,427.69,704.88S539.14,408,479.83,292.66,278.91,131.88,163.55,191.19,2.77,392.11,62.08,507.47Z" style="fill: url(#f34adaf7-b8c4-484f-82c3-3324abf6788a)"/>
    <path d="M174.78,261.66c14,129.73,180.79,327.28,271.93,317.44S658.6,340.66,644.59,210.92,514.06-12.62,384.32,1.39,160.77,131.92,174.78,261.66Z" style="fill: url(#a6c1e09a-bb90-4196-8b0e-81be6aa72eb0)"/>
    <g>
      <path d="M148.11,77.38a21.35,21.35,0,0,0,2,16.17" style="fill: none;stroke: #beefb4;stroke-miterlimit: 10;stroke-width: 7px"/>
      <path d="M230,132.67S237.29,144,233,155.55" style="fill: none;stroke: #beefb4;stroke-miterlimit: 10;stroke-width: 7px"/>
      <path d="M287.55,101.23s-2.26,9.72,2.95,14.15" style="fill: none;stroke: #beefb4;stroke-miterlimit: 10;stroke-width: 7px"/>
      <path d="M485.91,41s.45,12.23,2,16.53" style="fill: none;stroke: #beefb4;stroke-miterlimit: 10;stroke-width: 7px"/>
      <path d="M595.19,63.37s8.39,15.81,8.45,20.68" style="fill: none;stroke: #beefb4;stroke-miterlimit: 10;stroke-width: 7px"/>
      <path d="M481,183.55s1.58-12.16,6-17.63" style="fill: none;stroke: #beefb4;stroke-miterlimit: 10;stroke-width: 7px"/>
      <path d="M324.76,248.55s-3.74,6.56,0,11.43" style="fill: none;stroke: #beefb4;stroke-miterlimit: 10;stroke-width: 7px"/>
      <path d="M174.21,366.58s-3.64,15.53,0,18" style="fill: none;stroke: #beefb4;stroke-miterlimit: 10;stroke-width: 7px"/>
      <path d="M333.8,180.47s15.11-6.41,17.74-11.46" style="fill: none;stroke: #beefb4;stroke-miterlimit: 10;stroke-width: 7px"/>
      <path d="M630.43,282.14s8.56,9.8,10.7,15.17" style="fill: none;stroke: #beefb4;stroke-miterlimit: 10;stroke-width: 7px"/>
      <path d="M564.17,164.28s3.22,18.35,7.49,24.86" style="fill: none;stroke: #beefb4;stroke-miterlimit: 10;stroke-width: 7px"/>
      <path d="M547.32,220.16s8.54,9.52,9.8,15.7" style="fill: none;stroke: #beefb4;stroke-miterlimit: 10;stroke-width: 7px"/>
      <path d="M679,336.68s3.46-11.56,8.93-14.72" style="fill: none;stroke: #beefb4;stroke-miterlimit: 10;stroke-width: 7px"/>
      <path d="M702.85,196s-4.25,12.81,0,18.09" style="fill: none;stroke: #beefb4;stroke-miterlimit: 10;stroke-width: 7px"/>
      <path d="M728.48,322.2s12.63,13.47,10.88,20.12" style="fill: none;stroke: #beefb4;stroke-miterlimit: 10;stroke-width: 7px"/>
      <path d="M713.88,402.48s0,15,4.26,22.4" style="fill: none;stroke: #beefb4;stroke-miterlimit: 10;stroke-width: 7px"/>
      <path d="M776.52,380.69s7.91-4.79,11-10.26" style="fill: none;stroke: #beefb4;stroke-miterlimit: 10;stroke-width: 7px"/>
      <path d="M760.71,448s-9.12,22.69-6.08,28.1" style="fill: none;stroke: #beefb4;stroke-miterlimit: 10;stroke-width: 7px"/>
      <path d="M800.85,472.33s12.77,18.27,13.37,25.9" style="fill: none;stroke: #beefb4;stroke-miterlimit: 10;stroke-width: 7px"/>
      <path d="M842.2,556.52s4.26,10,10.34,10.94" style="fill: none;stroke: #beefb4;stroke-miterlimit: 10;stroke-width: 7px"/>
      <path d="M709.58,540.83s1.87,9,6.43,13.48" style="fill: none;stroke: #beefb4;stroke-miterlimit: 10;stroke-width: 7px"/>
      <path d="M797.2,599.47s9.12,11.6,14,11.6" style="fill: none;stroke: #beefb4;stroke-miterlimit: 10;stroke-width: 7px"/>
      <path d="M760.71,656.16s3.65,16.16,5.47,19.28" style="fill: none;stroke: #beefb4;stroke-miterlimit: 10;stroke-width: 7px"/>
      <line x1="753.41" y1="587.86" x2="761.31" y2="603.67" style="fill: none;stroke: #beefb4;stroke-miterlimit: 10;stroke-width: 7px"/>
      <path d="M156.53,660s-3.35-14.93,0-23.11" style="fill: none;stroke: #beefb4;stroke-miterlimit: 10;stroke-width: 7px"/>
      <path d="M96.63,656.16s1.83,11.46,3.65,21.19" style="fill: none;stroke: #beefb4;stroke-miterlimit: 10;stroke-width: 7px"/>
      <path d="M19.4,633.57a57.21,57.21,0,0,0,9.12,14.87" style="fill: none;stroke: #beefb4;stroke-miterlimit: 10;stroke-width: 7px"/>
      <path d="M32.87,549.1s5.73-9.34,6.34-16.53" style="fill: none;stroke: #beefb4;stroke-miterlimit: 10;stroke-width: 7px"/>
      <path d="M10.53,347s-7.6,20.23-7,23.88" style="fill: none;stroke: #beefb4;stroke-miterlimit: 10;stroke-width: 7px"/>
      <path d="M112.64,548.15s16-9.38,22.09-21" style="fill: none;stroke: #beefb4;stroke-miterlimit: 10;stroke-width: 7px"/>
      <path d="M67.48,467.11s14.91,4.12,20.36-1.28" style="fill: none;stroke: #beefb4;stroke-miterlimit: 10;stroke-width: 7px"/>
      <path d="M119.66,428s5.19,9.19,4,13.63" style="fill: none;stroke: #beefb4;stroke-miterlimit: 10;stroke-width: 7px"/>
      <path d="M77.66,358.82s1.16,22,4.38,25.41" style="fill: none;stroke: #beefb4;stroke-miterlimit: 10;stroke-width: 7px"/>
      <path d="M90.82,313.15s10.9,6.88,18.92,6.31" style="fill: none;stroke: #beefb4;stroke-miterlimit: 10;stroke-width: 7px"/>
      <path d="M257.75,231.73s-9.17,5.4-9.74,12.49" style="fill: none;stroke: #beefb4;stroke-miterlimit: 10;stroke-width: 7px"/>
      <path d="M108.34,157.71s2.3,17.09,8.6,22.59" style="fill: none;stroke: #beefb4;stroke-miterlimit: 10;stroke-width: 7px"/>
      <path d="M373.79,10.07s-.63,18.35,1.75,23.51" style="fill: none;stroke: #beefb4;stroke-miterlimit: 10;stroke-width: 7px"/>
      <line x1="259.26" y1="14.94" x2="273.31" y2="21.82" style="fill: none;stroke: #beefb4;stroke-miterlimit: 10;stroke-width: 7px"/>
      <path d="M414.09,73.71s8.52,14.74,11,19.84" style="fill: none;stroke: #beefb4;stroke-miterlimit: 10;stroke-width: 7px"/>
      <path d="M680.73,149.92a20.15,20.15,0,0,0-3.44,11.32" style="fill: none;stroke: #beefb4;stroke-miterlimit: 10;stroke-width: 7px"/>
      <path d="M636.91,348.92s1.83,5.56,6.12,7.37" style="fill: none;stroke: #beefb4;stroke-miterlimit: 10;stroke-width: 7px"/>
    </g>
  </g>
  <g id="a71b150a-6305-42d5-ac59-579c9dbc2fcf" data-name="butlers">
    <path d="M727.5,785.46c14.17,17.63-19.9,30-44,31.79s-68,3.47-95.86,5.67-89,1.66-128.84-2.75-97.33,0-127.69,1.1-149.9-4.19-170.49-13.12-25.24-27.1,4.65-33.16,221.15-12.68,246.38-12.68,223.8-4.95,249.7,0S727.5,785.46,727.5,785.46Z" style="fill: #efefef"/>
    <path d="M462.5,241.83c-1.9,13.91-10.27,26.29-13.51,30.47s-7.25,5.44-9.91,5.44H385.19c-3.24,0-7.1-1.7-10.47-8.1-3.92-7.44-7-20.19-7.28-31.67a.12.12,0,0,0,0-.08c-.17-5.93.41-11.52,2-15.86,4.56-12.76,16-22.47,29.13-22.47s14.85,7.6,23.61,9.32,22.48-2.47,30.1,2.29S464.41,227.93,462.5,241.83Z" style="fill: #f2b85a"/>
    <path d="M467.22,108.66a17.31,17.31,0,0,0-.18-2.24l0-.15a4.78,4.78,0,0,0-.2-.83,2.79,2.79,0,0,0-2.19-1.8,8,8,0,0,0-6.28,2.14,2.77,2.77,0,0,0-.64,2.74c0,.13.14.62.22,1.15s.13,1,.18,1.53c.08,1,.13,2.13.13,3.37a60.44,60.44,0,0,1-.41,6.9,88.62,88.62,0,0,1-2.69,13.91c-2.24,7.89-6.12,16.08-12.19,25.79-2.54,4.09-5.27,8.19-7.91,12.16l-.18.28c-1.36,2-2.77,4.13-3.94,6.32-.63,1.11-1.23,2.27-1.76,3.4s-1.1,2.3-1.63,3.48a193.91,193.91,0,0,0-9.62,28.42v.05a3,3,0,0,0,2.21,3.63,2.92,2.92,0,0,0,.71.08,3,3,0,0,0,2.93-2.33,155.74,155.74,0,0,1,9.13-27.46c.52-1.15,1-2.19,1.55-3.26s1.06-2.1,1.66-3.13c1.09-2,2.36-3.87,3.7-5.85l1.87-2.7c2.18-3.15,4.44-6.42,6.59-9.7a116.92,116.92,0,0,0,13.68-27.06c.27-.79.51-1.58.76-2.38.13-.42.25-.84.41-1.34l1-3.63c.57-2.21,1.23-4.82,1.72-7.47.47-2.48.86-5.07,1.14-7.7.15-1.45.24-2.77.27-4,0-.68,0-1.36,0-2.09Z" style="fill: #c69246"/>
    <path d="M443.28,221.62s6-2.31,7.93,0,4.21,5.65,3.93,14.73-4.89,18.88-5.92,19.72-2.78,1.29-2.29-1.58,2.48-9.07,2.29-14.53-1.1-12.78-4.76-15.7C443.37,223.39,441.45,222.64,443.28,221.62Z" style="fill: #ffe9c2"/>
    <path d="M420.36,216.57c2.05.9,7.69.83,8.69.83s.53,1.83-1.07,2.75-6.25,1.06-9.68,0-9.68-6.86-11.2-9.38.38-2.51,2.28-1A56.25,56.25,0,0,0,420.36,216.57Z" style="fill: #e89e34"/>
    <path d="M439.08,277.74c-1.59,0-19.21,1.71-34.16,1.71a127.18,127.18,0,0,1-19.73-1.71c-3.24,0-7.1-1.7-10.47-8.1-3.92-7.44-7-20.19-7.28-31.67.67,10.51,7.59,21.75,14.67,27.61C393.43,275,435.28,277.74,439.08,277.74Z" style="fill: #e89e34"/>
    <rect x="220.93" y="290.81" width="376.59" height="146.1" style="fill: #ffe9c2"/>
    <path d="M601.36,294.09v38.32c0,19.43-6.69,26.53-15.5,26.53s-18.65-8.31-21.59-21.56c-1.62-7.35-3.83-13.24-7.15-17h0A13.95,13.95,0,0,0,538,318.65l-.06,0c-4.72,3.87-7.9,11.36-10.1,22.26-3.36,16.62-14.24,34.62-25.78,34.62s-21.57-11.08-23.67-29.48c-1.37-12.07-4.83-23.2-10.24-29.43l0,0c-2.82-3.24-6.18-5.14-10.05-5.14a29.08,29.08,0,0,0-10.93,1.77h0l-.07,0c-5.18,2.11-8.85,6.27-11.21,13.45C432,338.17,427,350,417,350s-18-8.5-23-21c-2.68-6.65-5.9-12.4-10.1-16.31h0a19.26,19.26,0,0,0-13.57-5.44,17.16,17.16,0,0,0-11,4c-5.74,4.67-9.79,13.07-11.8,23.28-3.15,15.82-8.39,30.27-23.69,30.27s-19.28-8.11-23-23.94c-2-8.27-4.68-15.36-8.51-20.23,0-.06-.09-.11-.13-.16-3.46-4.34-7.83-6.91-13.37-6.91a23.09,23.09,0,0,0-13.21,4.4h0c-5.38,3.76-9.3,9.38-10.66,14.58-2.3,8.91-9.42,20-19.48,20s-18.19-8.77-18.19-21V294.09a16.35,16.35,0,0,1,16.35-16.35H585A16.35,16.35,0,0,1,601.36,294.09Z" style="fill: #ffd68d"/>
    <path d="M608.49,670.25c-.59,1.6.9,2.22,1.27,2.47S654,687.3,654,687.3s31-7,32-7.54,2.14-.53,1.85-2.24-11.49-10.12-11.49-10.12l-44.26-7.17L613,662.33Z" style="fill: #384242"/>
    <path d="M692.1,765.83a24.51,24.51,0,0,0,1.12,5.61c.8,2.17,6,7.64,10.15,11.19,2.22,1.9,1.67,4.69,1.45,6.46a.85.85,0,0,1-.84.74s-10.88,1.23-16.1,1.23-20-5.13-20-5.13a.86.86,0,0,1-.84-.72l-3.15-27.09Z" style="fill: #384242"/>
    <path d="M588.27,764c-1.52,4.37-3,7.06-5.68,8.81-2.43,1.57-11,6.34-13.22,7.61-1.87,1-2.1,5.79-2.13,7.49a.6.6,0,0,0,.61.6H611.7a.61.61,0,0,0,.59-.46l7.6-30.94Z" style="fill: #384242"/>
    <polygon points="681.2 672.06 692.1 765.83 659.55 769.01 645.52 676.44 621.11 771.06 588.27 764.02 618.44 648.66 625.23 605.35 637.64 595.76 670.06 615.48 681.2 672.06" style="fill: #515e5e"/>
    <path d="M646.37,562s4.13,52.72,3.64,52.72S638,620.3,638,620.3l-3.14-11-1.65,11-7.93-8.15V573.06Z" style="fill: #e2e0d9"/>
    <polygon points="634.24 475.23 630.47 527.05 647.15 521.02 661 492.38 652.33 477.59 634.24 475.23" style="fill: #f9f8f4"/>
    <path d="M620.79,595.76s0,10.19-1,20.65-11.31,53.84-11.31,53.84a2.23,2.23,0,0,0,2.26,0c1.13-.7,7.63-8.19,10-18.65s6.78-30.25,7.35-36.32,0-36.89,0-36.89Z" style="fill: #626f70"/>
    <polygon points="637.8 488.91 648.84 484.97 634.47 480.5 636.1 488.3 637.8 488.91" style="fill: #e8a397"/>
    <path d="M632.16,477.85c0,.37,7.61,9.76,16.71,9.57s14.93-8,17.37-11.73A49,49,0,0,0,675.16,446c-.19-16.52-44.69-6.29-44.69-6.29Z" style="fill: #ffd3c2"/>
    <path d="M645.37,446.59s-.33,3.18-1.32,4.24-7.08,2.58-8.14,5.36-9.73.92-9.73.92l.4-16.08Z" style="fill: #473f3d"/>
    <path d="M622.35,442.66s15.32,7,38.08,5.45,29.76-6.44,31.89-7.55c5.24-2.73,1.78-9.55-3.46-11.43s-20.67-4.52-20.67-4.52L616,425.77Z" style="fill: #515e5e"/>
    <path d="M684.34,399.11l-5.68,35.55a1.05,1.05,0,0,1-.52.76c-1.68,1-8.44,3-22.74,3.25-14.72.27-29.52-5.1-32.94-6.42a1.05,1.05,0,0,1-.67-1.08l3.08-39.11V392l0-.48a1.05,1.05,0,0,1,.84-1c.84-.19,2.36-.5,4.4-.84a118.22,118.22,0,0,1,27.13-1.41A50.34,50.34,0,0,1,684,398.1,1,1,0,0,1,684.34,399.11Z" style="fill: #626f70"/>
    <rect x="183.89" y="426.76" width="450.68" height="146.1" style="fill: #ffe9c2"/>
    <path d="M183.43,563.25H635a1.53,1.53,0,0,1,1.53,1.53v25a3,3,0,0,1-3,3H184.86a3,3,0,0,1-3-3v-25A1.53,1.53,0,0,1,183.43,563.25Z" style="fill: #f2b85a"/>
    <path d="M639.13,429.15v39.21c0,16.45-8.23,28.3-21,28.3s-19.55-11.46-20.81-24.19c-.77-7.8-2.78-16-7.52-21.08a16.26,16.26,0,0,0-12.56-5.28,20.45,20.45,0,0,0-9.27,1.9h0c-6.51,3.25-8.47,10.19-9.81,17-1.84,9.26-3.15,19.1-16.21,19.1s-16.7-7-17.66-17.18c-.52-5.39-2.47-10-5.71-13.2a7.84,7.84,0,0,0-.91-.82,17.21,17.21,0,0,0-22.14.86c-4,3.84-7,10.28-8.73,19.7-3.15,16.94-9.43,26.36-18.87,26.36s-21.52-7.73-25.4-25.87c-1.69-7.95-5-13.46-8.74-17.18l-.41-.41-.08-.07c-4.7-4.41-9.95-6-13.5-6s-7.36,1.91-11,5.07h0A34.53,34.53,0,0,0,399,470a18.15,18.15,0,0,1-16.1,12.35c-11,.57-11.92-10-14.15-15.7-1.46-3.72-5.71-9.05-11-12.17l-.09-.06a16.91,16.91,0,0,0-8.46-2.53c-9,0-33.86-1.94-41.37-1.94a12,12,0,0,0-8.45,3.9,30.4,30.4,0,0,0-6.79,12.07,18.89,18.89,0,0,1-18.32,13.45c-9.27,0-15.29-10.07-17.23-18.77a21.12,21.12,0,0,0-4.07-8.8c0-.05-.08-.11-.12-.15l0,0c-3.4-4.08-8.78-6.75-16.83-6.75a13.47,13.47,0,0,0-11.12,5.76c-4.29,5.55-6.19,13.94-8,19.64-2.91,9.19-9.92,16.45-18.38,16.45s-19.1-5.57-19.1-18.39V429.15a15.46,15.46,0,0,1,15.47-15.46H623.67A15.46,15.46,0,0,1,639.13,429.15Z" style="fill: #ffd68d"/>
    <g>
      <path d="M224.75,450.69s0,0,0,0c-4.29,5.55-6.19,13.94-8,19.64-2.91,9.19-9.92,16.45-18.38,16.45s-19.1-5.57-19.1-18.39V453.18c.93,10.54,4.29,23.59,18.78,23.59S218.25,455.68,224.75,450.69Z" style="fill: #f7c87c"/>
      <path d="M299.29,453.87a30.4,30.4,0,0,0-6.79,12.07,18.89,18.89,0,0,1-18.32,13.45c-9.27,0-15.29-10.07-17.23-18.77a21.12,21.12,0,0,0-4.07-8.8c4.63,5.25,10.89,16.5,22.2,16.5C285.87,468.32,291.18,458.45,299.29,453.87Z" style="fill: #f7c87c"/>
      <path d="M408.76,455.29A34.53,34.53,0,0,0,399,470a18.15,18.15,0,0,1-16.1,12.35c-11,.57-11.92-10-14.15-15.7-1.46-3.72-5.71-9.05-11-12.17,9.18,4.54,13.53,8.55,15.64,12.91s8.71,6,14.42,4.35S402.28,459.41,408.76,455.29Z" style="fill: #f7c87c"/>
      <path d="M495.47,453.74c-4,3.84-7,10.28-8.73,19.7-3.15,16.94-9.43,26.36-18.87,26.36s-21.52-7.73-25.4-25.87c-1.69-7.95-5-13.46-8.74-17.18,5.62,5.3,11.86,10.34,14.71,19.62,2.91,9.52,13.73,10.87,19.68,9.52s11.79-3.81,13.47-11.09S491.4,456.59,495.47,453.74Z" style="fill: #f7c87c"/>
      <path d="M567.91,448c-6.51,3.25-8.47,10.19-9.81,17-1.84,9.26-3.15,19.1-16.21,19.1s-16.7-7-17.66-17.18c-.52-5.39-2.47-10-5.71-13.2a.75.75,0,0,1,.16.15c6.46,6.62,9.61,10.72,11.17,16.69,2,7.62,13.94,5.48,18,1.22s8.35-10.29,9.35-13S563.39,449.5,567.91,448Z" style="fill: #f7c87c"/>
      <path d="M639.13,444.22v24.14c0,16.45-8.23,28.3-21,28.3s-19.55-11.46-20.81-24.19c-.77-7.8-2.78-16-7.52-21.08,4.81,3.81,9.74,9,11.08,16.12s7.75,15,11.66,16.57,10.75,5.28,14.44,1,7-7.87,8.83-16.19S639.13,449.71,639.13,444.22Z" style="fill: #f7c87c"/>
    </g>
    <g>
      <path d="M265.42,318.05c-5.38,3.76-9.3,9.38-10.66,14.58-2.3,8.91-9.42,20-19.48,20s-18.19-8.77-18.19-21V320.76c0,7.22,5,22.59,16.5,22.59S254.4,322.34,265.42,318.05Z" style="fill: #f7c87c"/>
      <path d="M359.2,311.33c-5.74,4.67-9.79,13.07-11.8,23.28-3.15,15.82-8.39,30.27-23.69,30.27s-19.28-8.11-23-23.94c-2-8.27-4.68-15.36-8.51-20.23,6.32,7.75,11.23,14,14.41,21s11.37,10.86,19.12,9.53,14.29-8.85,17.89-18.88S356.21,313.33,359.2,311.33Z" style="fill: #f7c87c"/>
      <path d="M447,313.25c-5.18,2.11-8.85,6.27-11.21,13.45C432,338.17,427,350,417,350s-18-8.5-23-21c-2.68-6.65-5.9-12.4-10.1-16.31,8.27,5.19,15.49,10.53,18.17,18.88s13.55,8,17.3,5,8.08-9.57,11.29-13.17S440.77,314.79,447,313.25Z" style="fill: #f7c87c"/>
      <path d="M537.91,318.68c-4.72,3.87-7.9,11.36-10.1,22.26-3.36,16.62-14.24,34.62-25.78,34.62s-21.57-11.08-23.67-29.48c-1.37-12.07-4.83-23.2-10.24-29.43h0c8.14,7.32,15,11.33,17,22.68s7.19,19.84,16,19.3,14.47.22,18.75-13.41S534.52,320.73,537.91,318.68Z" style="fill: #f7c87c"/>
      <path d="M601.36,312.34v20.07c0,19.43-6.69,26.53-15.5,26.53s-18.65-8.31-21.59-21.56c-1.62-7.35-3.83-13.24-7.15-17,6,5.1,14.83,11.5,17.78,20.32s11.22,9.89,13.48,7.75,6.69-7,7.49-12.51S601.36,312.34,601.36,312.34Z" style="fill: #f7c87c"/>
    </g>
    <path d="M222,580.35a50.11,50.11,0,0,1-6.34,0c-1.43-.26-10.94-3.21-12.53-3.06s-3.47,5.21-1.28,6.5,9.58,5.71,9.58,5.71-1.81,3.19-4.22,3.19H195.43s-1.66,1.89-.83,3.85,11,7.25,14.57,9.13,14,0,16.75-1,14-14.8,14-14.8Z" style="fill: #f9f8f4"/>
    <path d="M428.74,578.81c1.34,1,4.31,1,6,.69s10.43-2.65,12-2.37,3.35,3.24,2.25,5.14-11.73,7.9-11.73,7.9,2.21,2.52,4.16,2.52h11.77s1.77,2.57,1.48,4.4-12.08,7.7-15.12,8.48-14.34-.63-15.83-1.2-13.49-16-13.49-16Z" style="fill: #f9f8f4"/>
    <path d="M293.72,587h-1.34a.7.7,0,0,0-.66.48L289,596.18a.68.68,0,0,0,.36.82l3.42,1.61a.68.68,0,0,0,1-.58l.62-10.29A.69.69,0,0,0,293.72,587Z" style="fill: #515e5e"/>
    <path d="M351.24,438.12a127.32,127.32,0,0,1,2.68,13.52c.73,6-.3,18.22-2.08,22.75-1.54,3.91-4.75,9.05-7.41,10.05A18.9,18.9,0,0,1,340,485v13.51l-32.51-1.09-2-22.94,9.29-34.32Z" style="fill: #ffd3c2"/>
    <path d="M386.57,766.92c.51,2.38,1,4.52,3.27,6.59s12.94,4.33,14.23,6c.91,1.16.76,3.88.59,5.38-.07.6-.61,1-1.64,1.38-1.91.78-20.09,3.94-26,4.27s-14.53-.1-14.81-1.69L358,760.11Z" style="fill: #384242"/>
    <path d="M256,764.36c-1,3.32-2.29,5.19-3.38,5.73s-15.15,4.75-17,6.77c-1.41,1.54-1.93,4.71-2.09,6.74a1,1,0,0,0,.95,1s25.05,4.13,28.5,4.23a62.37,62.37,0,0,0,14.08-1.2,2,2,0,0,0,1.33-1.16l6-24.73Z" style="fill: #384242"/>
    <path d="M359,647c.23.7,27.6,119.94,27.6,119.94l-32.33,4.4L327,656.4l-7.42.6-32,114.32-31.55-7,32.94-119.23Z" style="fill: #515e5e"/>
    <path d="M297.18,451.4s.24,5.63.73,8.64c.71,4.37,5.15,20.25,7,21.71s15.13,2,17.84,1.06,10.74-5.72,11.84-7.55S336,464.91,336,464.42s-3.77-2.92-4-4.5-.24-7.19.49-8.52,4.63-2.44,5.6-1.83,2.68,3.62,2.68,3.62l2.07-.94s-.49-3.78,0-4.75,3.41-5.48,3.41-7.18S297.18,451.4,297.18,451.4Z" style="fill: #473f3d"/>
    <path d="M305.19,495.22l1.49-7.07a130.7,130.7,0,0,1,13.89-1.07c5.82,0,19.47,2.55,19.47,2.55l2.63,5.8v1.3H306.56Z" style="fill: #f9f8f4"/>
    <polygon points="360.36 664.39 383.48 767.34 380.1 767.8 358.03 664.39 360.36 664.39" style="fill: #384242"/>
    <polygon points="309.46 673.85 283.3 770.39 279.75 769.61 306.25 673.75 309.46 673.85" style="fill: #384242"/>
    <path d="M308.53,497.75l-23.6,5s-3.38.23-3.77.69a42.19,42.19,0,0,0-1.88,3.93L254.83,545,222,580.35l17.61,18.81,33-29.42,18.64-22.91s1.37,35.91,1.2,42.75-4.79,37.62-6.33,43.26-7.86,33.69-7.86,33.69a1.42,1.42,0,0,0,.85,1.88c1.37.52,24.37,11.67,37.62,12.83l4.11-16.59,2.39,16.59c18.94-2.63,40.53-14.88,41.55-15.22a2.11,2.11,0,0,0,1.72-2.74c-.35-1.88-8.38-55.06-8.73-60.36s-1.88-20-1.36-29.07.51-25.48.51-25.48l53,50.62,18.81-20.18-39-40.36-25.14-35.57a14.15,14.15,0,0,0-1.67-2.72c-.54-.43-4.14-.53-4.14-.53l-29.58-1.88Z" style="fill: #626f70"/>
    <path d="M292.43,501.13c-.05-.63-.07-1.42.35-1.67s11.83-4.24,12.41-4.24,11.12-1.28,15.48-1.2,20,1.16,22,1.41,12.85,2.37,13.52,2.71a1.25,1.25,0,0,1,.73,1.37c0,.62-9.12,8.49-18.42,11.17s-28.22.92-35-1.09S292.5,502.1,292.43,501.13Z" style="fill: #515e5e"/>
    <path d="M326,449.66c19.3-5.37,35.07-13.46,38.39-18.25s-2.27-7.32-5.25-7.31c-10.46,0-22.73,1.45-21.05,1.28l-40.85,9.55s-9.8,3.31-15.15,7.87c-2.87,2.44-2.87,9.39,1.65,10S311.64,453.64,326,449.66Z" style="fill: #515e5e"/>
    <path d="M348.42,432.75c-2.51,1.52-10.52,6-23.47,9.35a100.14,100.14,0,0,1-29.88,2.81,1.42,1.42,0,0,1-1.3-1.1L285.36,407a1.39,1.39,0,0,1,.54-1.46,36,36,0,0,1,3.37-2.13s0,0,0,0a75.85,75.85,0,0,1,21.64-8.18,105,105,0,0,1,29.48-1.41,1.41,1.41,0,0,1,1.28,1.13l7.38,36.36A1.37,1.37,0,0,1,348.42,432.75Z" style="fill: #626f70"/>
    <path d="M352.6,587.7v10.58a.68.68,0,0,0,.76.68l5.66-.56a.68.68,0,0,0,.6-.81l-1.9-10a.68.68,0,0,0-.67-.56h-3.76A.69.69,0,0,0,352.6,587.7Z" style="fill: #515e5e"/>
    <path d="M673.76,486.19,630,554.65s-1.32-4.14,4.33-29.4c3.87-17.27,12.33-31.1,17.28-38.12a18.61,18.61,0,0,0,8.21-4.05Z" style="fill: #515e5e"/>
    <path d="M599.41,584s-3.35-.58-5.4-1.13-6.08-3.38-8.26-2.94-2.87,2.16-2.6,4,9.67,6.54,9.67,6.54-1.08,2.24-2.07,2.24H578.17s-1.83,1.25-1.83,3,6.92,7.52,9.85,9,17.51.18,20.39-.87S619,593.33,619,593.33Z" style="fill: #f9f8f4"/>
    <path d="M677.92,675.44c-.7-.56,10,90.81,10,90.81l-2.63.25-9.93-92.73Z" style="fill: #384242"/>
    <path d="M599.41,584l20.52,16,22.12-26.38s.8,20.78,1.86,31.44,6.67,35.44,9.33,43.44,12,20.78,15.19,24.24,14.92,6.13,16.25,6.13a7.34,7.34,0,0,0,3.2-1.33s-4.79-28-5.86-41-4-62.88-2.66-74.87,8-52.77,7.19-58.89-6.66-15.19-12.79-16.53-15.25,1.87-19,6.4S643.62,509.35,641,515.21s-10.89,21.88-10.89,21.88Z" style="fill: #626f70"/>
    <path d="M649.54,590.09a35.38,35.38,0,0,0-1.6,8.47.58.58,0,0,0,.3.51c.81.54,3.33,1.9,8.63,2.52a74.65,74.65,0,0,0,13.63.07c.42,0,.75-.29.76-.61a64.92,64.92,0,0,0-.59-10.1.82.82,0,0,0-.92-.59,108.46,108.46,0,0,1-12.74.11,41.19,41.19,0,0,1-6.37-.86A.92.92,0,0,0,649.54,590.09Z" style="fill: #515e5e"/>
    <ellipse cx="242.21" cy="589.72" rx="2.84" ry="1.52" transform="translate(-352.98 361.29) rotate(-46.67)" style="fill: #515e5e"/>
    <ellipse cx="249.05" cy="582.46" rx="2.84" ry="1.52" transform="translate(-345.56 363.99) rotate(-46.67)" style="fill: #515e5e"/>
    <ellipse cx="401.31" cy="581.65" rx="1.52" ry="2.84" transform="translate(-300.1 495.62) rotate(-48.4)" style="fill: #515e5e"/>
    <ellipse cx="408.77" cy="588.28" rx="1.52" ry="2.84" transform="translate(-302.54 503.43) rotate(-48.4)" style="fill: #515e5e"/>
    <ellipse cx="628.19" cy="581.91" rx="2.84" ry="1.52" transform="translate(-212.92 742.44) rotate(-53.61)" style="fill: #515e5e"/>
    <ellipse cx="622.27" cy="589.94" rx="2.84" ry="1.52" transform="translate(-221.8 740.94) rotate(-53.61)" style="fill: #515e5e"/>
    <path d="M642.05,573.6l17.57-24.19s10.91-23.6,11.67-25.44,2.4-1.74,1.37.92S662,552,662,552s-19.68,28.92-19.7,28.4S642.05,573.6,642.05,573.6Z" style="fill: #515e5e"/>
    <path d="M645.52,676.44s-3.69-26.61-4-29.4-1.82-2-1.38,1.6,3.69,34.12,3.69,34.12Z" style="fill: #384242"/>
    <polygon points="642.23 667.32 613.38 769.4 610.45 768.77 642.23 660.23 642.23 667.32" style="fill: #384242"/>
    <ellipse cx="634.22" cy="599.35" rx="0.74" ry="3.02" style="fill: #515e5e"/>
    <path d="M336.62,460.74a5.94,5.94,0,0,1-2.08-3.43c0-1.13.28-3.32.67-3.77s1.41-1.3,2.42-.68.73,1,.62,2a10.66,10.66,0,0,1-1,2.64c-.22.62-1.18.28-1.12.73S337.23,461.09,336.62,460.74Z" style="fill: #e8a397"/>
    <path d="M657.23,471.56c1.2.31,3.34-.81,3.77-1s0-1.11-1-1-5.07-.31-5.56-.31-1,.56-.31,1.05A9.68,9.68,0,0,0,657.23,471.56Z" style="fill: #e8a397"/>
    <ellipse cx="650.3" cy="459.11" rx="3.87" ry="1.93" transform="translate(46.86 978.27) rotate(-75.93)" style="fill: #473f3d"/>
    <ellipse cx="665.57" cy="458.25" rx="3.87" ry="1.93" transform="translate(59.25 992.43) rotate(-75.93)" style="fill: #473f3d"/>
    <path d="M647.11,454.1a26.05,26.05,0,0,1,6-1.22,17.34,17.34,0,0,1,3.38.43.73.73,0,0,0,.8-.36l.59-1.07a.73.73,0,0,0-.4-1.05,13.17,13.17,0,0,0-4.76-.73,11.92,11.92,0,0,0-5.25,2,.72.72,0,0,0-.32.6Z" style="fill: #473f3d"/>
    <path d="M665,452a.33.33,0,0,0,.42.3,7.37,7.37,0,0,1,3.84-.18,10.24,10.24,0,0,1,3.1,1.21l.52-1.38a.33.33,0,0,0-.14-.4,15.83,15.83,0,0,0-4.14-1.79,9.36,9.36,0,0,0-3.49.28.32.32,0,0,0-.24.35Z" style="fill: #473f3d"/>
    <path d="M646.05,476.46a9.35,9.35,0,0,0,7.85,4.7c4.65,0,5.8-2.8,6.1-3.15s-3.85.25-6.2-.3a63.74,63.74,0,0,1-7.15-2.3C645,474.76,645.81,476.08,646.05,476.46Z" style="fill: #e8a397"/>
    <path d="M634.57,487.42a17.12,17.12,0,0,1,6.95,2.64s7-.8,7.3,0-2.12,10.27-3.82,11.08-5.52-1.57-5.52-1.57l-4.84-1.27Z" style="fill: #9ac677"/>
    <path d="M641.52,490.06l-2,9.51s-1.27-.4-1-2.84a25.88,25.88,0,0,1,1.89-6.08Z" style="fill: #6e9b59"/>
    <path d="M666.91,399.64A116.07,116.07,0,0,1,639.53,398c-10.06-2.06-14.66-5-14.66-5.91V392l0-.48a1.05,1.05,0,0,1,.84-1c.84-.19,2.36-.5,4.4-.84-1.93.34-2.38,1.69.74,3s16.46,6.07,37,6C667.87,398.77,670.74,399.25,666.91,399.64Z" style="fill: #515e5e"/>
    <path d="M331.11,398.76c-1.91.82-8,4.36-22.87,7.16s-21.78,3.65-22.88,1.06a1.39,1.39,0,0,1,.54-1.46,36,36,0,0,1,3.37-2.13c-2.09,1.27.19,2,3.53,1.9a159.7,159.7,0,0,0,25.43-3.9c10-2.45,10.34-2.63,12.07-3.36S333,397.94,331.11,398.76Z" style="fill: #515e5e"/>
  </g>
</svg>
