<svg id="b9ab7b6d-8252-4832-b1da-0e6acc5b9abe" data-name="Layer 1" xmlns="http://www.w3.org/2000/svg" xmlns:xlink="http://www.w3.org/1999/xlink" width="250" height="250" viewBox="0 0 820.4 814.48">
  <defs>
    <linearGradient id="e681d457-85c2-4ad1-86d3-a606249ca594" data-name="Градієнт без назви 9" x1="305.02" y1="337.32" x2="268.86" y2="75.65" gradientUnits="userSpaceOnUse">
      <stop offset="0" stop-color="#c5f0bd"/>
      <stop offset="1" stop-color="#d6f2d1"/>
    </linearGradient>
    <linearGradient id="ae7c2d59-7e56-476a-a35e-0204b3e0ca20" data-name="Градієнт без назви 108" x1="401.31" y1="85.84" x2="395.44" y2="588.15" gradientUnits="userSpaceOnUse">
      <stop offset="0" stop-color="#e2f9de"/>
      <stop offset="1" stop-color="#d6f2d1"/>
    </linearGradient>
    <linearGradient id="fb32076c-e90f-449c-985d-29abe631db20" data-name="Градієнт без назви 22" x1="671.86" y1="411.5" x2="711.24" y2="182.32" gradientUnits="userSpaceOnUse">
      <stop offset="0" stop-color="#d6f2d1"/>
      <stop offset="1" stop-color="#f2fcf0"/>
    </linearGradient>
  </defs>
  <title>Butlers5</title>
  <g id="b99f376a-e825-4ab2-a56c-05e590af1054" data-name="bg">
    <path d="M810.68,663.76c-10.24-8-28.52-8.75-51.45-2.23l3.38,11.92c18.5-5.26,33.63-5.22,40.47.09a8.8,8.8,0,0,1,3.48,7.8c-.15,5.41-10.64,10.07-21.7,12.74-4.36-3.25-12-4.92-23.94-4.92-27.69,0-552.27-54.87-552.27-54.87-1.84-1.36-66.65-9.9-102.17-6.47-38.51-5.76-60.65-.54-71.2,3.65C11.36,641,7.31,654,8.12,663.3c1.67,19.05,25.32,35.1,47.23,39.61,10.51,2.16,46.84,4.7,81,4.7,24.09,0,47.09-1.27,59.09-4.83a116.75,116.75,0,0,1,25.9-4.09c26.19,29,90.7,93.12,119.36,109.86,30.39,17.74,108.27-11.59,164.51-26.77s66.76-11.14,74.81,5.79,62.07,35.5,109.27,22.59,33.49-49.7,47.21-60.34,46.36-17.9,51.41-34.84a40.13,40.13,0,0,0,1.79-9.25c13-3.3,28.91-10.18,29.29-24.06A21.07,21.07,0,0,0,810.68,663.76ZM191.87,690.9c-26.16,7.78-117.69,3.23-134-.13-18.93-3.9-36.39-17.24-37.38-28.55C19.66,653,30.56,646.67,39.85,643c6.71-2.66,18.81-5.76,38.21-5.34-13.13,10.37-9.23,25,19.22,32.07,32.38,8.11,85.6,0,112.19,17.61A112.19,112.19,0,0,0,191.87,690.9Z" style="fill: #efefef"/>
    <path d="M117.76,544.52C82.13,503.35,72.38,373.73,71.41,296.36s18.78-181.55,106-212.8,254.38-22,314.91-11-53.7,330.5-103.46,381S117.76,544.52,117.76,544.52Z" style="fill: url(#e681d457-85c2-4ad1-86d3-a606249ca594)"/>
    <path d="M366.43,10.33C436.41-12.95,508.63,4,583,52.09c142.12,91.79,224.82,429.47,178.46,532.32s-162,54.15-290.8,65.88-363.17.6-427.84-100.08,13.24-191,87.54-239.16,78.83-61.9,136.66-176.62C295,79,330.11,22.41,366.43,10.33Z" style="fill: url(#ae7c2d59-7e56-476a-a35e-0204b3e0ca20)"/>
    <path d="M624,309.72,608.7,353l43.4-17.55s25.63,21.25,55.69,18.58,81.34-46,75.77-88.95-49.33-98-92-90.52-88.06,51.19-88.72,88.64C602.32,290.24,624,309.72,624,309.72Z" style="fill: #f7c67f"/>
    <path d="M721.91,249.5l1.5,14.4a1.69,1.69,0,0,0,1.85,1.5l11.63-1.55a1.69,1.69,0,0,1,1.8,1.29l3.08,12.75a1.38,1.38,0,0,1-1.09,1.77l-14.14,2.17a1.46,1.46,0,0,0-1.21,1.62L727,300.52a1.56,1.56,0,0,1-1.24,1.74l-14.25,2.52a1.75,1.75,0,0,1-2-1.64l-1.16-16.63a1.74,1.74,0,0,0-1.94-1.6l-12.74,2a1.62,1.62,0,0,0-1.37,1.7l.84,17.89a1.76,1.76,0,0,1-1.42,1.83L676.26,311a1.74,1.74,0,0,1-2-1.72l-.36-17.44a1.72,1.72,0,0,0-2-1.66l-14,2.14a1.72,1.72,0,0,1-2-1.46l-1.79-14.29a1.73,1.73,0,0,1,1.53-1.9l16.3-2.17a1.62,1.62,0,0,0,1.44-1.65l-.47-15.4a1.66,1.66,0,0,0-1.88-1.55l-13.3,1.5a1.69,1.69,0,0,1-1.9-1.38l-1.7-12.89a1.53,1.53,0,0,1,1.45-1.67l15.5-1.47a1.46,1.46,0,0,0,1.38-1.43l-.31-14.86a1.37,1.37,0,0,1,1.34-1.34l13.58-1a1.62,1.62,0,0,1,1.77,1.43l.64,13.83a1.65,1.65,0,0,0,1.81,1.48L703.12,235a1.29,1.29,0,0,0,1.22-1.37l-1-14.28a1.21,1.21,0,0,1,1.19-1.28l12.66-1a1.64,1.64,0,0,1,1.73,1.38l1.25,13.3a1.65,1.65,0,0,0,1.76,1.42l11.22-1.06a1.65,1.65,0,0,1,1.72,1.22L737.75,245a1.23,1.23,0,0,1-1.06,1.57l-13.62,1.54A1.29,1.29,0,0,0,721.91,249.5Zm-18.07.72-12.14,1.37a1.45,1.45,0,0,0-1.32,1.51l.85,15a1.71,1.71,0,0,0,1.91,1.56L705.57,268a1.46,1.46,0,0,0,1.27-1.58l-1.17-14.74A1.67,1.67,0,0,0,703.84,250.22Z" style="fill: url(#fb32076c-e90f-449c-985d-29abe631db20)"/>
  </g>
  <g id="e5f29b7d-10a8-4be2-8975-4f303e283601" data-name="butlers">
    <g>
      <path d="M346.18,248.82C348,261.12,351,283.1,333.51,348c-10.75,39.78-22.13,76.75-29.32,99.4-3.15,10-22.77,4-22.77,4s3.78,63.49,4.73,64.92c.58.88,20.09,4.46,35,7.08,4.59,4.06,9.7,5.59,15.22,2.64l1.48.25v-1.14c7.4-5,15.49-18.05,24-43.74.5-1.5,51.66-175.54,51.66-175.54V219.75S344.32,236.52,346.18,248.82Z" style="fill: #f2b85a"/>
      <path d="M415,145c-14-14.5-34.53-22.36-45-24.08-7.22-1.18-38.86.6-38.86.6l-4.78,16.34s-6.74,115.9,12.84,116,41.31-13.11,50-13.59,13.05,21.27,13.05,21.27L375.24,384.69l39.33,63.92L446.8,246.48S429.07,159.45,415,145Z" style="fill: #f4c87a"/>
      <ellipse cx="262.06" cy="526.26" rx="77.59" ry="55.5" transform="translate(-321 601.58) rotate(-70.89)" style="fill: #ffde9c"/>
      <ellipse cx="262.06" cy="526.26" rx="49.27" ry="35.24" transform="translate(-321 601.58) rotate(-70.89)" style="fill: #ffde9c"/>
      <ellipse cx="262.06" cy="526.26" rx="3.89" ry="2" transform="translate(-321 601.58) rotate(-70.89)" style="fill: #eaa542"/>
      <ellipse cx="253.3" cy="550.16" rx="3.89" ry="2" transform="translate(-349.47 609.38) rotate(-70.89)" style="fill: #eaa542"/>
      <ellipse cx="271.23" cy="503.47" rx="3.89" ry="2" transform="matrix(0.33, -0.94, 0.94, 0.33, -293.29, 594.92)" style="fill: #eaa542"/>
      <ellipse cx="266.49" cy="514.8" rx="3.89" ry="2" transform="translate(-307.18 598.06) rotate(-70.89)" style="fill: #eaa542"/>
      <ellipse cx="257.78" cy="538.59" rx="3.89" ry="2" transform="translate(-335.52 605.84) rotate(-70.89)" style="fill: #eaa542"/>
      <ellipse cx="252.11" cy="528.1" rx="3.89" ry="2" transform="translate(-329.42 593.42) rotate(-70.89)" style="fill: #eaa542"/>
      <ellipse cx="261.29" cy="505.31" rx="3.89" ry="2" transform="translate(-301.72 586.76) rotate(-70.89)" style="fill: #eaa542"/>
      <ellipse cx="256.55" cy="516.63" rx="3.89" ry="2" transform="translate(-315.61 589.9) rotate(-70.89)" style="fill: #eaa542"/>
      <ellipse cx="247.84" cy="540.43" rx="3.89" ry="2" transform="translate(-343.94 597.68) rotate(-70.89)" style="fill: #eaa542"/>
      <ellipse cx="268.51" cy="533.33" rx="3.89" ry="2" transform="translate(-323.34 612.43) rotate(-70.89)" style="fill: #eaa542"/>
      <ellipse cx="277.68" cy="510.54" rx="3.89" ry="2" transform="translate(-295.63 605.77) rotate(-70.89)" style="fill: #eaa542"/>
      <ellipse cx="272.94" cy="521.87" rx="3.89" ry="2" transform="matrix(0.33, -0.94, 0.94, 0.33, -309.52, 608.91)" style="fill: #eaa542"/>
      <ellipse cx="264.23" cy="545.66" rx="3.89" ry="2" transform="matrix(0.33, -0.94, 0.94, 0.33, -337.86, 616.69)" style="fill: #eaa542"/>
      <ellipse cx="279.49" cy="530" rx="3.89" ry="2" transform="translate(-312.8 620.57) rotate(-70.89)" style="fill: #eaa542"/>
      <ellipse cx="283.93" cy="518.53" rx="3.89" ry="2" transform="translate(-298.98 617.05) rotate(-70.89)" style="fill: #eaa542"/>
      <ellipse cx="275.22" cy="542.33" rx="3.89" ry="2" transform="translate(-327.32 624.83) rotate(-70.89)" style="fill: #eaa542"/>
      <ellipse cx="246.36" cy="519.18" rx="3.89" ry="2" transform="translate(-324.87 581.99) rotate(-70.89)" style="fill: #eaa542"/>
      <ellipse cx="250.79" cy="507.72" rx="3.89" ry="2" transform="translate(-311.05 578.47) rotate(-70.89)" style="fill: #eaa542"/>
      <ellipse cx="242.09" cy="531.51" rx="3.89" ry="2" transform="translate(-339.39 586.24) rotate(-70.89)" style="fill: #eaa542"/>
      <path d="M231.19,520.8c8.9-25.71,31-41.39,49.43-35,7.1,2.47,12.6,7.87,16.17,15-3.19-10.18-9.61-18-18.6-21.11-18.4-6.37-40.53,9.3-49.43,35-5.47,15.78-4.68,31.66,1,43.06C226.43,547.14,226.63,533.94,231.19,520.8Z" style="fill: #f4c87a"/>
      <ellipse cx="335.21" cy="187.62" rx="48.81" ry="66.27" transform="translate(-10.79 20.73) rotate(-3.49)" style="fill: #ffde9c"/>
      <ellipse cx="335.21" cy="187.62" rx="18.54" ry="29.63" transform="translate(-10.79 20.73) rotate(-3.49)" style="fill: #f4c87a"/>
      <path d="M353.72,186.49c-1-16.33-10.09-29.07-20.31-28.45-8.32.51-14.83,9.72-16.42,21.94,2.36-9.06,7.8-15.49,14.5-15.89,9.59-.59,18.13,11.37,19.06,26.71.58,9.51-1.91,18.09-6.17,23.37C350.57,209.17,354.45,198.54,353.72,186.49Z" style="fill: #eaa542"/>
    </g>
    <path d="M65.24,693.81c-18.8,0-35.88-6-47.82-17C5.78,666.16-.24,651.41,0,634.2.15,624,5.15,614.91,14.47,607.79c26.82-20.5,91.58-24.54,150.66-9.4,70.84,18.16,240.36,29.66,242.06,29.77l.39,0c2.91.38,291.94,38.09,347.52,25.15,35.77-8.33,47.71-19.48,51.44-27.37,2.69-5.71,2.27-12-1.28-19.14-4.9-9.88-17.25-20.34-67.74,2.82l-5.07-11c28.79-13.19,68.78-27.26,83.69,2.83,5.17,10.42,5.65,20.7,1.38,29.73-7.17,15.21-26.69,26.34-59.67,34-8.87,2.07-23.08,3-40.77,3-96.81,0-298.63-26.25-310.89-27.85-9.39-.64-172.72-11.82-244.08-30.12-54.9-14.07-116.51-10.88-140.26,7.28-6.43,4.92-9.6,10.46-9.69,16.93-.2,13.85,4.34,25.13,13.48,33.54C36.92,678.27,54.2,683.13,73,681.26c56.49-5.6,99.19-15.13,133.51-22.79,35.54-7.94,61.21-13.67,84.13-11.25l-1.28,12.09c-20.93-2.22-45.79,3.33-80.21,11-34.63,7.73-77.73,17.35-134.95,23C71.21,693.66,68.2,693.81,65.24,693.81Z" style="fill: #e89e34"/>
    <g>
      <path d="M223.66,466.24s3,2.55,4.16,2.87,10.13,1.57,11.37,2.74,0,4.18-1.78,4.18-9.33-.72-9.33-.72-3.76,4.71-7.52,10.14c-.25.36-11.91-8-11.91-8Z" style="fill: #f9f8f4"/>
      <path d="M111.88,550s-4.93,12.42-5.09,14a1.34,1.34,0,0,0,1,1.63c2.29.89,31.75,13.11,31.75,13.11l39.32-6.52s1,.19.85-1.5-9.24-54.42-9.24-54.42l-53.65-2Z" style="fill: #384242"/>
      <path d="M150.79,630.64l-2.13,5.79.49,20.05h40.06s.93-4.8,0-6-14.48-6.65-15.23-8.42-1.69-9.43-1.69-9.43Z" style="fill: #384242"/>
      <path d="M106.22,634.29l-1.66,2.55-1.91,15.31s6.69,7.44,10.6,9.37,19.57,1.55,20.8,1.21,1.11-6.35,0-7.6c-1.3-1.46-5.29-9.35-5.51-10.14s-.19-8.48-.19-8.48Z" style="fill: #384242"/>
      <polygon points="176.1 552.7 178.38 636.71 148.66 636.43 145.85 540.8 143.27 583.39 135.24 641.58 104.56 636.84 112.14 579.76 117.78 506.81 132.14 471.4 169.32 471.4 176.1 552.7" style="fill: #515e5e"/>
      <path d="M145.85,540.8l1.51-24.22s2.1-1.62,1.67,2.74-2.5,44.64-2.5,44.64Z" style="fill: #384242"/>
      <polygon points="109.01 637.53 117.42 577.06 118.79 515.3 120.99 512.92 119.8 577.23 111.38 637.89 109.01 637.53" style="fill: #384242"/>
      <polygon points="147.24 524.72 155 575.41 158.04 636.51 155.56 636.49 152.64 575.41 147.24 535.55 147.24 524.72" style="fill: #384242"/>
      <path d="M178.46,336a104,104,0,0,1,0,15.81c-.7,7.88-4.42,18.72-6.68,21.59a41.52,41.52,0,0,1-7.43,7.73v9.68l-30.59-.12L131.4,365l-5.27-22.2,34.35-8Z" style="fill: #ffd3c2"/>
      <path d="M124.45,336a40.44,40.44,0,0,0-.57,6c0,2.78.79,8,.51,10.7s1.44,9.24,2.06,11.13c.76,2.36,3.8,7.27,5.51,7.27s1.66-1.17,1.85-2.88.76-6.53,0-7a8.63,8.63,0,0,1-3-4.28c-.29-1.61-1-9.34-.65-10.52s4.47-1.36,5.14.14a12.66,12.66,0,0,1,.49,4.38.28.28,0,0,0,.25.31l1.21.07a.26.26,0,0,0,.27-.24c.14-1,.7-4.4,2.17-4.95,1.71-.64,7.24-3.1,7.82-3.85s1.31-5.35,1.31-5.35Z" style="fill: #473f3d"/>
      <path d="M132.51,377.06l20.55,12.75,11.29-7.22a1.7,1.7,0,0,1,1.31,1.14c.3,1,1.52,8.51,1.52,8.51v38.41l-30.81.55-6.55-40.37s1.3-11.81,1.45-12.72S132.51,377.06,132.51,377.06Z" style="fill: #f9f8f4"/>
      <polygon points="136.1 414.13 153.91 425.31 167.18 416.15 166.72 490.34 157.22 498.34 151.64 490.7 145.4 499.5 125.64 487.44 136.1 414.13" style="fill: #e2e0d9"/>
      <polygon points="131.26 385.85 139.59 394.26 138.71 395.82 130.65 386.98 131.26 385.85" style="fill: #e2e0d9"/>
      <polygon points="151.73 398.68 152.99 428.27 154.46 427.36 154.09 398.68 151.73 398.68" style="fill: #e2e0d9"/>
      <path d="M96,501c.16,1.75-.39,9.14-1.51,10.8a2.28,2.28,0,0,1-3,.5l0,0c-1-.54-1.78-1.82-1.54-3.94.3-2.68-.22-4.44-.6-4.8s-1.36-.11-1.62.06a17.21,17.21,0,0,0-1.64,5.57c-.25,3.26,1.16,8-1.9,10-1.45,1-9.93-2.46-10.4-6.47-.45-3.84,0-7.93.65-13.36a78.44,78.44,0,0,1,2.17-11.58l19.78-2.16.87,7.73C97,494.56,95.85,499.24,96,501Z" style="fill: #f9f8f4"/>
      <path d="M123,386.34l7.4,13.26L138.09,464c-.75,9.2-1.61,18.24-2.16,22.05-1.2,8.21-7.36,27.83-12.06,36.86s-15,41.11-15.79,41.33a1.42,1.42,0,0,1-1.29-.2s7.8-60.13,9.07-73.79,1.11-31.07,1.41-38.46-.08-13.85-.08-13.85l-4,7.56-11.89,48.78-24.62-6.53,12.48-52.83,20.3-43.5s.68-2.8,1.46-3.31a9.66,9.66,0,0,1,2.84-.75L121,385Z" style="fill: #626f70"/>
      <path d="M173.66,390.39l8,4.34s2.57.83,3,1.37a30.38,30.38,0,0,1,1.1,4.5l7.95,36.06,30,29.58-16.53,18.4L179,455.86s-2,20.86-2.35,35.55,3.08,79.34,3.08,79.34-1.54.34-2.28-.51-7.92-39.19-11.51-54.91-2-50-2-50l1.86-14.24Z" style="fill: #626f70"/>
      <path d="M118.46,386a.76.76,0,0,1,.38-1c2.27-1.34,9.22-2.95,11.39-3.89a.76.76,0,0,1,1,.49c1,3.46,4.79,15.33,5.7,23.09,1,9,2.47,28.44,2.62,34.56.08,3.28-.63,14.12-1.49,24.74a.71.71,0,0,1-.78-.55c-.13-.73-4.87-26.73-5.32-29.31a252.84,252.84,0,0,0-7.07-30C123,397.67,119,387.24,118.46,386Z" style="fill: #515e5e"/>
      <path d="M167.18,385.6a1.2,1.2,0,0,0-1.59,0c-.71.72-.36,4.09-.36,4.09s-.27,42.14-.41,48.1c-.22,9.89-.88,27.54-.88,27.54s.94.36,1.15-.79,3.64-22.24,4.26-26.57c4-28.22,5.34-46,5.34-46.92a1.82,1.82,0,0,0-.86-1.78C173.32,389.05,167.18,385.6,167.18,385.6Z" style="fill: #515e5e"/>
      <path d="M128.5,324.31s-4.79-.77-14.25,3.65c-3.9,1.83-5.79,6.51-.91,9.14s21.79,5.14,40.79,4.85,27.76-1.19,35.18-4.09c6.29-2.47,4.62-9.05-.93-10.61-8.11-2.27-20.32-2.94-20.32-2.94Z" style="fill: #515e5e"/>
      <path d="M178.49,331.82a1.07,1.07,0,0,1-.85,1c-16.82,3.62-38,3.27-52.57,0a1.09,1.09,0,0,1-.87-1,384.12,384.12,0,0,0-2.7-40.8,1.05,1.05,0,0,1,.79-1.1c1.11-.29,3.27-.82,6.28-1.41l.09,0c10-1.93,29.2-4.4,49.81-.33a1.08,1.08,0,0,1,.85,1.07C178.62,302.38,178.41,316.72,178.49,331.82Z" style="fill: #626f70"/>
      <ellipse cx="153.12" cy="458.02" rx="1.45" ry="2.86" style="fill: #515e5e"/>
      <ellipse cx="151.67" cy="480.08" rx="1.45" ry="2.86" style="fill: #515e5e"/>
      <ellipse cx="154.09" cy="435.12" rx="1.45" ry="2.86" style="fill: #515e5e"/>
      <path d="M164.35,381.15a11.68,11.68,0,0,1-5.42,1.65c-5.06-.15-13.41-3.27-18.14-7.46,0,0-1.14-.6-.23,1.28.83,1.71,6.16,5.65,9.06,7.2,3.79,2,9.45,2.15,9.45,2.15l5.28-3.38Z" style="fill: #e8a397"/>
      <path d="M133,357.82a16.1,16.1,0,0,1-.64-1.66c-.2-.66-.69-7-.42-7.44s1.33-.72,1.69-.25.58,4.44.47,4.81-.94.07-.94,1.07S133.85,358.92,133,357.82Z" style="fill: #e8a397"/>
      <path d="M149.15,388.83l-9.27-1.95a1.91,1.91,0,0,0-2.27,1.53,37.12,37.12,0,0,0-.05,13.54,1.92,1.92,0,0,0,2.67,1.43l8.38-3.8a16.83,16.83,0,0,0,8.85.18l7.93,4.19a1.92,1.92,0,0,0,2.66-1c1.78-4.46,2.39-8.9,1.19-13.32a1.93,1.93,0,0,0-2-1.42l-10,.87A14.85,14.85,0,0,0,149.15,388.83Z" style="fill: #a0d175"/>
      <path d="M149.15,388.83s-.38,3.43-.5,5.64,0,5.11,0,5.11-.49.05-.78-.9a20.27,20.27,0,0,1-.31-4.09,12.54,12.54,0,0,1,.65-5A1.2,1.2,0,0,1,149.15,388.83Z" style="fill: #6e9b59"/>
      <path d="M157.18,389.11a31.87,31.87,0,0,1,.55,5.55c0,2.38-.27,5.1-.27,5.1s.56-.13.93-1.08a15.47,15.47,0,0,0,.56-4.25,9.64,9.64,0,0,0-.74-4.57A1.84,1.84,0,0,0,157.18,389.11Z" style="fill: #6e9b59"/>
      <path d="M91.51,512.26c-1-.54-1.78-1.82-1.54-3.94.3-2.68-.22-4.44-.6-4.8s-1.36-.11-1.62.06c.55-1.27,1.73-3.95,2.35-3s1.18,4.45,1.15,6S90.81,511.44,91.51,512.26Z" style="fill: #efeeea"/>
      <ellipse cx="82.67" cy="482.45" rx="2.48" ry="1.37" transform="translate(-405.5 446.58) rotate(-76.07)" style="fill: #515e5e"/>
      <ellipse cx="84.58" cy="474.76" rx="2.48" ry="1.37" transform="translate(-396.58 442.59) rotate(-76.07)" style="fill: #515e5e"/>
      <ellipse cx="206.24" cy="476.64" rx="1.37" ry="2.48" transform="translate(-273.19 276.96) rotate(-43.99)" style="fill: #515e5e"/>
      <ellipse cx="200.74" cy="470.94" rx="1.37" ry="2.48" transform="translate(-270.77 271.54) rotate(-43.99)" style="fill: #515e5e"/>
      <path d="M179,455.86s1.15-15.88,1.35-18.09,1.56-2.52,1.45,2.44-.26,18.24-.26,18.24Z" style="fill: #515e5e"/>
      <path d="M117.19,437.93l2.45-3.51s1.06-1,.58,1a73.71,73.71,0,0,1-2.86,7.44Z" style="fill: #515e5e"/>
      <path d="M176.72,476.09l-3.78.25a.72.72,0,0,0-.68.67l-.46,6.21a.73.73,0,0,0,.52.76,11.55,11.55,0,0,0,5.31.34.74.74,0,0,0,.6-.81l-.74-6.77A.72.72,0,0,0,176.72,476.09Z" style="fill: #515e5e"/>
      <path d="M116.07,474l-1.38,7.23a.75.75,0,0,0,.53.86,51.62,51.62,0,0,0,13.62,1.67.74.74,0,0,0,.73-.7l.48-7.57a.75.75,0,0,0-.73-.78A53.09,53.09,0,0,1,117,473.45.73.73,0,0,0,116.07,474Z" style="fill: #515e5e"/>
      <path d="M163.35,293.09c-3.47.89-22.78,2.16-30.6,1.26s-10.65-1-11.25-3.33a1.05,1.05,0,0,1,.79-1.1c1.11-.29,3.27-.82,6.28-1.41-2,.46-1.17,2.54,3.6,3.48s22.48,1.67,31.74,0C163.91,292,166.81,292.19,163.35,293.09Z" style="fill: #515e5e"/>
      <path d="M165.39,366.56c1.15.09,2.93-1.3,3.3-1.54s-.18-1-1.07-.74-4.71.56-5.17.64-.81.68-.11,1A9.1,9.1,0,0,0,165.39,366.56Z" style="fill: #e8a397"/>
      <ellipse cx="157.37" cy="354.72" rx="3.61" ry="1.81" transform="matrix(0.07, -1, 1, 0.07, -206.9, 488.5)" style="fill: #473f3d"/>
      <ellipse cx="173.4" cy="353.5" rx="3.61" ry="1.81" transform="translate(-190.71 503.36) rotate(-86.24)" style="fill: #473f3d"/>
      <path d="M150.65,350a24.28,24.28,0,0,1,5.28-2.12,16,16,0,0,1,3.17-.17.69.69,0,0,0,.68-.46l.36-1.09a.68.68,0,0,0-.54-.89,12.19,12.19,0,0,0-4.5.12,11.25,11.25,0,0,0-4.49,2.75.69.69,0,0,0-.19.61Z" style="fill: #473f3d"/>
      <path d="M168.89,347.22a.3.3,0,0,0,.44.2,6.79,6.79,0,0,1,3.5-.8,9.45,9.45,0,0,1,3,.59l.24-1.36a.29.29,0,0,0-.19-.34,15,15,0,0,0-4.1-1,8.92,8.92,0,0,0-3.17.85.3.3,0,0,0-.16.36Z" style="fill: #473f3d"/>
      <path d="M155.64,373.9a8.79,8.79,0,0,0,8.05,3c4.31-.79,4.9-3.57,5.12-3.95s-3.75-1-6-1.15a29.78,29.78,0,0,0-6.8.42C154.35,372.7,155.35,373.59,155.64,373.9Z" style="fill: #e8a397"/>
    </g>
    <g>
      <path d="M782.18,698.94a18.47,18.47,0,0,1-16.47,18.92L422.53,755.18a54.05,54.05,0,0,1-27.64-4.28L234,679.94a18.49,18.49,0,0,1-11-18l2.89-49.34,1.33-22.6A25.45,25.45,0,0,1,242,568.23c47.75-21.64,76.18-53.91,94.31-90.66A129.74,129.74,0,0,0,349.49,428c0-.25,0-.51,0-.75a113.88,113.88,0,0,0,.1-12,0,0,0,0,0,0,0,84.37,84.37,0,0,0-1.5-13.75l92.07-1.55,13.15-.22,19.3-.33,27.47-.46,33.37-.56,5.93-.1s5.31,5.88,13.56,15.45c19.34,22.45,54.88,65.19,75.93,99.76.61,1,1.26,2,1.94,3s1.53,2.17,2.36,3.24,1.65,2.12,2.54,3.18c26.81,31.9,86.94,60.64,120.31,74.88,2.68,1.16,5.2,2.21,7.51,3.16l4.48,1.84a18.9,18.9,0,0,1,11.79,17l.33,11.28c0,.16,0,.31,0,.46Z" style="fill: #ffde9c"/>
      <path d="M782.18,698.94a18.47,18.47,0,0,1-16.47,18.92L422.53,755.18a54.05,54.05,0,0,1-27.64-4.28L234,679.94a18.49,18.49,0,0,1-11-18l2.89-49.34,1.33-22.6A25.45,25.45,0,0,1,242,568.23c-9.55,4.6-4.46,15.5,3.37,17.9,6.06,1.86,107.24,32.18,153,45.9q4.13,1.23,8.3,2.17l.09,0a123.32,123.32,0,0,0,24.81,3c.75,0,1.49,0,2.25,0,3.27,0,6.53-.14,9.8-.39l13-1h.09c85-6.78,291.21-23.23,303.81-24.28l.39,0c9.67-.8,7.12-8.71,2.64-10.54h0l4.48,1.84a18.9,18.9,0,0,1,11.79,17l.33,11.28c0,.16,0,.31,0,.46Z" style="fill: #f2b85a"/>
      <path d="M431.94,612.28c2.52-40.6,3.58-65.09.68-105.07-4.08-56.43,13.27-94.16,20.73-107.5l-105.22,1.77s8,35.9-11.8,76.09c-18.13,36.75-46.56,69-94.31,90.66-9.55,4.6-4.46,15.5,3.37,17.9,6.06,1.86,107.24,32.18,153,45.9.69.2,1.38.37,2.07.56s1.15.28,1.72.4c9.11,2.41,12.08,3.76,27.67,4.16,17.57.46,26.87-1.37,26.87-1.37S430.57,634.27,431.94,612.28Z" style="fill: #f4c87a"/>
      <path d="M415.93,382H381.16c-24.58,0-48.92-4.74-55.1-22.53-3.64-10.47-5.13-21.77-5.75-29.29-.4-4.9.77-8.66-4.35-8.66H298c-5.55,0-8.16,4.4-8,9.72.47,14.07.65,35,8.76,58.52,13.64,39.57,55,38.5,72.95,38.5h92.49c17.92,0,59.32,1.07,73-38.5,8.11-23.51,8.29-44.45,8.76-58.52.18-5.32,3.11-9.72-2.44-9.72H523.39c-5.11,0-7.28,3.76-7.68,8.66-.62,7.52-2.11,18.82-5.75,29.29-6.18,17.79-30.52,22.53-55.1,22.53H415.93Z" style="fill: #eaa542"/>
      <path d="M448.26,380.72H413.49c-24.57,0-48.92-4.88-55.1-23.16-3.63-10.76-5.13-22.37-5.74-30.1-.4-5-2.57-8.9-7.69-8.9H330.37c-5.55,0-8.17,4.52-8,10,.47,14.45.66,36,8.76,60.12,13.65,40.67,55.05,39.57,73,39.57h92.49c17.91,0,59.31,1.1,73-39.57,8.1-24.15,8.29-45.67,8.76-60.12.18-5.48-2.44-10-8-10H555.73c-5.12,0-7.29,3.87-7.69,8.9-.61,7.73-2.11,19.34-5.75,30.1-6.17,18.28-30.52,23.16-55.1,23.16H448.26Z" style="fill: #ffde9c"/>
      <g>
        <path d="M331.14,388.68c-8.1-24.15-8.29-45.67-8.76-60.12-.18-5.48,2.44-10,8-10H318.25c-5.55,0-8.17,4.52-8,10,.24,7.51.42,16.93,1.66,27.63a3.81,3.81,0,0,1-3.78,4.26H298a5.26,5.26,0,0,1-5.22-4.68c-1-9.44-1.16-17.78-1.39-24.54-.18-5.32,2.44-9.72,8-9.72h-10c-5.55,0-8.17,4.4-8,9.72.47,14.07.66,35,8.76,58.52,13.65,39.57,55.05,38.5,73,38.5h36.77C380.42,428.19,343.81,426.46,331.14,388.68Z" style="fill: #f4c87a"/>
        <path d="M543.61,318.56a6.6,6.6,0,0,0-5.87,2.94,12.23,12.23,0,0,0-1.82,6,170.78,170.78,0,0,1-4.72,26.2,5.7,5.7,0,0,1-5.53,4.29h-9.61a3.17,3.17,0,0,1-3-4,132.3,132.3,0,0,0,4.05-23.75c.39-4.9,2.56-8.67,7.68-8.67h-10c-5.11,0-7.28,3.77-7.68,8.67-.62,7.52-2.11,18.82-5.74,29.29-4.46,12.86-18.41,18.9-35.1,21.26a143.41,143.41,0,0,1-20,1.27h11.19c6.83,0,26.21-1.27,29.76-1.27,24.58,0,48.93-4.88,55.11-23.16a103.28,103.28,0,0,0,3.08-11.41A149.42,149.42,0,0,0,548,327.46c.4-5,2.57-8.9,7.68-8.9Z" style="fill: #f4c87a"/>
      </g>
      <path d="M425.17,412.34s-12.34,14.6-14.12,17.84c-9.35,16.94-8.2,39,5.66,62.14,27.71,46.3,95.78,79.46,152,74.05,17.16-1.65,31.24-6.7,41.73-14.24,9.8-7,21.2-22.36,21.2-22.36Z" style="fill: #f2b85a"/>
      <path d="M476.88,389c-56.26,5.4-79.38,47.32-51.67,93.62s95.79,79.46,152,74,79.37-47.33,51.66-93.63-95.79-79.45-152-74Z" style="fill: #fffbf5"/>
      <path d="M505.62,433.73c-25.55,2.46-36.06,21.49-23.47,42.52s43.51,36.1,69.06,33.64,36-21.5,23.46-42.53-43.51-36.08-69-33.63Z" style="fill: #fcf4e6"/>
      <path d="M574.67,467.36c-12.59-21-43.51-36.08-69-33.63-11.23,1.08-19.56,5.37-24.29,11.62,4.7-3.52,11.09-5.89,19-6.65,24.93-2.39,55.1,12.3,67.39,32.83,8.88,14.83,6,28.65-5.71,36.08C579.46,501.49,585.31,485.14,574.67,467.36Z" style="fill: #f2b85a"/>
      <g>
        <path d="M482,393.22c-8.62.83-12.16,7.25-7.92,14.33s14.66,12.16,23.28,11.34,12.15-7.24,7.91-14.34S490.61,392.39,482,393.22Z" style="fill: #ffde9c"/>
        <path d="M559.09,522c-8.61.82-12.16,7.24-7.92,14.33s14.67,12.16,23.29,11.33,12.15-7.24,7.9-14.33S567.7,521.16,559.09,522Z" style="fill: #ffde9c"/>
        <path d="M442.33,465.12c-8.61.83-12.16,7.25-7.91,14.33s14.66,12.16,23.28,11.34,12.15-7.24,7.9-14.34-14.66-12.16-23.27-11.33Z" style="fill: #ffde9c"/>
        <path d="M514.07,516.89c-5.34.51-9.19,3.27-9.67,7.61-.72,6.53,6.47,14.16,16,17a23.48,23.48,0,0,0,9,1c5.34-.51,9.18-3.27,9.66-7.61.71-6.53-6.46-14.16-16-17a23.45,23.45,0,0,0-9-1Z" style="fill: #ffde9c"/>
        <path d="M433.6,431.4c-5.34.51-9.19,3.27-9.67,7.61-.71,6.53,6.48,14.16,16.05,17a23.43,23.43,0,0,0,9,1c5.34-.51,9.19-3.27,9.66-7.61.72-6.52-6.46-14.16-16-17a23.5,23.5,0,0,0-9-1Z" style="fill: #ffde9c"/>
        <path d="M470.81,495.39a12.86,12.86,0,0,0-6.59,2.33c-5.47,4.16-3.52,12.23,4.36,18,5.38,4,12.13,5.83,17.62,5.31a12.89,12.89,0,0,0,6.57-2.34c5.49-4.16,3.53-12.23-4.36-18-5.38-4-12.12-5.83-17.6-5.3Z" style="fill: #ffde9c"/>
        <path d="M592.16,510.27a12.89,12.89,0,0,0-6.58,2.34c-5.48,4.16-3.53,12.23,4.36,18,5.38,4,12.13,5.83,17.61,5.3a12.86,12.86,0,0,0,6.59-2.33c5.47-4.16,3.51-12.24-4.38-18-5.37-4-12.12-5.83-17.6-5.3Z" style="fill: #ffde9c"/>
        <path d="M448.91,404.93a12.89,12.89,0,0,0-6.58,2.34c-5.49,4.16-3.53,12.23,4.36,18,5.38,4,12.13,5.83,17.61,5.31a12.89,12.89,0,0,0,6.58-2.34c5.47-4.16,3.52-12.24-4.37-18-5.37-4-12.12-5.83-17.6-5.3Z" style="fill: #ffde9c"/>
      </g>
      <path d="M780.17,631c-.54-18.19-12.31-20.09-19.24-19.54,9.67-.8,7.12-8.71,2.64-10.54h0l4.48,1.84a18.9,18.9,0,0,1,11.79,17Z" style="fill: #f4c87a"/>
    </g>
    <ellipse cx="290.04" cy="653.27" rx="9.96" ry="14.58" style="fill: #f4c87a"/>
    <path d="M211.94,657.26v12.45c33-7.35,57.09-12.56,77.46-10.4,4.35,1.08,7.76-10.78,1.28-12.09C268.94,644.93,244.71,650,211.94,657.26Z" style="fill: #e89e34"/>
    <g>
      <path d="M462.66,184.13a1.11,1.11,0,0,1-.73,1.14c-16.3,5.56-37.36,7.53-52.25,5.74a1.11,1.11,0,0,1-1-.91,409.11,409.11,0,0,0-7.31-41.55,1.07,1.07,0,0,1,.66-1.21,138.9,138.9,0,0,1,24.15-6.54,127,127,0,0,1,31.48-1.45,1.1,1.1,0,0,1,1,1C459.45,153.92,460.86,168.65,462.66,184.13Z" style="fill: #626f70"/>
      <path d="M420,201.4c-.28.1-15.88,1.33-19.12,0s-5.7-8.65-2.18-11.41,15.88-9.23,38.62-11.89,30.36-1.43,35-.95,5.42,8.18.57,11.41-25.61,7.32-25.61,7.32Z" style="fill: #515e5e"/>
      <path d="M456.23,185.16s6-.28,8.48-.58.83,2.53-.9,3a14.56,14.56,0,0,1-2.38.5Z" style="fill: #384242"/>
      <path d="M414.88,192.15s-5.68,2.18-6.6,2.63.22,1.93,2.14,2.09a12,12,0,0,0,4.46-.84Z" style="fill: #384242"/>
      <path d="M461.22,241.57,447.51,251.9l-19.07-7-.07-11.54a19.3,19.3,0,0,1-7.83-6.23c-4.28-5.5-7.77-14.57-8.3-22.6s-.39-11-.39-11,8.26-5,29.83-7.38c5.87-.64,19.19-1.14,19.19-1.14l-.78,25.8.22,12.68v.4Z" style="fill: #ffd3c2"/>
      <path d="M462.5,217.86c-.79,3.46-.7,5.69-2.16,5.67h0c-1.47-.05-4.35-2.29-5.36-4.28s-1.45-5.94-1-7.17,2.79-3.35,2.57-4.7.52-8.47-.67-9.62a1.64,1.64,0,0,0-2.28.16c-.49.69-.22,2.64-.13,3.6a1.05,1.05,0,0,1-.87,1.13h0a1.06,1.06,0,0,1-1.2-.77c-.54-2-1.9-6.85-3.12-8.07-1.57-1.57-4.79-4.12-5.92-5.79a6.75,6.75,0,0,1-.65-1.83,187.74,187.74,0,0,1,19.19-1.14h0s1.47,7.94,2,10.74S463.28,214.39,462.5,217.86Z" style="fill: #473f3d"/>
      <path d="M428.38,234.92l18.84,10.48L460.75,231A1.44,1.44,0,0,1,462.5,232c.29,1.37,2.74,18.67,2.74,18.67l3,35.6-36.27,2.28-6.1-44s.53-6.57.7-8.11A1.89,1.89,0,0,1,428.38,234.92Z" style="fill: #f9f8f4"/>
      <path d="M368.14,359.06c-.7,2.91-2.28,9.59-2.28,9.59a15.27,15.27,0,0,0,2.83,2.31,32.77,32.77,0,0,1,.58,5.71c-.06,2.33-.66,4.12.8,6s10.22,5.51,14.08,4.84,5.69-2.58,6.23-3.78,1.19-9.37.73-10.44a8.46,8.46,0,0,0-1.24-1.94l1.07-9.34Z" style="fill: #f9f8f4"/>
      <path d="M555,357.24c-1.29.95-7.39-3.11-8.26-3.86a16.15,16.15,0,0,0-7.35-3.82s-.17,7.3-.71,9-1.66,3-3.65,2.86-2.12-2.9-2.12-4.25-1-9.28-1-9.28l-2.5-2.65h0L525,340.54l16.31-10.86a16.7,16.7,0,0,0,5.86,3c2.79.77,11.12,7.48,12,10.63S559.07,354.24,555,357.24Z" style="fill: #f9f8f4"/>
      <polygon points="406.86 375.37 406.72 380.58 411.45 380.78 425.66 380.72 413.91 355.5 406.86 375.37" style="fill: #384242"/>
      <path d="M492.06,441.51a20.34,20.34,0,0,0,4.63,7.83c1.39,1.16,6.54,4.4,7.37,6.62a26.73,26.73,0,0,1,1.11,5.8s-15.64,7.34-21.34,5.67a107,107,0,0,1-12-4.55l-7.23-23.5Z" style="fill: #384242"/>
      <path d="M532.51,412.78a27.73,27.73,0,0,0,3.8,3.86c1.62,1.19,14.06,6.49,16.76,7s3.31,6.93,3.31,6.93-9.81,6.22-14.8,8-16.71,3.61-16.71,3.61l-13.37-19Z" style="fill: #384242"/>
      <path d="M414.75,345.55s-8.92,30.55,1.1,35.23h1.68L447.62,393,462,449.34l30.06-7.83-12.2-50.83,29,39.65,23.68-17.55s-30.13-42.12-32.54-45.4a32.16,32.16,0,0,0-11.16-8.57c-3.47-1.46-15.15-6.69-15.15-6.69l-2.25-15.86L424,333.16Z" style="fill: #515e5e"/>
      <path d="M414.92,353.62s.23,15.08,2.92,18.47c2.21,2.78,23.78,10.05,31.45,12.57a5.14,5.14,0,0,1,3.39,3.64l15.24,59.5,2.2-.57-15-59.16a8,8,0,0,0-5.45-5.66c-8.55-2.54-27-8.29-29.81-11.49-3.63-4.18-3.16-22.33-3.16-22.33Z" style="fill: #384242"/>
      <path d="M479.86,390.68s-1.69-6.83-2.16-8.52-5.18-8.8-8.07-10.3-19.09-11-19.09-11-.19-1.79,2.44,0,17.41,8.49,19.2,9.62,7.12,7,8.15,11,3.7,15,3.7,15Z" style="fill: #384242"/>
      <polygon points="515.61 425.31 479.14 381.26 480.49 386.49 513.37 426.96 515.61 425.31" style="fill: #384242"/>
      <polygon points="428.1 265.87 449.73 279.18 467.6 263.27 469.98 336.89 458.28 346.47 450.33 338.35 444.3 348.59 420.41 335.42 428.1 265.87" style="fill: #e2e0d9"/>
      <polygon points="425.98 245.66 435.84 253.1 435.84 251.31 425.98 243.61 425.98 245.66" style="fill: #e2e0d9"/>
      <polygon points="446.71 254.45 449.36 285.1 451.01 285.1 448.9 254.81 446.71 254.45" style="fill: #e2e0d9"/>
      <path d="M414.77,245.66l-9.91,3.07s-3.51.62-4.08,1.2a25,25,0,0,0-1.86,4.29L381.77,304l-13.63,55.1,27.58,10.51,11-47.84,4.53-16s.27,26.55.18,34.46-7.21,40.3-7.21,40.3l2.53.08s6.76-27.45,15.85-32.11c6.26-3.21,13.27-23.58,13.27-31.17l-10-50.51Z" style="fill: #626f70"/>
      <path d="M414,244.3a75.32,75.32,0,0,1,10.93-4.62,1.47,1.47,0,0,1,1.86,1c1.22,4.85,4.86,20.7,6.06,27.77,1.44,8.46,2.93,44,3,48.81a2.37,2.37,0,0,1-2.46-1.81c-.56-2-10.93-40.31-10.93-40.31s-7.67-23.87-9.32-29A1.73,1.73,0,0,1,414,244.3Z" style="fill: #515e5e"/>
      <path d="M464.69,315c.4,4.16,1.83,20.21,3.51,23.85,3.16,6.87,5.46,13.25,5.46,13.25l2.28,1s-3.08-14.09-3.25-22.21,2.12-34.79,2.12-34.79l11.9,19.41a30.73,30.73,0,0,0,6,7.13L526,349.62l15.27-19.93L507.94,299.2,487,252.76a15.1,15.1,0,0,0-1.41-3.18c-.54-.55-3.44-1.32-3.44-1.32l-10.9-5.85Z" style="fill: #626f70"/>
      <path d="M461.52,238.1a1.52,1.52,0,0,1,2-.74c1.24.61,9.28,4.22,9.73,4.5a2.24,2.24,0,0,1,.87,2.42c-.22,1.37-2.91,23.46-3.27,26.77s-4.44,41.59-4.46,42.39a1.63,1.63,0,0,1-1.66,1.58s-2.45-36.2-2.95-40.95-1-24.54-1-24.54Z" style="fill: #515e5e"/>
      <path d="M368.69,371s.09-4.28-2.13-5.26l-.7,2.95A6.92,6.92,0,0,0,368.69,371Z" style="fill: #efeeea"/>
      <path d="M389.87,371.34c-2.33-2.67-8.58-4-10.7-4.45s-3.91-5.12-3.91-5.12l15.05,5.74Z" style="fill: #efeeea"/>
      <path d="M539.37,349.56s-.17,7.3-.71,9-1.66,3-3.65,2.86-2.12-2.9-2.12-4.25-1-9.28-1-9.28l-2.5-2.65h0l2.5-3.27C533.9,347.12,539.37,349.56,539.37,349.56Z" style="fill: #efeeea"/>
      <path d="M442.15,244.49a16.89,16.89,0,0,1,8.42-.79l8-3.26a1.91,1.91,0,0,1,2.5,1.1,20.13,20.13,0,0,1,.71,12.94,1.91,1.91,0,0,1-2.11,1.37l-7.95-1.22a24.38,24.38,0,0,1-8.08.48l-7.08,3.81a1.9,1.9,0,0,1-2.69-1.05,32.25,32.25,0,0,1-1.84-13,1.9,1.9,0,0,1,2.21-1.76Z" style="fill: #a0d175"/>
      <path d="M411.22,305.75c1.9-7.26,2.38-7.75,2.67-9.21s1.56-1.45,1,1.27-3.6,18.65-3.6,18.65Z" style="fill: #515e5e"/>
      <path d="M474.81,296.14s1.58-17.07,2.1-20,1.48-3,1.4.62-.48,24.34-.48,24.34Z" style="fill: #515e5e"/>
      <ellipse cx="450.78" cy="309.02" rx="1.42" ry="2.64" style="fill: #515e5e"/>
      <ellipse cx="450.78" cy="288.57" rx="1.42" ry="2.64" style="fill: #515e5e"/>
      <ellipse cx="450.78" cy="328.24" rx="1.42" ry="2.64" style="fill: #515e5e"/>
      <path d="M455.4,206.43c0-.1.16-6.33-.22-6.85s-.64-.41-.72.19a18.65,18.65,0,0,0,.16,4.42C454.9,205.07,455.2,208.5,455.4,206.43Z" style="fill: #e8a397"/>
      <path d="M428.37,233.41A19.79,19.79,0,0,0,435,234c2,0,13.37-5.51,15.28-7.48s2.07.34.73,1.9-10.46,8.28-14,9.08a29.57,29.57,0,0,1-3,.5l-5.61-3.12Z" style="fill: #e8a397"/>
      <path d="M411.71,321.81A51.85,51.85,0,0,0,425,323.56a.65.65,0,0,1,.56.78l-.71,7.28a.62.62,0,0,1-.55.62,30,30,0,0,1-13.93-2.65.77.77,0,0,1-.35-.81l1.06-6.42A.58.58,0,0,1,411.71,321.81Z" style="fill: #515e5e"/>
      <path d="M472.84,324.18l1.19,6.47a.65.65,0,0,1-.29.7,3.88,3.88,0,0,1-1.75.58.58.58,0,0,1-.52-.66l.33-6.89Z" style="fill: #515e5e"/>
      <path d="M442.15,244.49a64.3,64.3,0,0,0,.35,6.44,21,21,0,0,0,1.11,4.18,1.44,1.44,0,0,1-1.49-.73,12.71,12.71,0,0,1-1.1-4.07,12.22,12.22,0,0,1,.05-4.44C441.44,244.53,442.15,244.49,442.15,244.49Z" style="fill: #6e9b59"/>
      <path d="M450.57,243.7a20.89,20.89,0,0,1,1.05,5.34,26.34,26.34,0,0,1,.07,5.59,1.46,1.46,0,0,0,1.21-1,14.1,14.1,0,0,0-1.07-9.12A1.44,1.44,0,0,0,450.57,243.7Z" style="fill: #6e9b59"/>
      <ellipse cx="374.95" cy="352.63" rx="2.48" ry="1.37" transform="translate(-57.56 631.69) rotate(-76.07)" style="fill: #515e5e"/>
      <ellipse cx="376.86" cy="344.94" rx="2.48" ry="1.37" transform="translate(-48.64 627.7) rotate(-76.07)" style="fill: #515e5e"/>
      <ellipse cx="522.89" cy="341.39" rx="1.37" ry="2.48" transform="translate(-77.46 513.28) rotate(-49.12)" style="fill: #515e5e"/>
      <ellipse cx="516.9" cy="336.2" rx="1.37" ry="2.48" transform="translate(-75.6 506.96) rotate(-49.12)" style="fill: #515e5e"/>
      <path d="M428.72,215.52c-1.1.37-3.17-.51-3.59-.65s-.08-1,.85-1,4.7-.66,5.16-.69,1,.44.36.95A9.07,9.07,0,0,1,428.72,215.52Z" style="fill: #e8a397"/>
      <ellipse cx="436.6" cy="200.47" rx="1.81" ry="3.61" transform="translate(-25.45 68.88) rotate(-8.77)" style="fill: #473f3d"/>
      <ellipse cx="420.07" cy="204.29" rx="1.81" ry="3.61" transform="matrix(0.99, -0.15, 0.15, 0.99, -26.23, 66.41)" style="fill: #473f3d"/>
      <path d="M439.53,195.79a24.32,24.32,0,0,0-5.65-.71,17,17,0,0,0-3.11.64.68.68,0,0,1-.77-.27l-.63-1a.67.67,0,0,1,.29-1,11.86,11.86,0,0,1,4.39-1,11.21,11.21,0,0,1,5,1.51.68.68,0,0,1,.35.54Z" style="fill: #473f3d"/>
      <path d="M421.17,197.7a.31.31,0,0,1-.38.31,6.91,6.91,0,0,0-3.59.11,9.68,9.68,0,0,0-2.8,1.35l-.58-1.25a.31.31,0,0,1,.1-.38,15.29,15.29,0,0,1,3.73-2,8.54,8.54,0,0,1,3.27,0,.3.3,0,0,1,.25.31Z" style="fill: #473f3d"/>
      <path d="M432.14,225.07c-7.19.56-6.64-1.34-7.15-1.79s4,.74,7.6-.31,5.1-2.73,6.78-3.93S439.33,224.51,432.14,225.07Z" style="fill: #e8a397"/>
    </g>
    <g>
      <path d="M646,748.2l1.8,14.84a5.54,5.54,0,0,1-.53,3.13c-2,4.07-7.75,15-12.06,15.38s-17.69.15-22.12,0a1.61,1.61,0,0,1-1.57-1.57c-.06-2,.15-5.47,2.1-7.31,2.86-2.68,6.76-11.34,7.36-14.2s2.34-14.89,2.34-14.89Z" style="fill: #384242"/>
      <path d="M696.84,736.05l5.95,11.06a5.6,5.6,0,0,1,.52,4c-1.41,5.77-5.38,21.69-7.12,24.18-2.14,3-11.57,4.1-13.41,3.42a5.39,5.39,0,0,1-3.43-4.69c0-1.52-.52-18.17-.93-20.55S675,735.22,675,735.22Z" style="fill: #384242"/>
      <path d="M594.5,440.44s-.81-16.68-2.2-25-2.55-15.37-2.55-15.37a104.47,104.47,0,0,1,27.34-4.71,170.51,170.51,0,0,1,31,2.23s-.61,12.63-.71,19.81.71,22.7.71,22.7Z" style="fill: #626f70"/>
      <path d="M581,440.86c-2,1.29-1.93,8,2.78,9.31s24.82,2.67,38.3,1.07,29.63-4,33.8-5.56,8.24-9.31,2.57-11S644,431.08,619,432.8,583.06,439.58,581,440.86Z" style="fill: #515e5e"/>
      <path d="M596.15,454.72s-.53,1.59,0,7.43,4.25,19,8,23.28,5.31,4.84,5.31,4.84l2.27,15.78,30.59-6.55-2.17-32.44Z" style="fill: #ffd3c2"/>
      <path d="M610,492.51l31.54-4.17s1.19-.38,1.49.45,2.53,12.38,2.53,12.38l-36.43,1.53s-.08-7.8,0-8.47S609.3,492.6,610,492.51Z" style="fill: #f9f8f4"/>
      <path d="M722.81,566l3.69,4.56s5.41,10.27,5.69,11.2c.45,1.5-.12,5-.12,5l-11-5.13s-.4,8.29-.82,9-4.26.88-4.8-.63-2-8.61-2-8.61l-4.63-9Z" style="fill: #f9f8f4"/>
      <polygon points="613.98 661.86 615.94 750.13 645.97 748.2 643.87 669.23 645.97 659.75 671.65 743.62 696.84 736.05 674.92 651.83 654.17 637.52 613.98 661.86" style="fill: #515e5e"/>
      <path d="M533,579.08h0s-2.45-8-3.48-9.49c-1.59-2.41-5.78-1.28-5.54.85.32,2.87.78,8.14.78,8.14s-10-5.24-12.08-5.46a5.75,5.75,0,0,0-4.61,1.76c-1,.94-2.91,6.54-1.59,11.84s14.19,11,17.95,12.48c4.43,1.77,17.63-4,17.63-4Z" style="fill: #f9f8f4"/>
      <polygon points="654.99 662.53 678.94 741.61 680.84 741.04 656.96 659.26 654.99 662.53" style="fill: #384242"/>
      <polygon points="620.74 749.82 618.23 671.66 620.74 672.38 622.74 749.69 620.74 749.82" style="fill: #384242"/>
      <path d="M594.05,507.2l19.47-9.32,15.06,1,12.62-6.35,20,1.5a14.75,14.75,0,0,1,3.53.42,12,12,0,0,1,2,2.4l28.88,29.83L722.81,566,704.9,579,679.83,552.3,665.06,540s1.59,23.52,3.06,36,5.63,41.95,6.92,48.35c1.07,5.34,7.72,31.54,8.48,35.51a1.6,1.6,0,0,1-.95,1.76l-27.1,10.81-7.84-19.1.61,21.43-37.68-2.24a1.59,1.59,0,0,1-1.5-1.59c0-8.54.84-53.1,0-68.16-.9-16.78-8.41-49.63-8.41-49.63l-15.05,15.13-41.18,32-15.9-20.67,35.23-28.91,26-40.47A6.55,6.55,0,0,1,591.5,508,7,7,0,0,1,594.05,507.2Z" style="fill: #626f70"/>
      <path d="M608.63,497.85c-.42.33-6.81,4.6-6.81,4.6a1.92,1.92,0,0,0-.74,2.22,10.48,10.48,0,0,0,.62,1.38c.83,1.51,4.45,4.42,8.3,5.59,9.81,3,35.8-1.38,40.22-7.6s3.94-9.16,4-10.06,0-1.2-1-1.57c-.59-.22-8.9-.91-9.49-.54s-10.41,2.15-12.62,2.7c-1.89.47-16.58,2.29-20.85,2.81A2.94,2.94,0,0,0,608.63,497.85Z" style="fill: #515e5e"/>
      <path d="M594.75,443.44s27.15-5.73,53.39-3.36c0,0,1.07,15.51.44,22.16s-5.75,21.3-7.32,21.95A63.55,63.55,0,0,1,629.87,487c-5.58.93-20-2.36-22.45-4.63-1.24-1.16-2.42-5.48-3.28-9.53-.34-1.57.69-1.59.74-4.21.09-3.84-1.52-10.51-1.73-11.26-.36-1.25-2.36-1-3.11-.33s0,5.19,0,5.19l-1.2.3s-2-3.37-2.73-4.32C594,455.59,594.75,443.44,594.75,443.44Z" style="fill: #473f3d"/>
      <path d="M601,459.22c.08-.49.73-1,1.05.18s1.64,6.8,1.32,8-.91.1-1.16-.95S600.79,460.64,601,459.22Z" style="fill: #e8a397"/>
      <path d="M665.06,540c-.36-5.9-1.41-18.49-1.41-19.75s1.46-2,2,0,3.91,23.54,3.91,23.54Z" style="fill: #515e5e"/>
      <path d="M600.69,553.1a62.45,62.45,0,0,1,6-5.67c1.44-1.13,2,1.38.7,3.35s-5.39,8.44-5.39,8.44Z" style="fill: #515e5e"/>
      <path d="M608.63,593.81a37,37,0,0,0,12-.38c.41-.07.77.27.85.8l1.14,8a1.12,1.12,0,0,1-.74,1.33c-5.87.83-10.94.94-14.27-.5a1.08,1.08,0,0,1-.49-1.09l.6-7.14C607.76,594.18,608.18,593.73,608.63,593.81Z" style="fill: #515e5e"/>
      <path d="M669.37,586.55l-.87.18a.5.5,0,0,0-.41.57l.77,6.25a.53.53,0,0,0,.48.46,3.85,3.85,0,0,0,2.15-.3.55.55,0,0,0,.27-.68L670,586.92A.53.53,0,0,0,669.37,586.55Z" style="fill: #515e5e"/>
      <ellipse cx="548.29" cy="591.31" rx="2.86" ry="1.36" transform="translate(-252.23 494.18) rotate(-40.24)" style="fill: #515e5e"/>
      <ellipse cx="555.86" cy="584.9" rx="2.86" ry="1.36" transform="translate(-246.3 497.56) rotate(-40.24)" style="fill: #515e5e"/>
      <ellipse cx="696.96" cy="563.93" rx="1.36" ry="2.86" transform="matrix(0.73, -0.68, 0.68, 0.73, -197.6, 623.28)" style="fill: #515e5e"/>
      <ellipse cx="703.7" cy="571.21" rx="1.36" ry="2.86" transform="translate(-200.76 629.79) rotate(-42.77)" style="fill: #515e5e"/>
    </g>
  </g>
</svg>
