<svg width="70" height="70" viewBox="0 0 70 70" fill="none" xmlns="http://www.w3.org/2000/svg">
<path fill-rule="evenodd" clip-rule="evenodd" d="M52.4601 23.5435C52.16 24.6878 41.9501 28.5628 41.3966 28.0453C40.8431 27.529 44.5104 16.8572 45.1116 16.6829C45.7123 16.508 52.7603 22.3992 52.4601 23.5435ZM24.9403 53.0908C24.4121 53.3298 17.4632 46.8748 17.5918 46.2302C17.7198 45.5862 27.9744 41.3736 28.6541 41.7271C29.3331 42.0813 25.4684 52.8529 24.9403 53.0908ZM41.4643 2.53723C38.5011 3.21809 31.8568 31.9286 31.8568 31.9286C31.8568 31.9286 3.16179 40.8336 3.24381 43.5744C3.32643 46.3146 24.9011 67.8305 28.5876 67.2364C32.2735 66.6417 38.194 37.8462 38.194 37.8462C38.194 37.8462 65.8326 29.2742 66.8075 26.1999C67.7824 23.1255 44.4269 1.85819 41.4643 2.53723Z" fill="#1E272E"/>
</svg>
