<svg width="20" height="20" viewBox="0 0 19 23" fill="none" xmlns="http://www.w3.org/2000/svg">
<g filter="url(#filter0_d)">
<path d="M12.2726 7.49991L17.8402 1.93243C18.053 1.71893 18.0533 1.37328 17.8402 1.16013C17.626 0.946625 17.2807 0.946625 17.0672 1.16013L11.5 6.72726L5.93244 1.16013C5.71997 0.946625 5.37329 0.946625 5.16013 1.16013C4.94662 1.37328 4.94662 1.71893 5.16013 1.93243L10.7273 7.49991L5.16047 13.0667C4.94697 13.2802 4.94697 13.6259 5.16047 13.8397C5.26722 13.9461 5.40692 14 5.54663 13.9997C5.68667 14 5.82638 13.9461 5.93279 13.8397L11.5 8.27257L17.0672 13.8397C17.1739 13.9461 17.314 14 17.4537 14C17.593 14 17.7331 13.9461 17.8402 13.8397C18.0533 13.6259 18.0533 13.2802 17.8398 13.0667L12.2726 7.49991Z" fill="#1E272E"/>
<path d="M12.2726 7.49991L17.8402 1.93243C18.053 1.71893 18.0533 1.37328 17.8402 1.16013C17.626 0.946625 17.2807 0.946625 17.0672 1.16013L11.5 6.72726L5.93244 1.16013C5.71997 0.946625 5.37329 0.946625 5.16013 1.16013C4.94662 1.37328 4.94662 1.71893 5.16013 1.93243L10.7273 7.49991L5.16047 13.0667C4.94697 13.2802 4.94697 13.6259 5.16047 13.8397C5.26722 13.9461 5.40692 14 5.54663 13.9997C5.68667 14 5.82638 13.9461 5.93279 13.8397L11.5 8.27257L17.0672 13.8397C17.1739 13.9461 17.314 14 17.4537 14C17.593 14 17.7331 13.9461 17.8402 13.8397C18.0533 13.6259 18.0533 13.2802 17.8398 13.0667L12.2726 7.49991Z" stroke="black"/>
</g>
<defs>
<filter id="filter0_d" x="0.5" y="0.5" width="22" height="22" filterUnits="userSpaceOnUse" color-interpolation-filters="sRGB">
<feFlood flood-opacity="0" result="BackgroundImageFix"/>
<feColorMatrix in="SourceAlpha" type="matrix" values="0 0 0 0 0 0 0 0 0 0 0 0 0 0 0 0 0 0 127 0"/>
<feOffset dy="4"/>
<feGaussianBlur stdDeviation="2"/>
<feColorMatrix type="matrix" values="0 0 0 0 0 0 0 0 0 0 0 0 0 0 0 0 0 0 0.25 0"/>
<feBlend mode="normal" in2="BackgroundImageFix" result="effect1_dropShadow"/>
<feBlend mode="normal" in="SourceGraphic" in2="effect1_dropShadow" result="shape"/>
</filter>
</defs>
</svg>
