<svg width="65" height="65" viewBox="0 0 65 65" fill="none" xmlns="http://www.w3.org/2000/svg">
<path fill-rule="evenodd" clip-rule="evenodd" d="M0 32.4986C0 14.5802 14.5802 0 32.5 0C50.4205 0 65 14.5802 65 32.4986C65 50.4198 50.4198 65 32.5 65C14.5802 65 0 50.4205 0 32.4986ZM2.29956 32.4986C2.29956 49.1516 15.847 62.7004 32.5 62.7004C49.153 62.7004 62.7004 49.1523 62.7004 32.4986C62.7004 15.847 49.153 2.29956 32.5 2.29956C15.847 2.29956 2.29956 15.8463 2.29956 32.4986Z" fill="#33B946"/>
<path d="M46.48 19.1825C45.9528 18.8394 45.2527 18.9944 44.9155 19.527L31.329 40.9385C31.0337 41.4027 30.646 41.6751 30.2376 41.7039C29.8257 41.7298 29.4095 41.5172 29.0531 41.0956L20.9917 31.5696C20.5854 31.0904 19.8704 31.0334 19.3952 31.4457C18.9207 31.8572 18.8659 32.5822 19.2721 33.0629L27.3335 42.5896C28.0997 43.4934 29.1207 44 30.1672 44C30.2426 44 30.3173 43.9978 30.3927 43.9914C31.5168 43.9128 32.5513 43.2519 33.2335 42.1774L46.8193 20.768C47.1587 20.2347 47.0057 19.5255 46.48 19.1825Z" fill="#38BC4B"/>
</svg>
