<svg width="38" height="54" viewBox="0 0 38 54" fill="none" xmlns="http://www.w3.org/2000/svg">
<mask id="mask0" mask-type="alpha" maskUnits="userSpaceOnUse" x="18" y="6" width="4" height="11">
<path fill-rule="evenodd" clip-rule="evenodd" d="M20.1469 16.1986C19.6299 16.6878 18.9831 16.8694 18.2002 16.7766C19.6401 14.3791 19.6331 8.78382 19.5651 6.5518C19.9459 6.54144 20.7045 6.5119 21.6893 6.43994C21.934 8.53602 22.1335 14.3088 20.1469 16.1986Z" fill="white"/>
</mask>
<g mask="url(#mask0)">
<path fill-rule="evenodd" clip-rule="evenodd" d="M18.1865 16.8055H21.8489V6.43994H18.1865V16.8055Z" fill="white"/>
</g>
<mask id="mask1" mask-type="alpha" maskUnits="userSpaceOnUse" x="26" y="5" width="6" height="10">
<path fill-rule="evenodd" clip-rule="evenodd" d="M31.64 14.28L26.04 6.15192C27.521 5.9002 28.99 5.54166 30.1772 5.04004L31.64 14.28Z" fill="white"/>
</mask>
<g mask="url(#mask1)">
<path fill-rule="evenodd" clip-rule="evenodd" d="M26.0312 14.2856H31.6424V5.02881H26.0312V14.2856Z" fill="white"/>
</g>
<mask id="mask2" mask-type="alpha" maskUnits="userSpaceOnUse" x="7" y="0" width="12" height="6">
<path fill-rule="evenodd" clip-rule="evenodd" d="M8.89833 0.00561523H9.06694C9.13038 0.0140653 9.19264 0.0320507 9.25118 0.0593752C9.27414 0.0695952 11.8193 1.19842 18.176 1.38966V5.2006C18.176 5.2433 18.1912 5.28054 18.1998 5.32002C16.3678 5.25282 10.8882 4.9367 7.99916 3.61104C7.94764 3.58808 7.89458 3.58332 7.83984 3.5731L8.36764 0.504435C8.40488 0.313895 8.52766 0.154995 8.70126 0.0665152C8.76361 0.0349337 8.83035 0.0147138 8.89833 0.00561523V0.00561523Z" fill="white"/>
</mask>
<g mask="url(#mask2)">
<path fill-rule="evenodd" clip-rule="evenodd" d="M7.83691 5.33122H18.2025V0.00561523H7.83691V5.33122Z" fill="white"/>
</g>
<mask id="mask3" mask-type="alpha" maskUnits="userSpaceOnUse" x="6" y="4" width="6" height="10">
<path fill-rule="evenodd" clip-rule="evenodd" d="M7.71878 4.76001C8.85782 5.25099 10.2902 5.60897 11.7602 5.86797L6.16016 13.72L7.71878 4.76001Z" fill="white"/>
</mask>
<g mask="url(#mask3)">
<path fill-rule="evenodd" clip-rule="evenodd" d="M6.15723 13.7312H11.7684V4.76001H6.15723V13.7312Z" fill="white"/>
</g>
<mask id="mask4" mask-type="alpha" maskUnits="userSpaceOnUse" x="17" y="6" width="21" height="50">
<path fill-rule="evenodd" clip-rule="evenodd" d="M37.2399 54.1804C37.2363 54.4709 37.0338 54.7275 36.7428 54.7899C36.5101 54.8382 30.998 55.9999 26.6674 55.9999C26.4102 55.9999 26.1586 55.996 25.9118 55.9872C25.5914 55.9753 25.3294 55.7248 25.308 55.4044C25.2883 55.1451 23.3781 29.8881 19.0277 21.5024L17.9199 17.9388C18.1257 17.9681 18.3353 18.0006 18.5331 18.0006C19.4756 18.0006 20.2946 17.6835 20.9702 17.049C23.7793 14.4283 23.0134 7.08853 22.9263 6.34387C23.4398 6.29557 23.9787 6.23285 24.5366 6.15991C24.5531 6.20513 24.5642 6.25343 24.5912 6.29557L31.9832 17.0299L33.171 24.5339L37.2342 54.0865C37.2377 54.1127 37.2396 54.1386 37.2399 54.1644V54.1804Z" fill="white"/>
</mask>
<g mask="url(#mask4)">
<path fill-rule="evenodd" clip-rule="evenodd" d="M17.917 55.9999H37.2538V6.1543H17.917V55.9999Z" fill="white"/>
</g>
<mask id="mask5" mask-type="alpha" maskUnits="userSpaceOnUse" x="0" y="6" width="19" height="50">
<path fill-rule="evenodd" clip-rule="evenodd" d="M0.00878906 54.5758V54.371L4.08923 25.0266L5.51317 16.7434L12.9721 6.15991C15.1583 6.46091 17.1971 6.56395 18.1797 6.59881C18.3015 10.4666 17.9012 15.7865 16.576 16.5461C16.3189 16.6942 16.1973 16.9969 16.2887 17.278L17.8033 22.1219C17.8607 22.3016 18.0898 22.6455 18.0556 22.7254C14.0771 32.0717 12.3205 55.1524 12.3015 55.4003C12.2784 55.7203 12.0167 55.9706 11.6944 55.9826C11.3803 55.9928 11.0573 55.9999 10.7255 55.9999C6.38117 55.9999 0.768709 55.1318 0.533929 55.0937C0.259361 55.0514 0.0520986 54.8363 0.00878906 54.5758Z" fill="white"/>
</mask>
<g mask="url(#mask5)">
<path fill-rule="evenodd" clip-rule="evenodd" d="M0.00878906 55.9999H18.2032V6.1543H0.00878906V55.9999Z" fill="white"/>
</g>
<mask id="mask6" mask-type="alpha" maskUnits="userSpaceOnUse" x="19" y="0" width="11" height="6">
<path fill-rule="evenodd" clip-rule="evenodd" d="M28.6902 0.00561524H28.8589C28.9284 0.0148119 28.9967 0.0353685 29.0608 0.0670752C29.232 0.155415 29.3544 0.314595 29.3922 0.502335L29.7782 2.44834L29.9596 3.5948C29.9518 3.59872 29.9431 3.59634 29.9359 3.6011C26.8055 5.04408 20.7777 5.2853 19.5996 5.32002C19.6083 5.27592 19.6248 5.2349 19.6248 5.18674V1.38546C25.9542 1.19464 28.4872 0.0686152 28.5124 0.0568552C28.5693 0.0307718 28.6292 0.0137393 28.6902 0.00561523L28.6902 0.00561524ZM21.0136 4.36284C21.5124 4.36284 21.918 3.95362 21.918 3.45046C21.918 2.9522 21.5124 2.54536 21.0136 2.54536C20.5102 2.54536 20.1015 2.9522 20.1015 3.45046C20.1015 3.95362 20.5102 4.36284 21.0136 4.36284Z" fill="white"/>
</mask>
<g mask="url(#mask6)">
<path fill-rule="evenodd" clip-rule="evenodd" d="M19.5967 5.33122H29.9623V0.00561523H19.5967V5.33122Z" fill="white"/>
</g>
</svg>
